<svg xmlns="http://www.w3.org/2000/svg" width="58" height="56" viewBox="0 0 58 56">
  <g id="Grupo_965348" data-name="Grupo 965348" transform="translate(-285 -3411)">
    <rect id="Rectángulo_340713" data-name="Rectángulo 340713" width="58" height="56" transform="translate(285 3411)" fill="#80cab6"/>
    <path id="Trazado_729877" data-name="Trazado 729877" d="M19.727,0a9.488,9.488,0,0,1-.635-2.783A10.077,10.077,0,0,1,11.572.488,9.325,9.325,0,0,1,5.164-1.721a7.148,7.148,0,0,1-2.5-5.6A7.468,7.468,0,0,1,5.8-13.733q3.137-2.283,8.826-2.283h4.395v-2.075A5.073,5.073,0,0,0,17.6-21.863a5.691,5.691,0,0,0-4.175-1.4,6.586,6.586,0,0,0-4.053,1.221,3.6,3.6,0,0,0-1.636,2.954H3.2a6.233,6.233,0,0,1,1.4-3.821A9.581,9.581,0,0,1,8.411-25.83,12.813,12.813,0,0,1,13.7-26.9a10.443,10.443,0,0,1,7.153,2.283,8.235,8.235,0,0,1,2.686,6.287V-6.177a14.865,14.865,0,0,0,.928,5.786V0Zm-7.5-3.442a7.938,7.938,0,0,0,4.028-1.1A6.645,6.645,0,0,0,19.019-7.4v-5.42h-3.54q-8.3,0-8.3,4.858a4.112,4.112,0,0,0,1.416,3.32A5.443,5.443,0,0,0,12.231-3.442Z" transform="translate(298 3453)" fill="#fff"/>
  </g>
</svg>
