<svg xmlns="http://www.w3.org/2000/svg" width="58" height="56" viewBox="0 0 58 56">
  <g id="Grupo_965350" data-name="Grupo 965350" transform="translate(-285 -3588)">
    <rect id="Rectángulo_340717" data-name="Rectángulo 340717" width="58" height="56" transform="translate(285 3588)" fill="#80cab6"/>
    <path id="Trazado_729879" data-name="Trazado 729879" d="M14.014-3.2a6.506,6.506,0,0,0,4.224-1.465,5.154,5.154,0,0,0,2-3.662h4.272A8.19,8.19,0,0,1,22.949-4,10.291,10.291,0,0,1,19.1-.732,11.1,11.1,0,0,1,14.014.488a10.882,10.882,0,0,1-8.582-3.6q-3.186-3.6-3.186-9.851v-.757a15.9,15.9,0,0,1,1.416-6.86,10.785,10.785,0,0,1,4.065-4.663,11.547,11.547,0,0,1,6.262-1.66,10.594,10.594,0,0,1,7.385,2.661,9.511,9.511,0,0,1,3.137,6.909H20.239A6.224,6.224,0,0,0,18.3-21.545a6.038,6.038,0,0,0-4.309-1.648,6.322,6.322,0,0,0-5.334,2.478Q6.763-18.237,6.763-13.55v.854q0,4.565,1.88,7.031A6.352,6.352,0,0,0,14.014-3.2Z" transform="translate(298 3630)" fill="#fff"/>
  </g>
</svg>
