<svg xmlns="http://www.w3.org/2000/svg" width="90" height="90" viewBox="0 0 90 90"><g transform="translate(-1125 -18492)"><circle cx="45" cy="45" r="45" transform="translate(1125 18492)" fill="#80cab6"/><g transform="translate(1090.887 18508)"><g transform="translate(56.958 0.845)"><path d="M199.887,256h12.648v16.262H199.887Z" transform="translate(-184.529 -227.994)" fill="#e2a975"/><path d="M229.356,404.922h-3.614l-1.807-12.648h7.228Z" transform="translate(-205.866 -348.909)" fill="#f4dbb3"/><path d="M73.551,328.145l-5.775,2.1a6.324,6.324,0,0,0-4.163,5.943V348.02H83.488v-9.034Z" transform="translate(-63.613 -292.008)" fill="#ff8086"/><path d="M199.887,260.852a14.321,14.321,0,0,0,12.648,0V256H199.887Z" transform="translate(-184.529 -227.994)" fill="#d19a6e"/><path d="M148.184,109.114h-1.355v-5.421H123.34v5.421h-.9c-1.247,0-2.71,1.011-2.71,2.259a2.259,2.259,0,0,0,2.259,2.259h1.4a11.733,11.733,0,0,0,23.4,0h1.4a2.259,2.259,0,0,0,0-4.517Z" transform="translate(-113.402 -92.852)" fill="#ecbd83"/><path d="M126.953,112.728v-9.034H123.34v5.421h-1.355a2.259,2.259,0,0,0,0,4.517h1.4A11.661,11.661,0,0,0,136.9,124.321a11.737,11.737,0,0,1-9.943-11.592Z" transform="translate(-113.402 -92.853)" fill="#e2a975"/><path d="M151.79,87.661l3.616,6.869a21.08,21.08,0,0,0,9.935-5.062l.9,3.614s4.517-.9,7.227-3.614v3.614a1.807,1.807,0,0,0,1.807,1.807h1.807V87.661Z" transform="translate(-141.852 -78.627)" fill="#6e4848"/><path d="M141.179,87.661h-3.614l-1.807,1.807v5.324a17.713,17.713,0,0,0,5.421-.274Z" transform="translate(-127.627 -78.627)" fill="#643c3e"/><path d="M153.827,7.5h-9.034a9.034,9.034,0,0,0-9.034,9.034v1.807h27.1V16.534A9.034,9.034,0,0,0,153.827,7.5Z" transform="translate(-127.628 -7.5)" fill="#ff8086"/><path d="M161.728,321.414a2.719,2.719,0,0,0-1.011-2.105,17.621,17.621,0,0,1-4.044-4.663.9.9,0,0,0-1.116-.385l-3.767,1.507a27.851,27.851,0,0,0,9.938,10.7v-5.05Z" transform="translate(-141.852 -279.631)" fill="#f5ebcd"/><path d="M150.213,7.5h-5.421a9.034,9.034,0,0,0-9.034,9.034v1.807h5.421V16.534A9.034,9.034,0,0,1,150.213,7.5Z" transform="translate(-127.627 -7.5)" fill="#e5646e"/><path d="M326.272,71.629h-4.336a1.807,1.807,0,0,0-1.807,1.807v1.807h6.324V73.436A9.081,9.081,0,0,0,326.272,71.629Z" transform="translate(-291.22 -64.402)" fill="#e5646e"/><path d="M281.97,328.145l5.775,2.1a6.324,6.324,0,0,1,4.163,5.943V348.02H272.032v-9.034Z" transform="translate(-248.543 -292.008)" fill="#ff8086"/><path d="M272.032,321.414a2.719,2.719,0,0,1,1.011-2.105,17.622,17.622,0,0,0,4.044-4.663.9.9,0,0,1,1.116-.385l3.767,1.507a27.851,27.851,0,0,1-9.938,10.7v-5.05Z" transform="translate(-248.543 -279.631)" fill="#f5ebcd"/></g><g transform="translate(56.113 0)"><path d="M210.11,154.055v-.9a.845.845,0,0,0-1.691,0v.9a.845.845,0,0,0,1.691,0Z" transform="translate(-191.254 -135.141)"/><path d="M289.426,154.9a.845.845,0,0,0,.845-.845v-.9a.845.845,0,1,0-1.691,0v.9A.845.845,0,0,0,289.426,154.9Z" transform="translate(-262.382 -135.141)"/><path d="M121.087,440.887a.845.845,0,0,0-.845.845v6.324a.845.845,0,0,0,1.691,0v-6.324A.845.845,0,0,0,121.087,440.887Z" transform="translate(-113.015 -391.198)"/><path d="M96.449,38.288l-5.762-2.1-3.755-1.5a1.744,1.744,0,0,0-1.122-.062V31.063a12.608,12.608,0,0,0,5.3-8.594h.5a3.2,3.2,0,0,0,3.217-2.787,3.1,3.1,0,0,0-1.791-3.135V9.88A9.891,9.891,0,0,0,83.158,0H74.124a9.891,9.891,0,0,0-9.88,9.88v.962H57.862a.845.845,0,1,0,0,1.691h6.383v.962a.845.845,0,1,0,1.691,0v-.962H77.8a22.874,22.874,0,0,1-11.81,3.73H65.67a3.2,3.2,0,0,0-3.217,2.787,3.1,3.1,0,0,0,3.088,3.421h.631a12.6,12.6,0,0,0,5.3,8.6v3.564a1.744,1.744,0,0,0-1.122.062l-3.755,1.5-5.762,2.1a7.191,7.191,0,0,0-4.719,6.738V56.858a.845.845,0,0,0,1.691,0V45.026a5.5,5.5,0,0,1,3.606-5.149l5.074-1.845a29.135,29.135,0,0,0,9.5,10.11v8.717a.845.845,0,0,0,1.691,0v-11.8H79.6v11.8a.845.845,0,0,0,1.691,0V48.141A29.4,29.4,0,0,0,87.8,42.359a.845.845,0,0,0-1.3-1.086A27.849,27.849,0,0,1,81.293,46.1V42.629a1.865,1.865,0,0,1,.7-1.449,18.376,18.376,0,0,0,4.241-4.895.056.056,0,0,1,.071-.025l2.9,1.159c-.144.256-.327.567-.55.919a.845.845,0,0,0,1.43.9c.3-.484.541-.894.714-1.209l5.076,1.846a5.5,5.5,0,0,1,3.606,5.149V56.858a.845.845,0,0,0,1.691,0V45.026A7.192,7.192,0,0,0,96.449,38.288ZM91.347,9.88v.962H86.713V9.88a.963.963,0,0,1,.962-.962h3.614A8.233,8.233,0,0,1,91.347,9.88Zm-6.035,2.652a15.428,15.428,0,0,1-3.36,1.691l-.423-1.691Zm4.111,0h1.923v3.73h-.962a.963.963,0,0,1-.962-.962ZM65.935,9.88a8.2,8.2,0,0,1,8.189-8.189h9.034A8.2,8.2,0,0,1,90.9,7.227H87.675A2.655,2.655,0,0,0,85.023,9.88v.962H65.935Zm1.807,10.841a.845.845,0,1,0-1.691,0v.058h-.51a1.414,1.414,0,0,1-1.406-1.562,1.5,1.5,0,0,1,1.535-1.265h.323A24.948,24.948,0,0,0,79.94,13.143l.591,2.362a.844.844,0,0,0,1.025.615,16.189,16.189,0,0,0,6.177-3.327V15.3a2.655,2.655,0,0,0,2.652,2.652h1.355a1.414,1.414,0,0,1,1.406,1.562,1.5,1.5,0,0,1-1.535,1.265H91.23v-.049a.845.845,0,0,0-.845-.845h0a.845.845,0,0,0-.845.845,10.9,10.9,0,0,1-21.8-.008Zm.341,16.7,2.9-1.158a.056.056,0,0,1,.071.025A18.375,18.375,0,0,0,75.29,41.18a1.865,1.865,0,0,1,.7,1.45V46.1A27.953,27.953,0,0,1,68.082,37.418Zm12.843,2.449A3.549,3.549,0,0,0,79.6,42.629v.735H77.679v-.735a3.549,3.549,0,0,0-1.323-2.762,17.276,17.276,0,0,1-3.194-3.422V32.054a12.572,12.572,0,0,0,10.958,0v4.392A17.281,17.281,0,0,1,80.925,39.868Z" transform="translate(-56.113 0)"/><path d="M377.6,440.887a.845.845,0,0,0-.845.845v6.324a.845.845,0,0,0,1.691,0v-6.324A.845.845,0,0,0,377.6,440.887Z" transform="translate(-340.621 -391.198)"/><path d="M226.22,209.986a.845.845,0,1,0-.879-1.444,6.115,6.115,0,0,1-5.978,0,.845.845,0,1,0-.879,1.444,7.8,7.8,0,0,0,7.735,0Z" transform="translate(-199.825 -184.929)"/></g></g></g></svg>