<svg xmlns="http://www.w3.org/2000/svg" width="127" height="127" viewBox="0 0 127 127"><g transform="translate(-4809 6924)"><circle cx="63.5" cy="63.5" r="63.5" transform="translate(4809 -6924)" fill="#80cab6"/><g transform="translate(4840.985 -6892.001)"><g transform="translate(0.998 0.985)"><path d="M8,8H51.041V69.031H8Z" transform="translate(-8 -7.999)" fill="#eceff1" fill-rule="evenodd"/><path d="M182.894,8h21.52V69.031h-21.52Z" transform="translate(-161.374 -7.999)" fill="#c4cccf" fill-rule="evenodd"/></g><g transform="translate(7.035 7.023)"><path d="M57.07,369.039H68.5v10.568H57.07Z" transform="translate(-57.07 -330.652)" fill="#d5e7ff" fill-rule="evenodd"/><path d="M103.52,369.039h5.716v10.568H103.52Z" transform="translate(-97.804 -330.652)" fill="#acceff" fill-rule="evenodd"/><path d="M57.07,213.055H68.5v10.568H57.07Z" transform="translate(-57.07 -193.861)" fill="#f6dccd" fill-rule="evenodd"/><path d="M103.52,213.055h5.716v10.568H103.52Z" transform="translate(-97.804 -193.861)" fill="#f1cbbc" fill-rule="evenodd"/><path d="M57.07,57.07H68.5V67.638H57.07Z" transform="translate(-57.07 -57.07)" fill="#f9e997" fill-rule="evenodd"/><path d="M103.52,57.07h5.716V67.638H103.52Z" transform="translate(-97.804 -57.07)" fill="#f5d844" fill-rule="evenodd"/></g><g transform="translate(26.047 28.499)"><path d="M244.806,254.195a2.652,2.652,0,0,1,2.755,2.518v25.7a2.652,2.652,0,0,1-2.755,2.518H214.334a2.652,2.652,0,0,1-2.755-2.518v-25.7a2.652,2.652,0,0,1,2.755-2.518Z" transform="translate(-211.579 -251.415)" fill="#d5e7ff" fill-rule="evenodd"/><path d="M373.026,254.2a2.652,2.652,0,0,1,2.755,2.518v25.7a2.652,2.652,0,0,1-2.755,2.518H357.79V254.2Z" transform="translate(-339.799 -251.415)" fill="#acceff" fill-rule="evenodd"/><path d="M211.579,261.3h35.982v-4.584a2.652,2.652,0,0,0-2.755-2.518H214.334a2.652,2.652,0,0,0-2.755,2.518Z" transform="translate(-211.579 -251.415)" fill="#76e2f8" fill-rule="evenodd"/><path d="M357.79,261.3h17.991v-4.584a2.652,2.652,0,0,0-2.755-2.518H357.79Z" transform="translate(-339.799 -251.415)" fill="#3aaaff" fill-rule="evenodd"/><path d="M254.367,231.606h1.339a1.208,1.208,0,0,1,1.2,1.2v3.882a1.208,1.208,0,0,1-1.2,1.2h-1.339a1.208,1.208,0,0,1-1.2-1.2v-3.882A1.208,1.208,0,0,1,254.367,231.606Z" transform="translate(-248.045 -231.606)" fill="#697c86" fill-rule="evenodd"/><path d="M268.392,231.606h.669a1.208,1.208,0,0,1,1.2,1.2v3.882a1.208,1.208,0,0,1-1.2,1.2h-.669Z" transform="translate(-261.401 -231.606)" fill="#3b4a51" fill-rule="evenodd"/><path d="M343.765,231.606H345.1a1.208,1.208,0,0,1,1.2,1.2v3.882a1.208,1.208,0,0,1-1.2,1.2h-1.339a1.208,1.208,0,0,1-1.2-1.2v-3.882A1.208,1.208,0,0,1,343.765,231.606Z" transform="translate(-326.443 -231.606)" fill="#697c86" fill-rule="evenodd"/><path d="M355.666,231.606h.67a1.208,1.208,0,0,1,1.2,1.2v3.882a1.208,1.208,0,0,1-1.2,1.2h-.67Z" transform="translate(-337.936 -231.606)" fill="#3b4a51" fill-rule="evenodd"/><path d="M428.7,231.606h1.339a1.208,1.208,0,0,1,1.2,1.2v3.882a1.208,1.208,0,0,1-1.2,1.2H428.7a1.208,1.208,0,0,1-1.2-1.2v-3.882A1.208,1.208,0,0,1,428.7,231.606Z" transform="translate(-400.924 -231.606)" fill="#697c86" fill-rule="evenodd"/><path d="M442.721,231.606h.669a1.208,1.208,0,0,1,1.2,1.2v3.882a1.208,1.208,0,0,1-1.2,1.2h-.669Z" transform="translate(-414.28 -231.606)" fill="#3b4a51" fill-rule="evenodd"/><path d="M260.866,352.419h5.049v5.049h-5.049Z" transform="translate(-254.801 -337.553)" fill="#f9e997" fill-rule="evenodd"/><path d="M281.384,352.419h2.524v5.049h-2.524Z" transform="translate(-272.795 -337.553)" fill="#f5d844" fill-rule="evenodd"/><path d="M336.565,352.419h5.049v5.049h-5.049Z" transform="translate(-321.186 -337.553)" fill="#f9e997" fill-rule="evenodd"/><path d="M357.082,352.419h2.524v5.049h-2.524Z" transform="translate(-339.178 -337.553)" fill="#f5d844" fill-rule="evenodd"/><path d="M413.68,352.419h5.049v5.049H413.68Z" transform="translate(-388.812 -337.553)" fill="#f9e997" fill-rule="evenodd"/><path d="M434.2,352.419h2.524v5.049H434.2Z" transform="translate(-406.804 -337.553)" fill="#f5d844" fill-rule="evenodd"/><path d="M260.866,422.459h5.049v5.049h-5.049Z" transform="translate(-254.801 -398.975)" fill="#f9e997" fill-rule="evenodd"/><path d="M281.384,422.459h2.524v5.049h-2.524Z" transform="translate(-272.795 -398.975)" fill="#f5d844" fill-rule="evenodd"/><path d="M336.565,422.459h5.049v5.049h-5.049Z" transform="translate(-321.186 -398.975)" fill="#f9e997" fill-rule="evenodd"/><path d="M357.082,422.459h2.524v5.049h-2.524Z" transform="translate(-339.178 -398.975)" fill="#f5d844" fill-rule="evenodd"/><path d="M413.68,422.459h5.049v5.049H413.68Z" transform="translate(-388.812 -398.975)" fill="#f9e997" fill-rule="evenodd"/><path d="M434.2,422.459h2.524v5.049H434.2Z" transform="translate(-406.804 -398.975)" fill="#f5d844" fill-rule="evenodd"/></g><path d="M59.273,30.3H57.347V29.7a2.191,2.191,0,0,0-2.191-2.187H53.821A2.191,2.191,0,0,0,51.63,29.7V30.3H46.622V29.7a2.191,2.191,0,0,0-1.946-2.172V.985A.984.984,0,0,0,43.692,0H1A.983.983,0,0,0,.015.985V62.017A.984.984,0,0,0,1,63H59.273a3.631,3.631,0,0,0,3.739-3.5V33.8a3.629,3.629,0,0,0-3.739-3.5ZM53.6,29.7a.224.224,0,0,1,.223-.22h1.336a.225.225,0,0,1,.223.22v3.882a.224.224,0,0,1-.223.22H53.821a.224.224,0,0,1-.223-.22Zm-1.967,2.56v1.322a2.191,2.191,0,0,0,2.19,2.187h1.336a2.191,2.191,0,0,0,2.191-2.187V32.265h1.925A1.667,1.667,0,0,1,61.044,33.8v3.6H27.029V33.8A1.667,1.667,0,0,1,28.8,32.265h1.378v1.322a2.191,2.191,0,0,0,2.191,2.187h1.336a2.191,2.191,0,0,0,2.19-2.187V32.265H40.9v1.322A2.191,2.191,0,0,0,43.1,35.774h1.336a2.191,2.191,0,0,0,2.191-2.187V32.265ZM32.147,33.587V29.7a.224.224,0,0,1,.223-.22h1.336a.224.224,0,0,1,.223.22v3.882a.224.224,0,0,1-.223.22H32.37A.224.224,0,0,1,32.147,33.587Zm12.284-4.1a.225.225,0,0,1,.223.22v3.882a.224.224,0,0,1-.223.22H43.1a.224.224,0,0,1-.223-.22V29.7a.225.225,0,0,1,.223-.22ZM1.982,1.968H42.708V27.554A2.19,2.19,0,0,0,40.9,29.7V30.3H35.9V29.7a2.191,2.191,0,0,0-2.19-2.187H32.37a2.191,2.191,0,0,0-2.19,2.187V30.3H28.8a3.629,3.629,0,0,0-3.739,3.5V59.5a3.3,3.3,0,0,0,.379,1.535H1.982Zm57.29,59.065H28.8A1.689,1.689,0,0,1,27.029,59.5V39.367H61.044V59.5a1.668,1.668,0,0,1-1.772,1.535ZM37.162,42.383a.984.984,0,0,1,.984.984v5.047a.984.984,0,0,1-.984.984H32.111a.984.984,0,0,1-.984-.984V43.367a.984.984,0,0,1,.984-.984Zm-.984,5.047H33.1v-3.08h3.083Zm10.3-5.047a.984.984,0,0,1,.984.984v5.047a.984.984,0,0,1-.984.984H41.428a.984.984,0,0,1-.984-.984V43.367a.984.984,0,0,1,.984-.984Zm-.984,5.047h-3.08v-3.08h3.08ZM37.162,51a.984.984,0,0,1,.984.984v5.047a.984.984,0,0,1-.984.984H32.111a.984.984,0,0,1-.984-.984V51.986A.984.984,0,0,1,32.111,51Zm-.984,5.047H33.1V52.97h3.083ZM46.475,51a.984.984,0,0,1,.984.984v5.047a.984.984,0,0,1-.984.984H41.428a.984.984,0,0,1-.984-.984V51.986A.984.984,0,0,1,41.428,51Zm-.984,5.047h-3.08V52.97h3.08ZM55.966,42.383a.984.984,0,0,1,.984.984v5.047a.984.984,0,0,1-.984.984h-5.05a.984.984,0,0,1-.984-.984V43.367a.984.984,0,0,1,.984-.984Zm-.984,5.047H51.9v-3.08h3.083ZM55.966,51a.984.984,0,0,1,.984.984v5.047a.984.984,0,0,1-.984.984h-5.05a.984.984,0,0,1-.984-.984V51.986A.984.984,0,0,1,50.915,51Zm-.984,5.047H51.9V52.97h3.083ZM6.052,17.594V7.022a.984.984,0,0,1,.984-.984h11.43a.984.984,0,1,1,0,1.967H8.02v8.6h9.463V13.617l-1.829,1.661a.984.984,0,0,1-1.356-.032l-2.243-2.239a.984.984,0,0,1,1.39-1.392l1.58,1.578,4.748-4.309a.984.984,0,0,1,1.322,1.457L19.45,11.832v5.763a.984.984,0,0,1-.984.984H7.036a.984.984,0,0,1-.984-.984Zm0,19.191V26.217a.984.984,0,0,1,.984-.984h11.43a.984.984,0,1,1,0,1.967H8.02v8.6h9.463v-2.99l-1.829,1.661a.983.983,0,0,1-1.357-.033L12.054,32.2a.984.984,0,0,1,1.391-1.391l1.58,1.58,4.747-4.309a.984.984,0,1,1,1.322,1.457L19.45,31.026v5.759a.984.984,0,0,1-.984.984H7.036a.983.983,0,0,1-.984-.984Zm15.11,10.553a.983.983,0,0,1-.068,1.389L19.45,50.219V55.98a.984.984,0,0,1-.984.984H7.036a.984.984,0,0,1-.984-.984V45.411a.984.984,0,0,1,.984-.984h11.43a.984.984,0,1,1,0,1.967H8.02V55h9.463V52l-1.83,1.66a.983.983,0,0,1-1.356-.033l-2.243-2.239A.984.984,0,1,1,13.445,50l1.58,1.578,4.748-4.307a.984.984,0,0,1,1.389.068Zm3.9-40.316a.984.984,0,0,1,.984-.984H38.836a.984.984,0,0,1,0,1.967H26.046a.984.984,0,0,1-.984-.984Zm0,5.284a.984.984,0,0,1,.984-.984H38.836a.984.984,0,0,1,0,1.967H26.046A.984.984,0,0,1,25.062,12.306Z" transform="translate(0)" fill-rule="evenodd"/></g></g></svg>