<svg xmlns="http://www.w3.org/2000/svg" width="127" height="127" viewBox="0 0 127 127"><g transform="translate(-4809 6022)"><circle cx="63.5" cy="63.5" r="63.5" transform="translate(4809 -6022)" fill="#80cab6"/><g transform="translate(4840 -6002.193)"><g transform="translate(14.265 52.097)"><g transform="translate(0 3.497)"><path d="M151.805,357.917a11.134,11.134,0,0,0,2.673,7.332H114.19a1.275,1.275,0,0,1-1.04-.532,12.979,12.979,0,0,1,0-13.6,1.275,1.275,0,0,1,1.04-.532h40.288A11.134,11.134,0,0,0,151.805,357.917Z" transform="translate(-111.226 -350.585)" fill="#fb3a82"/><path d="M123.521,350.587,112.16,362.893a12.874,12.874,0,0,1-.93-4.974,11.636,11.636,0,0,1,1.924-6.8,1.273,1.273,0,0,1,1.04-.532Z" transform="translate(-111.229 -350.587)" fill="#fb1466"/><path d="M186.37,357.917a11.133,11.133,0,0,0,2.673,7.332h-40.9s-2.351-2.381-2.351-7.332,2.351-7.332,2.351-7.332h40.9A11.134,11.134,0,0,0,186.37,357.917Z" transform="translate(-141.358 -350.585)" fill="#e0d3ce"/><g transform="translate(4.433 0)"><path d="M153.648,350.587l-7.816,8.466c-.027-.362-.042-.74-.042-1.134,0-4.952,2.351-7.332,2.351-7.332Z" transform="translate(-145.79 -350.587)" fill="#cdbfbb"/><path d="M429.245,357.924a11.132,11.132,0,0,0,2.673,7.332h-4.846a11.392,11.392,0,0,1,0-14.663h4.846A11.129,11.129,0,0,0,429.245,357.924Z" transform="translate(-388.666 -350.591)" fill="#cdbfbb"/></g></g><g transform="translate(5.519)"><g transform="translate(0)"><path d="M199.179,325.446a2.128,2.128,0,0,1-2.128,2.128H156.388a2.128,2.128,0,0,1,0-4.257h40.664a2.128,2.128,0,0,1,2.128,2.129Z" transform="translate(-154.26 -323.317)" fill="#fb3a82"/><path d="M164.26,323.317l-3.928,4.257h-3.944a2.128,2.128,0,0,1,0-4.257Z" transform="translate(-154.26 -323.317)" fill="#fb1466"/><path d="M461.97,325.449a2.13,2.13,0,0,1-2.129,2.129h-4.128a2.129,2.129,0,0,0,0-4.257h4.128A2.129,2.129,0,0,1,461.97,325.449Z" transform="translate(-417.05 -323.32)" fill="#fb1466"/></g><g transform="translate(0 17.402)"><path d="M197.049,463.253H156.385a2.128,2.128,0,1,1,0-4.257h40.663a2.128,2.128,0,1,1,0,4.257Z" transform="translate(-154.257 -458.996)" fill="#fb3a82"/><path d="M461.97,461.128a2.127,2.127,0,0,1-2.129,2.128h-4.128a2.128,2.128,0,1,0,0-4.255h4.128A2.129,2.129,0,0,1,461.97,461.128Z" transform="translate(-417.049 -458.999)" fill="#fb1466"/></g></g></g><g transform="translate(-0.001 12.193)"><g transform="translate(0.962 25.419)"><g transform="translate(0 8.141)"><path d="M35.517,277.293l-3.436-3.436L8.692,295.449a3.7,3.7,0,1,0,5.234,5.234Z" transform="translate(-7.5 -273.857)" fill="#873f30"/><path d="M15.058,307.972a3.705,3.705,0,0,1-5.237,0,3.667,3.667,0,0,1-.9-1.476,3.7,3.7,0,0,0,3.758-.9c.036-.036.071-.073.105-.11L34.374,282.1l2.379,2.379-21.592,23.39C15.127,307.9,15.092,307.938,15.058,307.972Z" transform="translate(-8.736 -281.039)" fill="#6c3328"/></g><path d="M198.548,210.382l-7.912,9.438,3.232,3.232,9.437-7.912Z" transform="translate(-167.148 -210.382)" fill="#873f30"/><path d="M207.2,210.382l-2.557,3.05.767.767a1.446,1.446,0,0,1,0,2.045l-4.849,4.849,1.959,1.959,9.437-7.912Z" transform="translate(-175.801 -210.382)" fill="#6c3328"/><g transform="translate(20.87 7.505)"><path d="M174.04,276l-3.137-3.137a2.323,2.323,0,1,1,3.285-3.285l3.137,3.137A2.323,2.323,0,1,1,174.04,276Z" transform="translate(-170.222 -268.899)" fill="#ba5d4f"/><path d="M187.1,285.786a2.322,2.322,0,0,1-3.285,0l-2.378-2.378a2.323,2.323,0,0,0,3.285-3.285L187.1,282.5A2.322,2.322,0,0,1,187.1,285.786Z" transform="translate(-180.002 -278.683)" fill="#a34f41"/></g></g><g transform="translate(25.525 3.849)"><path d="M0,0H9.853V15.469H0Z" transform="translate(10.937 0) rotate(45)" fill="#ba5d4f"/><path d="M0,0H9.853V15.469H0Z" transform="translate(22.226 33.172) rotate(-135)" fill="#a34f41"/></g><g transform="translate(0 0)"><path d="M177.41,35.918l-.242-.242a2.35,2.35,0,0,1,0-3.323l11.971-11.971a2.35,2.35,0,0,1,3.323,0l.242.242a2.35,2.35,0,0,1,0,3.323L180.733,35.918a2.35,2.35,0,0,1-3.323,0Z" transform="translate(-153.845 -18.732)" fill="#873f30"/><path d="M348.932,207.439l.242.242a2.35,2.35,0,0,0,3.323,0l11.971-11.971a2.35,2.35,0,0,0,0-3.323l-.242-.242a2.35,2.35,0,0,0-3.323,0l-11.971,11.971A2.35,2.35,0,0,0,348.932,207.439Z" transform="translate(-303.579 -168.465)" fill="#6c3328"/><path d="M0,0H11.065V23.363H0Z" transform="translate(46.451 8.256) rotate(45)" fill="#fcc16d"/><path d="M0,0H23.363V5.6H0Z" transform="translate(33.792 28.646) rotate(-45)" fill="#fca62f"/><path d="M241.456,67.781,239.54,67a1.762,1.762,0,0,0-1.913.385L224.168,80.84a1.763,1.763,0,0,0-.385,1.913l.784,1.917a1.175,1.175,0,0,0,1.918.386L241.843,69.7A1.175,1.175,0,0,0,241.456,67.781Z" transform="translate(-194.967 -59.854)" fill="#873f30"/><path d="M306.041,132.366l.784,1.917a1.762,1.762,0,0,1-.385,1.913l-13.458,13.458a1.763,1.763,0,0,1-1.913.385l-1.917-.784a1.175,1.175,0,0,1-.386-1.918l15.358-15.358A1.175,1.175,0,0,1,306.041,132.366Z" transform="translate(-251.429 -116.316)" fill="#6c3328"/><path d="M62.576,68.536H61.86a9.948,9.948,0,0,1-.829-1.579.962.962,0,1,0-1.778.736c.119.287.252.568.392.843H21.912a3.078,3.078,0,0,0-.838.117,11.182,11.182,0,0,1-1.414-5.727c0-.419.019-.833.055-1.238h18.43a.962.962,0,0,0,0-1.924H20.525l2.26-2.448H59.641a12.008,12.008,0,0,0-.926,2.448H46.071a.962.962,0,1,0,0,1.924H58.378c-.038.391-.06.786-.061,1.184a.962.962,0,0,0,.958.966h0a.962.962,0,0,0,.962-.958,10.293,10.293,0,0,1,1.618-5.564h.717a3.09,3.09,0,1,0,0-6.18H50.551L61.568,40.118a3.311,3.311,0,0,0,0-4.683l-.242-.242a3.31,3.31,0,0,0-4.513-.158l-1.7-1.7.58-.58a2.718,2.718,0,0,0,.6-2.957L55.5,27.879a2.132,2.132,0,0,0-1.548-1.284l-1.338-1.338a.962.962,0,1,0-1.36,1.36l.658.658-15.16,15.16L32.3,37.977l15.16-15.16.59.59a.962.962,0,1,0,1.36-1.36l-1.27-1.27a2.132,2.132,0,0,0-1.284-1.548h0l-1.917-.784a2.719,2.719,0,0,0-2.957.6l-.58.58-1.7-1.7a3.31,3.31,0,0,0-.158-4.513l-.242-.242a3.312,3.312,0,0,0-4.683,0L22.642,25.134a3.311,3.311,0,0,0,0,4.683l.242.242a3.31,3.31,0,0,0,4.513.158l1.7,1.7-.58.58a2.718,2.718,0,0,0-.6,2.957l.784,1.917a2.131,2.131,0,0,0,1.526,1.279l-4.823,5.753a3.286,3.286,0,0,0-4.341,4.167l-2.187,2.019a.962.962,0,0,0,1.305,1.414l2.021-1.866,2.383,2.383L6.68,71.926a2.742,2.742,0,1,1-3.874-3.874l14.05-12.97a.962.962,0,1,0-1.305-1.414L1.5,66.638a4.666,4.666,0,0,0,3.161,8.094h.1a4.626,4.626,0,0,0,3.335-1.5l5.765-6.245a11.086,11.086,0,0,0,1.547,3.3,2.24,2.24,0,0,0,1.824.937h1.621a3.085,3.085,0,0,0,3.063,3.5H62.576a3.09,3.09,0,0,0,0-6.18Zm1.166-14.311a1.168,1.168,0,0,1-1.166,1.166H24.561l1.6-1.732a3.288,3.288,0,0,0,3.281-.6H62.576a1.168,1.168,0,0,1,1.166,1.166Zm-29.019-11.1-5.57,4.669-2.215-2.214,4.669-5.57Zm-4.2,8.011a3.3,3.3,0,0,0-.2-1.815L36.079,44.5a2.132,2.132,0,0,0,1.279,1.526l1.917.784a2.719,2.719,0,0,0,2.957-.6l.58-.58,1.7,1.7a3.318,3.318,0,0,0-.383,3.8H30.526ZM58.985,36.147a1.379,1.379,0,0,1,.981.406l.242.242a1.387,1.387,0,0,1,0,1.962L48.237,50.729a1.387,1.387,0,0,1-1.962,0l-.242-.242a1.389,1.389,0,0,1,0-1.963L58,36.553a1.378,1.378,0,0,1,.981-.406Zm-3.538.243-9.578,9.578-1.7-1.7,9.578-9.578Zm-17.43,7.505L53.373,28.537a.2.2,0,0,1,.147-.063.235.235,0,0,1,.046,0,.2.2,0,0,1,.155.128l.784,1.917a.8.8,0,0,1-.175.869L40.871,44.851a.8.8,0,0,1-.869.175l-1.917-.784a.213.213,0,0,1-.07-.348ZM25.226,29.106a1.378,1.378,0,0,1-.981-.406L24,28.457a1.388,1.388,0,0,1,0-1.962L35.974,14.524a1.388,1.388,0,0,1,1.962,0l.242.242a1.388,1.388,0,0,1,0,1.963L26.207,28.7a1.38,1.38,0,0,1-.981.406Zm3.538-.243,9.578-9.578,1.7,1.7L30.46,30.559Zm1.117,5L43.339,20.4a.8.8,0,0,1,.869-.175l1.917.784a.213.213,0,0,1,.07.348L30.837,36.715a.213.213,0,0,1-.348-.07l-.784-1.917a.8.8,0,0,1,.175-.869ZM22.793,47.44a1.361,1.361,0,0,1,2.323-.962l3.137,3.137a1.361,1.361,0,0,1-1.924,1.924L23.192,48.4a1.352,1.352,0,0,1-.4-.962ZM16.973,69.168a9.7,9.7,0,0,1-1.541-3.887l2.306-2.5c0,.048,0,.1,0,.143a13.346,13.346,0,0,0,1.492,6.37h-2A.313.313,0,0,1,16.973,69.168Zm45.6,3.625H21.912a1.166,1.166,0,1,1,0-2.333H62.576a1.166,1.166,0,1,1,0,2.333Z" transform="translate(0.001 -12.193)"/><path d="M203.289,417.166a.962.962,0,1,0,0,1.924H225.7a.962.962,0,0,0,0-1.924Z" transform="translate(-176.377 -365.226)"/></g></g></g></g></svg>