<svg xmlns="http://www.w3.org/2000/svg" xmlns:xlink="http://www.w3.org/1999/xlink" width="143" height="143" viewBox="0 0 143 143"><defs><filter id="a" x="0" y="0" width="143" height="143" filterUnits="userSpaceOnUse"><feOffset dy="3" input="SourceAlpha"/><feGaussianBlur stdDeviation="3" result="b"/><feFlood flood-opacity="0.161"/><feComposite operator="in" in2="b"/><feComposite in="SourceGraphic"/></filter></defs><g transform="translate(-1201 -12347)"><g transform="matrix(1, 0, 0, 1, 1201, 12347)" filter="url(#a)"><circle cx="62.5" cy="62.5" r="62.5" transform="translate(9 6)" fill="#fdf8e4"/></g><g transform="translate(1233.983 12377)"><g transform="translate(40.289 40.289)"><path d="M0,0H4.9V12.622H0Z" transform="translate(0 3.463) rotate(-45)" fill="#537983"/></g><g transform="translate(41.925 40.289)"><path d="M0,0H2.583V12.622H0Z" transform="translate(0 1.826) rotate(-45)" fill="#3e5959"/></g><g transform="translate(47.843 47.833)"><path d="M347.473,347.508a4.992,4.992,0,0,1-7.06,0l-18.339-18.339a1.009,1.009,0,0,1,0-1.428l5.633-5.633a1.009,1.009,0,0,1,1.428,0l18.339,18.339A4.992,4.992,0,0,1,347.473,347.508Z" transform="translate(-321.778 -321.813)" fill="#bc7c63"/></g><g transform="translate(51.611 47.833)"><path d="M369.055,347.508a5,5,0,0,1-1.248.912,4.994,4.994,0,0,0-.912-5.811l-18.339-18.34a1.011,1.011,0,0,0-1.428,0l2.16-2.16a1.011,1.011,0,0,1,1.428,0l18.339,18.339A4.993,4.993,0,0,1,369.055,347.508Z" transform="translate(-347.128 -321.813)" fill="#aa6a51"/></g><g transform="translate(1.119 1.109)"><circle cx="25.477" cy="25.477" r="25.477" fill="#7ca1b1"/></g><g transform="translate(14.254 2.952)"><path d="M126.155,61.508A25.484,25.484,0,0,1,95.8,65.787,25.483,25.483,0,0,0,117.671,19.86a25.49,25.49,0,0,1,8.484,41.648Z" transform="translate(-95.8 -19.86)" fill="#678d98"/></g><g transform="translate(6.621 6.612)"><circle cx="19.974" cy="19.974" r="19.974" fill="#d5e3f4"/></g><g transform="translate(19.281 7.046)"><path d="M151.058,81.066a19.98,19.98,0,0,1-21.438,4.467A19.977,19.977,0,0,0,141.082,47.4a19.976,19.976,0,0,1,9.976,33.664Z" transform="translate(-129.62 -47.402)" fill="#b3ceec"/></g><g transform="translate(0.017 0)"><g transform="translate(10.404 18.705)"><path d="M70.333,132.959a1.073,1.073,0,0,0,0,1.529c2.009,1.979,7.983,7.117,15.854,7.117s13.845-5.138,15.854-7.117a1.073,1.073,0,0,0,0-1.529c-2.009-1.979-7.983-7.117-15.854-7.117S72.342,130.98,70.333,132.959Z" transform="translate(-70.013 -125.842)" fill="#f9f3f1"/></g><g transform="translate(11.842 24.742)"><path d="M110.28,169.064c-2.009,1.979-7.984,7.117-15.854,7.117-6.728,0-12.071-3.755-14.735-6.082a22.488,22.488,0,0,0,12.831,4.438c8.073,0,14.2-5.269,16.26-7.3a1.1,1.1,0,0,0,.328-.783c.475.412.868.782,1.171,1.08a1.072,1.072,0,0,1,0,1.528Z" transform="translate(-79.69 -166.456)" fill="#efe2dd"/></g><g transform="translate(18.697 18.705)"><circle cx="7.881" cy="7.881" r="7.881" fill="#537983"/></g><g transform="translate(23.333 18.709)"><path d="M168.12,133.747a7.883,7.883,0,0,1-11.126,7.183c.077,0,.155,0,.233,0a7.882,7.882,0,0,0,3.247-15.064,7.88,7.88,0,0,1,7.646,7.876Z" transform="translate(-156.994 -125.871)" fill="#3e5959"/></g><g transform="translate(23.566 23.574)"><circle cx="3.012" cy="3.012" r="3.012" fill="#f9f3f1"/></g><g transform="translate(24.566 23.574)"><path d="M170.315,161.611a3.013,3.013,0,0,1-5.024,2.242,3.012,3.012,0,0,0,1.7-5.239c.1-.009.205-.015.309-.015A3.011,3.011,0,0,1,170.315,161.611Z" transform="translate(-165.291 -158.599)" fill="#efe2dd"/></g><path d="M74.326,65.68l-12.29-12.29a1.114,1.114,0,1,0-1.576,1.576l12.29,12.29a3.878,3.878,0,1,1-5.484,5.484L49,54.476l5.484-5.484,2.256,2.256a1.114,1.114,0,0,0,1.576-1.576l-2.33-2.33a2.124,2.124,0,0,0-3,0l-.3.3L47.748,42.7A26.6,26.6,0,0,0,13.392,3.5,1.114,1.114,0,0,0,14.5,5.431,24.384,24.384,0,1,1,9.369,9.359c.375-.375.767-.742,1.163-1.09A1.114,1.114,0,1,0,9.06,6.595c-.432.38-.859.78-1.268,1.189A26.593,26.593,0,0,0,42.711,47.741l4.937,4.937-.3.3a2.127,2.127,0,0,0,0,3L65.69,74.317a6.107,6.107,0,1,0,8.636-8.636Zm-29.9-19.372q.493-.447.967-.921t.92-.967l4.793,4.793L49.223,51.1Z" transform="translate(-0.017 0)"/><path d="M43.13,73.044a21.088,21.088,0,1,0-6.177-14.912A21.023,21.023,0,0,0,43.13,73.044ZM44.706,44.8a18.859,18.859,0,1,1-5.524,13.335A18.8,18.8,0,0,1,44.706,44.8Z" transform="translate(-31.463 -31.546)"/><path d="M63.167,128.9c2.27,2.236,8.436,7.437,16.636,7.437s14.366-5.2,16.636-7.437a2.188,2.188,0,0,0,0-3.117c-2.27-2.236-8.436-7.437-16.636-7.437s-14.366,5.2-16.636,7.437a2.188,2.188,0,0,0,0,3.117Zm31.678-1.558a25.8,25.8,0,0,1-7.718,5.213,8.965,8.965,0,0,0,0-10.427A25.8,25.8,0,0,1,94.845,127.339ZM79.8,120.573a6.767,6.767,0,1,1-6.767,6.767A6.774,6.774,0,0,1,79.8,120.573Zm-7.324,1.553a8.965,8.965,0,0,0,0,10.427,25.8,25.8,0,0,1-7.718-5.213A25.8,25.8,0,0,1,72.48,122.126Z" transform="translate(-53.225 -100.754)"/><path d="M155.191,159.354a4.127,4.127,0,1,0-4.127-4.127A4.131,4.131,0,0,0,155.191,159.354Zm0-6.024a1.9,1.9,0,1,1-1.9,1.9A1.9,1.9,0,0,1,155.191,153.33Z" transform="translate(-128.613 -128.642)"/></g></g></g></svg>