<svg xmlns="http://www.w3.org/2000/svg" width="114" height="115.129" viewBox="0 0 114 115.129"><g transform="translate(1.839 2.968)"><g transform="translate(3.677 11.032)"><path d="M69.194,84.84v-.165a6.206,6.206,0,0,0-3.861-5.755c-.018-.018-.037-.018-.074-.037a6.2,6.2,0,0,0-6.785,1.342l-.129.129L47.938,69.946l.129-.129a6.2,6.2,0,0,0,1.342-6.785c-.018-.037-.018-.055-.037-.074A6.206,6.206,0,0,0,43.617,59.1h-.165V44.388h.165a6.208,6.208,0,0,0,5.755-3.843l.037-.11a6.167,6.167,0,0,0-1.342-6.766l-.129-.129,9.322-9.322L56.047,21.79a14.939,14.939,0,0,1-1.563-6.656,14.72,14.72,0,0,1,2.041-7.52H4.839A1.839,1.839,0,0,0,3,9.453V92.195H76.548V84.84Z" transform="translate(-3 -7.614)" fill="#e6e9ed"/></g><g transform="translate(11.032 51.484)"><path d="M21.71,31.453V42.485a1.844,1.844,0,0,1-1.839,1.839H8.839A1.844,1.844,0,0,1,7,42.485V31.453a1.844,1.844,0,0,1,1.839-1.839H19.871a1.844,1.844,0,0,1,1.839,1.839Z" transform="translate(-7 -29.614)" fill="#ff826e"/></g><g transform="translate(11.032 18.387)"><path d="M45.613,22.646H8.839A1.839,1.839,0,0,1,7,20.808V13.453a1.839,1.839,0,0,1,1.839-1.839H45.613Z" transform="translate(-7 -11.614)" fill="#b4dd7f"/></g><g transform="translate(11.032 73.548)"><path d="M21.71,43.453V54.485a1.844,1.844,0,0,1-1.839,1.839H8.839A1.844,1.844,0,0,1,7,54.485V43.453a1.844,1.844,0,0,1,1.839-1.839H19.871A1.844,1.844,0,0,1,21.71,43.453Z" transform="translate(-7 -41.614)" fill="#ff826e"/></g><g transform="translate(22.065 95.613)"><path d="M68.161,53.688V68.25a3.167,3.167,0,0,1-.717.074H13V53.614H67.444A3.166,3.166,0,0,1,68.161,53.688Z" transform="translate(-13 -53.614)" fill="#b4dd7f"/></g><g transform="translate(14.71 95.613)"><path d="M9,53.614h7.355v14.71H9Z" transform="translate(-9 -53.614)" fill="#ffeaa7"/></g><g transform="translate(0 95.613)"><path d="M4.677,54.607a7.335,7.335,0,0,1,3.677-.993H15.71v14.71H8.355a7.359,7.359,0,0,1-5.2-12.558,7.769,7.769,0,0,1,1.526-1.158Z" transform="translate(-1 -53.614)" fill="#ccd1d9"/></g><g transform="translate(77.226 95.686)"><path d="M59.622,58.582a2.452,2.452,0,0,1,0,4.707l-15.96,4.744a4.446,4.446,0,0,1-.662.184V53.654a4.446,4.446,0,0,1,.662.184Z" transform="translate(-43 -53.654)" fill="#ccd1d9"/></g><g transform="translate(72.39 66.194)"><path d="M47.045,37.614l3,10.5a22.194,22.194,0,0,1-9.672,0l3-10.5Z" transform="translate(-40.37 -37.614)" fill="#e6e9ed"/></g><g transform="translate(73.677 57)"><path d="M44.619,32.614l3.549,2.372-1.71,6.822H42.78l-1.71-6.822Z" transform="translate(-41.07 -32.614)" fill="#ccd1d9"/></g><g transform="translate(79.065 52.55)"><path d="M58.912,40.123l1.214,5.5A22.056,22.056,0,0,1,47,54.336l-3-10.5,1.71-6.822,1.967,1.305,3.255-8.127a13.954,13.954,0,0,1,3.99,2.758A14.449,14.449,0,0,1,58.912,40.123Z" transform="translate(-44 -30.194)" fill="#ff826e"/></g><g transform="translate(59.262 52.55)"><path d="M47.645,37.016l1.71,6.822-3,10.5A22.056,22.056,0,0,1,33.23,45.621l1.214-5.5a14.449,14.449,0,0,1,3.99-7.171,13.954,13.954,0,0,1,3.99-2.758l3.255,8.127Z" transform="translate(-33.23 -30.194)" fill="#ff826e"/></g><g transform="translate(68.455 51.484)"><path d="M55.771,30.68l-3.255,8.127L50.549,37.5,47,35.13,43.452,37.5l-1.967,1.305L38.23,30.68a14.067,14.067,0,0,1,3.255-1.066L47,33.291l5.516-3.677a14.067,14.067,0,0,1,3.255,1.066Z" transform="translate(-38.23 -29.614)" fill="#fc6e51"/></g><g transform="translate(91.476 29.419)"><path d="M54.887,17.614a3.688,3.688,0,0,1,3.677,3.677,3.7,3.7,0,0,1-3.677,3.677H50.75a15.148,15.148,0,0,0,.46-3.677V17.614Z" transform="translate(-50.75 -17.614)" fill="#f0d0b4"/></g><g transform="translate(62.516 18.387)"><path d="M64.419,22.646v3.677A15.148,15.148,0,0,1,63.96,30c-.11.423-.239.827-.386,1.232a14.642,14.642,0,0,1-9.764,9.212,14.581,14.581,0,0,1-8.2,0,14.611,14.611,0,0,1-9.764-9.212c-.147-.4-.276-.809-.386-1.232A15.148,15.148,0,0,1,35,26.324v-7.5a7.2,7.2,0,0,1,7.208-7.208,7.094,7.094,0,0,1,3.7,1.03l7.484,4.486V14.979a11.319,11.319,0,0,0-.368-2.942h.018A21.343,21.343,0,0,1,63.445,19.52l.975,1.287Z" transform="translate(-35 -11.614)" fill="#f0d0b4"/></g><g transform="translate(71.71 47.218)"><path d="M49.616,27.312l1.416,4.247-5.516,3.677L40,31.56l1.416-4.247v-.018a14.581,14.581,0,0,0,8.2,0Z" transform="translate(-40 -27.294)" fill="#f0d0b4"/></g><g transform="translate(44.129 27.121)"><path d="M91.194,37.049v14.71h-.165a6.206,6.206,0,0,0-5.755,3.861c-.018.018-.018.037-.037.074a6.2,6.2,0,0,0,1.342,6.785l.129.129L76.3,73.015l-.129-.129a6.2,6.2,0,0,0-6.785-1.342c-.037.018-.055.018-.074.037a6.206,6.206,0,0,0-3.861,5.755V77.5H50.742v-.165a6.206,6.206,0,0,0-3.861-5.755c-.018-.018-.037-.018-.074-.037a6.2,6.2,0,0,0-6.785,1.342l-.129.129L29.486,62.608l.129-.129a6.2,6.2,0,0,0,1.342-6.785c-.018-.037-.018-.055-.037-.074a6.206,6.206,0,0,0-5.755-3.861H25V37.049h.165a6.208,6.208,0,0,0,5.755-3.843l.037-.11a6.167,6.167,0,0,0-1.342-6.766l-.129-.129,9.322-9.322.9,1.784a3.688,3.688,0,0,0-3.677,3.677,3.7,3.7,0,0,0,3.677,3.677h4.137c.11.423.239.827.386,1.232a22.065,22.065,0,1,0,27.728,0c.147-.4.276-.809.386-1.232h4.137a3.7,3.7,0,0,0,3.677-3.677,3.688,3.688,0,0,0-3.677-3.677l.331-1.967.055-.331L86.707,26.2l-.129.129a6.2,6.2,0,0,0-1.342,6.785c.018.037.018.055.037.074a6.206,6.206,0,0,0,5.755,3.861Z" transform="translate(-25 -16.364)" fill="#fcd770"/></g><g transform="translate(55.161)"><path d="M67.774,29.195,66.8,27.908a21.343,21.343,0,0,0-10.407-7.484h-.018a11.319,11.319,0,0,1,.368,2.942v2.151l-7.484-4.486a7.094,7.094,0,0,0-3.7-1.03,7.2,7.2,0,0,0-7.208,7.208v3.825H34.677l-.9-1.784-1.214-2.427A14.939,14.939,0,0,1,31,20.167a14.72,14.72,0,0,1,2.041-7.52,14.054,14.054,0,0,1,2.317-3A14.781,14.781,0,0,1,45.875,5.291h10.15a51.466,51.466,0,0,0,19.1-3.677L73.29,10.808l5.516,1.839a37.875,37.875,0,0,0-6.969,16.089l-.055.331-.331,1.967H67.774Z" transform="translate(-31 -1.614)" fill="#b27946"/></g><g transform="translate(55.161 29.419)"><path d="M38.815,24.969H34.677A3.7,3.7,0,0,1,31,21.291a3.688,3.688,0,0,1,3.677-3.677h3.677v3.677A15.148,15.148,0,0,0,38.815,24.969Z" transform="translate(-31 -17.614)" fill="#f0d0b4"/></g></g><g transform="translate(0 0)"><circle cx="1.839" cy="1.839" r="1.839" transform="translate(84.581 30.548)"/><circle cx="1.839" cy="1.839" r="1.839" transform="translate(69.871 30.548)"/><path d="M49.943,21.556a4.112,4.112,0,0,1-7.355,0l-.193-.388-3.289,1.646.193.386a7.789,7.789,0,0,0,13.934,0l.193-.388-3.289-1.646Z" transform="translate(32.799 17.752)"/><path d="M113.827,48.935h-1.839a4.471,4.471,0,0,1-3.021-7.71l1.3-1.3L99.835,29.493A36.051,36.051,0,0,1,106.276,15.1l1.532-2.041-6.4-2.133L103.6,0l-3.152,1.261A49.381,49.381,0,0,1,82.034,4.806H71.875a16.712,16.712,0,0,0-13.84,7.355H7.355a3.681,3.681,0,0,0-3.677,3.677v82.79a9.162,9.162,0,0,0,5.516,16.5H78.357a5.109,5.109,0,0,0,1.887-.338L96.21,110.06a4.3,4.3,0,0,0,0-8.248L80.4,97.137a5.457,5.457,0,0,0-2.048-.4H9.194a9.185,9.185,0,0,0-1.839.186V15.839H56.176a16.6,16.6,0,0,0-1.015,5.683A16.777,16.777,0,0,0,56.926,29l.621,1.245L49.16,38.628l-1.179,1.421,1.3,1.3a4.469,4.469,0,0,1-3.315,7.587H44.127V56.29H33.095v3.677H44.127v5.516l.173,1.839h1.839a4.471,4.471,0,0,1,3.021,7.71l-1.3,1.3,11.7,11.7,1.421,1.179,1.3-1.3a4.471,4.471,0,0,1,7.588,3.313v1.839H86.419l1.839-.173V91.053a4.47,4.47,0,0,1,7.708-3.021l1.3,1.3,11.7-11.7,1.179-1.421-1.3-1.3a4.469,4.469,0,0,1,3.315-7.587H114V50.774ZM80.9,101.112l3.677,1.09v7.474L80.9,110.769Zm-3.677,10.339H25.742V100.419H77.226Zm-55.161,0H18.387V100.419h3.677Zm73.548-5.516a.621.621,0,0,1-.447.6l-6.908,2.052v-5.294l6.908,2.046A.621.621,0,0,1,95.613,105.935Zm-80.9-5.516v11.032H9.194a5.516,5.516,0,1,1,0-11.032ZM90.636,64.184a8.058,8.058,0,0,0-2.377,5.739v6.2a20.132,20.132,0,0,1-3.085,1.285l-2.366-8.282.954-3.817,1.684,1.123,3.306-8.259a12.536,12.536,0,0,1,5.262,7.669l1.032,4.641a20.458,20.458,0,0,1-3.107,3.236v-3.8a4.409,4.409,0,0,1,1.3-3.139Zm-23.142,0-2.6,2.6a4.4,4.4,0,0,1,1.3,3.137v3.8a20.377,20.377,0,0,1-3.107-3.236l1.032-4.641a12.54,12.54,0,0,1,5.262-7.671l3.306,8.259,1.684-1.123.954,3.817-2.366,8.282a19.888,19.888,0,0,1-3.087-1.283v-6.2a8.058,8.058,0,0,0-2.377-5.739ZM60.677,34.226h1.839v1.839a16.429,16.429,0,0,0,.108,1.839H60.677a1.839,1.839,0,1,1,0-3.677Zm23.9-9.547a19.4,19.4,0,0,1,6.757,5.683l.6.8v4.9a12.871,12.871,0,1,1-25.742,0V28.555a5.359,5.359,0,0,1,8.118-4.6l10.269,6.16v-5.4C84.581,24.7,84.579,24.692,84.579,24.679Zm-5.11,42.643H78.66l-1.044-4.179,1.449-.965,1.449.965ZM73.223,56.445l3.905,2.6-2.716,1.809L72.7,56.588c.173-.051.346-.1.519-.143Zm10.492,4.415L81,59.05l3.905-2.6c.175.046.348.092.519.143ZM82.393,53.7l-3.328,2.219L75.736,53.7l.45-1.355a16.48,16.48,0,0,0,2.876.267,16.66,16.66,0,0,0,2.876-.267ZM72.655,51.32,72.129,52.9a16.25,16.25,0,0,0-11.6,12.147l-.167.752a20.177,20.177,0,0,1,4.211-21.765,16.649,16.649,0,0,0,8.087,7.289ZM78.614,71h.9l2.052,7.184a20.1,20.1,0,0,1-2.5.171,20.478,20.478,0,0,1-2.5-.171Zm19.158-5.2-.167-.752A16.245,16.245,0,0,0,86,52.9l-.526-1.578a16.649,16.649,0,0,0,8.087-7.289A20.174,20.174,0,0,1,97.772,65.8ZM95.5,37.9a16.429,16.429,0,0,0,.108-1.839V34.226h1.839a1.839,1.839,0,0,1,0,3.677ZM71.875,8.484H82.034A52.978,52.978,0,0,0,98.685,5.816L97.17,13.393l4.716,1.572a39.76,39.76,0,0,0-5.922,15.156l-.072.427h-.279V24.718A14.3,14.3,0,0,0,91.4,14.539l-2.6,2.6a10.648,10.648,0,0,1,3.139,7.579v.765a23.054,23.054,0,0,0-8.011-5.067,14.313,14.313,0,0,0-3.56-5.875l-2.6,2.6a10.651,10.651,0,0,1,3.082,6.45l-4.641-2.784a9.036,9.036,0,0,0-13.687,7.75V30.55h-.7l-1.6-3.2A13.032,13.032,0,0,1,71.875,8.484Zm38.447,55.334a8.148,8.148,0,0,0-5.117,12.376l-8.061,8.059a8.088,8.088,0,0,0-7.572-.653,8,8,0,0,0-4.8,5.785h-11.4a8.094,8.094,0,0,0-4.891-5.816,8,8,0,0,0-7.485.7L52.94,76.207a8.1,8.1,0,0,0,.655-7.572,8.008,8.008,0,0,0-5.786-4.8v-11.4a8.118,8.118,0,0,0,5.825-4.913,8,8,0,0,0-.708-7.463L55.4,37.585a5.506,5.506,0,0,0,5.275,3.994h1.157a23.9,23.9,0,1,0,34.461,0h1.157a5.5,5.5,0,0,0,5.275-4l2.464,2.464a8.1,8.1,0,0,0-.655,7.572,8.008,8.008,0,0,0,5.786,4.8Z" transform="translate(0 0)"/><path d="M16,56.614h3.677v3.677H16Z" transform="translate(13.419 47.483)"/><path d="M20,56.614h3.677v3.677H20Z" transform="translate(16.774 47.483)"/><path d="M24,56.614h3.677v3.677H24Z" transform="translate(20.129 47.483)"/><path d="M28,56.614h3.677v3.677H28Z" transform="translate(23.484 47.483)"/><path d="M20.71,41.207H9.677A3.681,3.681,0,0,0,6,44.884V55.917a3.681,3.681,0,0,0,3.677,3.677H20.71a3.681,3.681,0,0,0,3.677-3.677V45.646l3.139-3.139-2.6-2.6-2.034,2.034a3.65,3.65,0,0,0-2.183-.734Zm0,14.71H9.677V44.884H19.948l-4.755,4.755-2.377-2.377-2.6,2.6,4.977,4.977,5.516-5.516Z" transform="translate(5.032 33.47)"/><path d="M18,42.614H32.71v3.677H18Z" transform="translate(15.097 35.741)"/><path d="M18,46.614h7.355v3.677H18Z" transform="translate(15.097 39.096)"/><path d="M24,46.614h3.677v3.677H24Z" transform="translate(20.129 39.096)"/><path d="M24.926,27.907l-2.034,2.034a3.638,3.638,0,0,0-2.183-.734H9.677A3.681,3.681,0,0,0,6,32.884V43.917a3.681,3.681,0,0,0,3.677,3.677H20.71a3.681,3.681,0,0,0,3.677-3.677V33.646l3.139-3.139Zm-4.214,16.01H9.677V32.884H19.948l-4.755,4.755-2.377-2.377-2.6,2.6,4.977,4.977,5.516-5.516Z" transform="translate(5.032 23.406)"/><path d="M18,34.614h7.355v3.677H18Z" transform="translate(15.097 29.031)"/><path d="M6,24.614H35.419v3.677H6Z" transform="translate(5.032 20.644)"/><path d="M6,20.614h7.355v3.677H6Z" transform="translate(5.032 17.289)"/><path d="M12,20.614H34.065v3.677H12Z" transform="translate(10.065 17.289)"/><path d="M46.452,14.291V10.614H9.677A3.681,3.681,0,0,0,6,14.291v7.355a3.681,3.681,0,0,0,3.677,3.677H46.452V21.646H9.677V14.291Z" transform="translate(5.032 8.902)"/></g></svg>