<svg xmlns="http://www.w3.org/2000/svg" width="127" height="127" viewBox="0 0 127 127"><g transform="translate(-4809 7222)"><circle cx="63.5" cy="63.5" r="63.5" transform="translate(4809 -7222)" fill="#80cab6"/><g transform="translate(4829 -7210)"><path d="M74.4,106.533a3.733,3.733,0,0,0,3.733-3.733V72H24v30.8a3.733,3.733,0,0,0,3.733,3.733Z" transform="translate(-7.067 -42.4)" fill="#548aff"/><path d="M438.533,67.467a3.733,3.733,0,0,0-3.733-3.733H432V32h2.8a3.733,3.733,0,0,1,3.733,3.733Z" transform="translate(-367.467 -7.067)" fill="#7dafff"/><path d="M24,67.467a3.733,3.733,0,0,1,3.733-3.733h2.8V32h-2.8A3.733,3.733,0,0,0,24,35.733Z" transform="translate(-7.067 -7.067)" fill="#7dafff"/><path d="M216,312h9.333v7.467H216Z" transform="translate(-176.667 -254.4)" fill="#f5714f"/><path d="M200.8,176.4a9.248,9.248,0,0,1-1.553,5.13l-2.18,3.27h-9.333l-2.18-3.27A9.248,9.248,0,0,1,184,176.4a8.4,8.4,0,0,1,16.8,0Z" transform="translate(-148.4 -127.2)" fill="#ffc431"/><path d="M216,376l1.867,3.733h5.6L225.333,376Z" transform="translate(-176.667 -310.933)" fill="#e04f2b"/><path d="M40.027,328a2.64,2.64,0,0,0-1.867.773l-13.58,13.58a1.98,1.98,0,0,0,1.4,3.38H39.867a2.8,2.8,0,0,0,2.8-2.8V330.64a2.64,2.64,0,0,0-2.64-2.64Zm-2.96,12.133H32.4l4.667-4.667Z" transform="translate(-7.067 -268.533)" fill="#ffa100"/><path d="M357.6,440l-2.8,4.667L352,440Z" transform="translate(-296.8 -367.467)" fill="#ffceb6"/><path d="M352,264h5.6v3.733H352Z" transform="translate(-296.8 -212)" fill="#e8f2ff"/><path d="M352,320h5.6v14H352Z" transform="translate(-296.8 -261.467)" fill="#ffc431"/><path d="M352,296h5.6v2.8H352Z" transform="translate(-296.8 -240.267)" fill="#ffe28f"/><path d="M67.333,24h-2.8a.933.933,0,0,0-.933.933v3.733H24.4V24.933A.933.933,0,0,0,23.467,24h-2.8A4.672,4.672,0,0,0,16,28.667V60.4a4.672,4.672,0,0,0,4.667,4.667h1.867V63.2H20.667a2.8,2.8,0,1,1,0-5.6h2.8a.933.933,0,0,0,.933-.933V30.533H63.6V56.667a.933.933,0,0,0,.933.933h2.8a2.8,2.8,0,0,1,0,5.6H63.6v1.867h3.733A4.672,4.672,0,0,0,72,60.4V28.667A4.672,4.672,0,0,0,67.333,24Zm-44.8,31.733H20.667a4.643,4.643,0,0,0-2.8.936v-28a2.8,2.8,0,0,1,2.8-2.8h1.867Zm44.8,0H65.467V25.867h1.867a2.8,2.8,0,0,1,2.8,2.8v28a4.643,4.643,0,0,0-2.8-.936Z" transform="translate(0)"/><path d="M176,169.333a10.149,10.149,0,0,0,1.71,5.647l2.023,3.035V185.2a.928.928,0,0,0,.1.417h0l1.867,3.733a.933.933,0,0,0,.835.516h5.6a.933.933,0,0,0,.835-.516l1.867-3.733h0a.928.928,0,0,0,.1-.417v-7.184l2.023-3.035a10.149,10.149,0,0,0,1.71-5.647,9.333,9.333,0,1,0-18.667,0Zm6.994,1.279,1.779,1.334a.933.933,0,0,0,1.12,0l1.779-1.334-1.238,6.188h-2.2Zm6.072,8.054v5.6H181.6v-5.6ZM187.556,188H183.11l-.933-1.867h6.313Zm-2.223-26.133a7.475,7.475,0,0,1,7.467,7.467,8.288,8.288,0,0,1-1.4,4.612l-1.9,2.855h-1.162l1.643-8.217a.933.933,0,0,0-1.475-.93l-3.173,2.38-3.173-2.38a.933.933,0,0,0-1.475.93l1.643,8.217h-1.162l-1.9-2.855a8.288,8.288,0,0,1-1.4-4.612A7.475,7.475,0,0,1,185.333,161.867Z" transform="translate(-141.333 -120.133)"/><path d="M16,336.685a2.917,2.917,0,0,0,2.913,2.913H32.8a3.738,3.738,0,0,0,3.733-3.733V323.572a3.573,3.573,0,0,0-6.1-2.527l-13.58,13.58a2.894,2.894,0,0,0-.853,2.06Zm15.754-14.32a1.706,1.706,0,0,1,2.913,1.207v1.093H32.8v1.867h1.867V328.4H32.8v1.867h1.867v1.867H32.8V334h1.867v1.867a1.869,1.869,0,0,1-1.867,1.867H30.933v-1.867H29.067v1.867H27.2v-1.867H25.333v1.867H23.467v-1.867H21.6v1.867H18.913a1.047,1.047,0,0,1-.74-1.787Z" transform="translate(0 -261.465)"/><path d="M88.933,390.533H93.6a.933.933,0,0,0,.933-.933v-4.667a.933.933,0,0,0-1.593-.66l-4.667,4.667a.933.933,0,0,0,.66,1.593Zm3.733-3.347v1.48h-1.48Z" transform="translate(-63.6 -318)"/><path d="M344,256.933v20.533a.934.934,0,0,0,.133.48l2.8,4.667a.933.933,0,0,0,1.6,0l2.8-4.667a.934.934,0,0,0,.133-.48V256.933a.933.933,0,0,0-.933-.933h-5.6a.933.933,0,0,0-.933.933Zm4.667,19.6V264.4h.933v12.133Zm-2.8,0V264.4h.933v12.133Zm0-14V261.6H349.6v.933Zm1.867,17.786-1.152-1.919h2.3Zm1.867-22.453v1.867h-3.733v-1.867Z" transform="translate(-289.733 -204.933)"/><path d="M0,0H1.867V2.8H0Z" transform="translate(33.437 39.027) rotate(-45)"/><path d="M248,112h1.867v2.8H248Z" transform="translate(-204.933 -77.733)"/><path d="M0,0H2.8V1.867H0Z" transform="translate(51.254 39.691) rotate(-45)"/><path d="M352,224h2.8v1.867H352Z" transform="translate(-296.8 -176.667)"/><path d="M136,224h2.8v1.867H136Z" transform="translate(-106 -176.667)"/></g></g></svg>