<svg xmlns="http://www.w3.org/2000/svg" width="90" height="90" viewBox="0 0 90 90"><g transform="translate(-180 -18491)"><circle cx="45" cy="45" r="45" transform="translate(180 18491)" fill="#80cab6"/><g transform="translate(113.5 18503)"><path d="M105.374,175.3c0,3.271-2,5.924-4.471,5.924s-3.9-3.046-3.9-6.317,1.434-5.53,3.9-5.53S105.374,172.028,105.374,175.3Z" transform="translate(-6.519 -147.212)" fill="#ffa78f"/><path d="M351.006,175.3c0,3.271,2,5.924,4.471,5.924s3.9-3.046,3.9-6.317-1.434-5.53-3.9-5.53S351.006,172.028,351.006,175.3Z" transform="translate(-227.286 -147.212)" fill="#ffa78f"/><path d="M158.706,359.286v2.3h-34.49v-2.3a10.845,10.845,0,0,1,7.862-10.427l4.106-1.175a2.521,2.521,0,0,0,1.828-2.424v-3.547h6.9v3.547a2.521,2.521,0,0,0,1.828,2.424l4.106,1.175A10.845,10.845,0,0,1,158.706,359.286Z" transform="translate(-30.173 -296.997)" fill="#ffb09e"/><path d="M262.217,348.859l-4.106-1.175a2.521,2.521,0,0,1-1.828-2.424v-3.547h-3.926v3.547a2.521,2.521,0,0,0,1.828,2.424l4.106,1.175a10.845,10.845,0,0,1,7.862,10.427v2.3h3.926v-2.3A10.845,10.845,0,0,0,262.217,348.859Z" transform="translate(-141.546 -296.997)" fill="#ffa78f"/><path d="M145.785,79.461V69.647a14.422,14.422,0,0,1,14.422-14.422h0A14.422,14.422,0,0,1,174.63,69.647v9.76a14.45,14.45,0,0,1-14.45,14.45h0A14.4,14.4,0,0,1,145.785,79.461Z" transform="translate(-48.92 -47.998)" fill="#ffcebf"/><path d="M242.8,55.225h0a14.559,14.559,0,0,0-1.963.133,14.425,14.425,0,0,1,12.46,14.289v9.76a14.452,14.452,0,0,1-12.485,14.316,14.509,14.509,0,0,0,1.961.133h0a14.45,14.45,0,0,0,14.45-14.45v-9.76A14.422,14.422,0,0,0,242.8,55.225Z" transform="translate(-131.507 -47.998)" fill="#ffb09e"/><path d="M136.111,20.171a9.5,9.5,0,0,0-3.373-6.251.332.332,0,0,1-.115-.255c.051-2.227-1.544-6.165-13.464-6.165-14.453,0-19.5,10.433-20.575,13.153a.4.4,0,0,0,.432.534c.65-.106,1.684-.274,2.674-.438a.266.266,0,0,1,.272.4,22.926,22.926,0,0,0-2.687,9.025.245.245,0,0,0,.23.272,5.16,5.16,0,0,0,3.2-.86.357.357,0,0,1,.555.2c.488,1.862,1.474,5.1,1.474,5.1s2.8-2.486,2.7-3.428c-.158-1.5-1.031-10.754,2.773-9.882s5.766,1.5,8.945,1.5,5.143-.633,8.945-1.5,2.931,8.377,2.773,9.882c-.1.942,2.7,3.428,2.7,3.428a16.784,16.784,0,0,1,.7-3.606C134.481,30.842,136.454,24.289,136.111,20.171Z" transform="translate(-7.871 -6.519)" fill="#ab695d"/><g transform="translate(91.402 0.981)"><path d="M261.741,20.171a9.5,9.5,0,0,0-3.373-6.251.332.332,0,0,1-.115-.255c.051-2.227-1.544-6.165-13.464-6.165-.578,0-1.14.019-1.688.051,9.885.465,11.274,4.035,11.226,6.114a.331.331,0,0,0,.115.255,9.5,9.5,0,0,1,3.373,6.251,30.127,30.127,0,0,1-1.13,8.709c-.041,1.191-.136,2.169-.179,2.577-.1.942,2.7,3.428,2.7,3.428a16.785,16.785,0,0,1,.7-3.606C260.111,30.842,262.084,24.289,261.741,20.171Z" transform="translate(-224.903 -7.5)" fill="#9b5e5e"/><path d="M104.1,177.6c0-.011-.009-.02-.012-.031-.017.138-.034.277-.049.418a.245.245,0,0,0,.23.272h.009C104.21,178.025,104.151,177.8,104.1,177.6Z" transform="translate(-104.034 -155.313)" fill="#9b5e5e"/></g><path d="M156.331,382.625v4.79a.785.785,0,0,1-.785.785H121.785a.785.785,0,0,1-.785-.785v-4.79a11.012,11.012,0,0,1,7.838-10.544l4.618-1.39c.185-.056.375,5.42,5.209,5.42s5.024-5.476,5.209-5.42l4.618,1.39A11.012,11.012,0,0,1,156.331,382.625Z" transform="translate(-27.378 -322.182)" fill="#6c7fd8"/><path d="M243.108,421.17h0a1.941,1.941,0,0,1-1.941-1.941v-7.117h3.882v7.117A1.941,1.941,0,0,1,243.108,421.17Z" transform="translate(-131.82 -358.184)" fill="#f3eae6"/><g transform="translate(116.217 48.507)"><path d="M298.566,372.08l-4.618-1.39a6.471,6.471,0,0,0-.28,1.1l.973.293a11.012,11.012,0,0,1,7.838,10.544v4.79a.785.785,0,0,1-.785.785h3.926a.785.785,0,0,0,.785-.785v-4.79A11.012,11.012,0,0,0,298.566,372.08Z" transform="translate(-293.667 -370.69)" fill="#0573ce"/></g><path d="M191.12,374.394c-8.045,6.825-9.577-2.989-9.766-4.558a.292.292,0,0,1,.16-.3c2.908-1.428,4.4-.565,4.4-.565A7.512,7.512,0,0,0,191.12,374.394Z" transform="translate(-79.832 -320.466)" fill="#faf7f7"/><path d="M256.072,374.394c8.045,6.825,9.577-2.989,9.766-4.558a.292.292,0,0,0-.16-.3c-2.908-1.428-4.4-.565-4.4-.565A7.512,7.512,0,0,1,256.072,374.394Z" transform="translate(-144.775 -320.466)" fill="#faf7f7"/><g transform="translate(89.5 0)"><path d="M94.385,187.376c-3.207,0-4.885-3.672-4.885-7.3a8.326,8.326,0,0,1,1.024-4.276.981.981,0,0,1,1.682,1.012,6.4,6.4,0,0,0-.743,3.264c0,2.587,1.024,5.336,2.922,5.336a2.67,2.67,0,0,0,1.674-.618.981.981,0,1,1,1.215,1.542A4.648,4.648,0,0,1,94.385,187.376Z" transform="translate(-89.5 -152.383)"/><path d="M363.009,175.686a4.663,4.663,0,0,1-2.979-1.111.981.981,0,0,1,1.247-1.516,2.726,2.726,0,0,0,1.732.664c1.9,0,2.922-2.749,2.922-5.336,0-2.2-.768-4.548-2.922-4.548a2.46,2.46,0,0,0-.54.06.981.981,0,1,1-.432-1.915,4.424,4.424,0,0,1,.973-.108c2.967,0,4.885,2.556,4.885,6.511C367.893,172.014,366.215,175.686,363.009,175.686Z" transform="translate(-324.318 -140.693)"/><g transform="translate(8.767 62.615)"><path d="M-6.519-3.313A.981.981,0,0,1-7.5-4.294V-6.519A.981.981,0,0,1-6.519-7.5a.981.981,0,0,1,.981.981v2.225A.981.981,0,0,1-6.519-3.313Z" transform="translate(7.5 7.5)"/><path d="M-6.519-3.313A.981.981,0,0,1-7.5-4.294V-6.519A.981.981,0,0,1-6.519-7.5a.981.981,0,0,1,.981.981v2.225A.981.981,0,0,1-6.519-3.313Z" transform="translate(31.578 7.5)"/></g><path d="M153.657,228.733a15.376,15.376,0,0,1-15.377-15.376v-3.1a.981.981,0,0,1,1.963,0v3.1a13.414,13.414,0,0,0,13.414,13.413A13.484,13.484,0,0,0,167.126,213.3v-3.041a.981.981,0,0,1,1.963,0V213.3A15.449,15.449,0,0,1,153.657,228.733Z" transform="translate(-131.897 -181.894)"/><g transform="translate(13.314 20.158)"><g transform="translate(0 0)"><path d="M196.085,156.311a.982.982,0,0,1-.249-.032,5.475,5.475,0,0,0-3.364,0,.981.981,0,1,1-.5-1.9,7.333,7.333,0,0,1,4.356,0,.982.982,0,0,1-.247,1.931Z" transform="translate(-191.243 -154.049)"/></g><g transform="translate(11.125)"><path d="M277.239,156.311a.982.982,0,0,1-.247-1.931,7.333,7.333,0,0,1,4.356,0,.981.981,0,1,1-.5,1.9,5.475,5.475,0,0,0-3.364,0A.983.983,0,0,1,277.239,156.311Z" transform="translate(-276.258 -154.049)"/></g><g transform="translate(1.93 16.349)"><path d="M212.536,282.378a12.427,12.427,0,0,1-6.04-1.555.981.981,0,1,1,.955-1.715,10.53,10.53,0,0,0,10.17,0,.981.981,0,1,1,.955,1.715A12.427,12.427,0,0,1,212.536,282.378Z" transform="translate(-205.992 -278.984)"/></g><g transform="translate(1.35 5.919)"><path d="M-5.864-7.5A1.638,1.638,0,0,1-4.229-5.864,1.638,1.638,0,0,1-5.864-4.229,1.638,1.638,0,0,1-7.5-5.864,1.638,1.638,0,0,1-5.864-7.5Z" transform="translate(7.5 7.5)"/><path d="M-5.864-7.5A1.638,1.638,0,0,1-4.229-5.864,1.638,1.638,0,0,1-5.864-4.229,1.638,1.638,0,0,1-7.5-5.864,1.638,1.638,0,0,1-5.864-7.5Z" transform="translate(18.477 7.5)"/></g><path d="M235.383,248.236a.981.981,0,0,1-.752-1.611,3.261,3.261,0,0,1,2.614-1.141,3.217,3.217,0,0,1,2.606,1.148.981.981,0,0,1-1.518,1.244,1.314,1.314,0,0,0-1.088-.43,1.352,1.352,0,0,0-1.109.438A.979.979,0,0,1,235.383,248.236Z" transform="translate(-228.754 -233.519)"/></g><g transform="translate(16.97 44.586)"><path d="M220.167,347.012a.982.982,0,0,1-.83-1.5,1.537,1.537,0,0,0,.236-.819v-2.652a.981.981,0,0,1,1.963,0v2.652a3.5,3.5,0,0,1-.538,1.865A.981.981,0,0,1,220.167,347.012Z" transform="translate(-219.186 -341.011)"/><path d="M276.143,346.58a.981.981,0,0,1-.864-.515,3.513,3.513,0,0,1-.422-1.667v-2.7a.981.981,0,0,1,1.963,0v2.7a1.544,1.544,0,0,0,.185.733.982.982,0,0,1-.862,1.449Z" transform="translate(-267.572 -340.722)"/></g><g transform="translate(6.384 23.318)"><path d="M-1.611-7.5c3.247,0,5.889,2.287,5.889,5.1S1.636,2.7-1.611,2.7-7.5.409-7.5-2.4-4.858-7.5-1.611-7.5Zm0,8.234C.554.734,2.315-.673,2.315-2.4S.554-5.537-1.611-5.537-5.537-4.131-5.537-2.4-3.776.734-1.611.734Z" transform="translate(10.009 7.5)"/><path d="M-1.611-7.5c3.247,0,5.889,2.287,5.889,5.1S1.636,2.7-1.611,2.7-7.5.409-7.5-2.4-4.858-7.5-1.611-7.5Zm0,8.234C.554.734,2.315-.673,2.315-2.4S.554-5.537-1.611-5.537-5.537-4.131-5.537-2.4-3.776.734-1.611.734Z" transform="translate(24.021 7.5)"/><path d="M-2.322-5.537h-4.2A.981.981,0,0,1-7.5-6.519.981.981,0,0,1-6.519-7.5h4.2a.981.981,0,0,1,.981.981A.981.981,0,0,1-2.322-5.537Z" transform="translate(19.824 11.617)"/><path d="M-4.01-5.537H-6.519A.981.981,0,0,1-7.5-6.519.981.981,0,0,1-6.519-7.5H-4.01a.981.981,0,0,1,.981.981A.981.981,0,0,1-4.01-5.537Z" transform="translate(7.5 11.617)"/><path d="M-4.01-5.537H-6.519A.981.981,0,0,1-7.5-6.519.981.981,0,0,1-6.519-7.5H-4.01a.981.981,0,0,1,.981.981A.981.981,0,0,1-4.01-5.537Z" transform="translate(33.836 11.617)"/></g><path d="M98.222,29.349a.982.982,0,0,1-.939-.7c-.035-.115-.759-2.5-1.269-4.339a6.525,6.525,0,0,1-3.073.592,1.227,1.227,0,0,1-1.157-1.36,26.148,26.148,0,0,1,2.141-8.116l-1.267.208a1.376,1.376,0,0,1-1.5-1.863A22.265,22.265,0,0,1,97.6,5.012.981.981,0,1,1,98.845,6.53a20.386,20.386,0,0,0-5.441,7l1.613-.264a1.236,1.236,0,0,1,1.232.525,1.253,1.253,0,0,1,.046,1.34,21.326,21.326,0,0,0-2.452,7.792,3.7,3.7,0,0,0,1.771-.644,1.339,1.339,0,0,1,2.086.743c.264,1.009.681,2.442,1,3.527a6.135,6.135,0,0,0,1.254-1.621c-.327-2.961-.56-8.4,1.518-10.242a2.652,2.652,0,0,1,2.447-.581c.682.156,1.306.305,1.887.444a26.715,26.715,0,0,0,6.839,1.036,26.715,26.715,0,0,0,6.839-1.036c.582-.139,1.205-.288,1.887-.444a2.652,2.652,0,0,1,2.447.581c2.078,1.842,1.845,7.282,1.521,10.36a6.714,6.714,0,0,0,1.014,1.257,8.686,8.686,0,0,1,.521-1.951c.293-.715,2.053-6.912,1.745-10.613a8.489,8.489,0,0,0-3.044-5.6,1.31,1.31,0,0,1-.448-1.014,3.244,3.244,0,0,0-.988-2.407c-1.228-1.256-4.219-2.754-11.494-2.754A22.636,22.636,0,0,0,102.44,4.2a.981.981,0,1,1-.877-1.756A24.576,24.576,0,0,1,112.646,0c6.389,0,10.729,1.125,12.9,3.345a5.206,5.206,0,0,1,1.545,3.514,10.39,10.39,0,0,1,3.49,6.761c.355,4.251-1.64,10.943-1.924,11.554a15.079,15.079,0,0,0-.609,3.285.981.981,0,0,1-1.628.642c-2.11-1.872-3.129-3.306-3.03-4.264.456-4.331.106-7.822-.871-8.687a.7.7,0,0,0-.707-.137c-.676.155-1.294.3-1.87.44a28.586,28.586,0,0,1-7.294,1.09,28.586,28.586,0,0,1-7.294-1.09c-.577-.138-1.194-.285-1.87-.44a.7.7,0,0,0-.707.137c-.976.865-1.326,4.356-.871,8.686.1.959-.919,2.394-3.03,4.265A.982.982,0,0,1,98.222,29.349Z" transform="translate(-90.858 0)"/><path d="M168.134,58.365a.981.981,0,0,1-.13-1.954l8.9-1.2c5.769-.777,8.6-2.471,8.631-2.488a.981.981,0,0,1,1.02,1.677c-.129.078-3.218,1.925-9.39,2.756l-8.9,1.2A.99.99,0,0,1,168.134,58.365Z" transform="translate(-156.993 -45.7)"/><path d="M236.589,425.531a2.926,2.926,0,0,1-2.922-2.922v-5.627a.981.981,0,0,1,1.963,0v5.627a.96.96,0,1,0,1.919,0v-5.485a.981.981,0,0,1,1.963,0v5.485A2.926,2.926,0,0,1,236.589,425.531Z" transform="translate(-214.802 -361.563)"/><path d="M149.028,391.9H115.267a1.769,1.769,0,0,1-1.767-1.767v-4.79a11.921,11.921,0,0,1,8.537-11.484.981.981,0,0,1,.566,1.88,9.97,9.97,0,0,0-7.139,9.6v4.594h33.369V385.34q0-.475-.044-.941a.981.981,0,0,1,1.954-.183q.052.556.052,1.124v4.79A1.769,1.769,0,0,1,149.028,391.9Z" transform="translate(-110.359 -324.898)"/><path d="M330.995,380.9a.981.981,0,0,1-.855-.5,9.99,9.99,0,0,0-5.84-4.667.981.981,0,0,1,.566-1.88,11.944,11.944,0,0,1,6.983,5.58.982.982,0,0,1-.853,1.465Z" transform="translate(-292.967 -324.898)"/><path d="M178.065,361.215a3.738,3.738,0,0,1,1.82.391.981.981,0,0,1,.471.662,6.486,6.486,0,0,0,4.519,4.664.981.981,0,0,1,.361,1.691c-2.079,1.764-3.9,2.621-5.573,2.621-3.582,0-5.346-4.034-5.8-7.809a1.275,1.275,0,0,1,.7-1.3A8.036,8.036,0,0,1,178.065,361.215Zm.519,2.006a2.949,2.949,0,0,0-.519-.043,5.636,5.636,0,0,0-2.184.515c.248,1.507,1.161,5.589,3.782,5.589a5.6,5.6,0,0,0,2.978-1.143A8.5,8.5,0,0,1,178.584,363.221Z" transform="translate(-162.813 -313.947)"/><path d="M256.09,361.215h0a8.035,8.035,0,0,1,3.5.924,1.275,1.275,0,0,1,.7,1.3c-.456,3.775-2.22,7.809-5.8,7.809-1.671,0-3.494-.857-5.573-2.621a.981.981,0,0,1,.361-1.691,6.486,6.486,0,0,0,4.52-4.669.992.992,0,0,1,.47-.657A3.738,3.738,0,0,1,256.09,361.215Zm2.184,2.478a5.636,5.636,0,0,0-2.184-.515,2.9,2.9,0,0,0-.519.044,8.5,8.5,0,0,1-4.057,4.917,5.6,5.6,0,0,0,2.978,1.143C257.112,369.282,258.026,365.2,258.274,363.693Z" transform="translate(-227.756 -313.947)"/></g></g></g></svg>