<svg xmlns="http://www.w3.org/2000/svg" width="90" height="90" viewBox="0 0 90 90"><g transform="translate(-1125 -18624)"><circle cx="45" cy="45" r="45" transform="translate(1125 18624)" fill="#80cab6"/><g transform="translate(1130.822 18634.443)"><path d="M51.017,45.474a27.689,27.689,0,0,0,12.726-3.128c-3.555-5-3.555-11.927-3.555-11.927l-.009-5.054C60.541,6.819,49.94,8.4,49.94,8.4s-2.31-2.639-7.72-1.992S30.007,10.947,30.078,22.1c.008,1.274-.019,2.346-.072,3.264v5.054s0,6.927-3.555,11.925a27.689,27.689,0,0,0,12.726,3.128Z" transform="translate(-6.179 -0.882)" fill="#ff9664"/><path d="M62.642,87.969a6.456,6.456,0,0,0-4.92-5.6l-12-2.867-.476-5.6a18.122,18.122,0,0,1-2.465,1.522,6.55,6.55,0,0,1-5.955,0,18.061,18.061,0,0,1-2.465-1.521l-.475,5.6L21.876,82.373a6.456,6.456,0,0,0-4.919,5.6l-1.029,9.668H63.672Z" transform="translate(-0.881 -34.913)" fill="#f7d291"/><path d="M35.284,44.427s-2.777-1.332-3.711,1.124A3.7,3.7,0,0,0,36.1,50.315H59.062a3.7,3.7,0,0,0,4.522-4.764c-.934-2.456-3.711-1.124-3.711-1.124Z" transform="translate(-8.66 -19.89)" fill="#f7d291"/><path d="M63.831,34.847s-2.169-1.535-3.414-5.752c-1.2-4.058-5.232-2.558-5.232-2.558-3.411-2.963-8-1.257-10.494,2.693-2.759,4.373-5.449,5.618-5.449,5.618,0,9.669,5.678,14.121,9.317,15.98a6.55,6.55,0,0,0,5.955,0C58.152,48.967,63.831,44.516,63.831,34.847Z" transform="translate(-12.618 -10.31)" fill="#ffe1a0"/><path d="M63.252,101.207S56,101.207,56,89.5l-2.589-.6c-.609,1.886-3.661,9.429-13.611,9.429-9.977,0-13.018-7.585-13.614-9.445l-2.582.617c0,11.709-7.25,11.709-7.25,11.709l-.422,3.967H63.678Z" transform="translate(-0.884 -42.45)" fill="#a5cdff"/><g transform="translate(14.177 4.556)"><path d="M63.654,62.632l-.676-6.356a.869.869,0,1,0-1.729.184l.134,1.253c-1.706-.5-5.058-2.38-5.371-9.558l.628.149A5.6,5.6,0,0,1,60.7,52.166a.869.869,0,1,0,1.668-.489,7.34,7.34,0,0,0-5.327-5.065L50.1,44.957A27.06,27.06,0,0,0,58,42.214a.869.869,0,0,0,.272-1.255c-2.919-4.1-3.327-9.687-3.385-11.091a4.731,4.731,0,0,0,.848-4.515,3.311,3.311,0,0,0-.865-1.3c.075-7.265-1.508-12.383-4.717-15.2A8.718,8.718,0,0,0,44.08,6.623c-.87-.758-3.451-2.52-8.141-1.958a14.709,14.709,0,0,0-7.2,2.87A.869.869,0,1,0,29.8,8.913,12.969,12.969,0,0,1,36.144,6.39c4.832-.577,6.883,1.613,6.963,1.7a.863.863,0,0,0,.783.287A6.867,6.867,0,0,1,49,10.153c2.676,2.35,4.095,6.889,4.134,13.168a4.569,4.569,0,0,0-1.746.218,11.485,11.485,0,0,1-2.759-5,4.6,4.6,0,0,0-2.308-2.985,5.349,5.349,0,0,0-3.56-.288A6.546,6.546,0,0,0,37.71,13.93a9.4,9.4,0,0,0-6.373,4.524,15.828,15.828,0,0,1-4.779,5.122,4.658,4.658,0,0,0-1.814-.258c.019-.658.028-1.358.023-2.1a23.213,23.213,0,0,1,.179-3.093.869.869,0,1,0-1.724-.223,24.963,24.963,0,0,0-.194,3.327c.006,1.031-.012,1.972-.05,2.816a3.3,3.3,0,0,0-.878,1.313,4.732,4.732,0,0,0,.848,4.515c-.057,1.4-.466,6.988-3.385,11.091a.869.869,0,0,0,.272,1.255,27.053,27.053,0,0,0,7.9,2.743l-6.94,1.658a7.337,7.337,0,0,0-5.582,6.349l-1.029,9.669a.87.87,0,0,0,.773.956c.031,0,.062,0,.093,0a.87.87,0,0,0,.863-.777l.348-3.288c1.994-.387,7.077-2.312,7.315-11.791l1.177-.282c1.043,2.628,4.635,9.289,14.166,9.289s13.128-6.676,14.168-9.289l1.177.282c.238,9.479,5.32,11.4,7.315,11.791l.348,3.288a.869.869,0,0,0,.863.777.65.65,0,0,0,.093,0,.87.87,0,0,0,.775-.956ZM45.635,43.708l-.366-4.313a17.072,17.072,0,0,0,5.737-8.02c.145.01.289.021.43.021a4.817,4.817,0,0,0,1.785-.33A23.732,23.732,0,0,0,56.3,41.133,27.65,27.65,0,0,1,45.635,43.708ZM53.4,25.146a1.317,1.317,0,0,1,.714.824,3,3,0,0,1-.555,2.781,2.624,2.624,0,0,1-2.051.9,21.59,21.59,0,0,0,.565-4.5,2.212,2.212,0,0,1,1.327-.005Zm-20.59-5.764a7.792,7.792,0,0,1,5.156-3.732A4.916,4.916,0,0,1,42,16.882a.871.871,0,0,0,.872.158,3.873,3.873,0,0,1,2.677.067,2.939,2.939,0,0,1,1.419,1.921,12.837,12.837,0,0,0,3.377,5.909c-.156,9.02-5.585,13.142-8.839,14.8a5.689,5.689,0,0,1-5.164,0c-3.243-1.657-8.64-5.753-8.839-14.7a17.56,17.56,0,0,0,5.307-5.661Zm-7.041,5.771a21.626,21.626,0,0,0,.565,4.5,2.624,2.624,0,0,1-2.051-.908,3,3,0,0,1-.555-2.781,1.316,1.316,0,0,1,.714-.824,2.214,2.214,0,0,1,1.327.009Zm-1.149,5.914a4.817,4.817,0,0,0,1.785.33c.141,0,.285-.011.43-.021a17.076,17.076,0,0,0,5.737,8.02L32.2,43.708a27.741,27.741,0,0,1-10.668-2.576,23.764,23.764,0,0,0,3.083-10.066ZM16.453,57.721l.487-4.573A5.6,5.6,0,0,1,21.2,48.3l.629-.149c-.312,7.225-3.66,9.087-5.373,9.565Zm22.465-2.714c-8.178,0-11.376-5.3-12.464-7.958L33.2,45.438c.007,0,.013-.007.021-.009a.864.864,0,0,0,.208-.086c.011-.006.022-.011.033-.018a.879.879,0,0,0,.178-.151l.031-.038a.86.86,0,0,0,.185-.44c0-.01.006-.019.007-.029l.351-4.127c.466.289.915.539,1.33.751a7.433,7.433,0,0,0,6.746,0c.416-.212.864-.462,1.33-.751l.351,4.127a.211.211,0,0,0,.007.029.86.86,0,0,0,.185.44l.031.038a.879.879,0,0,0,.178.151c.011.007.022.011.033.018a.864.864,0,0,0,.208.086c.007,0,.014.007.021.009l6.748,1.611C50.3,49.7,47.1,55.007,38.918,55.007Z" transform="translate(-14.177 -4.556)"/><path d="M55.907,61.665a.87.87,0,0,0,.328,1.185,8.74,8.74,0,0,0,7.268,0,.869.869,0,0,0-.851-1.516,7.092,7.092,0,0,1-5.561,0,.87.87,0,0,0-1.184.328Z" transform="translate(-35.128 -33.083)"/><path d="M51.359,40.95a2.281,2.281,0,0,1,1.4.4.869.869,0,1,0,1.157-1.3,4.319,4.319,0,0,0-5.118,0,.862.862,0,0,0-.065,1.208.877.877,0,0,0,1.22.091,2.271,2.271,0,0,1,1.4-.4Z" transform="translate(-31.466 -22)"/><path d="M54.221,46.991a1.2,1.2,0,1,0-1.2,1.2,1.2,1.2,0,0,0,1.2-1.2Z" transform="translate(-33.129 -25.315)"/><path d="M69.478,41.357a2.663,2.663,0,0,1,2.807,0,.869.869,0,1,0,1.157-1.3,4.32,4.32,0,0,0-5.118,0,.862.862,0,0,0-.065,1.208.877.877,0,0,0,1.22.09Z" transform="translate(-41.294 -22.006)"/><circle cx="1.199" cy="1.199" r="1.199" transform="translate(28.373 22.86) rotate(-89.599)"/><path d="M35.093,21.013a.869.869,0,0,0,1.13-.485,13.2,13.2,0,0,1,.894-1.826.869.869,0,1,0-1.5-.885,14.964,14.964,0,0,0-1.013,2.066A.869.869,0,0,0,35.093,21.013Z" transform="translate(-24.431 -11.017)"/></g></g></g></svg>