<svg xmlns="http://www.w3.org/2000/svg" width="117.12" height="117.124" viewBox="0 0 117.12 117.124"><g transform="translate(0 0.001)"><path d="M15.49,10H92.353a5.49,5.49,0,0,1,5.49,5.49V117.059a5.49,5.49,0,0,1-5.49,5.49H15.49a5.49,5.49,0,0,1-5.49-5.49V15.49A5.49,5.49,0,0,1,15.49,10Zm0,0" transform="translate(-7.713 -7.713)" fill="#79b2ff"/><path d="M102.69,50h16.852v94.248H50V50H66.852" transform="translate(-38.562 -38.563)" fill="#fff"/><path d="M131.693,26.471h24.667a4.861,4.861,0,0,0,4.861-4.861V10h-34.39V21.609A4.862,4.862,0,0,0,131.693,26.471Zm0,0" transform="translate(-97.818 -7.713)" fill="#ff6977"/><path d="M131.693,26.471h24.667a4.861,4.861,0,0,0,4.861-4.861V10h-34.39V21.609A4.862,4.862,0,0,0,131.693,26.471Zm0,0" transform="translate(-97.818 -7.713)" fill="#bdd9ff"/><path d="M316.532,164.22l26.8-26.8a6.05,6.05,0,1,1,8.556,8.556l-26.8,26.8-15.423,6.866Zm0,0" transform="translate(-238.826 -104.616)" fill="#ffc15a"/><path d="M325.087,269.115l-8.556-8.556-6.867,15.422Zm0,0" transform="translate(-238.826 -200.954)" fill="#98a1b3"/><path d="M452.549,148.914l2.942-2.942a6.05,6.05,0,0,0-8.556-8.556l-2.942,2.941Zm0,0" transform="translate(-342.426 -104.615)" fill="#ff6977"/><path d="M98,130h14.641v14.641H98Zm0,0" transform="translate(-75.582 -100.262)" fill="#cbe558"/><path d="M98,240h14.641v14.641H98Zm0,0" transform="translate(-75.582 -185.099)" fill="#cbe558"/><path d="M98,350h14.641v14.641H98Zm0,0" transform="translate(-75.582 -269.935)" fill="#ff6977"/><path d="M194.288,452a2.288,2.288,0,1,0,1.617.67A2.306,2.306,0,0,0,194.288,452Zm0,0" transform="translate(-148.079 -348.602)"/><path d="M114.682,31.184a8.347,8.347,0,0,0-11.791,0L92.418,41.657V7.777A7.787,7.787,0,0,0,84.64,0H7.777A7.787,7.787,0,0,0,0,7.777V109.346a7.787,7.787,0,0,0,7.778,7.778H84.64a7.787,7.787,0,0,0,7.778-7.778V65.239l22.264-22.265a8.347,8.347,0,0,0,0-11.791ZM87.843,7.777V46.232l-4.575,4.575V11.437A2.287,2.287,0,0,0,80.98,9.15H65.692V4.575H84.64a3.207,3.207,0,0,1,3.2,3.2ZM75.352,70.513l3.088-6.938,3.85,3.85ZM61.117,4.575V13.9a2.576,2.576,0,0,1-2.574,2.574H33.875A2.576,2.576,0,0,1,31.3,13.9V4.575ZM84.64,112.548H7.778a3.206,3.206,0,0,1-3.2-3.2V7.777a3.206,3.206,0,0,1,3.2-3.2H26.726V9.15H11.438A2.287,2.287,0,0,0,9.15,11.437v94.248a2.287,2.287,0,0,0,2.288,2.288H37.059a2.288,2.288,0,0,0,0-4.575H13.725V13.725h13V13.9a7.157,7.157,0,0,0,7.149,7.149H58.543A7.157,7.157,0,0,0,65.692,13.9v-.172h13V55.382l-2.606,2.6a2.315,2.315,0,0,0-.472.687L68.749,74.1a2.288,2.288,0,0,0,3.02,3.021l6.924-3.083V103.4H55.359a2.288,2.288,0,1,0,0,4.575H80.98a2.288,2.288,0,0,0,2.288-2.288V72l3.924-1.747a2.281,2.281,0,0,0,.651-.44v39.535a3.206,3.206,0,0,1-3.2,3.2Zm18.28-64.283L86.261,64.926,80.94,59.6l20.627-20.627,5.321,5.321Zm8.527-8.526-1.324,1.323-5.32-5.32,1.323-1.323a3.762,3.762,0,1,1,5.321,5.32Zm0,0" transform="translate(0 0)"/><path d="M104.928,120H90.288A2.287,2.287,0,0,0,88,122.288v14.641a2.287,2.287,0,0,0,2.288,2.288h14.641a2.287,2.287,0,0,0,2.288-2.288V122.288A2.287,2.287,0,0,0,104.928,120Zm-2.288,14.641H92.575V124.575h10.065Zm0,0" transform="translate(-67.87 -92.55)"/><path d="M104.928,230H90.288A2.287,2.287,0,0,0,88,232.288v14.641a2.287,2.287,0,0,0,2.288,2.288h14.641a2.287,2.287,0,0,0,2.288-2.288V232.288A2.287,2.287,0,0,0,104.928,230Zm-2.288,14.641H92.575V234.575h10.065Zm0,0" transform="translate(-67.87 -177.386)"/><path d="M104.928,340H90.288A2.287,2.287,0,0,0,88,342.288v14.641a2.287,2.287,0,0,0,2.288,2.288h14.641a2.287,2.287,0,0,0,2.288-2.288V342.288A2.287,2.287,0,0,0,104.928,340Zm-2.288,14.641H92.575V344.575h10.065Zm0,0" transform="translate(-67.87 -262.223)"/><path d="M214.161,143.659a2.287,2.287,0,0,0,3.235,0l10.328-10.328a2.288,2.288,0,1,0-3.236-3.235l-8.71,8.71-3.472-3.472a2.288,2.288,0,0,0-3.236,3.235Zm0,0" transform="translate(-160.728 -99.82)"/><path d="M214.161,253.662a2.287,2.287,0,0,0,3.235,0l10.328-10.327a2.288,2.288,0,1,0-3.236-3.236l-8.71,8.711-3.472-3.472a2.288,2.288,0,0,0-3.236,3.235Zm0,0" transform="translate(-160.728 -184.658)"/><path d="M226.978,360.114l3.547,3.546a2.287,2.287,0,0,0,3.235-3.235l-3.546-3.547,3.546-3.547a2.287,2.287,0,1,0-3.235-3.235l-3.547,3.546-3.546-3.546a2.288,2.288,0,1,0-3.236,3.235l3.547,3.547-3.547,3.547a2.288,2.288,0,0,0,3.236,3.235Zm0,0" transform="translate(-169.308 -269.493)"/></g></svg>