<svg xmlns="http://www.w3.org/2000/svg" width="90" height="90" viewBox="0 0 90 90"><g transform="translate(-810 -18491)"><circle cx="45" cy="45" r="45" transform="translate(810 18491)" fill="#80cab6"/><g transform="translate(764.556 18503.408)"><path d="M164.766,49.937V22.671A14.138,14.138,0,0,0,150.628,8.533h0A14.138,14.138,0,0,0,136.49,22.671V49.937Z" transform="translate(-60.189 -7.523)" fill="#a15d30"/><rect width="14.138" height="23.227" transform="translate(76.301 19.187)" fill="#8f4f24"/><path d="M187.691,443.733v8.079h16.158v-8.079a10.806,10.806,0,0,1-15.255.9A11.038,11.038,0,0,1,187.691,443.733Z" transform="translate(-105.33 -391.22)" fill="#ebebeb"/><path d="M202.586,297.424a2.02,2.02,0,0,1-1.767-2.02v-5.271h-10.1v5.282a2.02,2.02,0,0,1-1.767,2.02l-1.262.151V308.31a10.806,10.806,0,0,0,16.158,0V297.586Z" transform="translate(-105.33 -255.798)" fill="#fedac6"/><path d="M191.73,446.571a10.827,10.827,0,0,1-4.039-2.838v8.079h4.039Z" transform="translate(-105.33 -391.22)" fill="#dbdbdb"/><path d="M223.39,293.668v-3.535h-10.1v3.535A9.169,9.169,0,0,0,223.39,293.668Z" transform="translate(-127.901 -255.798)" fill="#f5c4b0"/><g transform="translate(69.232 41.707)"><path d="M82.068,354.078a6.059,6.059,0,0,0-5.312,6.059v11.775H89.885v-18.8Z" transform="translate(-76.757 -353.028)" fill="#3cacde"/><path d="M337.352,359.5a6.059,6.059,0,0,0-5.312-6.059l-7.816-1.01v18.884h13.128V359.5Z" transform="translate(-294.938 -352.427)" fill="#3cacde"/></g><g transform="translate(79.331 8.079)"><path d="M162.091,76.345l.555,9.089a10.563,10.563,0,0,0,21.106,0l.555-9.089L173.2,68.266Z" transform="translate(-162.091 -68.266)" fill="#fedac6"/><path d="M350.834,145.067h-1.01v6.059h1.01a3.03,3.03,0,0,0,0-6.059Z" transform="translate(-327.607 -135.978)" fill="#fedac6"/></g><path d="M127.957,148.1a3.029,3.029,0,0,0,3.03,3.03H132v-6.059h-1.01A3.029,3.029,0,0,0,127.957,148.1Z" transform="translate(-52.666 -127.899)" fill="#f5c4b0"/><path d="M76.757,364.378v12.2H80.8V358.4C77.767,359.41,76.757,361.43,76.757,364.378Z" transform="translate(-7.525 -315.986)" fill="#329ac7"/><path d="M150.628,44.544a28.875,28.875,0,0,1-13.744,6.6,13.949,13.949,0,0,0-.394,3.272v2.02h3.03l11.109-9.089V44.544Z" transform="translate(-60.189 -39.273)" fill="#8f4f24"/><path d="M167.442,118l-.3-7.069a63.9,63.9,0,0,0-5.049,4.039l.848,8.079a10.573,10.573,0,0,0,8.24,9.836l-1.343-2.494C167.594,126.233,167.442,122.719,167.442,118Z" transform="translate(-82.759 -97.806)" fill="#f5c4b0"/><circle cx="2.02" cy="2.02" r="2.02" transform="translate(94.479 17.168)"/><path d="M234.084,164.778l-3.03-1.01a1.011,1.011,0,0,1-.584-1.41l2.02-4.039,1.807.9-1.5,3,1.925.641Z" transform="translate(-142.954 -139.583)"/><path d="M70.242,316.39h-2.02V304.575a7.067,7.067,0,0,1,6.2-7.061l9.089-1.131a1.011,1.011,0,0,0,.883-1.01v-5.239h2.02v5.231a3.026,3.026,0,0,1-2.651,3.022l-9.09,1.131a5.05,5.05,0,0,0-4.427,5.049V316.39Z" transform="translate(0 -255.799)"/><path d="M308.277,316.389h-2.02V304.625a5.052,5.052,0,0,0-4.426-5.057l-9.089-1.13a3.031,3.031,0,0,1-2.653-3.03v-5.275h2.02v5.282a1.012,1.012,0,0,0,.884,1.018l9.087,1.13a7.069,7.069,0,0,1,6.2,7.069v11.758Z" transform="translate(-195.611 -255.798)"/><path d="M350.834,144.611h-1.01v-2.02h1.01a2.02,2.02,0,1,0,0-4.04h-1.01v-2.02h1.01a4.04,4.04,0,0,1,0,8.079Z" transform="translate(-248.276 -120.374)"/><path d="M165.69,156.272a11.552,11.552,0,0,1-11.562-11.064l-.554-9.072,2.016-.123.555,9.089a9.554,9.554,0,0,0,19.089.017l.556-9.106,2.016.123-.555,9.089A11.546,11.546,0,0,1,165.69,156.272Z" transform="translate(-75.251 -119.917)"/><path d="M239.662,225.687h-.771v-2.02h.771a8.594,8.594,0,0,0,3.827-.9l.9,1.807A10.626,10.626,0,0,1,239.662,225.687Z" transform="translate(-150.471 -196.401)"/><circle cx="2.02" cy="2.02" r="2.02" transform="translate(82.36 17.168)"/><path d="M178.9,70.609l-10.469-8.566L157.96,70.609l-1.28-1.563,11.109-9.089a1.009,1.009,0,0,1,1.28,0l11.108,9.089Z" transform="translate(-77.989 -52.66)"/><path d="M124.474,144.613h-1.01a4.039,4.039,0,0,1,0-8.079h1.01v2.02h-1.01a2.02,2.02,0,1,0,0,4.04h1.01Z" transform="translate(-45.143 -120.376)"/><path d="M158.253,18.177h-2.02v-3.03a13.128,13.128,0,1,0-26.256,0v3.03h-2.02v-3.03a15.148,15.148,0,0,1,30.3,0Z" transform="translate(-52.666)"/><rect width="2.02" height="7.069" transform="translate(89.43 1.01)"/><rect width="2.02" height="20.197" transform="translate(75.291 22.217)"/><rect width="2.02" height="20.197" transform="translate(103.568 22.217)"/><rect width="2.02" height="19.187" transform="translate(81.351 41.404)"/><rect width="2.02" height="19.187" transform="translate(97.508 41.404)"/><path d="M190.156,443.373a11.785,11.785,0,0,1-8.84-3.964l1.51-1.341a9.8,9.8,0,0,0,14.649,0l1.509,1.341a11.8,11.8,0,0,1-8.827,3.964Z" transform="translate(-99.71 -386.226)"/></g></g></svg>