<svg xmlns="http://www.w3.org/2000/svg" width="58" height="56" viewBox="0 0 58 56">
  <g id="Grupo_965349" data-name="Grupo 965349" transform="translate(-285 -3499)">
    <rect id="Rectángulo_340715" data-name="Rectángulo 340715" width="58" height="56" transform="translate(285 3499)" fill="#80cab6"/>
    <path id="Trazado_729878" data-name="Trazado 729878" d="M25.781-12.915q0,6.055-2.783,9.729A8.893,8.893,0,0,1,15.527.488a9.209,9.209,0,0,1-7.739-3.54L7.568,0H3.418V-37.5H7.935v13.989A9.156,9.156,0,0,1,15.479-26.9a8.947,8.947,0,0,1,7.556,3.638q2.747,3.638,2.747,9.961Zm-4.517-.513q0-4.614-1.782-7.129a5.9,5.9,0,0,0-5.127-2.515,6.631,6.631,0,0,0-6.421,4.15V-7.5a6.816,6.816,0,0,0,6.47,4.15,5.867,5.867,0,0,0,5.054-2.515Q21.265-8.374,21.265-13.428Z" transform="translate(298 3546)" fill="#fff"/>
  </g>
</svg>
