<svg xmlns="http://www.w3.org/2000/svg" xmlns:xlink="http://www.w3.org/1999/xlink" width="90" height="90" viewBox="0 0 90 90"><defs><clipPath id="a"><path d="M0-682.665H60v60H0Z" transform="translate(0 682.665)"/></clipPath></defs><g transform="translate(-495 -18491)"><circle cx="45" cy="45" r="45" transform="translate(495 18491)" fill="#80cab6"/><g transform="translate(510 19184.332)"><g transform="translate(0 -682.665)"><g clip-path="url(#a)"><g transform="translate(35.192 30.706)"><path d="M-61.431-135.726l2.618-6.86,1.013-3.744a1.831,1.831,0,0,0-1.81-2.475H-64.67c-.482.422-2.156.814-2.681,1.173v6.687l.6,2.312.575,4.533Z" transform="translate(67.35 148.805)" fill="#eff6ff" fill-rule="evenodd"/></g><g transform="translate(15.17 30.706)"><path d="M-100.014-81.564v-6.687c-.023-.017-.047-.033-.073-.05a16.524,16.524,0,0,1-1.435-1.123h-6.228a1.831,1.831,0,0,0-1.814,2.475l1.016,3.744,2.242,7.3,5.123,1.538.575-4.883.153-.6Z" transform="translate(109.651 89.424)" fill="#eff6ff" fill-rule="evenodd"/></g><g transform="translate(5.44 36.924)"><path d="M-223.744-152.959l-4.641-8.149-2.521-2.727-3.564-3.863c-4.993,1.711-9.663,4.438-10.038,9.74l-.784,11.075c-.076,1.1.209,1.382,1.359,1.382h7.481l8.069,0Z" transform="translate(245.304 167.698)" fill="#b1e4f9" fill-rule="evenodd"/></g><g transform="translate(34.564 36.924)"><path d="M-207.388-216.012l-.784-11.075c-.375-5.3-5.046-8.029-10.035-9.74l-3.568,3.863-2.521,2.727-3.076,9.045,3.076,5.584v.973l8.068,0h7.484c1.146,0,1.435-.279,1.355-1.382" transform="translate(227.371 236.827)" fill="#b1e4f9" fill-rule="evenodd"/></g><g transform="translate(22.359 29.327)"><path d="M-158.264-308.952l-2.99-6.066,2.99-6.086v-3.452l-.648-2.617-.6-2.312v-9.238a14.257,14.257,0,0,1-3.076,1.614,9.372,9.372,0,0,1-3.289.661,9.373,9.373,0,0,1-3.288-.661,14.154,14.154,0,0,1-3.073-1.614v9.238l-.6,2.312-.681,2.637v3.358l3.923,5.946-3.923,6.3Z" transform="translate(173.514 338.723)" fill="#f5a96c" fill-rule="evenodd"/></g><g transform="translate(12.936 16.84)"><path d="M-61.556-34.371l-2-3.312h-1.927a2.033,2.033,0,0,0-2.006,2.03v1.266c0,2.146,2.139,3.305,4.335,3.329-.262-.887,1.6-3.312,1.6-3.312" transform="translate(67.488 37.683)" fill="#ea9a58" fill-rule="evenodd"/></g><g transform="translate(40.607 16.84)"><path d="M-22.016-68.74c2.2-.023,4.335-1.183,4.335-3.328v-1.266a2.03,2.03,0,0,0-2-2.03h-1.927L-24.137-71.7c0,.84,2.384,2.069,2.121,2.956" transform="translate(24.137 75.364)" fill="#ea9a58" fill-rule="evenodd"/></g><g transform="translate(16.869 10.329)"><path d="M-268.37-136.315a9.249,9.249,0,0,0,.405-2.608v-4.016c-4.448-3.364-6.77-5.864-12.235-6.411-2.654-.266-12.344-.519-14.03,6.411v4.016a9.243,9.243,0,0,0,.4,2.608,16.109,16.109,0,0,0,4.857,7.242,16.567,16.567,0,0,0,1.438,1.123,14.143,14.143,0,0,0,3.146,1.661,9.3,9.3,0,0,0,3.289.661,9.3,9.3,0,0,0,3.289-.661,14.956,14.956,0,0,0,4.584-2.784,16.057,16.057,0,0,0,4.856-7.242" transform="translate(294.23 149.45)" fill="#ffbc85" fill-rule="evenodd"/></g><g transform="translate(16.869 0.879)"><path d="M-272.575-165.641c3.282-1.279,4.511-4.368,4.8-7.929.086-1.076.113-1.249-.784-.727a9.934,9.934,0,0,1-4.129,1.408c-2.428-10.862-18.944-10.872-21.193-3.863-4.557-.405-4.959,4.225-4.959,5.966v5.146c1.6-2.594,4.594-4.823,6.9-3.488,4.528,2.614,10.686,3.647,15.925,3.644,1.206,0,2.362-.053,3.438-.156" transform="translate(298.841 181.602)" fill="#7e707d" fill-rule="evenodd"/></g><g transform="translate(36.364 30.706)"><path d="M-15.651,0h5.059a16.511,16.511,0,0,1-6.255,4.624c-.1.05-.206.1-.312.146v-3.6c.023-.017.046-.033.073-.05A16.55,16.55,0,0,0-15.651,0" transform="translate(17.159)" fill="#d9eeff" fill-rule="evenodd"/></g><g transform="translate(17.071 30.706)"><path d="M-52.468,0h-5.056a16.476,16.476,0,0,0,6.252,4.624c.1.05.209.1.315.146v-3.6c-.027-.017-.05-.033-.073-.05A16.612,16.612,0,0,1-52.468,0" transform="translate(57.524)" fill="#d9eeff" fill-rule="evenodd"/></g><g transform="translate(23.638 31.878)"><path d="M-132.065-44.782V-49.1a14.1,14.1,0,0,1-3.076,1.611,9.3,9.3,0,0,1-3.289.661,9.3,9.3,0,0,1-3.289-.661A14,14,0,0,1-144.79-49.1v4.315c.448.206.9.4,1.365.565a14.139,14.139,0,0,0,5,1.007,14.171,14.171,0,0,0,5-1.007c.458-.169.913-.359,1.365-.565" transform="translate(144.79 49.097)" fill="#ea9a58" fill-rule="evenodd"/></g><g transform="translate(27.236 16.84)"><path d="M-110.382-143.893a16.056,16.056,0,0,0,4.856-7.242,9.245,9.245,0,0,0,.405-2.608v-4.016c-1.076.1-2.232.156-3.438.156v3.411a9.241,9.241,0,0,1-.4,2.608,16.427,16.427,0,0,1-9.441,10.026,9.97,9.97,0,0,1-2.618.631,8.817,8.817,0,0,0,2.764.478,9.3,9.3,0,0,0,3.289-.661,14.1,14.1,0,0,0,3.076-1.611l.073-.05a16.547,16.547,0,0,0,1.435-1.123" transform="translate(121.018 157.758)" fill="#f5a96c" fill-rule="evenodd"/></g><g transform="translate(22.359 46.873)"><path d="M-158.575-116.969v-11.2c-.415.163-.854.309-1.316.445a22.653,22.653,0,0,1-6.232.831,23.343,23.343,0,0,1-5.4-.611,16.726,16.726,0,0,1-2.332-.737V-116h15.28Z" transform="translate(173.856 128.24)" fill="#fde588" fill-rule="evenodd"/></g><g transform="translate(31.597 46.946)"><path d="M-62.707-116.211v-11.2c-.415.163-.854.309-1.316.445a19.717,19.717,0,0,1-1.993.462c.013.3.02.6.02.9a20.357,20.357,0,0,1-2.754,10.361h6.042Z" transform="translate(68.749 127.409)" fill="#fdd76f" fill-rule="evenodd"/></g><g transform="translate(41.111 36.924)"><path d="M-139.442-216.012l-.784-11.075c-.375-5.3-5.046-8.029-10.035-9.74l-2.618,2.834c4.458,1.737,8.368,3.863,8.693,8.687l.714,10.676h2.674c1.146,0,1.435-.279,1.355-1.382" transform="translate(152.878 236.827)" fill="#75cef9" fill-rule="evenodd"/></g><g transform="translate(22.898 0.879)"><path d="M-208.835-90.422c-2.186-9.78-15.792-10.763-20.123-5.747,5.105-1.747,12.749-.226,15.656,5.544a15.1,15.1,0,0,0,4.468.2" transform="translate(228.958 99.135)" fill="#6a5c6b" fill-rule="evenodd"/></g><g transform="translate(23.273 7.9)"><path d="M-206.112-92.782c3.282-1.279,4.511-4.368,4.8-7.929.086-1.076.113-1.249-.784-.728a11.909,11.909,0,0,1-1.648.807c-2.289,7.693-14.217,5.142-22.229,4.129a2.813,2.813,0,0,1,.5.233c4.528,2.614,10.686,3.647,15.925,3.644,1.206,0,2.362-.053,3.438-.156" transform="translate(225.973 101.722)" fill="#6a5c6b" fill-rule="evenodd"/></g><g transform="translate(44.829 52.588)"><path d="M348.338-66.916a.879.879,0,0,1-.879-.879v-5.654a.879.879,0,0,1,.879-.879.879.879,0,0,1,.879.879V-67.8A.879.879,0,0,1,348.338-66.916Z" transform="translate(-347.459 74.328)"/></g><g transform="translate(22.318 39.341)"><path d="M-5.048-6.379a.879.879,0,0,1-.807-.531L-6.241-7.8C-6.667-8.8-6.8-8.88-7.327-8.88l-1.766.056A.879.879,0,0,1-10-9.675a.879.879,0,0,1,.851-.906l1.794-.056A2.787,2.787,0,0,1-4.626-8.5l.384.891A.879.879,0,0,1-4.7-6.451.876.876,0,0,1-5.048-6.379Z" transform="translate(10 10.638)"/></g><g transform="translate(32.057 39.341)"><path d="M-53-5.741a.876.876,0,0,1-.345-.071.879.879,0,0,1-.463-1.154l.382-.894c.389-.9.921-2.141,2.7-2.141h1.581a.879.879,0,0,1,.879.879.879.879,0,0,1-.879.879h-1.581c-.529,0-.657.08-1.086,1.076l-.381.892A.879.879,0,0,1-53-5.741Z" transform="translate(53.881 10)"/></g><g transform="translate(41.85 15.961)"><path d="M-58.037-33.093h1.927a2.9,2.9,0,0,1,2.882,2.909v1.266c0,2.731-2.619,4.184-5.206,4.207a.879.879,0,0,1-.71-.35.879.879,0,0,1-.141-.779,8.364,8.364,0,0,0,.369-2.358v-4.016A.879.879,0,0,1-58.037-33.093Zm.736,6.487c1.27-.3,2.315-1.084,2.315-2.313v-1.266a1.153,1.153,0,0,0-1.124-1.151h-1.048V-28.2A9.284,9.284,0,0,1-57.3-26.606Z" transform="translate(59.321 33.093)"/></g><g transform="translate(12.057 15.961)"><path d="M-49.535-47.313h-.008c-2.587-.023-5.206-1.476-5.206-4.207v-1.266a2.9,2.9,0,0,1,2.885-2.909h1.927a.879.879,0,0,1,.879.879V-50.8a8.347,8.347,0,0,0,.366,2.358.879.879,0,0,1-.141.779A.879.879,0,0,1-49.535-47.313Zm-2.329-6.624a1.155,1.155,0,0,0-1.127,1.151v1.266c0,1.229,1.045,2.014,2.316,2.313a9.368,9.368,0,0,1-.141-1.592v-3.137Z" transform="translate(54.749 55.694)"/></g><g transform="translate(21.68 20.3)"><path d="M-9.121-14.029a.876.876,0,0,1-.631-.267.879.879,0,0,1,.019-1.243,2.907,2.907,0,0,1,4.017,0A.879.879,0,0,1-5.7-14.3a.879.879,0,0,1-1.243.019,1.136,1.136,0,0,0-1.57,0A.876.876,0,0,1-9.121-14.029Z" transform="translate(10 16.345)"/></g><g transform="translate(33.741 20.302)"><path d="M-6.328-14.016a.876.876,0,0,1-.61-.247,1.139,1.139,0,0,0-1.571,0,.879.879,0,0,1-1.243-.019.879.879,0,0,1,.019-1.243,2.91,2.91,0,0,1,4.016,0A.879.879,0,0,1-5.7-14.284.876.876,0,0,1-6.328-14.016Z" transform="translate(10 16.33)"/></g><g transform="translate(27.084 27.203)"><path d="M-7.1-7.4A3.71,3.71,0,0,1-9.743-8.5a.879.879,0,0,1,0-1.243.879.879,0,0,1,1.243,0,1.964,1.964,0,0,0,1.4.581,1.964,1.964,0,0,0,1.4-.581.879.879,0,0,1,1.243,0,.879.879,0,0,1,0,1.243A3.71,3.71,0,0,1-7.1-7.4Z" transform="translate(10 10)"/></g><g transform="translate(15.99 15.961)"><path d="M4.01,9.068A10.129,10.129,0,0,1,.415,8.352,14.99,14.99,0,0,1-2.925,6.589,17.457,17.457,0,0,1-9.562-2.248,10.1,10.1,0,0,1-10-5.1V-9.121A.879.879,0,0,1-9.121-10a.879.879,0,0,1,.879.879V-5.1a8.348,8.348,0,0,0,.366,2.358A15.623,15.623,0,0,0-1.923,5.145,13.238,13.238,0,0,0,1.025,6.7,8.446,8.446,0,0,0,4.01,7.31,8.441,8.441,0,0,0,6.992,6.7a15.6,15.6,0,0,0,8.9-9.45A8.364,8.364,0,0,0,16.265-5.1V-8.9a.828.828,0,0,1-.03-.221A.854.854,0,0,1,17.085-10a.932.932,0,0,1,.939.879V-5.1a10.112,10.112,0,0,1-.441,2.857A17.245,17.245,0,0,1,7.6,8.352,10.126,10.126,0,0,1,4.01,9.068Z" transform="translate(10 10)"/></g><g transform="translate(14.291 29.827)"><path d="M-81.086,4.567a.879.879,0,0,1-.645-.282l-2.521-2.727-3.565-3.864a.879.879,0,0,1-.2-.366l-1.016-3.744A2.913,2.913,0,0,1-88.6-8.972,2.724,2.724,0,0,1-86.375-10h5.056a.879.879,0,0,1,.879.879.879.879,0,0,1-.879.879h-5.056a1.024,1.024,0,0,0-.834.339,1.18,1.18,0,0,0-.131,1.028l.96,3.535L-82.962.365l1.427,1.544.848-3.282V-7.948a.879.879,0,0,1,.879-.879.879.879,0,0,1,.879.879v6.687a.879.879,0,0,1-.028.22l-1.279,4.95a.879.879,0,0,1-.636.632A.878.878,0,0,1-81.086,4.567Z" transform="translate(89.155 10)"/></g><g transform="translate(21.48 45.994)"><path d="M-175.246-7.728a22.083,22.083,0,0,1-8.063-1.413.879.879,0,0,1-.485-1.144.879.879,0,0,1,1.144-.485,20.3,20.3,0,0,0,7.4,1.284,20.492,20.492,0,0,0,7.228-1.216.879.879,0,0,1,1.138.5.879.879,0,0,1-.5,1.138A22.279,22.279,0,0,1-175.246-7.728Z" transform="translate(183.858 10.835)"/></g><g transform="translate(21.481 42.636)"><path d="M-9.121,7.361A.879.879,0,0,1-10,6.482v-15.6A.879.879,0,0,1-9.121-10a.879.879,0,0,1,.879.879v15.6A.879.879,0,0,1-9.121,7.361Z" transform="translate(10 10)"/></g><g transform="translate(36.761 42.636)"><path d="M-9.121,7.361A.879.879,0,0,1-10,6.482v-15.6A.879.879,0,0,1-9.121-10a.879.879,0,0,1,.879.879v15.6A.879.879,0,0,1-9.121,7.361Z" transform="translate(10 10)"/></g><g transform="translate(4.561 36.045)"><path d="M11.964-47.39l-23.193,0-23.189,0a2.346,2.346,0,0,1-1.794-.57,2.228,2.228,0,0,1-.441-1.752l.784-11.08a.879.879,0,0,1,.939-.815.879.879,0,0,1,.815.939L-34.9-49.589a2.38,2.38,0,0,0,0,.409,2.661,2.661,0,0,0,.484.032l23.189,0,23.193,0a2.651,2.651,0,0,0,.482-.032,2.371,2.371,0,0,0,0-.407l-.784-11.08c-.284-4.006-3.285-6.855-9.443-8.967a.879.879,0,0,1-.546-1.116A.879.879,0,0,1,2.786-71.3C9.6-68.96,13.077-65.524,13.412-60.792L14.2-49.713a2.221,2.221,0,0,1-.438,1.751A2.341,2.341,0,0,1,11.964-47.39ZM-28.9-68.035a.655.655,0,0,1-.454-.2.882.882,0,0,1-.32-.839c.075-.434.129-.747,4.44-2.223a.879.879,0,0,1,1.106.518.879.879,0,0,1-.48,1.123C-27.542-68.423-28.462-68.035-28.9-68.035Z" transform="translate(36.667 71.345)"/></g><g transform="translate(35.485 29.827)"><path d="M-25,4.567a.878.878,0,0,1-.215-.027.879.879,0,0,1-.636-.633l-1.276-4.95a.879.879,0,0,1-.028-.219V-7.948a.879.879,0,0,1,.879-.879.879.879,0,0,1,.879.879v6.576l.846,3.281,4.848-5.248.957-3.535A1.181,1.181,0,0,0-18.882-7.9a1.02,1.02,0,0,0-.831-.338h-5.059a.879.879,0,0,1-.879-.879A.879.879,0,0,1-24.772-10h5.059a2.72,2.72,0,0,1,2.227,1.027,2.913,2.913,0,0,1,.432,2.556l-1.013,3.744a.879.879,0,0,1-.2.367l-3.568,3.863-2.521,2.728A.879.879,0,0,1-25,4.567Z" transform="translate(27.159 10)"/></g><g transform="translate(15.99 -0.001)"><path d="M-165.449-168.48a41.526,41.526,0,0,1-7.227-.634.879.879,0,0,1-.71-1.02.879.879,0,0,1,1.02-.71,39.056,39.056,0,0,0,10.157.464c2.38-.978,3.722-3.178,4.093-6.717a10.428,10.428,0,0,1-3.9,1.205.879.879,0,0,1-.952-.682c-1.254-5.612-6.553-7.823-10.709-8.011-4.314-.2-7.928,1.542-8.789,4.225a.879.879,0,0,1-.915.607,3.23,3.23,0,0,0-2.6.72c-1.262,1.155-1.4,3.441-1.4,4.371v2.627c1.9-1.887,4.382-2.934,6.464-1.73a22.823,22.823,0,0,0,4.759,2.016.879.879,0,0,1,.584,1.1.879.879,0,0,1-1.1.584,24.574,24.574,0,0,1-5.127-2.176c-1.731-1-4.265.835-5.714,3.188a.879.879,0,0,1-.988.385.879.879,0,0,1-.639-.846v-5.146c0-1.444.256-4.1,1.969-5.668a4.73,4.73,0,0,1,3.276-1.2c1.406-3.118,5.435-5.029,10.3-4.808,4.579.207,10.374,2.6,12.14,8.591a9.359,9.359,0,0,0,3.035-1.184,1.55,1.55,0,0,1,1.64-.246c.577.364.527.979.465,1.757-.37,4.562-2.172,7.481-5.361,8.724a.879.879,0,0,1-.235.056C-163.058-168.534-164.244-168.48-165.449-168.48Z" transform="translate(189.145 186.359)"/></g><g transform="translate(23.959 6.763)"><path d="M.606-3.7a.888.888,0,0,1-.1-.006,18.938,18.938,0,0,1-10.257-4.8A.879.879,0,0,1-9.73-9.755a.879.879,0,0,1,1.243.025,17.238,17.238,0,0,0,9.2,4.273.879.879,0,0,1,.77.976A.879.879,0,0,1,.606-3.7Z" transform="translate(10 10)"/></g><g transform="translate(33.472 6.763)"><path d="M-1.952-6.209c-2.8,0-6.09-.748-7.759-2.261a.879.879,0,0,1-.061-1.241.879.879,0,0,1,1.241-.061C-7.143-8.514-3.415-7.707-.554-8.044a.879.879,0,0,1,.976.77.879.879,0,0,1-.77.976A13.776,13.776,0,0,1-1.952-6.209Z" transform="translate(10 10)"/></g></g></g></g></g></svg>