<svg xmlns="http://www.w3.org/2000/svg" width="94.667" height="94.667" viewBox="0 0 94.667 94.667">
  <g id="responsabilidad_1_" data-name="responsabilidad (1)" transform="translate(-2 -2)">
    <path id="Trazado_728119" data-name="Trazado 728119" d="M29.733,40.578A1.579,1.579,0,0,1,28.156,39H25a4.733,4.733,0,1,0,9.467,0H31.311A1.579,1.579,0,0,1,29.733,40.578Z" transform="translate(13.289 21.378)" fill="#12263f"/>
    <path id="Trazado_728120" data-name="Trazado 728120" d="M42.467,39H39.311a1.578,1.578,0,0,1-3.156,0H33a4.733,4.733,0,1,0,9.467,0Z" transform="translate(17.911 21.378)" fill="#12263f"/>
    <path id="Trazado_728121" data-name="Trazado 728121" d="M33.4,80.489V69.444a1.578,1.578,0,0,0-2.076-1.5,29.116,29.116,0,0,1-9.224,1.5H16.044V64.711h5.123a32.38,32.38,0,0,0,12.138-2.365,10.982,10.982,0,0,1,4.1-.79h7.4l-3.3,5.5a1.582,1.582,0,0,0-.058,1.518l4.733,9.467a1.578,1.578,0,0,0,2.823,0l4.733-9.467a1.582,1.582,0,0,0-.058-1.518l-3.3-5.5h7.4a11.185,11.185,0,0,1,4.238.844,32.187,32.187,0,0,0,12,2.311h5.123v4.733H73.1a29.116,29.116,0,0,1-9.224-1.5,1.578,1.578,0,0,0-2.076,1.5V80.489h3.156V71.557A32.261,32.261,0,0,0,73.1,72.6h7.633a1.577,1.577,0,0,0,1.578-1.578h2.2a6.3,6.3,0,0,0,5.249-2.807l.117-.177a3.155,3.155,0,0,0-2.625-4.905H82.311a1.577,1.577,0,0,0-1.578-1.578h-6.7a29.252,29.252,0,0,1-10.967-2.139A14.16,14.16,0,0,0,57.791,58.4h-.765A15.765,15.765,0,1,0,32.575,40.978c-.032.024-.066.043-.1.066l.05.071A15.735,15.735,0,0,0,38.174,58.4h-.765A14.359,14.359,0,0,0,32,59.47a29.059,29.059,0,0,1-10.833,2.086h-6.7a1.577,1.577,0,0,0-1.578,1.578H8.158a3.155,3.155,0,0,0-2.629,4.9l.117.178a6.3,6.3,0,0,0,5.251,2.81h1.991A1.577,1.577,0,0,0,14.466,72.6H22.1a32.252,32.252,0,0,0,8.144-1.043v8.932Zm53.854-14.2-.117.175a3.151,3.151,0,0,1-2.625,1.406h-2.2V66.289ZM47.6,73.805l-2.935-5.869L47.6,63.045l2.935,4.891Zm0-40.65a12.616,12.616,0,0,1,10.517,5.659,25.229,25.229,0,0,0-20.612-.584A12.6,12.6,0,0,1,47.6,33.156ZM34.977,45.778a12.587,12.587,0,0,1,.331-2.831A22,22,0,0,1,60.02,43.6a12.617,12.617,0,1,1-25.042,2.179ZM10.9,67.867a3.149,3.149,0,0,1-2.622-1.4l-.117-.178h4.73v1.578Z" transform="translate(1.734 16.178)" fill="#12263f"/>
    <path id="Trazado_728122" data-name="Trazado 728122" d="M37.778,33.556A15.778,15.778,0,1,0,22,17.778,15.8,15.8,0,0,0,37.778,33.556Zm-6.507-4.983,3.517-2.636,1.635.817.906,3.624a12.52,12.52,0,0,1-6.057-1.8ZM49.6,22.159l-6.207-2.068L45.4,17.076a1.586,1.586,0,0,0,.265-.876V12.311l2.509-1.672A12.506,12.506,0,0,1,49.6,22.159ZM46.047,8.265l-2.834,1.889a1.58,1.58,0,0,0-.7,1.313v4.255l-2.89,4.336a1.577,1.577,0,0,0,.814,2.371l7.685,2.562a12.64,12.64,0,0,1-7.61,5.1l-1.2-4.809a1.58,1.58,0,0,0-.824-1.029l-3.156-1.578a1.58,1.58,0,0,0-1.652.15l-4.959,3.719a12.7,12.7,0,0,1-2.2-3.088l5.47-4.1h2.63a1.571,1.571,0,0,0,1.115-.462l3.156-3.156a1.576,1.576,0,0,0,.38-1.614L37.7,9.39a1.574,1.574,0,0,0-1.5-1.079H33.7L31.97,6.583A12.54,12.54,0,0,1,46.047,8.265Zm-16.705.151L31.929,11a1.571,1.571,0,0,0,1.115.462h2.018l.909,2.73-2,2h-2.5a1.573,1.573,0,0,0-.947.316l-5.1,3.826a12.709,12.709,0,0,1-.262-2.564,12.58,12.58,0,0,1,4.186-9.361Z" transform="translate(11.556)" fill="#12263f"/>
    <path id="Trazado_728123" data-name="Trazado 728123" d="M8.311,45.37v.03h.041a15.655,15.655,0,0,0,18.851,0h.041v-.03a15.778,15.778,0,1,0-18.933,0Zm3.156-1.677V40.667A4.739,4.739,0,0,1,16.2,35.933h3.156a4.739,4.739,0,0,1,4.733,4.733v3.026a12.519,12.519,0,0,1-12.622,0Zm6.311-10.915a3.156,3.156,0,1,1,3.156-3.156A3.159,3.159,0,0,1,17.778,32.778Zm0-12.622A12.6,12.6,0,0,1,27.244,41.1v-.432a7.881,7.881,0,0,0-4.558-7.125,6.311,6.311,0,1,0-9.817,0,7.881,7.881,0,0,0-4.558,7.125V41.1a12.6,12.6,0,0,1,9.467-20.943Z" transform="translate(0 8.667)" fill="#12263f"/>
    <path id="Trazado_728124" data-name="Trazado 728124" d="M57.778,48.556A15.778,15.778,0,1,0,42,32.778,15.8,15.8,0,0,0,57.778,48.556Zm0-28.4A12.622,12.622,0,1,1,45.156,32.778,12.637,12.637,0,0,1,57.778,20.156Z" transform="translate(23.111 8.667)" fill="#12263f"/>
    <path id="Trazado_728125" data-name="Trazado 728125" d="M51.522,35.2h2.367v4.733h3.156V35.2h2.367a5.513,5.513,0,0,0,1.647-10.776,6.278,6.278,0,0,0-11.183,0A5.513,5.513,0,0,0,51.522,35.2Zm-.308-7.851A1.574,1.574,0,0,0,52.5,26.3a3.126,3.126,0,0,1,5.932,0,1.574,1.574,0,0,0,1.286,1.052,2.358,2.358,0,0,1-.308,4.7H51.522a2.357,2.357,0,0,1-.308-4.7Z" transform="translate(25.422 10.978)" fill="#12263f"/>
    <path id="Trazado_728126" data-name="Trazado 728126" d="M55,47h3.156v3.156H55Z" transform="translate(30.622 26)" fill="#12263f"/>
    <path id="Trazado_728127" data-name="Trazado 728127" d="M55,43h3.156v3.156H55Z" transform="translate(30.622 23.689)" fill="#12263f"/>
    <path id="Trazado_728128" data-name="Trazado 728128" d="M55,39h3.156v3.156H55Z" transform="translate(30.622 21.378)" fill="#12263f"/>
    <path id="Trazado_728129" data-name="Trazado 728129" d="M7,47h3.156v3.156H7Z" transform="translate(2.889 26)" fill="#12263f"/>
    <path id="Trazado_728130" data-name="Trazado 728130" d="M7,43h3.156v3.156H7Z" transform="translate(2.889 23.689)" fill="#12263f"/>
    <path id="Trazado_728131" data-name="Trazado 728131" d="M7,39h3.156v3.156H7Z" transform="translate(2.889 21.378)" fill="#12263f"/>
  </g>
</svg>
