<svg xmlns="http://www.w3.org/2000/svg" width="127" height="127" viewBox="0 0 127 127"><g transform="translate(-4809 6626)"><circle cx="63.5" cy="63.5" r="63.5" transform="translate(4809 -6626)" fill="#80cab6"/><g transform="translate(4844 -6603.805)"><path d="M7.5,117.944v40.489a1.707,1.707,0,0,0,1.707,1.707H62.054a1.707,1.707,0,0,0,1.707-1.707V117.944Z" transform="translate(-6.651 -92.35)" fill="#f1f4f6"/><g transform="translate(5.537 14.654)"><path d="M51.921,27.557H49.039a.122.122,0,0,1-.122-.122V21.428a.122.122,0,0,1,.122-.122h2.882a.122.122,0,0,1,.122.122v6.008A.122.122,0,0,1,51.921,27.557Z" transform="translate(-48.917 -21.306)" fill="#d0e2e7"/><path d="M148.56,27.557h-2.882a.122.122,0,0,1-.122-.122V21.428a.122.122,0,0,1,.122-.122h2.882a.122.122,0,0,1,.122.122v6.008A.122.122,0,0,1,148.56,27.557Z" transform="translate(-134.616 -21.306)" fill="#d0e2e7"/><path d="M245.2,27.557h-2.882a.122.122,0,0,1-.122-.122V21.428a.122.122,0,0,1,.122-.122H245.2a.122.122,0,0,1,.122.122v6.008A.122.122,0,0,1,245.2,27.557Z" transform="translate(-220.316 -21.306)" fill="#d0e2e7"/><path d="M341.837,27.557h-2.882a.122.122,0,0,1-.122-.122V21.428a.122.122,0,0,1,.122-.122h2.882a.122.122,0,0,1,.122.122v6.008A.122.122,0,0,1,341.837,27.557Z" transform="translate(-306.014 -21.306)" fill="#d0e2e7"/><path d="M438.476,27.557h-2.882a.122.122,0,0,1-.122-.122V21.428a.122.122,0,0,1,.122-.122h2.882a.122.122,0,0,1,.122.122v6.008A.122.122,0,0,1,438.476,27.557Z" transform="translate(-391.713 -21.306)" fill="#d0e2e7"/></g><path d="M62.054,48.917H59.073v3a.122.122,0,0,1-.122.122H56.069a.122.122,0,0,1-.122-.122v-3H48.133v3a.122.122,0,0,1-.122.122H45.129a.122.122,0,0,1-.122-.122v-3H37.193v3a.122.122,0,0,1-.122.122H34.189a.122.122,0,0,1-.122-.122v-3H26.254v3a.122.122,0,0,1-.122.122H23.25a.122.122,0,0,1-.122-.122v-3H15.314v3a.122.122,0,0,1-.122.122H12.31a.122.122,0,0,1-.122-.122v-3H9.207A1.707,1.707,0,0,0,7.5,50.624v6.107H63.761V50.624a1.707,1.707,0,0,0-1.707-1.707Z" transform="translate(-6.651 -31.137)" fill="#dd636e"/><path d="M59.233,117.944v31.292a8.639,8.639,0,0,1-8.639,8.639H7.5v.557a1.707,1.707,0,0,0,1.707,1.707H62.054a1.707,1.707,0,0,0,1.707-1.707V117.944Z" transform="translate(-6.651 -92.35)" fill="#dfeaef"/><path d="M45.936,164.052H35.243a.123.123,0,0,1-.123-.123v-4.442a.123.123,0,0,1,.123-.123H45.936a.123.123,0,0,1,.123.123v4.442A.123.123,0,0,1,45.936,164.052Z" transform="translate(-31.144 -129.081)" fill="#9bd069"/><path d="M75.109,205.467H62.853a.123.123,0,0,1-.123-.123V200.9a.123.123,0,0,1,.123-.123H75.109a.123.123,0,0,1,.123.123v4.442A.123.123,0,0,1,75.109,205.467Z" transform="translate(-55.629 -165.808)" fill="#8bc852"/><path d="M104.282,246.882H90.463a.123.123,0,0,1-.123-.123v-4.442a.123.123,0,0,1,.123-.123h13.819a.123.123,0,0,1,.123.123v4.442A.123.123,0,0,1,104.282,246.882Z" transform="translate(-80.113 -202.535)" fill="#9bd069"/><path d="M233.215,288.3h-18.63v-4.565a.123.123,0,0,1,.123-.123h18.507a.123.123,0,0,1,.123.123v4.442a.123.123,0,0,1-.123.123Z" transform="translate(-190.294 -239.261)" fill="#4073c8"/><path d="M223.839,329.711h-9.131a.123.123,0,0,1-.123-.123v-4.565h9.376v4.565A.123.123,0,0,1,223.839,329.711Z" transform="translate(-190.294 -275.988)" fill="#3b66c1"/><path d="M377.379,371.127H366.563a.123.123,0,0,1-.123-.123v-4.442a.123.123,0,0,1,.123-.123h10.693a.123.123,0,0,1,.123.123v4.565Z" transform="translate(-324.958 -312.715)" fill="#e28424"/><path d="M401.742,412.541h-7.568a.123.123,0,0,1-.123-.123v-4.565h7.814v4.565A.123.123,0,0,1,401.742,412.541Z" transform="translate(-349.444 -349.441)" fill="#dd6938"/><path d="M443.678,413.54v-4.422a8.624,8.624,0,0,1-2.476,4.545h2.353A.123.123,0,0,0,443.678,413.54Z" transform="translate(-391.257 -350.563)" fill="#dd542e"/><path d="M55.4,16.931H53.271V14.776A.972.972,0,0,0,52.3,13.8H49.418a.972.972,0,0,0-.971.971v2.155H42.331V14.776a.972.972,0,0,0-.971-.971H38.478a.972.972,0,0,0-.971.971v2.155H31.392V14.776a.972.972,0,0,0-.971-.971H27.539a.972.972,0,0,0-.971.971v2.155H20.452V14.776a.972.972,0,0,0-.971-.971H16.6a.972.972,0,0,0-.971.971v2.155H9.512V14.776a.972.972,0,0,0-.971-.971H5.659a.972.972,0,0,0-.971.971v2.155H2.556A2.559,2.559,0,0,0,0,19.487v46.6a2.559,2.559,0,0,0,2.556,2.556H14.078a.849.849,0,0,0,0-1.7h-3V45.2h7.678V66.941H18.04a.849.849,0,0,0,0,1.7H55.4a2.559,2.559,0,0,0,2.556-2.556v-46.6A2.559,2.559,0,0,0,55.4,16.931ZM50.145,15.5h1.427v4.553H50.145Zm-10.94,0h1.428v4.553H39.205Zm-10.94,0h1.428v4.553H28.266Zm-10.94,0h1.428v4.553H17.326Zm-10.94,0H7.814v4.553H6.386Zm-3.83,3.126H4.688v2.155a.972.972,0,0,0,.971.971H8.541a.972.972,0,0,0,.971-.971V18.629h6.116v2.155a.972.972,0,0,0,.971.971h2.882a.972.972,0,0,0,.971-.971V18.629h6.116v2.155a.972.972,0,0,0,.971.971h2.882a.972.972,0,0,0,.971-.971V18.629h6.116v2.155a.972.972,0,0,0,.971.971H41.36a.972.972,0,0,0,.971-.971V18.629h6.116v2.155a.972.972,0,0,0,.971.971H52.3a.972.972,0,0,0,.971-.971V18.629H55.4a.859.859,0,0,1,.858.858v5.258h-40.2a.849.849,0,0,0,0,1.7h2.7v7.679H15.764V30.405a.973.973,0,0,0-.972-.972H11.076V26.443H12.1a.849.849,0,0,0,0-1.7H1.7V19.487a.859.859,0,0,1,.858-.858Zm42.9,43.622v-2.99h6.116v2.99Zm6.116-4.688H42.331v-2.99h9.241ZM41.6,52.875a.973.973,0,0,0-.972.972v4.442a.973.973,0,0,0,.972.972h2.154v3.716a.973.973,0,0,0,.972.972h2.154v2.992H39.206V49.884h3.716a.973.973,0,0,0,.972-.972V44.47a.973.973,0,0,0-.972-.972H39.206V26.443h7.678V52.875ZM11.076,43.5v-2.99H23.442V43.5Zm2.99-12.367v2.99H4.825v-2.99ZM7.95,35.82h10.8v2.99H7.95Zm20.181-9.377V43.5H25.14V39.782a.973.973,0,0,0-.972-.972H20.453V26.443ZM35.541,43.5a.849.849,0,1,0,0,1.7H42.2v2.99H25.14V45.2h6.438a.849.849,0,1,0,0-1.7h-1.75V26.443h7.678V43.5Zm-10.4,6.386h7.678v2.99H25.14Zm8.4,4.688a.973.973,0,0,0,.972-.972V49.884h2.991V66.941H29.829V54.573ZM2.556,66.941a.859.859,0,0,1-.858-.858V26.443h7.68v2.991H4.1a.973.973,0,0,0-.972.972v4.442a.973.973,0,0,0,.972.972H6.252v3.716a.973.973,0,0,0,.972.972H9.378c0,4.635,0,7.667,0,26.433ZM20.453,45.2h2.99v8.4a.973.973,0,0,0,.972.972h3.717V66.941H20.453V45.2ZM56.261,66.083a.859.859,0,0,1-.858.858H48.582V63.949H52.3a.973.973,0,0,0,.972-.972V53.846a.973.973,0,0,0-.972-.972H48.582V26.443h7.679Z" transform="translate(0)"/></g></g></svg>