<svg xmlns="http://www.w3.org/2000/svg" width="90" height="90" viewBox="0 0 90 90"><g transform="translate(-180 -18623)"><circle cx="45" cy="45" r="45" transform="translate(180 18623)" fill="#80cab6"/><g transform="translate(161.613 18635)"><path d="M89.222,23.251C88.455,13.079,84.11,8,70.232,8,56.34,8,52,13.09,51.241,23.283c-10.323,2.847-10.517,8.009-.4,10.9-.049,3.418-.007,5.836-1.293,7.271-2.526,2.82-3.682,7.68-1.294,10.067-.461,3.783-.63,8.461,3.035,9.265.058-.038-.1.065-.178.12A7.91,7.91,0,0,0,47.717,67.4v3.991H92.748V67.4a7.959,7.959,0,0,0-3.573-6.608c3.666-.8,3.5-5.482,3.035-9.265,2.388-2.388,1.231-7.248-1.294-10.067-1.29-1.441-1.243-3.868-1.294-7.3,10.059-2.908,9.986-8.069-.4-10.9Z" transform="translate(-6.895 -6.907)" fill="#ffebd2"/><path d="M157.186,202.808a15.864,15.864,0,0,1-15.128,1.163c-4.5-2.053-7.941-6.381-7.937-12.985v-3.6a13.853,13.853,0,0,0,4.1-.935v2.623C138.214,200.1,148.245,205.419,157.186,202.808Z" transform="translate(-85.24 -160.968)" fill="#fff3e4"/><path d="M285.1,160.215c2.526,2.82,3.682,7.68,1.294,10.067.461,3.783.63,8.461-3.035,9.265a7.882,7.882,0,0,0-1.766-.867l-6.286-2.162a7.9,7.9,0,0,1-3-1.868,25.323,25.323,0,0,0-1.368-5.975c0-.116,7.954-2.794,7.947-12.991v-3.6c-3.123-.153-8.742-2.184-10.587-6.523a70.358,70.358,0,0,1,15.237,1.986C284.183,153.925,283.221,158.115,285.1,160.215Z" transform="translate(-201.081 -125.666)" fill="#c79a83"/><path d="M86.29,168.627a25.238,25.238,0,0,0-1.371,5.981,7.9,7.9,0,0,1-3,1.868c-6.778,2.331-6.953,2.308-8.051,3.029-3.666-.8-3.5-5.482-3.035-9.265-2.388-2.388-1.231-7.248,1.294-10.067,1.881-2.1.918-6.281,1.564-12.669a68.663,68.663,0,0,1,15.254-1.993c-1.844,4.345-7.466,6.377-10.589,6.53v3.6c0,6.6,3.432,10.932,7.937,12.985Z" transform="translate(-29.472 -125.623)" fill="#c79a83"/><path d="M79.008,151.96c-.191,1.933-.24,3.687-.264,5.62-.134.014-.265.022-.391.029.012,3.388-.031,3.851.048,4.935a4.348,4.348,0,0,1-.946,1.967c-2.526,2.82-3.682,7.68-1.294,10.067-.4,3.321-.585,7.334,1.859,8.807a16.8,16.8,0,0,0-4.153,1.688c-3.666-.8-3.5-5.482-3.035-9.265-2.388-2.388-1.231-7.248,1.294-10.067,1.881-2.1.918-6.281,1.564-12.669A45.6,45.6,0,0,1,79.008,151.96Z" transform="translate(-29.472 -131.191)" fill="#e0b7a3"/><path d="M51.112,112.458c-.2,2.016-.247,3.814-.271,5.4-10.118-2.892-9.924-8.055.4-10.9,9.907-2.735,28.233-2.688,37.981-.032,10.387,2.832,10.46,7.993.4,10.9-.022-1.576-.067-3.363-.27-5.366-9.739-2.7-28.277-2.791-38.241,0Z" transform="translate(-6.895 -90.578)" fill="#ffca8c"/><path d="M119.923,8c13.878,0,18.222,5.079,18.989,15.251-9.724-2.65-28.054-2.708-37.981.032C101.692,13.09,106.03,8,119.923,8Z" transform="translate(-56.586 -6.907)" fill="#ffd9ad"/><path d="M134.227,11.72C130.515,10.7,110.1,7.179,106.936,22.074a48.289,48.289,0,0,0-6.005,1.209C101.692,13.09,106.03,8,119.923,8c6.855,0,11.383,1.24,14.3,3.72Z" transform="translate(-56.586 -6.907)" fill="#fff3e4"/><path d="M114.843,324.661l-6.286-2.162a7.9,7.9,0,0,1-3-1.868,25.084,25.084,0,0,0-1.368-5.977,16.039,16.039,0,0,1-13.041,0,25.238,25.238,0,0,0-1.371,5.981,7.9,7.9,0,0,1-3,1.868c-6.778,2.331-6.953,2.308-8.051,3.029a7.914,7.914,0,0,0-3.573,6.608v3.991h45.031v-3.991a7.917,7.917,0,0,0-5.338-7.475Z" transform="translate(-34.329 -271.646)" fill="#6e6f80"/><path d="M187.006,315.749c-.336,2.364-.577,4.774-.72,7.208a12.045,12.045,0,0,1-4.125-2.326,25.237,25.237,0,0,1,1.371-5.981A15.319,15.319,0,0,0,187.006,315.749Z" transform="translate(-126.714 -271.646)" fill="#848499"/><path d="M120.182,369.915v3.991H75.151v-3.991a7.917,7.917,0,0,1,5.338-7.475l6.286-2.162a7.9,7.9,0,0,0,3-1.868,12.1,12.1,0,0,0,15.78,0,7.9,7.9,0,0,0,3,1.868l6.286,2.162a7.917,7.917,0,0,1,5.338,7.475Z" transform="translate(-34.329 -309.426)" fill="#585966"/><path d="M94.193,360.828a7.888,7.888,0,0,1-2.088,1.091l-6.286,2.162a7.917,7.917,0,0,0-5.338,7.475v2.351h-5.33v-3.991a7.917,7.917,0,0,1,5.338-7.475l6.286-2.162a7.9,7.9,0,0,0,3-1.868A12.044,12.044,0,0,0,94.193,360.828Z" transform="translate(-34.329 -309.426)" fill="#6e6f80"/><g transform="translate(35.387 0)"><path d="M91.254,21.348c-1.243-8.779-32.247-9.543-45.672-6.413.983-8.272,4.794-12.748,17.754-12.748,10.172,0,15.1,2.6,17.007,8.987a1.093,1.093,0,0,0,2.1-.626C79.867,1.945,72.353,0,63.337,0,51.2,0,44.457,3.59,43.321,15.534c-4.544,1.363-7.246,3.255-7.822,5.48-.3,1.159-.248,3.412,3.463,5.469a1.093,1.093,0,1,0,1.06-1.913c-1.04-.576-2.736-1.734-2.406-3.009,1.339-5.178,20.32-6.118,25.721-6.118,18.12,0,25.412,3.81,25.752,6.211.149,1.049-1.19,2.695-5.3,4.109-.034-1.221-.1-2.546-.246-3.995a1.093,1.093,0,0,0-.8-.944c-9.987-2.764-28.739-2.825-38.828,0a1.093,1.093,0,0,0-.793.943c-.619,6.107.214,10.371-1.29,12.051-2.638,2.945-4.068,8.116-1.622,11.157-.36,3.213-.484,7.284,2.13,9.174a9,9,0,0,0-2.618,6.338v3.991a1.093,1.093,0,1,0,2.187,0V60.49a6.86,6.86,0,0,1,4.6-6.441c5.639-2,7.034-2.088,8.97-3.638A13.194,13.194,0,0,0,66.666,52.58a1.093,1.093,0,1,0-.55-2.116A11.017,11.017,0,0,1,56.6,48.517c.055-.424.121-.849.2-1.268a1.093,1.093,0,1,0-2.151-.393c-.1.531-.178,1.07-.242,1.608-2.229,1.99-7.523,2.7-10.173,4.235-1.843-.678-2.378-3.1-1.788-7.949a1.094,1.094,0,0,0-.312-.905c-1.882-1.882-.828-6.15,1.335-8.565s1.252-6.419,1.767-12.54A66.445,66.445,0,0,1,57.5,21.069a12.98,12.98,0,0,1-8.67,4.256,1.093,1.093,0,0,0-1.04,1.092v3.6c0,5.872,2.573,10.6,7.256,13.3A17.052,17.052,0,0,0,69.19,44.463a24.234,24.234,0,0,1,.95,4.634,1.093,1.093,0,0,0,.317.662c2.291,2.278,4.355,2.352,9.7,4.289a6.884,6.884,0,0,1,4.6,6.441V64.48a1.093,1.093,0,0,0,2.187,0V60.488a9.062,9.062,0,0,0-6.076-8.508c-5.8-2.063-6.956-2.049-8.6-3.516a26.432,26.432,0,0,0-1.069-4.9c5.094-2.723,7.7-7.66,7.7-13.547v-3.6a1.093,1.093,0,0,0-1.04-1.092,12.986,12.986,0,0,1-8.666-4.25A67.38,67.38,0,0,1,81.44,22.741c.515,6.11-.393,10.127,1.767,12.538s3.217,6.682,1.335,8.565a1.094,1.094,0,0,0-.312.905,27.591,27.591,0,0,1,.232,3.112,1.093,1.093,0,0,0,2.187-.017,27.79,27.79,0,0,0-.191-2.866c2.446-3.042,1.015-8.213-1.622-11.157-.916-1.022-.966-3.016-1-5.767,6.947-2.2,7.646-5.124,7.422-6.7Zm-14.542,6.06v2.611c.011,17.688-26.75,17.748-26.738,0v-2.61c3.823-.546,8.294-2.816,10.195-6.451,2.106-.061,4.243-.06,6.35,0C68.393,24.54,72.827,26.853,76.713,27.408Z" transform="translate(-35.387 0)"/><path d="M209.078,194.708v-1.9a1.093,1.093,0,0,0-2.187,0v1.9a1.093,1.093,0,1,0,2.187,0Z" transform="translate(-183.451 -165.509)"/><path d="M257.984,195.8a1.093,1.093,0,0,0,1.093-1.093v-1.9a1.093,1.093,0,1,0-2.187,0v1.9A1.093,1.093,0,0,0,257.984,195.8Z" transform="translate(-226.618 -165.509)"/><path d="M214.716,255.815a1.093,1.093,0,0,0,0,1.546,4.472,4.472,0,0,0,6.329,0,1.093,1.093,0,0,0-1.546-1.546,2.287,2.287,0,0,1-3.236,0A1.093,1.093,0,0,0,214.716,255.815Z" transform="translate(-189.931 -220.576)"/></g></g></g></svg>