<svg xmlns="http://www.w3.org/2000/svg" width="127" height="127" viewBox="0 0 127 127"><g transform="translate(-4809.457 6328)"><circle cx="63.5" cy="63.5" r="63.5" transform="translate(4809.457 -6328)" fill="#80cab6"/><path d="M50,25A18,18,0,1,0,22.288,40.157,5.734,5.734,0,0,1,25,44.959V49a3,3,0,0,0,3,3h8a3,3,0,0,0,3-3V45.042a5.891,5.891,0,0,1,2.77-4.922A17.984,17.984,0,0,0,50,25Z" transform="translate(4843.264 -6294.5)" fill="#e39d10"/><path d="M27,58a3,3,0,0,0,3,3h4a3,3,0,0,0,3-3V52H27Z" transform="translate(4843.264 -6294.5)" fill="#ebebeb"/><path d="M56.193,14.421l3.144-2.358-3.6-4.8L52.593,9.621a2,2,0,0,1-3.179-1.883l.555-3.889L44.029,3l-.555,3.889a2,2,0,0,1-3.58.918L37.537,4.663l-4.8,3.6,2.357,3.144a2,2,0,0,1-1.883,3.179l-3.889-.555-.849,5.94,3.89.555a2,2,0,0,1,.917,3.58l-3.143,2.358,3.6,4.8,3.143-2.357a2,2,0,0,1,3.18,1.883l-.56,3.888,5.94.849.56-3.89a2,2,0,0,1,3.58-.917l2.358,3.143,4.8-3.6L54.379,27.12a2,2,0,0,1,1.883-3.18l3.889.556L61,18.556,57.111,18a2,2,0,0,1-.918-3.579ZM44.737,26.263a7,7,0,1,1,7-7,7,7,0,0,1-7,7Z" transform="translate(4843.264 -6294.5)" fill="#10bde0"/><path d="M22.288,40.157a18.049,18.049,0,0,1-2.464-1.908A4.992,4.992,0,1,1,15,32c.153,0,.3.032.446.045A17.986,17.986,0,0,1,14.01,25H12.737l-.691,3.287A1,1,0,0,1,10.5,28.9L7.737,27l-3,3,1.9,2.763a1,1,0,0,1-.618,1.546L2.737,35v4l3.286.691a1,1,0,0,1,.618,1.546L4.737,44l3,3L10.5,45.1a1,1,0,0,1,1.547.618L12.737,49h4l.69-3.287a1,1,0,0,1,1.547-.618L21.737,47l3.139-3.139a5.822,5.822,0,0,0-2.588-3.7Z" transform="translate(4843.264 -6294.5)" fill="#c9dfff"/><path d="M61.142,17.566l-3.89-.555a1,1,0,0,1-.459-1.79l3.144-2.358a1,1,0,0,0,.2-1.4l-3.6-4.8a1,1,0,0,0-1.4-.2L51.994,8.821A1,1,0,0,1,50.4,7.88l.556-3.89a1,1,0,0,0-.849-1.132L44.171,2.01a1,1,0,0,0-1.132.848l-.556,3.89a1,1,0,0,1-1.79.459L38.336,4.063a1,1,0,0,0-1.4-.2L33.931,6.118a19.347,19.347,0,0,0-4.09,0A19,19,0,0,0,13.088,23.155c-.027.283-.037.564-.051.845h-.3a1,1,0,0,0-.978.8l-.691,3.286L8.3,26.177a1,1,0,0,0-1.275.116l-3,3a1,1,0,0,0-.116,1.274l1.9,2.763-3.287.691A1,1,0,0,0,1.736,35v4a1,1,0,0,0,.794.979l3.287.691-1.9,2.763a1,1,0,0,0,.116,1.274l3,3a1,1,0,0,0,1.275.116l2.763-1.905.691,3.287a1,1,0,0,0,.978.8h4a1,1,0,0,0,.979-.794l.691-3.287,2.763,1.9a1,1,0,0,0,1.274-.116L24,46.15V49a3.987,3.987,0,0,0,2,3.444V58a4,4,0,0,0,4,4h4a4,4,0,0,0,4-4V52.444A3.987,3.987,0,0,0,40,49V45.042a4.9,4.9,0,0,1,2.313-4.082,19.185,19.185,0,0,0,2.354-1.8l-1.334-1.49a17.02,17.02,0,0,1-2.107,1.611A6.888,6.888,0,0,0,38,45.042V49a2,2,0,0,1-2,2H28a2,2,0,0,1-2-2V44.959a6.728,6.728,0,0,0-3.172-5.644,16.949,16.949,0,0,1,8.957-31.3,1.09,1.09,0,0,0-.039.109,1,1,0,0,0,.191.741l2.357,3.143a.979.979,0,0,1,.06,1.11.994.994,0,0,1-1,.481l-3.89-.556a1,1,0,0,0-1.132.849l-.849,5.939a1,1,0,0,0,.849,1.132l3.89.556a1,1,0,0,1,.459,1.79l-3.143,2.357a1,1,0,0,0-.2,1.4l3.6,4.8a1,1,0,0,0,1.4.2l3.144-2.357a1,1,0,0,1,1.589.941l-.555,3.89a1,1,0,0,0,.848,1.132l5.94.849a1.111,1.111,0,0,0,.141.009,1,1,0,0,0,.991-.858l.555-3.89a1,1,0,0,1,1.79-.459l2.358,3.143a1,1,0,0,0,1.4.2l4.8-3.6a1,1,0,0,0,.2-1.4l-2.357-3.143a.983.983,0,0,1-.06-1.11.971.971,0,0,1,1-.48l3.89.555a1,1,0,0,0,1.132-.848l.848-5.94a1,1,0,0,0-.848-1.132ZM14.774,33a18.937,18.937,0,0,0,3.712,5.346A3.994,3.994,0,1,1,14.736,33ZM34,60H30a2,2,0,0,1-2-2V57h8v1A2,2,0,0,1,34,60Zm2-7v2H28V53ZM23.763,43.559,21.618,45.7l-2.077-1.432A2,2,0,0,0,16.449,45.5L15.925,48H13.548l-.524-2.493a2,2,0,0,0-3.092-1.235L7.854,45.7,6.032,43.882l1.431-2.076a2,2,0,0,0-1.234-3.093l-2.493-.525V35.812l2.493-.525A2,2,0,0,0,7.464,32.2L6.032,30.118,7.854,28.3l2.079,1.432A2,2,0,0,0,13.024,28.5l.175-.832a19.04,19.04,0,0,0,.793,3.391,6,6,0,1,0,6.047,8.7A18.9,18.9,0,0,0,21.748,41a4.881,4.881,0,0,1,2.015,2.559ZM59.3,23.364l-2.9-.414a3,3,0,0,0-2.824,4.77l1.757,2.343-3.2,2.4-1.758-2.342A3,3,0,0,0,45,31.5l-.4,2.9-3.959-.566.414-2.9a3,3,0,0,0-4.77-2.825l-2.343,1.757-2.4-3.2,2.342-1.758a3,3,0,0,0-1.375-5.37l-2.9-.414.566-3.959,2.9.414a3,3,0,0,0,2.825-4.77L34.137,8.464l3.2-2.4L39.1,8.407a3,3,0,0,0,5.37-1.375l.414-2.9,3.959.565-.414,2.9a3,3,0,0,0,4.77,2.824l2.343-1.757,2.4,3.2-2.343,1.758a3,3,0,0,0,1.375,5.37l2.9.414Z" transform="translate(4843.264 -6294.5)"/><path d="M44.736,11.264a8,8,0,1,0,8,8,8,8,0,0,0-8-8Zm0,14a6,6,0,1,1,6-6,6,6,0,0,1-6,6Z" transform="translate(4843.264 -6294.5)"/><path d="M31,46h2v3H31Z" transform="translate(4843.264 -6294.5)"/><path d="M27.626,36.179A12,12,0,0,1,25.6,14.846l-1.069-1.692A14,14,0,0,0,26.9,38.04,6.384,6.384,0,0,1,31,44h2A8.367,8.367,0,0,0,27.626,36.179Z" transform="translate(4843.264 -6294.5)"/><path d="M51,39h7v2H51Z" transform="translate(4843.264 -6294.5)"/><path d="M52,43.6h2v7.81H52Z" transform="matrix(0.64, -0.768, 0.768, 0.64, 4825.845, -6236.686)"/><path d="M45,47h2v7H45Z" transform="translate(4843.264 -6294.5)"/><path d="M2.877,18h8.246v2H2.877Z" transform="matrix(0.97, -0.243, 0.243, 0.97, 4838.865, -6292.235)"/><path d="M7.5,6.2h2v8.6h-2Z" transform="matrix(0.581, -0.814, 0.814, 0.581, 4838.279, -6283.186)"/><path d="M13.978,1.871h2v8.257h-2Z" transform="matrix(0.969, -0.248, 0.248, 0.969, 4842.245, -6290.604)"/></g></svg>