<svg xmlns="http://www.w3.org/2000/svg" width="122" height="110.657" viewBox="0 0 122 110.657"><g transform="translate(0 -0.5)"><path d="M124.734,37.106H103.771v5.129a2.023,2.023,0,0,1-2.021,2.013H43.557a9.426,9.426,0,0,1-3.794-.965l-9.378-5.108c-.535-.292-.774-.686-.722-1.069H8.691A1.2,1.2,0,0,0,7.5,38.3v97.765a1.2,1.2,0,0,0,1.191,1.191H124.734a1.2,1.2,0,0,0,1.191-1.191V38.3a1.2,1.2,0,0,0-1.191-1.191Zm0,0" transform="translate(-5.713 -27.883)" fill="#e6e9ed"/><path d="M226.3,317.065a13.514,13.514,0,1,1-13.512-13.655A13.584,13.584,0,0,1,226.3,317.065Zm0,0" transform="translate(-151.79 -230.733)" fill="#ffc502"/><path d="M83.758,317.065A13.514,13.514,0,1,1,70.244,303.41,13.584,13.584,0,0,1,83.758,317.065Zm0,0" transform="translate(-43.213 -230.733)" fill="#89c947"/><path d="M368.871,317.065a13.514,13.514,0,1,1-13.514-13.655A13.585,13.585,0,0,1,368.871,317.065Zm0,0" transform="translate(-260.389 -230.733)" fill="#ef5050"/><g transform="translate(13.518 26.056)"><path d="M70.55,120.909a.717.717,0,0,1-.715.715H57.446a.716.716,0,0,1-.715-.715v-12.44a.717.717,0,0,1,.715-.715h12.39a.717.717,0,0,1,.715.715Zm0,0" transform="translate(-56.731 -107.754)" fill="#fcdb67"/><path d="M70.55,216.167a.717.717,0,0,1-.715.715H57.446a.717.717,0,0,1-.715-.715v-12.44a.716.716,0,0,1,.715-.715h12.39a.717.717,0,0,1,.715.715Zm0,0" transform="translate(-56.731 -180.314)" fill="#fcdb67"/><path d="M290.663,120.909a.717.717,0,0,1-.715.715h-12.39a.716.716,0,0,1-.715-.715v-12.44a.717.717,0,0,1,.715-.715h12.39a.717.717,0,0,1,.715.715Zm0,0" transform="translate(-224.395 -107.754)" fill="#fcdb67"/><path d="M290.663,216.167a.717.717,0,0,1-.715.715h-12.39a.717.717,0,0,1-.715-.715v-12.44a.716.716,0,0,1,.715-.715h12.39a.717.717,0,0,1,.715.715Zm0,0" transform="translate(-224.395 -180.314)" fill="#fcdb67"/></g><path d="M172.572,8a2.023,2.023,0,0,1,2.021,2.013V20.065a2.024,2.024,0,0,1-2.021,2.014H114.379a9.412,9.412,0,0,1-3.794-.966L101.208,16c-.975-.531-.975-1.4,0-1.931l9.378-5.107A9.412,9.412,0,0,1,114.379,8Zm0,0" transform="translate(-76.535 -5.713)" fill="#ffc502"/><path d="M115.194,8h-.814a9.412,9.412,0,0,0-3.794.966l-9.378,5.107c-.975.531-.975,1.4,0,1.931l9.378,5.108a9.412,9.412,0,0,0,3.794.966h.814Zm0,0" transform="translate(-76.535 -5.713)" fill="#ffd5b3"/><path d="M107.511,19.082l-6.3,3.433c-.975.531-.975,1.4,0,1.931l6.3,3.434Zm0,0" transform="translate(-76.535 -14.155)" fill="#775436"/><path d="M374.062,20.065V10.013A2.023,2.023,0,0,0,372.041,8h-9.7V22.079h9.7a2.024,2.024,0,0,0,2.021-2.014Zm0,0" transform="translate(-276.004 -5.713)" fill="#fb8276"/><path d="M197.1,29.609h-6.553a1.787,1.787,0,1,0,0,3.574H196.5v96.573H104.287a1.787,1.787,0,0,0,0,3.574H197.1a2.982,2.982,0,0,0,2.979-2.979V32.588A2.981,2.981,0,0,0,197.1,29.609Zm0,0" transform="translate(-78.076 -22.173)"/><path d="M17.633,107.583H3.574V11.01h19.2a3.5,3.5,0,0,0,1.047.851L33.2,16.969a11.136,11.136,0,0,0,4.648,1.184H96.038a3.809,3.809,0,0,0,3.808-3.8V11.01h4.283a1.787,1.787,0,1,0,0-3.574H99.845V4.3A3.809,3.809,0,0,0,96.038.5H37.845A11.136,11.136,0,0,0,33.2,1.684L23.818,6.791a3.64,3.64,0,0,0-.863.645H2.979A2.981,2.981,0,0,0,0,10.414v97.764a2.982,2.982,0,0,0,2.979,2.979H17.633a1.787,1.787,0,0,0,0-3.574ZM88.127,4.074h7.911a.236.236,0,0,1,.234.226V14.352a.236.236,0,0,1-.234.227H88.127Zm-47.681,0H84.553V7.539H40.446Zm0,7.04H84.553v3.465H40.446ZM32.764,5.989l2.143-1.166a7.454,7.454,0,0,1,1.966-.639V14.47a7.508,7.508,0,0,1-1.967-.639l-2.142-1.166ZM29.189,7.936v2.781L26.636,9.326Zm0,0"/><path d="M207.075,326.8a15.243,15.243,0,0,0,14.617-10.87,1.787,1.787,0,0,0-3.417-1.048,11.688,11.688,0,0,1-11.2,8.344,11.867,11.867,0,1,1,11.062-15.811,1.787,1.787,0,0,0,3.376-1.175,15.33,15.33,0,1,0-14.438,20.56Zm0,0" transform="translate(-146.077 -225.023)"/><path d="M227.918,342.005V340.6a1.787,1.787,0,0,0-3.574,0v1.405a1.787,1.787,0,0,0,3.574,0Zm0,0" transform="translate(-170.887 -257.699)"/><path d="M276.207,342.005V340.6a1.787,1.787,0,0,0-3.574,0v1.405a1.787,1.787,0,0,0,3.574,0Zm0,0" transform="translate(-207.67 -257.699)"/><path d="M233.65,375.394h7.923a1.787,1.787,0,1,0,0-3.574H233.65a1.787,1.787,0,0,0,0,3.574Zm0,0" transform="translate(-176.614 -282.842)"/><path d="M64.531,326.793a15.442,15.442,0,1,0-15.3-15.441A15.389,15.389,0,0,0,64.531,326.793Zm0-27.308A11.868,11.868,0,1,1,52.8,311.352,11.811,11.811,0,0,1,64.531,299.485Zm0,0" transform="translate(-37.5 -225.02)"/><path d="M83.588,343.792a1.786,1.786,0,0,0,1.787-1.787V340.6a1.787,1.787,0,0,0-3.574,0v1.405A1.788,1.788,0,0,0,83.588,343.792Zm0,0" transform="translate(-62.309 -257.699)"/><path d="M131.877,343.792a1.787,1.787,0,0,0,1.787-1.787V340.6a1.787,1.787,0,0,0-3.574,0v1.405A1.787,1.787,0,0,0,131.877,343.792Zm0,0" transform="translate(-99.092 -257.699)"/><path d="M87.891,368.7a6.106,6.106,0,0,0,12.179,0,1.787,1.787,0,0,0-3.574,0,2.56,2.56,0,0,1-5.031,0,1.787,1.787,0,0,0-3.574,0Zm0,0" transform="translate(-66.948 -279.105)"/><path d="M349.644,326.793a15.442,15.442,0,1,0-15.3-15.441A15.389,15.389,0,0,0,349.644,326.793Zm0-27.308a11.868,11.868,0,1,1-11.726,11.867A11.812,11.812,0,0,1,349.644,299.485Zm0,0" transform="translate(-254.676 -225.02)"/><path d="M368.7,343.792a1.786,1.786,0,0,0,1.787-1.787V340.6a1.787,1.787,0,0,0-3.574,0v1.405A1.788,1.788,0,0,0,368.7,343.792Zm0,0" transform="translate(-279.482 -257.699)"/><path d="M416.99,343.792a1.786,1.786,0,0,0,1.787-1.787V340.6a1.787,1.787,0,0,0-3.574,0v1.405A1.787,1.787,0,0,0,416.99,343.792Zm0,0" transform="translate(-316.268 -257.699)"/><path d="M373,369.37a1.787,1.787,0,1,0,3.574,0,2.56,2.56,0,0,1,5.032,0,1.787,1.787,0,0,0,3.574,0,6.107,6.107,0,0,0-12.18,0Zm0,0" transform="translate(-284.121 -276.665)"/><path d="M51.732,117.7h12.39a2.5,2.5,0,0,0,2.5-2.5V104.883l.7-.709a1.786,1.786,0,0,0-1.313-3.045,2.494,2.494,0,0,0-1.893-.871H51.732a2.5,2.5,0,0,0-2.5,2.5V115.2a2.5,2.5,0,0,0,2.5,2.5Zm1.072-13.87h9.826l-4.383,4.415L56.8,106.791a1.787,1.787,0,1,0-2.537,2.518l2.208,2.225a2.476,2.476,0,0,0,1.772.739h0a2.476,2.476,0,0,0,1.771-.737l3.031-3.052v5.643H52.8Zm0,0" transform="translate(-37.5 -75.988)"/><path d="M140.084,120.652h21.293a1.787,1.787,0,0,0,0-3.574H140.084a1.787,1.787,0,0,0,0,3.574Zm0,0" transform="translate(-105.343 -88.8)"/><path d="M140.084,145.215h12.125a1.787,1.787,0,0,0,0-3.574H140.084a1.787,1.787,0,0,0,0,3.574Zm0,0" transform="translate(-105.343 -107.51)"/><path d="M49.23,210.454a2.5,2.5,0,0,0,2.5,2.5h12.39a2.5,2.5,0,0,0,2.5-2.5v-12.44a2.5,2.5,0,0,0-2.5-2.5H51.732a2.5,2.5,0,0,0-2.5,2.5ZM52.8,199.086H63.05v10.294H52.8Zm0,0" transform="translate(-37.5 -148.545)"/><path d="M140.084,215.91h21.293a1.787,1.787,0,0,0,0-3.574H140.084a1.787,1.787,0,0,0,0,3.574Zm0,0" transform="translate(-105.343 -161.36)"/><path d="M154,238.682a1.786,1.786,0,0,0-1.787-1.787H140.084a1.787,1.787,0,0,0,0,3.574H152.21A1.788,1.788,0,0,0,154,238.682Zm0,0" transform="translate(-105.344 -180.067)"/><path d="M271.846,117.7h12.39a2.5,2.5,0,0,0,2.5-2.5v-12.44a2.505,2.505,0,0,0-2.5-2.5h-12.39a2.5,2.5,0,0,0-2.5,2.5V115.2A2.5,2.5,0,0,0,271.846,117.7Zm1.072-13.87h10.245v10.3H272.918Zm0,0" transform="translate(-205.164 -75.985)"/><path d="M358.406,118.865a1.787,1.787,0,0,0,1.787,1.787h21.294a1.787,1.787,0,0,0,0-3.574H360.193A1.787,1.787,0,0,0,358.406,118.865Zm0,0" transform="translate(-273.005 -88.8)"/><path d="M360.193,145.215h12.126a1.787,1.787,0,0,0,0-3.574H360.193a1.787,1.787,0,0,0,0,3.574Zm0,0" transform="translate(-273.005 -107.51)"/><path d="M286.737,210.454v-12.44a2.5,2.5,0,0,0-2.5-2.5h-12.39a2.5,2.5,0,0,0-2.5,2.5v12.44a2.5,2.5,0,0,0,2.5,2.5h12.39A2.5,2.5,0,0,0,286.737,210.454Zm-3.574-1.072H272.918v-10.3h10.245Zm0,0" transform="translate(-205.164 -148.545)"/><path d="M381.49,212.336H360.2a1.787,1.787,0,0,0,0,3.574H381.49a1.787,1.787,0,0,0,0-3.574Zm0,0" transform="translate(-273.008 -161.36)"/><path d="M372.32,240.469a1.787,1.787,0,0,0,0-3.574H360.194a1.787,1.787,0,0,0,0,3.574Zm0,0" transform="translate(-273.005 -180.067)"/></g></svg>