<svg xmlns="http://www.w3.org/2000/svg" width="90" height="90" viewBox="0 0 90 90"><g transform="translate(-495 -18623)"><circle cx="45" cy="45" r="45" transform="translate(495 18623)" fill="#80cab6"/><g transform="translate(450.466 18634)"><path d="M130.391,51.043c1.771-4.14,1.316-10.3-1.447-13.856h0a12.4,12.4,0,0,1-2.6-7.4V22.7a14.17,14.17,0,0,0-14.17-14.17h0A14.17,14.17,0,0,0,98,22.7v7.439a10.793,10.793,0,0,1-2.267,6.609l-.648.83c-2.551,3.279-2.986,9.747-1.134,13.461h36.437Z" transform="translate(-21.639 -7.521)" fill="#fecb66"/><path d="M103.064,32.9a21.869,21.869,0,0,1,2.237-9.352A14.169,14.169,0,0,0,98,35.941V43.38a10.793,10.793,0,0,1-2.267,6.609l-.648.83C92.537,54.1,92.1,60.566,93.954,64.281h17.206L106.1,50.111a69.763,69.763,0,0,1-3.036-15.253Z" transform="translate(-21.639 -20.758)" fill="#f5ad76"/><path d="M119.387,301.406V289.321a8.1,8.1,0,0,0-7.085-8.036l-7.328-.911a2.024,2.024,0,0,1-1.771-2.024v-5.283H93.071v5.293a2.024,2.024,0,0,1-1.771,2.024l-7.328.911a8.1,8.1,0,0,0-7.085,8.036v12.075Z" transform="translate(-7.598 -240.678)" fill="#fedac6"/><g transform="translate(69.279 39.98)"><path d="M88.946,337.067l-5.061.628a8.1,8.1,0,0,0-7.085,8.036v12.085H88.946Z" transform="translate(-76.8 -337.067)" fill="#3cacde"/><path d="M337.861,337.694l-5.061-.628v20.749h12.146V345.73A8.1,8.1,0,0,0,337.861,337.694Z" transform="translate(-302.436 -337.066)" fill="#3cacde"/></g><path d="M80.849,351.061a8.1,8.1,0,0,0-4.049,7V370.15h4.049Z" transform="translate(-7.521 -309.421)" fill="#329ac7"/><path d="M196.2,335.787,188.309,349.6l-7.895-13.816-1.215.152v20.749h18.219V335.939Z" transform="translate(-97.775 -295.959)" fill="#ebebeb"/><path d="M183.249,340.493l-2.834-4.706-1.215.152v20.749h4.049Z" transform="translate(-97.775 -295.959)" fill="#dbdbdb"/><path d="M223.455,277.116v-4.049H213.334v4.049A9.19,9.19,0,0,0,223.455,277.116Z" transform="translate(-127.861 -240.678)" fill="#f5c4b0"/><g transform="translate(79.4 8.097)"><path d="M343.357,145.067h-2.024v6.073h2.024a3.036,3.036,0,0,0,0-6.073Z" transform="translate(-320.078 -135.958)" fill="#fedac6"/><path d="M184.4,77.377l-.415,7.014a10.83,10.83,0,0,1-10.81,10.192h0a10.84,10.84,0,0,1-10.8-10l-.243-3.158s10.121-6.073,15.182-13.158C177.315,68.268,180.352,74.341,184.4,77.377Z" transform="translate(-162.133 -68.268)" fill="#fedac6"/></g><path d="M165.918,157.952c-2.217,1.579-3.785,2.52-3.785,2.52l.243,3.158a10.79,10.79,0,0,0,6.124,8.927A30.924,30.924,0,0,1,165.918,157.952Z" transform="translate(-82.733 -139.217)" fill="#f5c4b0"/><circle cx="2.024" cy="2.024" r="2.024" transform="translate(82.437 17.206)"/><circle cx="2.024" cy="2.024" r="2.024" transform="translate(94.583 17.206)"/><path d="M234.445,172.365h-3.036a1.012,1.012,0,0,1-.906-1.465l2.024-4.049,1.811.906-1.292,2.583h1.4Z" transform="translate(-142.899 -147.062)"/><path d="M165.655,88.072a11.91,11.91,0,0,1-11.809-10.933L153.6,73.98a1.014,1.014,0,0,1,.488-.945c.1-.06,10-6.052,14.88-12.878a1.012,1.012,0,0,1,1.729.135c.029.059,2.983,5.9,6.787,8.753a1.007,1.007,0,0,1,.4.869l-.415,7.014A11.854,11.854,0,0,1,165.655,88.072ZM155.67,74.44l.2,2.543a9.817,9.817,0,0,0,19.589-.173l.384-6.485a29.413,29.413,0,0,1-6.182-7.724C165.021,68.362,157.716,73.155,155.67,74.44Z" transform="translate(-75.212 -52.647)"/><path d="M85.559,42.93a13.669,13.669,0,0,1,1.225-13.449l.679-.872a9.836,9.836,0,0,0,2.054-5.988V15.182a15.182,15.182,0,1,1,30.364,0v3.036h-2.024V15.182a13.158,13.158,0,0,0-26.316,0v7.439a11.869,11.869,0,0,1-2.48,7.23l-.649.832A11.619,11.619,0,0,0,87.4,42.09Z" transform="translate(-14.164)"/><path d="M372.924,208.25l-1.858-.8.162-.374a11.369,11.369,0,0,0-1.479-11.446,13.489,13.489,0,0,1-2.815-8l2.024-.033a11.453,11.453,0,0,0,2.389,6.794,13.4,13.4,0,0,1,1.74,13.489Z" transform="translate(-263.242 -165.338)"/><path d="M350.879,144.629h-1.012V142.6h1.012a2.024,2.024,0,1,0,0-4.049h-1.012v-2.024h1.012a4.049,4.049,0,0,1,0,8.1Z" transform="translate(-248.199 -120.338)"/><path d="M239.705,225.693h-.772v-2.024h.772a8.61,8.61,0,0,0,3.836-.906l.906,1.811A10.65,10.65,0,0,1,239.705,225.693Z" transform="translate(-150.423 -196.341)"/><path d="M189.3,344.251a1.011,1.011,0,0,1-.879-.51l-8.1-14.17,1.757-1L189.3,341.2l7.219-12.632,1.757,1-8.1,14.17A1.011,1.011,0,0,1,189.3,344.251Z" transform="translate(-98.768 -289.595)"/><path d="M70.291,308.928H68.267V296.843a9.125,9.125,0,0,1,7.971-9.04l7.33-.911a1.013,1.013,0,0,0,.885-1.012V281.6h2.024v4.271A3.033,3.033,0,0,1,83.82,288.9l-7.329.911a7.1,7.1,0,0,0-6.2,7.032Z" transform="translate(0 -248.199)"/><path d="M308.426,308.928H306.4V296.843a7.1,7.1,0,0,0-6.2-7.031l-7.326-.911a3.036,3.036,0,0,1-2.659-3.036V281.6h2.024v4.271a1.014,1.014,0,0,0,.885,1.02l7.327.911a9.125,9.125,0,0,1,7.973,9.04Z" transform="translate(-195.625 -248.199)"/><rect width="2.024" height="21.255" transform="translate(80.413 39.474)"/><rect width="2.024" height="21.255" transform="translate(98.631 39.474)"/></g></g></svg>