<svg xmlns="http://www.w3.org/2000/svg" width="127" height="127" viewBox="0 0 127 127"><g transform="translate(-4809 7520)"><circle cx="63.5" cy="63.5" r="63.5" transform="translate(4809 -7520)" fill="#80cab6"/><g transform="translate(4844 -7485)"><path d="M12.419,56.765a2.71,2.71,0,0,1-5.419,0V35.91a4.941,4.941,0,0,0,.9.081h9.935V56.765a2.71,2.71,0,1,1-5.419,0Z" transform="translate(-0.581 -3.378)" fill="#838f9b"/><path d="M20.923,32.613a2.469,2.469,0,0,1,.045.452,2.251,2.251,0,0,1-2.258,2.258H7.419a4.941,4.941,0,0,1-.9-.081A5.41,5.41,0,0,1,2,29.9V29H6.516a1.812,1.812,0,0,0,1.806,1.806H18.71A2.258,2.258,0,0,1,20.923,32.613Z" transform="translate(-0.097 -2.71)" fill="#f0d0b4"/><path d="M6.516,27.742H2V23.226A7.224,7.224,0,0,1,9.226,16h1.689l-.786,8.129,1.806,1.806,1.806-1.806L12.947,16H27.01a16.277,16.277,0,0,0-3.866,4.516H19.613a2.259,2.259,0,0,0-2.258,2.258v6.774H8.323a1.812,1.812,0,0,1-1.806-1.806Z" transform="translate(-0.097 -1.452)" fill="#ff826e"/><path d="M13.818,16l.795,8.129-1.806,1.806L11,24.129,11.786,16h2.032Z" transform="translate(-0.968 -1.452)" fill="#e6e9ed"/><path d="M59.677,46.264v5.419L57.23,52.3c-.036.09-.063.181-.108.271l1.3,2.15-3.839,3.839-2.15-1.3c-.09.045-.181.072-.271.108l-.614,2.448H46.129l-.614-2.448c-.09-.036-.181-.063-.271-.108l-2.15,1.3-3.839-3.839,1.3-2.15c-.045-.09-.072-.181-.108-.271L38,51.683V46.932a15.747,15.747,0,0,0,2.71.235,16.247,16.247,0,0,0,3.134-.307,5.483,5.483,0,0,0-.425,2.114,5.419,5.419,0,1,0,7.135-5.13,16.178,16.178,0,0,0,4.019-4.453h.009l3.839,3.839-1.3,2.15c.045.09.072.181.108.271Z" transform="translate(-3.581 -3.715)" fill="#ffc729"/><path d="M57.226,2a3.613,3.613,0,1,1,0,7.226H50V5.613A3.612,3.612,0,0,1,53.613,2Z" transform="translate(-4.742 -0.097)" fill="#ffeaa7"/><path d="M49.1,41.192a16.281,16.281,0,0,1-9.845,3.324,15.747,15.747,0,0,1-2.71-.235A16.075,16.075,0,0,1,29.2,41.03a16.716,16.716,0,0,1-2.71-2.71,16.117,16.117,0,0,1-3.261-7.4A15.228,15.228,0,0,1,23,28.258,16.254,16.254,0,1,1,49.1,41.192Z" transform="translate(-2.129 -1.065)" fill="#e6e9ed"/><ellipse cx="13" cy="12.5" rx="13" ry="12.5" transform="translate(24 15)" fill="#69d6f4"/><g transform="translate(28.097 18.161)"><path d="M50.613,26V38.455a12.706,12.706,0,0,1-3.6,2.583L47,41.021V26Z" transform="translate(-32.548 -20.581)" fill="#ffeaa7"/><path d="M46.613,41.408l.009.018A12.951,12.951,0,0,1,43,42.519V30h3.613Z" transform="translate(-32.161 -20.968)" fill="#ffeaa7"/><path d="M42.613,41.533v.018a12.967,12.967,0,0,1-3.613,0V20h3.613V41.533Z" transform="translate(-31.774 -20)" fill="#ffeaa7"/><path d="M38.612,42.888v.018a12.951,12.951,0,0,1-3.622-1.093L35,41.795V34h3.613Z" transform="translate(-31.386 -21.355)" fill="#ffeaa7"/><path d="M34.613,33.419v7.795l-.009.018A12.706,12.706,0,0,1,31,38.649V28h3.613Z" transform="translate(-31 -20.774)" fill="#ffeaa7"/></g><path d="M29.2,43.85,25.71,47.336,23,44.626l3.486-3.486A16.716,16.716,0,0,0,29.2,43.85Z" transform="translate(-2.129 -3.885)" fill="#ccd1d9"/><path d="M26.226,48.516,19,55.742V46.71L21.71,44l.9.9,2.71,2.71Z" transform="translate(-1.742 -4.161)" fill="#cf9e76"/><circle cx="6.5" cy="6.5" r="6.5" transform="translate(5 2)" fill="#f0d0b4"/><path d="M55.976,39.369l-3.851-3.851a17.136,17.136,0,0,0-25.49-21.873H16.6a7.223,7.223,0,1,0-9.282.21A8.138,8.138,0,0,0,1,21.774v5.419A6.331,6.331,0,0,0,5.516,33.25V53.387a3.6,3.6,0,0,0,6.323,2.365,3.6,3.6,0,0,0,6.323-2.365V51.955l7.6-7.6-.9-.9,2.31-2.31a17.061,17.061,0,0,0,6.348,2.823v4.709l2.182.545-1.157,1.929,4.83,4.83L41.3,54.819,41.843,57h6.83l.545-2.182,1.927,1.158,4.83-4.83-1.157-1.929L57,48.673v-6.83L54.818,41.3ZM52.484,27.194A15.355,15.355,0,1,1,37.129,11.839,15.372,15.372,0,0,1,52.484,27.194Zm-2.71,18.065a4.517,4.517,0,1,1-8.8-1.353,17.062,17.062,0,0,0,6.113-2.76A4.5,4.5,0,0,1,49.774,45.258Zm-29.806-6.7-1.806,1.806V33.516h.452a3.153,3.153,0,0,0,2.236-.929,17.11,17.11,0,0,0,2.332,4.568l-2.31,2.31Zm0-11.368c0,.11.014.217.016.326a3.125,3.125,0,0,0-1.371-.326h-.452V21.323a1.356,1.356,0,0,1,1.355-1.355h2.068A17.041,17.041,0,0,0,19.968,27.194ZM12.7,22.341l-.866.866-.866-.866.669-6.889h.393ZM6.419,8.226a5.419,5.419,0,1,1,5.419,5.419A5.425,5.425,0,0,1,6.419,8.226Zm2.71,7.226h.7l-.735,7.563,2.747,2.747,2.747-2.747-.735-7.563h10.8a17.284,17.284,0,0,0-2.084,2.71H19.516a3.165,3.165,0,0,0-3.161,3.161v5.871H8.226a.9.9,0,0,1-.9-.9V19.968H5.516v5.419H2.806V21.774A6.33,6.33,0,0,1,9.129,15.452ZM2.806,27.194H5.682A2.706,2.706,0,0,0,8.226,29H18.613a1.355,1.355,0,1,1,0,2.71H7.323A4.521,4.521,0,0,1,2.806,27.194Zm11.742,28a1.808,1.808,0,0,1-1.806-1.806V37.129H10.935V53.387a1.806,1.806,0,1,1-3.613,0V33.516h9.032V53.387A1.808,1.808,0,0,1,14.548,55.194ZM18.161,49.4V42.922l1.806-1.806,3.239,3.239Zm5.419-7.226-1.433-1.433,2.17-2.17A17.151,17.151,0,0,0,25.75,40Zm31.613,1.079v4.009l-1.76.439-.482.186-.421,1.029,1.171,1.95L50.866,53.7l-1.949-1.17-1.1.448-.553,2.215H43.254l-.44-1.76-.183-.483L41.6,52.531,39.65,53.7l-2.834-2.834,1.171-1.95-.452-1.1-2.212-.552v-3a16.628,16.628,0,0,0,3.7-.014,6.321,6.321,0,1,0,9.58-4.327,17.321,17.321,0,0,0,2.528-2.837L53.7,39.649,52.53,41.6l.454,1.1Z" transform="translate(0)"/><path d="M61.645,5.516A4.521,4.521,0,0,0,57.129,1H53.516A4.521,4.521,0,0,0,49,5.516v4.516h8.129A4.521,4.521,0,0,0,61.645,5.516Zm-10.839,0a2.713,2.713,0,0,1,2.71-2.71h3.613a2.71,2.71,0,0,1,0,5.419H50.806Z" transform="translate(-4.645)"/><path d="M53,5h1.806V6.806H53Z" transform="translate(-5.032 -0.387)"/><path d="M57,5h1.806V6.806H57Z" transform="translate(-5.419 -0.387)"/><path d="M39.548,42.1A13.548,13.548,0,1,0,26,28.548,13.564,13.564,0,0,0,39.548,42.1Zm-4.516-9.032h1.806v6.9a11.535,11.535,0,0,1-1.806-.578Zm-1.806,5.362A11.788,11.788,0,0,1,31.419,37V27.645h1.806Zm5.419,1.817V20.419h1.806V40.244c-.3.023-.6.046-.9.046S38.944,40.268,38.645,40.244Zm3.613-10.793h1.806v9.933a11.729,11.729,0,0,1-1.806.578ZM47.677,37a11.788,11.788,0,0,1-1.806,1.425V25.839h1.806Zm-8.129-20.2a11.719,11.719,0,0,1,9.935,17.971V24.032H44.065v3.613H42.258V18.613H36.839V31.258H35.032V25.839H29.613v8.938a11.719,11.719,0,0,1,9.935-17.971Z" transform="translate(-2.419 -1.355)"/></g></g></svg>