<svg xmlns="http://www.w3.org/2000/svg" width="90" height="90" viewBox="0 0 90 90"><g transform="translate(-810 -18623)"><circle cx="45" cy="45" r="45" transform="translate(810 18623)" fill="#80cab6"/><g transform="translate(825.001 18636)"><path d="M124.465,28.26c-.015-1.012.022-1.633.022-1.633a24.981,24.981,0,0,0,7.3-9.921s4.5,6.849,15.061,9.847c0,0,.043.661.031,1.733a2.569,2.569,0,0,1,3.08.263C155.093,12,140.249,7.811,136.414,7.575a8.08,8.08,0,0,0-6.453,2.962c-3.614-2.777-7.616.555-9.035,5.738-.869,3.172-.258,8.657.347,12.435a2.538,2.538,0,0,1,3.191-.449Zm0,0" transform="translate(-105.667 -6.631)" fill="#945b44"/><path d="M327.924,174a2.57,2.57,0,0,0-3.561-.811,29.531,29.531,0,0,1-1.476,9.18C328.159,184.137,329.767,176.561,327.924,174Zm0,0" transform="translate(-283.151 -151.533)" fill="#ffbd86"/><path d="M122.519,173.161a2.558,2.558,0,0,0-3.51.837c-1.841,2.56-.237,10.127,5.027,8.373a29.727,29.727,0,0,1-1.517-9.21Zm0,0" transform="translate(-103.72 -151.532)" fill="#ffbd86"/><path d="M323.505,201.229a21.53,21.53,0,0,1-.619,2.065c4.347,1.458,6.2-3.435,5.687-6.634C328.195,199.272,326.521,201.858,323.505,201.229Zm0,0" transform="translate(-283.152 -172.459)" fill="#ffa664"/><path d="M118.361,196.66c-.514,3.2,1.337,8.084,5.677,6.638-.246-.682-.453-1.375-.627-2.065-3,.615-4.671-1.966-5.05-4.573Zm0,0" transform="translate(-103.722 -172.459)" fill="#ffa664"/><path d="M200.773,297.866a9.209,9.209,0,0,1-6.106-2.064v5.322a6.075,6.075,0,0,0,12.15,0V295.8a9.22,9.22,0,0,1-6.044,2.065Zm0,0" transform="translate(-170.712 -259.399)" fill="#ffbd86"/><path d="M175.114,91.721s1.223,18.5-11.119,18.545S152.754,91.8,152.754,91.8a24.982,24.982,0,0,0,7.3-9.921s4.5,6.849,15.06,9.847Zm0,0" transform="translate(-133.934 -71.799)" fill="#fed2a4"/><path d="M163.993,179.306c-9.614.032-11.071-11.193-11.246-16.157-.06,1.3-.628,18.429,11.246,18.39,11.461-.038,11.224-16,11.132-18.273-.172,5.056-1.639,16.009-11.132,16.04Zm0,0" transform="translate(-133.932 -143.072)" fill="#ffbd86"/><path d="M194.668,295.8v2.23a9.96,9.96,0,0,0,12.15,0V295.8a9.969,9.969,0,0,1-12.15,0Zm0,0" transform="translate(-170.712 -259.399)" fill="#ffa664"/><path d="M61.994,350.093c-3.341-2.7-19.259-11.042-19.259-11.042a6.075,6.075,0,1,1-12.15,0s-15.919,8.341-19.259,11.042S7.559,359.4,7.559,359.4h58.2s-.426-6.61-3.767-9.312Zm0,0" transform="translate(-6.63 -297.326)" fill="#8bcaff"/><path d="M7.87,486.3a19.889,19.889,0,0,0-.311,2.233h58.2a19.807,19.807,0,0,0-.311-2.233Zm0,0" transform="translate(-6.629 -426.452)" fill="#60b8ff"/><path d="M188.067,162.527a1.562,1.562,0,1,0-1.528,1.89A1.719,1.719,0,0,0,188.067,162.527Zm0,0" transform="translate(-162.244 -140.869)"/><path d="M279.754,164.417a1.933,1.933,0,1,0-1.527-1.89A1.719,1.719,0,0,0,279.754,164.417Zm0,0" transform="translate(-243.988 -140.868)"/><path d="M228.716,184.9c.1,0,.192,0,.29-.006a.931.931,0,0,0-.077-1.859c-.454.019-1.255-.008-1.5-.4-.319-.507.048-1.711.4-2.367a.93.93,0,0,0-1.639-.881c-.141.262-1.351,2.61-.336,4.233a3.122,3.122,0,0,0,2.867,1.28Zm0,0" transform="translate(-197.703 -156.879)"/><path d="M202.153,234.581a.931.931,0,0,0-.268,1.288,5.975,5.975,0,0,0,10.106,0,.93.93,0,0,0-1.554-1.024,4.116,4.116,0,0,1-7,0A.93.93,0,0,0,202.153,234.581Zm0,0" transform="translate(-176.908 -205.58)"/><path d="M12.321,61.147H1.968a21.347,21.347,0,0,1,.492-2.475c.443-1.682,1.292-3.945,2.821-5.182,2.7-2.185,14.135-8.308,17.9-10.3a7,7,0,0,0,13.7,0c1.408.747,3.887,2.069,6.565,3.539a.931.931,0,0,0,.9-1.632c-3.229-1.772-6.169-3.33-7.306-3.931V36.824c.221-.2.436-.408.644-.631a13.846,13.846,0,0,0,2.633-4.252,5.238,5.238,0,0,0,.917.083,4.566,4.566,0,0,0,3.756-1.969c1.694-2.3,1.952-6.173.543-8.132-.062-.087-.127-.17-.192-.249C47,15.944,46.5,11.09,43.836,7.238c-3.8-5.5-10.7-7.08-13.032-7.223a8.767,8.767,0,0,0-6.661,2.671,4.956,4.956,0,0,0-4.18-.446c-2.473.831-4.619,3.574-5.6,7.158a13.626,13.626,0,0,0-.408,2.615.93.93,0,1,0,1.856.13,11.859,11.859,0,0,1,.347-2.254c.808-2.949,2.534-5.26,4.4-5.886a3.276,3.276,0,0,1,3.172.64.933.933,0,0,0,1.305-.172,7.207,7.207,0,0,1,5.657-2.6c1.946.12,8.255,1.557,11.616,6.423,2.228,3.227,2.7,7.331,1.421,12.213a3.289,3.289,0,0,0-1.6-.129c-.01-.309-.021-.492-.023-.519a.93.93,0,0,0-.674-.834c-10.064-2.858-14.5-9.4-14.537-9.463a.93.93,0,0,0-1.645.175,24.257,24.257,0,0,1-6.994,9.515.932.932,0,0,0-.368.687c0,.025-.01.175-.017.431a3.268,3.268,0,0,0-1.561.146c-.254-1.792-.424-3.448-.5-4.934a.931.931,0,0,0-1.858.1c.1,1.82.324,3.878.671,6.12-.03.039-.06.079-.089.12-1.408,1.957-1.151,5.832.539,8.128a4.566,4.566,0,0,0,3.759,1.974,5.26,5.26,0,0,0,.906-.082,13.882,13.882,0,0,0,2.69,4.3c.193.2.394.4.6.58v4.338C20.254,42.623,7.188,49.556,4.112,52.043.5,54.967.019,61.732,0,62.018a.94.94,0,0,0,.928.99H12.321a.93.93,0,1,0,0-1.861ZM41.838,25.906a35.258,35.258,0,0,0,.292-3.622,1.574,1.574,0,0,1,1.887.725c.857,1.19.78,4.165-.53,5.941a2.7,2.7,0,0,1-2.546,1.2,27.252,27.252,0,0,0,.9-4.245ZM35.175,41.725a5.144,5.144,0,1,1-10.288,0V38.158a10.513,10.513,0,0,0,5.134,1.24h.044a10.545,10.545,0,0,0,5.111-1.243Zm-18.6-12.777c-1.307-1.776-1.383-4.75-.527-5.939a1.567,1.567,0,0,1,1.839-.74,35.2,35.2,0,0,0,.319,3.716,27.308,27.308,0,0,0,.9,4.168,2.7,2.7,0,0,1-2.533-1.205Zm3.163-8.493a26.2,26.2,0,0,0,6.618-8.568,29.715,29.715,0,0,0,13.923,8.738c.048,2.294-.091,10.16-3.959,14.3a8.25,8.25,0,0,1-6.258,2.609,8.245,8.245,0,0,1-6.275-2.568C19.74,30.7,19.689,22.38,19.734,20.455Zm0,0" transform="translate(0 0)"/><path d="M167.76,395.4c-.019-.287-.495-7.051-4.111-9.975a76.138,76.138,0,0,0-8.349-5.139.93.93,0,1,0-.912,1.621,70.459,70.459,0,0,1,8.091,4.965c2.254,1.822,3.055,5.8,3.313,7.657H123.742a.93.93,0,0,0,0,1.861h43.088a.94.94,0,0,0,.929-.99Zm0,0" transform="translate(-107.699 -333.38)"/></g></g></svg>