<svg xmlns="http://www.w3.org/2000/svg" width="234.862" height="211.965" viewBox="0 0 234.862 211.965"><g transform="translate(-40.254 -60.702)"><g transform="translate(50.927 60.702)"><path d="M79.751,115.454c-.582-11.742,4.642-26.186,18.142-26.651,24.471-.841,37.88,28.141,59.894,33.509,15.109,3.684,24.459-6.983,35.6-14.848,12.033-8.494,24.861-20.046,40.981-16.422,10.412,2.341,16.309,12.948,17.205,22.718.96,10.468-4.076,18.882-3.214,28.93.915,10.655,12.183,15.249,17.752,24.039,6.879,10.859,9.206,23.392,5.869,35.842-3.218,12.008-12.3,23.884-24.009,28.561-15.868,6.338-27.695-3.209-42.443-7.483-21.061-6.1-31.073,5.116-45.758,17.741-9.084,7.81-20.576,14.723-33.2,12.817-17.7-2.674-23.2-26.678-23.345-41.521-.092-9.462,4.159-20.429-2.816-27.693-6.673-6.949-13.189-6-22.262-6.553-7.216-.443-15.7-3.165-18.126-10.657C58.9,164.3,59,159.73,61.21,156.684c5.5-7.568,18.412-7.739,20.3-17.166C83.111,131.566,80.142,123.363,79.751,115.454Z" transform="translate(-59.317 -73.062)" fill="#bbe7f2"/><path d="M196.083,78.243c3.38-13.724-27.7-24.94-28.64-11.46-.5,7.192,10.079,15.989,16.485,17.18C189.827,85.059,194.592,84.3,196.083,78.243Z" transform="translate(-106.899 -60.702)" fill="#bbe7f2"/></g><g transform="translate(40.254 62.015)"><g transform="translate(8.981 117.531)"><path d="M123.771,312.388c-2.419-5.586-3.458-11.6-6.753-16.733a19.268,19.268,0,0,0-4.452-5.208c-2.365-1.822-4.983-1.527-7.586-2.621-4.777-2.008-7.45-7.479-12.006-10.184a21.3,21.3,0,0,0-15.131-2.479c-4.779.986-8.06,1.551-12.666-.442-3.52-1.524-10.867-4.028-8.377,2.666,1.467,3.945,6.347,5.851,8.732,9.493,2.555,3.9,3.194,9.617,6.65,12.922,3.275,3.133,7.711-.335,11.232,2.573,3.649,3.017,4.759,7.15,9.294,9.629,4.9,2.677,10.686,3.506,16.16,3.82,3.889.222,11.383.624,15.809-1.092C124.4,313.949,124.109,313.167,123.771,312.388Z" transform="translate(-56.294 -272.972)" fill="#3b8b58"/></g><path d="M95.414,290.528c11.784,12.5,25.825,21.072,41.4,23.937-.094-.235-.185-.47-.287-.7-2.419-5.586-3.458-11.6-6.753-16.733a19.268,19.268,0,0,0-4.452-5.208c-2.365-1.822-4.983-1.527-7.586-2.621-4.777-2.008-7.45-7.479-12.006-10.184A21.3,21.3,0,0,0,90.6,276.535a40.843,40.843,0,0,1-5.326.85A106.706,106.706,0,0,0,95.414,290.528Z" transform="translate(-60.066 -156.814)" fill="#307147"/><g transform="translate(173.356)"><path d="M374.627,118.371c-3.8-.769,3.842-7.179,4.935-8.245,2.811-2.739,8.162-7.436,7.51-11.931-.646-4.446-5.4-1.191-8.038-1.883.514-3.121,4.859-6.149,6.783-8.476a14.367,14.367,0,0,0,3.424-6.066c1.018-4.939-2.209-5.865-5.931-3.66a4.484,4.484,0,0,1-.268-2.922c.255-2.574,2.33-11.411-2.046-12.118-2.31-.374-4.252,4.408-4.977,5.97-.812,1.747-1.874,6.384-3.473,7.462-1.735,1.17-1.763-1.8-3.659-1.579-2.051.237-2.544,4.466-2.811,6.067a31.764,31.764,0,0,0,.177,8.612c.174,1.6.862,3.735-.09,5.187-1.061-.825-2.138-2.169-3.309-2.9C360,90.1,359.41,93.22,358.832,95.664c-.977,4.127-.311,8.609-.294,12.825.006,1.526.633,5.4-.432,6.428-2.49-1.885-6.433-5.774-7.714-.357a27.6,27.6,0,0,0,.2,11.307,145.326,145.326,0,0,0,4.565,16.1q.534-.375,1.052-.75c3.013-2.186,6.287-3.819,9.382-5.911,4.268-2.886,9.014-6.733,11.646-11.195.662-1.123,2.512-4.717,1.749-5.96C377.945,116.467,375.781,118.6,374.627,118.371Z" transform="translate(-349.889 -63.048)" fill="#3b8b58"/></g><path d="M382.55,160.959c-1.037-1.686-3.2.451-4.355.217a2.042,2.042,0,0,1-.424-.134,88.2,88.2,0,0,0-17.117,17.592q-1.4,2-2.658,4.053c.24.719.482,1.42.726,2.087q.534-.375,1.052-.75c3.013-2.186,6.287-3.819,9.382-5.911,4.268-2.886,9.014-6.733,11.646-11.195C381.464,165.8,383.313,162.2,382.55,160.959Z" transform="translate(-180.101 -105.854)" fill="#307147"/><g transform="translate(21.945 7.193)"><path d="M125.294,168.944c1.738-6.255,3.937-12.734,4.969-19.092.84-5.176-1.209-10.716-3.776-15.1-2.113-3.6-6.559-6.042-8.557-9.7-2.556-4.679-1.114-11.093-2.664-16.194-1.691-5.558-5.018-9.242-9.453-12.759-3.9-3.1-6.787-4.209-9.18-8.728-2.167-4.088-4.489-9.063-9.118-10.925-10.748-4.323-2.793,17.932-2.378,22.04.475,4.7-1.419,7.627-3.515,11.568-3.081,5.79-3.118,11.347,1.39,16.649,3.935,4.628,7.914,5.926,6.938,12.7-.705,4.9-1.462,10.308.022,15.222,1.723,5.7,4.954,11.045,10.035,13.992a67.332,67.332,0,0,0,7.03,3.48c1.947.839,9.591,2.106,15.748,3.018A31.108,31.108,0,0,0,125.294,168.944Z" transform="translate(-79.45 -75.895)" fill="#59a960"/></g><path d="M114.639,221.613c1.947.839,9.591,2.106,15.748,3.018a33.671,33.671,0,0,0,2.037-4.655,65.844,65.844,0,0,0-17.738-20.889A85.735,85.735,0,0,0,97.618,188.4c-.019.171-.039.344-.065.523-.705,4.9-1.462,10.308.022,15.222,1.723,5.7,4.954,11.045,10.035,13.992A67.332,67.332,0,0,0,114.639,221.613Z" transform="translate(-65.107 -118.218)" fill="#3b8b58"/><g transform="translate(180.799 32.583)"><path d="M399.121,169.873A101.362,101.362,0,0,0,402.9,135.15a66.087,66.087,0,0,1,.48-13.9c-1.537,1.544-3.289,2.983-4.206,3.969-3.158,3.394-6.558,6.635-9.658,10.147-8.446,9.566-16.882,19.792-21.718,31.755a56.753,56.753,0,0,0-4.561,24.232,51.6,51.6,0,0,0,1.938,11.456c.345,1.232.763,2.955,1.3,4.707A57.623,57.623,0,0,0,399.121,169.873Z" transform="translate(-363.184 -121.245)" fill="#59a960"/></g><path d="M369.322,197.038c-.535,1.132-1.049,2.274-1.519,3.438a56.753,56.753,0,0,0-4.561,24.232,51.6,51.6,0,0,0,1.938,11.456c.345,1.232.763,2.955,1.3,4.707a59.811,59.811,0,0,0,13.506-8.237A72.914,72.914,0,0,0,369.322,197.038Z" transform="translate(-182.385 -122.021)" fill="#3b8b58"/><path d="M397.422,218.085c-10.348,2.384-19.341,7.141-27.756,13.392a69.235,69.235,0,0,0-6.025,5.023,53.523,53.523,0,0,0,1.74,8.928c.345,1.232.763,2.955,1.295,4.707A57.284,57.284,0,0,0,397.422,218.085Z" transform="translate(-182.586 -131.284)" fill="#3b8b58"/><g transform="translate(0 68.73)"><g transform="translate(0 0)"><path d="M85.99,202.587c-9.157-7.227-18.963-12.672-30.336-15.222-3.314-.743-9.757-.6-15.4-1.556,11.351,12.2,16.668,31.533,26.083,44.792,11.994,16.891,28.022,28.575,47.26,31.79C111.513,238.948,106.434,218.719,85.99,202.587Z" transform="translate(-40.254 -185.809)" fill="#73c078"/></g></g><g transform="translate(160.768 90.218)"><g transform="translate(0 0)"><path d="M353.718,239.241c8.728-6.484,18.074-11.369,28.915-13.656,3.159-.666,9.3-.54,14.679-1.4-10.82,10.944-15.887,28.29-24.861,40.186-11.432,15.154-26.709,25.635-45.046,28.52C329.391,271.862,334.233,253.714,353.718,239.241Z" transform="translate(-327.405 -224.189)" fill="#73c078"/></g></g><path d="M327.4,299.965a64.968,64.968,0,0,0,28.779-12.206,73.552,73.552,0,0,0,6.764-47.506,91.077,91.077,0,0,0-9.231,6.058C334.233,260.784,329.391,278.933,327.4,299.965Z" transform="translate(-166.637 -141.041)" fill="#59a960"/><g transform="translate(13.708 76.241)"><g transform="translate(0 0)"><path d="M135.76,270.729c-4.534-2.172-9.26-5.98-12.421-8.656-11.271-9.54-20.293-21.413-29.019-32.9q-1.616-2.127-3.236-4.249a115.959,115.959,0,0,0-12.632-14.347c-.427-.4-.873-.829-1.334-1.27-3.62-3.457-8.126-7.759-12.378-9.609l.208-.479c4.337,1.887,8.881,6.224,12.53,9.71.461.44.906.865,1.332,1.268A116.484,116.484,0,0,1,91.5,224.611q1.623,2.122,3.237,4.251c8.709,11.459,17.714,23.31,28.941,32.813,3.138,2.657,7.83,6.437,12.309,8.583Z" transform="translate(-64.739 -199.224)" fill="#59a960"/></g></g><g transform="translate(33.165 21.991)"><path d="M130.491,181.866a43.931,43.931,0,0,0-3.451-13.1,57.639,57.639,0,0,0-10.857-16.658c-3.812-4.01-6.967-7.829-6.973-13.969,0-1.359.031-2.728.062-4.051a50.926,50.926,0,0,0-.694-12.293c-1.556-7.144-5.214-12.981-9.087-19.16l.2-.169.221-.138-.221.138.24-.108c3.9,6.22,7.579,12.093,9.154,19.326a52.153,52.153,0,0,1,.707,12.417c-.032,1.32-.064,2.686-.063,4.039.007,5.948,3.1,9.682,6.83,13.609a58.153,58.153,0,0,1,10.956,16.8A44.433,44.433,0,0,1,131.01,181.8Z" transform="translate(-99.491 -102.327)" fill="#3b8b58"/></g><g transform="translate(175.458 12.285)"><path d="M354.156,167.931l-.512-.106c.457-2.2.7-4.4.938-6.518a48.115,48.115,0,0,1,1.6-9.035c.5-1.6.953-3.058,1.514-4.613.647-1.792,1.254-3.651,1.843-5.45.9-2.767,1.84-5.63,2.971-8.425,1.026-2.536,2.3-5.119,3.541-7.617,1.31-2.646,2.664-5.381,3.718-8.064.965-2.453,1.7-5.021,2.414-7.5a63.92,63.92,0,0,1,3.422-9.85,49.243,49.243,0,0,0,3.361-10.957c.346-1.56.7-3.172,1.139-4.8l.5.134c-.432,1.617-.789,3.225-1.134,4.779a49.656,49.656,0,0,1-3.4,11.068,63.478,63.478,0,0,0-3.392,9.77c-.716,2.5-1.456,5.076-2.43,7.552-1.063,2.7-2.422,5.449-3.736,8.1-1.233,2.489-2.507,5.063-3.525,7.582-1.124,2.779-2.056,5.632-2.958,8.391-.589,1.8-1.2,3.666-1.848,5.465-.557,1.544-1.012,2.992-1.506,4.59a47.089,47.089,0,0,0-1.58,8.938C354.863,163.5,354.618,165.707,354.156,167.931Z" transform="translate(-353.644 -84.991)" fill="#307147"/></g><g transform="translate(176.025 51.261)"><path d="M354.989,229.034l-.333-.4a14.5,14.5,0,0,0,3.416-5.1,21.7,21.7,0,0,1,2.2-3.854c.462-.6.911-1.133,1.346-1.647a19.334,19.334,0,0,0,2.725-3.855,49.888,49.888,0,0,0,3.713-10.55c.292-1.144.576-2.306.861-3.474a82,82,0,0,1,4.024-13.26l.733-1.681c2.454-5.64,4.991-11.472,8.784-16.305a68.761,68.761,0,0,0,8.667-14.3l.471.224a69.208,69.208,0,0,1-8.728,14.4c-3.751,4.78-6.275,10.581-8.715,16.191l-.733,1.682a81.61,81.61,0,0,0-4,13.174c-.285,1.17-.568,2.333-.862,3.479a50.371,50.371,0,0,1-3.754,10.659,19.747,19.747,0,0,1-2.791,3.954c-.431.509-.876,1.037-1.332,1.628a21.391,21.391,0,0,0-2.141,3.763A14.875,14.875,0,0,1,354.989,229.034Z" transform="translate(-354.656 -154.606)" fill="#3b8b58"/></g><g transform="translate(152.394 104.429)"><path d="M312.722,314.7l-.273-.445a5.8,5.8,0,0,0,1.968-2.189,14.1,14.1,0,0,1,.83-1.236c2.746-3.562,5.4-7.2,7.962-10.722,3.863-5.3,7.859-10.786,12.217-16.061a53.411,53.411,0,0,1,8.044-7.417,51.772,51.772,0,0,0,7.884-7.275l1.226-1.5c5.232-6.392,10.173-12.429,15.838-18.283l.375.363c-5.65,5.839-10.584,11.868-15.809,18.251l-1.227,1.5a52.153,52.153,0,0,1-7.961,7.35,53.048,53.048,0,0,0-7.968,7.342c-4.348,5.263-8.339,10.74-12.2,16.036-2.567,3.523-5.221,7.165-7.97,10.734a13.616,13.616,0,0,0-.8,1.192A6.291,6.291,0,0,1,312.722,314.7Z" transform="translate(-312.449 -249.572)" fill="#59a960"/></g><g transform="translate(21.945 124.388)"><path d="M148.266,325.48c-.749-.716-1.463-1.409-2.152-2.077-5.615-5.449-9.671-9.385-17.994-10.984-.988-.19-2.039-.348-3.056-.5a35.735,35.735,0,0,1-6.631-1.422c-2.74-.979-4.777-2.937-6.748-4.831a19.965,19.965,0,0,0-5.871-4.415,34.025,34.025,0,0,0-4.669-1.516c-3.122-.839-5.818-1.564-8.83-4.96-.583-.658-1.2-1.474-1.856-2.337-2.75-3.63-6.17-8.148-10.809-6.225l-.2-.482c5.011-2.079,8.568,2.619,11.426,6.391.648.855,1.26,1.664,1.83,2.306,2.907,3.28,5.534,3.986,8.574,4.8a34.325,34.325,0,0,1,4.738,1.54,20.664,20.664,0,0,1,6.03,4.519c1.93,1.856,3.927,3.774,6.561,4.716a35.358,35.358,0,0,0,6.532,1.4c1.022.154,2.079.312,3.077.5,8.476,1.629,12.579,5.611,18.259,11.122.688.667,1.4,1.359,2.149,2.074Z" transform="translate(-79.451 -285.22)" fill="#307147"/></g><g transform="translate(25.556 18.708)"><g transform="translate(10.236)"><circle cx="73.325" cy="73.325" r="73.325" transform="translate(0 145.462) rotate(-82.705)" fill="#4d7abb"/><g transform="translate(8.718 9.347)"><path d="M198.507,123.289c-.579,1.216-2.291.8-2.771,1.769-.783,1.6.083,3.09.371,4.609.643,3.429,1.618,4.8-1.863,6.838-3.3,1.936-4.26.579-4.1,5.214.052,1.607,1.534,1.681.59,3.429-.3.548-2.62.8-3.252,1.691-1.863,2.652,1.008,6.123.287,9.025-.856,3.434-3.336,2.886-5.6,4.655-4.353,3.4-3.048,11.786-8.168,14.265-2.026.981-6.952-.136-8.367-1.733-2.166-2.443-.6-5.292.475-7.694,1.42-3.178,1.743-3.836.083-6.921-.606-1.123-1.55-1.467-1.994-2.954-.47-1.581.428-3.382-.277-4.948-.564-1.242-2.182-1.336-2.667-2.349-.715-1.477-.172-3.089-.845-4.483-.319-.657-1.378-2.593-2.26-2.761-2.547-.475-1.023,1.446-1.91,2.761-3.711,5.5-7.542-.569-12.929,1.42a26.919,26.919,0,0,0-3.888,2.062,73.338,73.338,0,0,1,52.642-34.026C194.864,116.3,200.987,118.08,198.507,123.289Z" transform="translate(-128.411 -113.158)" fill="#79c0c4"/><path d="M249.164,266.726c-3.086-8.1-7.831-1.307-12.835-5.363-1.427-1.156-1.238-3.374-3.308-4.042-2.228-.72-5.178,1.218-7.793.962-6.618-.648-9.546,2.547-11.4,9.3-.946,3.449-1.4,5.027,1.437,7.419,1.118.943,2.916,1.2,3.891,2.271,1.162,1.272.891,3.065,1.809,4.29,1.469,1.965,4.4,2.26,6.17,4.449.788.974.732,2.584,1.7,3.616,1.038,1.1,2.753.951,4,2.176,3.232,3.187,3.774,7.737,3.613,11.789-.219,5.491,3.342,7.262,8.755,6.773,1.213-4.27,3.068-2.2,6.165-3.734,2.585-1.282,4-4.993,4.539-7.6.67-3.241.255-3.666,2.66-6.542,1.891-2.264,3.6-4.494,3.8-7.515.312-4.7-1.545-4.029-4.178-6.061-1.822-1.4-3.217-3.532-4.941-4.958-1.459-1.207-1.8-.84-2.743-2.659C249.833,270,249.713,268.169,249.164,266.726Z" transform="translate(-160.84 -176.537)" fill="#79c0c4"/><path d="M315.21,197.589a73.143,73.143,0,0,1-6.372,29.948c-1-.01-1.89-.026-2.532,0a8.9,8.9,0,0,1-8-3.779c-.924-1.436-.2-3.152-1.9-4.5-1.128-.893-2.84-.407-4.155-.835-4.551-1.493-2.375-3.084-3.043-6.461-.569-2.855-4.4-4.462-7.218-3.5-2.579.882-3.153,4.441-6.081,4.285-3.409-.183-3.857-4.159-4.556-6.477-1.212-4.009-.815-4.536-4.656-3.137a32.779,32.779,0,0,0-3.314,1.608c-.971,1.2.047,3.017-.762,4.2-1.8,2.62-4.838-1.138-5.621-3.451-.485-1.419-.005-3.1-.459-4.546-.392-1.257-1.838-1.754-2.208-3.032-1.4-4.817,2.271-3.841,4.384-6.164,3.6-3.952-1.409-3.852-4.092-2.292-1.446.845-1.754,1.968-3.414,2.375-1.409.344-3.032-.554-4.567-.386-1.513.162-2.067,1.205-3.79,1.148-2.249-.073-1.675-.976-3.314-1.612-3.612-1.4-5.245.632-8.784.036-.763-3.095,2.662-5.329,4.963-6.31,1.53-.652,3.032-.558,4.379-1.331,1.436-.825,1.619-2.234,3.518-2.855,3.069-1.007,6.29-1.2,9.119-2.745,2.223-1.216,4.259-4.833-.314-5.387.825-5.345-5.694-1.341-7.652-1.435-5.9-.287-1.242-4.53,1.488-6.19,1.519-.929,3.184-1.706,4.661-2.479a24.059,24.059,0,0,0,4-2.84c5.2-3.878,3.111,1.488,7.636,1.666-.637,5.61,3.033,3.841,5.772,1.466.684-.6,1.076-2.208,1.963-2.584.939-.4,1.534.689,1.9.611a37.888,37.888,0,0,1,4.812-.741c-.24-1.827-1.706-5.032-.631-6.717.453-.72,2.583-.459,3.34-1.2,1.415-1.383,1.169-1.7,1.518-3.424.626-3.043-.49-3.742,1.89-5.986a20.7,20.7,0,0,1,3.93-2.7A73.184,73.184,0,0,1,315.21,197.589Z" transform="translate(-168.561 -124.893)" fill="#79c0c4"/><path d="M165.914,264.368c.391,6.049-3.089,2.75-6.874,4.332a15.286,15.286,0,0,1-.511,4.806c-4.082,2.014-3.622,5.376-3.2,8.962A73.4,73.4,0,0,1,141.7,271.9c-.068-.715-.141-1.436-.235-2.15-.078-.6,1.044-.773.731-1.807-.1-.338-1.294-.9-1.555-1.519-.695-1.654-1.316-1.878-1.436-3.883-.177-3.048,2.328-5.564,2.689-8.351.188-1.483-.872-2.63-.778-4.181.084-1.342.882-2.339,1.081-3.732-2.4-.872-4.275-1.372-5.945-3.048-1.858,1.728-6.128-.825-8.074-1.2-2.949-.558-5.423-.919-6.122-4.875-.073-.042-.146-.078-.214-.11v-.005a73.858,73.858,0,0,1,1.373-39.777c3.157.4,2.181-.088,3.821-1.983,1.138-1.315,7.442-9.385,8.445-3.085,2.552-.12,7.558.287,6.4,4.243-.709,2.417-5.277,2.187-6.952,4.948-1.9,3.132-.307,4.228,2,6.451,3.419,3.288,3.387,3.345,4.854-.674.611-1.675-1.147-1.952,1.227-2.746,1.592-.532,2.651.246,3.706,1.217,1.456,1.346.861,2.761,2.771,4,1.252.82,2.771.438,4.16.84,2.3.668,7.782,3.94,5.621,7.161-1.8,2.677-6.853-1.2-8.309.428-.1.031-.2.057-.293.083.214,3.142,4.416,3.293,4.061,6.347-2.672.135-6.858-.872-8.6,1.19-1.461,1.733-.11,7.615-1.3,8.669-1.91,1.691-5.867-.564-7.621-1.352-1.273-.574-2.1-1.659-3.7-1.618a27.248,27.248,0,0,0-3.534,1.8c-1.028,2.563,2.866,5.6,5.136,6.1,2.521.554,4.369-1.743,7.433-.2,2.834,1.425,2.4,3.842,6.163,4.478,2.182.365,7.047-.632,8.738.835,1.717,1.487.548,3.241,1.806,4.963.986,1.346,2.975,1.389,4.3,1.78,3.232.95,6.274,1.748,6.368,6.034C164.338,258.095,165.627,259.874,165.914,264.368Z" transform="translate(-119.754 -146.901)" fill="#79c0c4"/></g><path d="M249.935,152.431A73.333,73.333,0,0,1,128.6,229.679a73.332,73.332,0,1,0,121.333-77.248Z" transform="translate(-114.931 -121.096)" fill="#0bf" opacity="0.5" style="mix-blend-mode:multiply;isolation:isolate"/></g><g transform="translate(124.475 41.417)"><path d="M363.4,184.607c-2.868-15.6-13.978-8.592-13.978-8.592-15.591-14.695-18.28,4.3-18.28,4.3-7.169-2.689-9.139,4.3-9.139,4.3-9.895-2.4-12.948,2.775-13.771,7.526h66.128C372.512,180.779,363.4,184.607,363.4,184.607Z" transform="translate(-308.228 -170.439)" fill="#fff"/></g><g transform="translate(0 57.875)"><path d="M120.578,208.741c-1.8-9.807-8.787-5.4-8.787-5.4-9.8-9.237-11.49,2.7-11.49,2.7a4.128,4.128,0,0,0-5.745,2.7c-6.219-1.506-8.138,1.745-8.656,4.731h41.565C126.307,206.335,120.578,208.741,120.578,208.741Z" transform="translate(-85.901 -199.836)" fill="#fff"/></g><g transform="translate(14.856 13.543)"><path d="M156.581,131.99c-2.294-12.485-11.185-6.876-11.185-6.876-12.476-11.758-14.628,3.442-14.628,3.442-5.736-2.151-7.314,3.442-7.314,3.442-7.917-1.916-10.361,2.221-11.019,6.024H165.35C163.875,128.927,156.581,131.99,156.581,131.99Z" transform="translate(-112.435 -120.653)" fill="#fff"/></g><path d="M176.7,177.794c-10.056,12.894-23.435,19.272-29.879,14.245s-3.517-19.555,6.54-32.45,23.435-19.271,29.88-14.245S186.759,164.9,176.7,177.794Z" transform="translate(-111.209 -117.222)" fill="#fff" opacity="0.3"/></g><g transform="translate(33.175 90.049)"><g transform="translate(136.492 18.22)"><path d="M429.394,383.042c0,2.1-8.643,3.807-19.3,3.807s-19.3-1.7-19.3-3.807,8.643-3.808,19.3-3.808S429.394,380.939,429.394,383.042Z" transform="translate(-364.2 -310.48)" fill="#bbe7f2"/><g transform="translate(26.585 39.724)"><path d="M396.857,341.819l4.365-9.878-5.654-4.558-4.654,12.751s-1.131,2.435,3.3,5.567l8.758,8.519,2.723-1.3S399.786,344.69,396.857,341.819Z" transform="translate(-390.785 -327.382)" fill="#0a3c5f"/><path d="M407.806,374.292l.721.891-6.581,3.765-.191.813,11.562-1.625-1.653-3.843-1.136-1.3Z" transform="translate(-395.614 -347.455)" fill="#fdb18d"/><path d="M413.022,374.956l.464.573,3.137-.891-.752-.863Z" transform="translate(-400.573 -347.801)" fill="#fff"/><path d="M401.947,379.972l-.191.812,11.562-1.625-1.653-3.843-3.137.891Z" transform="translate(-395.614 -348.479)" fill="#0d134f"/><path d="M413.317,381.435l-.408-.948-10.963,1.761-.191.812Z" transform="translate(-395.614 -350.755)" fill="#62c1c5"/></g><path d="M399.086,328.3l3.358,9.248,2.431-5.5-5.489-4.427Z" transform="translate(-367.854 -287.762)" fill="#0d134f"/><path d="M350.523,266.487a5.168,5.168,0,0,1,0-2.471s-.475-3.8.539-2.533v-.792s-.824-1.393-.333-2.153l.333.348a1.575,1.575,0,0,1,0-1.077,6.905,6.905,0,0,1,.6,1.2l.222,1.457.1,1.678a26.208,26.208,0,0,0,.444,3.547s5.8,3.293,7.474,3.705l.317,2.787Z" transform="translate(-346.424 -257.037)" fill="#f09474"/><path d="M361.127,278.387l-.317-2.787c-1.678-.412-7.474-3.705-7.474-3.705l-.869,1.4Z" transform="translate(-347.335 -263.237)" fill="#fff"/><path d="M353.844,274.02l8.091,4.764-.163-2.765a55.012,55.012,0,0,1-7.213-3.505Z" transform="translate(-347.941 -263.509)" fill="#f8a510"/><g transform="translate(13.583 8.117)"><path d="M378.061,285.62a7.3,7.3,0,0,1,3.308.981l1.578-1.773-2.1-2.166-2.615.766Z" transform="translate(-372.183 -276.093)" fill="#f09474"/><path d="M383.045,284.379l-.527-.663-2.218,2.328.457.739,2.117-1.242Z" transform="translate(-373.168 -276.557)" fill="#fff"/><path d="M376.762,275.95s-.962-6.65-6.421-4.645c0,0-5.23,1.45-1.341,9.409l.961-.474s1.294,2.1,2.4,1.491l4.1-3.977Z" transform="translate(-367.562 -270.928)" fill="#fdb18d"/><path d="M374.992,275.794l-2.818-2.3-4.279,1.314c-.47,1.209-.543,2.993.474,5.6Z" transform="translate(-367.563 -272.058)" fill="#f09474"/><path d="M376.763,275.95s-.962-6.65-6.421-4.645c0,0-3.566.989-2.619,5.816,0,0,.6.386,2.442-.382a2.961,2.961,0,0,1,1.82,1.625l.658-.4s-.838-2.033.012-2.687l1.1.236s.723,1.715,1.992,1.771l.833-.218Z" transform="translate(-367.562 -270.928)" fill="#0a3c5f"/><path d="M372.015,278.763l.658-.4s-.838-2.033.012-2.687l1.1.236s.723,1.715,1.992,1.771l.833-.218.184-1.118s-.472-3.243-2.616-4.515a9.009,9.009,0,0,1-6.545,4.864c.026.261.064.535.121.822,0,0,.6.386,2.442-.382A2.961,2.961,0,0,1,372.015,278.763Z" transform="translate(-367.593 -271.326)" fill="#0d134f"/><path d="M377.329,278.665c.307.751.175,1.517-.3,1.708s-1.1-.26-1.407-1.011-.176-1.517.294-1.709S377.021,277.913,377.329,278.665Z" transform="translate(-371.038 -273.868)" fill="#fdb18d"/></g><path d="M377.009,290.387l23.579,36.454,13.048,10,2.87-1.74L405.72,324.319l-8.962-20.965L384.8,286.739l-3.2-1.839Z" transform="translate(-358.137 -268.961)" fill="#0a3c5f"/><path d="M381.6,284.9l-4.587,5.487,12.36,19.11h0a13.118,13.118,0,0,0,7.389-6.143L384.8,286.739Z" transform="translate(-358.137 -268.96)" fill="#fdd247"/><path d="M381.076,294.028a4.182,4.182,0,0,0-2.325-3.05l-1.742,2.084,1.013,1.567A7.843,7.843,0,0,0,381.076,294.028Z" transform="translate(-358.137 -271.636)" fill="#f8a510"/><path d="M345.695,264.681s9.311,3.668,10.063,5.737c0,0,6.113,2.633,9.5,2.633,0,0,3.667.376,2.445,4.7,0,0-.941,2.822-6.584-.469l-7.712-4.139s-7.524-5.454-9.311-7.711c0,0-1.319-1.2-.559-4.526,0,0,0-3.326.57-2.914,0,0-.253-1.565.412-1.565a15.567,15.567,0,0,1,.855,1.913l.063,1.235a6.834,6.834,0,0,1,.413,1.805A19.516,19.516,0,0,1,345.695,264.681Z" transform="translate(-343.301 -256.43)" fill="#fdb18d"/><path d="M368.77,284.24c1.222-4.326-2.445-4.7-2.445-4.7-3.386,0-9.5-2.633-9.5-2.633-.752-2.069-10.063-5.737-10.063-5.737l-1.035,1.382a96.262,96.262,0,0,0,8.747,7.082l7.712,4.139C367.829,287.063,368.77,284.24,368.77,284.24Z" transform="translate(-344.369 -262.917)" fill="#fff"/><path d="M346.822,273.332c2.736,2.568,8.134,6.483,8.134,6.483l7.712,4.139c5.643,3.292,6.584.469,6.584.469,1.222-4.326-2.445-4.7-2.445-4.7-3.386,0-9.5-2.633-9.5-2.633-.639-1.758-7.456-4.67-9.49-5.5Z" transform="translate(-344.851 -263.099)" fill="#fdd247"/><path d="M437.848,376.313l.777.755-6.489,3.484-.116.755,11.175-.755.57-2.932-3.046-3.047Z" transform="translate(-382.349 -308.428)" fill="#fdb18d"/><path d="M442.975,376.861l.472.459,3.833-.755-1.419-1.419Z" transform="translate(-387.17 -308.68)" fill="#fff"/><path d="M442.458,377.681l-3.833.755-6.489,3.484-.116.755,11.175-.755.57-2.932Z" transform="translate(-382.349 -309.796)" fill="#0d134f"/><path d="M443.2,384.509l.183-.944h0l-11.242.945-.116.755Z" transform="translate(-382.349 -312.385)" fill="#62c1c5"/></g><g transform="translate(37.99)"><path d="M227.546,416.129c0,2.1-13.472,3.807-30.093,3.807s-30.091-1.7-30.091-3.807,13.473-3.807,30.091-3.807S227.546,414.027,227.546,416.129Z" transform="translate(-167.363 -306.823)" fill="#bbe7f2"/><g transform="translate(6.636)"><rect width="28.958" height="1.535" transform="translate(7.497 90.014)" fill="#f8a510"/><path d="M241.642,384.664h-2.3l.715,1.535h2.075v-.48Z" transform="translate(-205.679 -294.65)" fill="#0d134f"/><rect width="14.256" height="1.535" transform="translate(9.4 62.011)" fill="#0d134f"/><g transform="translate(1.481 49.454)"><path d="M199.2,313.525l-.726,2.807-14.458,55.739H181.86l15.23-58.708.094-.36a1.051,1.051,0,0,1,1.274-.752,1.07,1.07,0,0,1,.653.507c.026.052.052.11.073.167A1.069,1.069,0,0,1,199.2,313.525Z" transform="translate(-181.86 -312.219)" fill="#fdd247"/></g><path d="M209.789,312.981c-.021-.057-.047-.115-.072-.167l-.218-.466a1.045,1.045,0,0,0-.642.712l-.093.36-.381,1.467.7,1.5.685,1.471.382-1.471.437-1.693Z" transform="translate(-192.053 -262.821)" fill="#f8a510"/><rect width="9.251" height="1.026" transform="translate(21.586 66.559)" fill="#0d134f"/><rect width="9.251" height="1.026" transform="translate(24.626 73.246)" fill="#0d134f"/><rect width="9.251" height="1.026" transform="translate(27.666 79.934)" fill="#0d134f"/><rect width="9.251" height="1.026" transform="translate(30.706 86.621)" fill="#0d134f"/><rect width="9.252" height="1.027" transform="translate(33.745 93.308)" fill="#0d134f"/><rect width="9.252" height="1.027" transform="translate(36.785 99.995)" fill="#0d134f"/><path d="M235.848,245.751c.086-.567-.424-2.113-1.233-1.809-.236.089-.278.307-.274.538a2.259,2.259,0,0,0,.629,1.47C235.319,246.253,235.772,246.257,235.848,245.751Z" transform="translate(-203.477 -232.697)" fill="#f09474"/><path d="M246.308,245.751c-.085-.567.425-2.113,1.234-1.809.236.089.278.307.274.538a2.264,2.264,0,0,1-.629,1.47C246.837,246.253,246.384,246.257,246.308,245.751Z" transform="translate(-208.74 -232.697)" fill="#f09474"/><path d="M242.575,238.137A4.092,4.092,0,1,0,235,240.273h0a10.472,10.472,0,0,1,1.252,4.067h4.13a30.069,30.069,0,0,1,1.595-4.067h0A4.072,4.072,0,0,0,242.575,238.137Z" transform="translate(-203.499 -228.357)" fill="#fdb18d"/><path d="M274.858,253.279s.338-1.58.5-2.043a4.9,4.9,0,0,1,1.583-1.535l.414,1.48S276.019,253.416,274.858,253.279Z" transform="translate(-221.31 -235.248)" fill="#fdb18d"/><g transform="translate(55.374 1.892)"><path d="M278.641,245.393h-.522V235.73l9.056-5.428v-2.514h-8.8v-.522H287.7V230.6l-9.056,5.428Z" transform="translate(-278.119 -227.266)" fill="#fdd247"/></g><g transform="translate(54.852 12.346)"><path d="M277.97,253.613a.783.783,0,0,1-.783-.783v-6.109a.783.783,0,1,1,1.565,0v6.109A.783.783,0,0,1,277.97,253.613Z" transform="translate(-277.187 -245.938)" fill="#f8a510"/></g><path d="M218.838,271.01a6.128,6.128,0,0,0,4.9,3.358S223.385,269,218.838,271.01Z" transform="translate(-196.654 -244.429)" fill="#0a3c5f"/><path d="M245.314,289.651s-1.653,33.638-2.262,39.594h-3.39L236.1,289.1S241.139,285.3,245.314,289.651Z" transform="translate(-204.25 -251.913)" fill="#0a3c5f"/><path d="M237.066,301.032l.554,6.3a23.909,23.909,0,0,0,5.4-6.726Z" transform="translate(-204.677 -257.652)" fill="#0d134f"/><path d="M229.019,251.8l3.827-1.3s4.163-.7,6.09,0l5.22,2.523a38.95,38.95,0,0,0,1.13,7.22l-3.393,12.96-11.657-.695-1.914-13.484Z" transform="translate(-200.829 -235.461)" fill="#fdd247"/><path d="M230.94,263.035l-2.558,1.032-.059.609,1.108,7.8C231.586,268.28,230.94,263.035,230.94,263.035Z" transform="translate(-200.829 -241.117)" fill="#f8a510"/><path d="M234.644,290.745s1.073,7.576-15.2,10.127l2.923,16.092h-3.433l-7.082-19.2,11.058-5.439.077-2.275Z" transform="translate(-193.579 -253.007)" fill="#0a3c5f"/><path d="M219.887,338.121l-5.87,1.671v.931h9.5l-.2-2.6Z" transform="translate(-194.532 -274.165)" fill="#0d134f"/><path d="M223.52,342.038l-.072-.931h-9.431v.931Z" transform="translate(-194.532 -275.479)" fill="#fff"/><path d="M237.817,362.01l-5.913,1.672v.931h9.5l-.2-2.6Z" transform="translate(-202.405 -284.679)" fill="#0d134f"/><path d="M241.408,365.927l-.072-.931H231.9v.931Z" transform="translate(-202.405 -285.993)" fill="#fff"/><path d="M216.052,253.07s2.2,2.225.8,7.711l-3.794,8.436-7.483,11.055h-6.71a7.342,7.342,0,0,1,5.754-2.351S213.324,255.039,216.052,253.07Z" transform="translate(-187.862 -236.731)" fill="#fdb18d"/><path d="M218.838,263.312a4.812,4.812,0,0,1,4.9,3.358s6.163-9.815,1.107-13.6C224.844,253.07,222.186,253.831,218.838,263.312Z" transform="translate(-196.654 -236.731)" fill="#fdd247"/><path d="M263.124,254.834l3.041.5,3.244-2.234a9.967,9.967,0,0,1,2.869-3.8s1.513.848.63,3.871l-2.208,1.359-3.631,4.349s-4.624.17-4.59.271S263.124,254.834,263.124,254.834Z" transform="translate(-215.862 -235.072)" fill="#fdb18d"/><path d="M255.991,255.246l4.784,2.088s1.386,3.33-.267,5.069l-3.387.063S253.728,258.725,255.991,255.246Z" transform="translate(-212.664 -237.689)" fill="#fdd247"/><path d="M245.148,278.251c-4.109,4.041-11.181,4.955-13.774,5.157l.205,1.449,11.657.695Z" transform="translate(-202.172 -247.814)" fill="#f8a510"/><path d="M262.749,264.77a13.009,13.009,0,0,1-3.662-.644c-.193.709-.466,2.248-.466,2.248l3.387-.063A2.944,2.944,0,0,0,262.749,264.77Z" transform="translate(-214.164 -241.597)" fill="#f8a510"/><path d="M280.079,227.008a1.069,1.069,0,0,1-1.069,1.068H267.187a1.068,1.068,0,0,1-1.068-1.068v-1.937a1.564,1.564,0,0,1,.675-1.185h11.823c.983.116,1.462.595,1.462,1.185Z" transform="translate(-217.464 -223.887)" fill="#e9f9f9"/><path d="M279.01,227.925H267.187a1.068,1.068,0,0,1-1.068-1.069v1.459a1.068,1.068,0,0,0,1.068,1.068H279.01a1.069,1.069,0,0,0,1.069-1.068v-1.459A1.069,1.069,0,0,1,279.01,227.925Z" transform="translate(-217.464 -225.194)" fill="#adcccc"/><path d="M241.969,240.273a4.092,4.092,0,1,0-6.971,0h0s.119.2.284.545a9.611,9.611,0,0,1,1.215,1.411h3.9c.38-.331,1.288-1.365,1.289-1.366.1-.211.2-.411.293-.59Z" transform="translate(-203.499 -228.357)" fill="#0a3c5f"/><path d="M241.692,236.8a14.344,14.344,0,0,1-.361,1.466,3.877,3.877,0,0,1-1.212,1.45,5.074,5.074,0,0,1-3.427.778,4.519,4.519,0,0,1-2.279-.969,4.067,4.067,0,0,0,.594,1.959h0s.119.2.284.545a9.613,9.613,0,0,1,1.215,1.411h3.9c.38-.331,1.288-1.365,1.289-1.366.1-.211.2-.411.293-.59h0a4.074,4.074,0,0,0-.287-4.684Z" transform="translate(-203.51 -229.572)" fill="#0d134f"/><g transform="translate(8.887 45.27)"><path d="M232.58,368.781h-2.3L204.3,313.042l-1.388-2.969-1.508-3.242h-5.272a1.044,1.044,0,0,1,0-2.088h5.935a1.034,1.034,0,0,1,.945.605l1.921,4.118c.026.052.052.11.073.167Z" transform="translate(-195.089 -304.744)" fill="#fdd247"/></g><g transform="translate(7.016 43.54)"><path d="M193.913,301.655l-2.166,2.166v1.652h10.488l-1.78-3.818Z" transform="translate(-191.747 -301.655)" fill="#0a3c5f"/></g><path d="M202.235,307.176l-.77-1.652h-9.718v1.652Z" transform="translate(-184.731 -259.818)" fill="#0d134f"/><path d="M208.669,308.475h-2.3l.768,1.652h2.3Z" transform="translate(-191.167 -261.116)" fill="#f8a510"/><rect width="5.301" height="1.026" transform="translate(0 108.28)" fill="#0a3c5f"/><rect width="5.301" height="1.026" transform="translate(42.322 108.28)" fill="#0a3c5f"/><path d="M258.466,415.311l-1.173-2.516h-2.3l1.172,2.516Z" transform="translate(-212.567 -307.031)" fill="#62c1c5"/><path d="M184.5,415.311l.652-2.516h-2.16l-.653,2.516Z" transform="translate(-180.589 -307.031)" fill="#62c1c5"/></g></g><g transform="translate(0 28.034)"><path d="M130.554,380.852c0,2.1-6.95,3.807-15.523,3.807s-15.522-1.7-15.522-3.807,6.95-3.808,15.522-3.808S130.554,378.749,130.554,380.852Z" transform="translate(-99.509 -319.33)" fill="#bbe7f2"/><g transform="translate(1.002)"><rect width="4.943" height="3.227" transform="translate(32.693 9.9)" fill="#0d134f"/><path d="M160.8,306.345s.148-1.61.259-2.088a4.883,4.883,0,0,1,1.39-1.712l.587,1.42S161.969,306.344,160.8,306.345Z" transform="translate(-127.486 -286.541)" fill="#fdb18d"/><g transform="translate(34.545 14.277)"><path d="M163.628,305.457a.613.613,0,0,1-.614-.61L163,300.074a.612.612,0,0,1,1.224,0l.015,4.772A.612.612,0,0,1,163.628,305.457Z" transform="translate(-162.999 -299.46)" fill="#f8a510"/></g><path d="M164.223,300.07a.612.612,0,0,0-1.224,0l0,.7h1.223Z" transform="translate(-128.454 -285.183)" fill="#ba7c0c"/><path d="M162.55,301.854a10.465,10.465,0,0,0-2.457,4.187l-.9.79a1.512,1.512,0,0,1,1.462,1.835l.886-1.361,2.032-1.611C164.1,302.587,162.55,301.854,162.55,301.854Z" transform="translate(-126.78 -286.237)" fill="#fdb18d"/><path d="M159.521,309.7l.484-.6s.962.134,1.826,1.672l-.723.677Z" transform="translate(-126.924 -289.422)" fill="#fff"/><path d="M101.3,314.432a80.77,80.77,0,0,0,7.572,16.33l1.67,19.6,8.913-.256v-1.2l-6.578-1.451,1.1-18.24-6.936-13.638Z" transform="translate(-101.298 -291.773)" fill="#2466b4"/><path d="M126.523,374.859l-6.578-1.451h-2.582l.248,2.908,8.913-.256Z" transform="translate(-108.368 -317.73)" fill="#0d134f"/><path d="M126.677,377.044l-8.965.257.053.616,8.913-.256Z" transform="translate(-108.522 -319.33)" fill="#fdd247"/><path d="M112.615,326.416a91.6,91.6,0,0,0,6.141,11.433l.2-3.363-2.156-4.24Z" transform="translate(-106.279 -297.047)" fill="#0d134f"/><g transform="translate(19.34)"><path d="M140.827,288.952a7.441,7.441,0,0,0-3.375,1l-1.61-1.808,2.147-2.21,2.667.781Z" transform="translate(-135.842 -279.23)" fill="#f09474"/><g transform="translate(1.596)"><path d="M138.692,279.085s.981-6.786,6.552-4.741c0,0,5.337,1.48,1.369,9.6l-.98-.484s-1.321,2.138-2.448,1.521L139,280.926Z" transform="translate(-138.692 -273.96)" fill="#fdb18d"/><path d="M141.919,278.926l2.877-2.346,4.365,1.341c.479,1.233.555,3.054-.484,5.716Z" transform="translate(-140.112 -275.113)" fill="#f09474"/><path d="M138.692,279.085s.981-6.786,6.552-4.741c0,0,3.639,1.01,2.672,5.935,0,0-.61.394-2.493-.389a3.022,3.022,0,0,0-1.857,1.658l-.671-.406s.854-2.074-.012-2.742l-1.121.24s-.738,1.75-2.032,1.807l-.849-.223Z" transform="translate(-138.692 -273.96)" fill="#0a3c5f"/><g transform="translate(0 2.101)"><path d="M146.358,281.411c.563.8-.158,2.557-.158,2.557l.671.406a3.022,3.022,0,0,1,1.857-1.658c1.883.783,2.488.392,2.493.389a6.9,6.9,0,0,0,.044-2.725c-.647.265-1.268.567-1.932.768A8.268,8.268,0,0,1,146.358,281.411Z" transform="translate(-141.996 -278.886)" fill="#0d134f"/><path d="M141.762,280.292l.663-.142a3.894,3.894,0,0,1-1.615-.639,2.893,2.893,0,0,1-1-1.8,8.86,8.86,0,0,0-1.118,3.024l.188,1.14.849.223C141.024,282.042,141.762,280.292,141.762,280.292Z" transform="translate(-138.692 -277.713)" fill="#0d134f"/></g><path d="M143.862,281.855c-.314.766-.179,1.546.3,1.742s1.123-.266,1.436-1.032.179-1.547-.3-1.744S144.175,281.088,143.862,281.855Z" transform="translate(-140.893 -276.96)" fill="#fdb18d"/></g></g><path d="M134.387,288.082l1.616-.876,3.208,3.307-.765.594Z" transform="translate(-115.861 -279.79)" fill="#fff"/><path d="M107.45,316.229s2.074,6.328,11.308,17.117l.613,22.282h9.9v-1.084l-7.114-1.832,2.926-20.922-7.678-14.978Z" transform="translate(-104.006 -292.564)" fill="#2466b4"/><path d="M101.3,303.138s3.444-10.7,18.526-14.367a13.053,13.053,0,0,1,5.8,4.127s-2.281,3.824-8.96,9l-1.34,4.039S104.037,308.686,101.3,303.138Z" transform="translate(-101.298 -280.479)" fill="#5600b5"/><path d="M115.323,311.246l1.34-4.039a52.449,52.449,0,0,0,6.158-5.535l-.772-.842-6.395,5.106a5.03,5.03,0,0,1-2.194-1.651,5.367,5.367,0,0,0,1.738,2.923l-1.219,3.093s-8.835,1.575-12.681-1.854C104.037,313.993,115.323,311.246,115.323,311.246Z" transform="translate(-101.298 -285.786)" fill="#410088"/><path d="M141.883,296.1s4.275,6.262,6.171,9.542l2.15-2.042a2.9,2.9,0,0,1,1.859,2.042l-3.791,3.683s-1.42,1.357-5.085-2.985l-4.9-5.945S137.572,295.448,141.883,296.1Z" transform="translate(-117.557 -283.677)" fill="#5600b5"/><path d="M138.582,383.224l-7.114-1.832H128.6l.08,2.916h9.9Z" transform="translate(-113.314 -321.244)" fill="#0d134f"/><path d="M128.719,385.748h9.9v-1.084h-9.933Z" transform="translate(-113.353 -322.684)" fill="#fdd247"/><rect width="5.124" height="2.463" transform="translate(32.602 12.581)" fill="#f8a510"/><path d="M164.653,298.027l-5.124.348v-.7h5.124Z" transform="translate(-126.927 -284.398)" fill="#ba7c0c"/><path d="M159.691,292.645a1.306,1.306,0,0,0,.236.063.733.733,0,0,1,.481.2c.116.141.1.326.186.479.308.525.5-.115.639-.348a.774.774,0,0,1,.917-.259c.293.165.035.667.308.861.382.272.489-.537.53-.756.053-.274.221-.706.6-.618.358.083.275.622.37.887.046.13.135.353.3.221.106-.086.066-.387.082-.513a.719.719,0,0,1,.171-.447.434.434,0,0,1,.121-.088v-.685h-4.943Z" transform="translate(-126.998 -281.742)" fill="#e9f9f9"/></g></g><g transform="translate(98.537 48.548)"><path d="M306.554,429.5c0,2.1-6.95,3.807-15.524,3.807s-15.522-1.7-15.522-3.807,6.95-3.808,15.522-3.808S306.554,427.4,306.554,429.5Z" transform="translate(-275.508 -361.257)" fill="#bbe7f2"/><g transform="translate(4.955)"><g transform="translate(0 6.201)"><path d="M304.266,363.969s1.542,4.923-1.742,18.551l.44,15.717h-1.908s-3.557-7.781-3.141-15.02c0,0-2.707-11.307-1.418-18.13C296.5,365.087,300.026,361.771,304.266,363.969Z" transform="translate(-289.548 -339.958)" fill="#2466b4"/><path d="M296.15,369.626a14.544,14.544,0,0,0,2.2,7.714c.66-3.054.169-7.131.611-12.945l-.194-.288a7.819,7.819,0,0,0-2.268,1.372c-.043.225-.077.447-.112.671A25.194,25.194,0,0,0,296.15,369.626Z" transform="translate(-289.548 -340.35)" fill="#0d134f"/><path d="M285.694,357.771s-3.566,7.319.957,21.064c0,0-2,3.045,0,18.093h1.74l2.435-17.832a154.347,154.347,0,0,0,3.007-18.044Z" transform="translate(-284.359 -337.561)" fill="#2466b4"/><path d="M319.256,330.969s1.717,1.553-1.806,11.405l-.587,10.508.587,2.031-.587,2.329a1.915,1.915,0,0,1-.364-2.079s-1.794,1-2.332-.191l.777-2.447-1.047-9.554,2-9.911S316.4,330.967,319.256,330.969Z" transform="translate(-297.359 -325.765)" fill="#f09474"/><g transform="translate(5.121 26.696)"><path d="M308.025,380.6l-1.01-.263c.964-3.7.73-6.427-.7-8.1-1.8-2.1-4.926-1.823-4.959-1.821-6.343.222-6.809,9.087-6.813,9.176l-1.042-.046c0-.1.522-9.918,7.787-10.171.118-.015,3.677-.327,5.821,2.184C308.774,373.5,309.08,376.545,308.025,380.6Z" transform="translate(-293.505 -369.356)" fill="#fdd247"/></g><path d="M305.8,369.681l-.935.279-1.277-.279a2.48,2.48,0,0,1,0,1.264l.007,0a.772.772,0,0,0,.021.279c.129.488.558.5.984.5a4.072,4.072,0,0,1,1.3.163,1.178,1.178,0,0,0,1.139-.176,1.752,1.752,0,0,0,.333-.4l.644-.911Z" transform="translate(-292.82 -342.803)" fill="#f09474"/><path d="M284.88,357.771" transform="translate(-284.588 -337.561)" fill="#fff"/><path d="M293.694,323.667s5.266-6.174,12.791,3.211a18.4,18.4,0,0,1-2.673,6.209s-1.268,2.686-3.723,2.806c0,0-1.558,6.627-.783,9.792,0,0-8.313,4.936-14.426-3.8a41.618,41.618,0,0,0,4.455-9.019S290.351,327.144,293.694,323.667Z" transform="translate(-284.588 -321.674)" fill="#fdb18d"/><path d="M316.325,373.381c-.17-.1-.331.058-.469.116.164-.414-.087-1.2-.643-1.052l-.062.021a.351.351,0,0,0-.413-.5c-.247.073-.394.318-.523.517a.957.957,0,0,0-.249.766.607.607,0,0,0,.6.458.7.7,0,0,0,.215.591c.144.121.323.186.468.029a.82.82,0,0,0,.1.953c.312.274.5.011.683-.237a2.257,2.257,0,0,0,.423-.74C316.524,374.072,316.6,373.536,316.325,373.381Z" transform="translate(-297.381 -343.803)" fill="#f09474"/><path d="M319.372,373.056l-.584,2.333a1.912,1.912,0,0,1-.366-2.082s.069-1.121-.13-1.043c.084-.307.052.589.312.427a1.829,1.829,0,0,1,.579-.276h.006Z" transform="translate(-299.281 -343.912)" fill="#f09474"/><path d="M303.811,333.089a25.708,25.708,0,0,0,1.311-2.378c.009-.071.014-.142.025-.214a21.168,21.168,0,0,0,.141-2.892c.006-.656.088-1.3.143-1.947-.2-.222-.408-.435-.608-.635,0,.166.005.332.005.5a11.7,11.7,0,0,1-.426,4.489c-.413.976-1.007,2.156-2.191,2.227a1.851,1.851,0,0,1-2.255-2.262,37.758,37.758,0,0,0,.479-3.967c.056-1.171.293-3.054-.559-3.943a2.837,2.837,0,0,0-.267-.237,6.291,6.291,0,0,0-1.986-.117l.1.026a1.965,1.965,0,0,1,1.518,2.438,11.675,11.675,0,0,1-1.766,3.353c-.829,1.144-1.906,2.343-3.428,1.959-1.381-.348-1.7-1.737-1.873-2.951a5.336,5.336,0,0,1-.045-.847,22.513,22.513,0,0,0-2.794,7.179,41.618,41.618,0,0,1-4.455,9.019c6.113,8.737,14.426,3.8,14.426,3.8-.775-3.164.783-9.792.783-9.792C302.544,335.774,303.811,333.089,303.811,333.089Z" transform="translate(-284.588 -321.676)" fill="#5600b5"/><path d="M299.306,354.845c-.774-3.158.775-9.762.783-9.79-.5-.378-1.1-.628-1.612-1.019a7.654,7.654,0,0,1-1-.782,3.463,3.463,0,0,0-.842-.766,16.809,16.809,0,0,0-.064,1.889,3.238,3.238,0,0,1-.854,1.472,10.044,10.044,0,0,0-1.273,3.183c-.539,1.551-2.075,4.035-3.991,3.952-1.764-.077-3.688-1.638-4.893-3.02-.406.668-.676,1.079-.676,1.079C290.993,359.782,299.306,354.845,299.306,354.845Z" transform="translate(-284.588 -330.835)" fill="#410088"/><path d="M323.834,324.791c-.782.6-.083,2.679.134,3.4a7.263,7.263,0,0,1,.561,3.594c-.364,1.455-2.091,1.448-3.139.749a3.428,3.428,0,0,1-1.4-2.978c-.035-.741.04-1.488,0-2.228-.041-.772-.468-1.265-.557-1.982-.213-1.728,3.1-2.133,4.092-1.17" transform="translate(-299.792 -322.55)" fill="#0d134f"/><path d="M298.411,325.543s1.915-4.014,4.541-1.411c0,0,1.343,1.813-1.5,6.069,0,0-3.7,5.251-4.179,7.4,0,0,2.568,6.929,3.7,8.9a18.13,18.13,0,0,1,2.44,3.463s-5.791,1.849-4.178-2.4l-6.084-9.922A60.088,60.088,0,0,1,298.411,325.543Z" transform="translate(-288.231 -322.369)" fill="#fdb18d"/><path d="M290.86,388.226s.025,4.777,5.835,8.964l1.693-4.757-2.568-3.258Z" transform="translate(-287.22 -350.965)" fill="#f8a510"/><path d="M307.472,384.567l-6.65,4.363-.068.041-1.676,1.1-.855.563-1.53,1a16.739,16.739,0,0,0-5.836-8.961l10.778-7.067A16.708,16.708,0,0,1,307.472,384.567Z" transform="translate(-287.219 -345.411)" fill="#fdd247"/><path d="M287.648,427.711a5.681,5.681,0,0,1-.722,2.237s-1.176,1.539,1.12,1.539h2.491s1.568-.779-.2-1.888a2.381,2.381,0,0,1-.953-1.888Z" transform="translate(-285.356 -368.344)" fill="#fdb18d"/><path d="M306.821,425.767l.183,1.522s5.893,1.206,6.157,2.036h-7.808l.218-1.779-.658-1.778Z" transform="translate(-293.405 -367.488)" fill="#fdb18d"/><path d="M287.365,417.862c.139,1.632.336,3.457.609,5.514h1.74l.753-5.514Z" transform="translate(-285.682 -364.009)" fill="#fdb18d"/><path d="M303.643,422.288h1.908l-.124-4.426h-3.4A39.137,39.137,0,0,0,303.643,422.288Z" transform="translate(-292.135 -364.009)" fill="#fdb18d"/><path d="M290.47,430.934a.653.653,0,0,1-.224.25,2.962,2.962,0,0,1-2.189.022,1.174,1.174,0,0,1-.782-.665,2.373,2.373,0,0,1-.348.652s-1.176,1.539,1.12,1.539h2.491S292.011,431.994,290.47,430.934Z" transform="translate(-285.356 -369.589)" fill="#62c1c5"/><path d="M309.994,429.59c-.017.14,0,.256-.145.366a.773.773,0,0,1-.535.095c-.414-.017-.8-.09-1.223-.09-.76,0-1.512,0-2.265,0l-.129,1.046h7.808C313.364,430.561,311.6,430.007,309.994,429.59Z" transform="translate(-293.751 -369.171)" fill="#62c1c5"/></g><path d="M323.069,399.565l-4.891-1.357-11.2.579-2.969.157.856-.564,1.676-1.1.068-.042,2.229-.183,8.5-.7,1.1-1.869Z" transform="translate(-293.009 -347.523)" fill="#fdd247"/><path d="M308.841,399.079l-1.858,1.727-2.969.157.856-.564,1.676-1.1.068-.042Z" transform="translate(-293.009 -349.542)" fill="#f8a510"/><path d="M315.747,318.582l2.078,3.626,1.169,2.368s-1.358-1.991-4.23.286L312,320.578A2.972,2.972,0,0,0,315.747,318.582Z" transform="translate(-296.523 -314.113)" fill="#fdb18d"/><g transform="translate(19.223)"><path d="M318.694,315.068s1.927-6.581,7.154-3.772c0,0,4.019,1.358.561,7.639-.261.475-.2,1.533-.558,2.059l-.9-.616s-1.608,1.93-2.638,1.161l-3.575-4.605Z" transform="translate(-318.694 -310.599)" fill="#fdb18d"/></g><path d="M324.863,314.624a5.036,5.036,0,0,1-5.131,1.107,6.29,6.29,0,0,1-2.485,1.957,4.607,4.607,0,0,1-.689.235,5.66,5.66,0,0,1-4.557-.857,2.969,2.969,0,0,0,3.747-2s1.927-6.576,7.156-3.767A3.254,3.254,0,0,1,324.863,314.624Z" transform="translate(-296.525 -310.6)" fill="#0a3c5f"/><path d="M324.015,313.262a4.34,4.34,0,0,1-.109.843c-.39,1.573-1.685,2.1-3.149,2.1-1.308,0-2.825,0-3.412-1.4a3.42,3.42,0,0,1-.254-1.165,9,9,0,0,0-1.342,2.6,2.969,2.969,0,0,1-3.747,2,5.66,5.66,0,0,0,4.557.857,4.607,4.607,0,0,0,.689-.235,6.29,6.29,0,0,0,2.485-1.957,5.036,5.036,0,0,0,5.131-1.107A3.518,3.518,0,0,0,324.015,313.262Z" transform="translate(-296.525 -311.771)" fill="#0d134f"/><path d="M323.768,318.208c-.418.714-.4,1.507.053,1.768s1.149-.1,1.566-.82.4-1.506-.052-1.769S324.186,317.493,323.768,318.208Z" transform="translate(-301.572 -313.55)" fill="#fdb18d"/></g><g transform="translate(33.701 32.615)"><path d="M359.973,382.525c1.69-5.707-4.017-9.4-6.238-13.672.038,2.19-.543,4.211.044,6.386.611,2.267,1.528,3.83,1.288,6.227-.21,2.1-.678,4.709.106,6.789a20.841,20.841,0,0,0,2.471,4.216c.469-1.181,1.328-2.235,1.562-3.686.159-.989-.2-2.269-.137-3.331A11.71,11.71,0,0,1,359.973,382.525Z" transform="translate(-343.542 -368.853)" fill="#3d895b"/><g transform="translate(20.897 19.024)"><path d="M384.652,403.679a6.322,6.322,0,0,0-3.688-.838,4.21,4.21,0,0,0-3.692,1.658,8.449,8.449,0,0,1-1.17,1.359c-.536.367-1.366.379-1.909.857-.838.738-.935,1.9-1.167,2.918.933-.1,2.14-.021,2.575-.09,1.408-.221,2.176-1.253,3-2.36.5-.68.674-.976,1.529-1.074a8.045,8.045,0,0,1,2.012.08,8.63,8.63,0,0,0,3.921-.249,2.2,2.2,0,0,1,1.621.387C387.162,405.232,385.531,404.338,384.652,403.679Z" transform="translate(-373.026 -402.832)" fill="#73c176"/></g><g transform="translate(19.547 10.41)"><path d="M378.815,389.028a11.409,11.409,0,0,0-1.617,2.848,5.913,5.913,0,0,1-1.756,2.683,14.5,14.5,0,0,1-2.413.928c-2,.958-2.811,3.7-2.232,5.874,1.06-.705,1.826-1.972,2.885-2.714,1.275-.894,1.983-2.367,3.2-3.271,1.33-.988,2.7-1.235,3.589-2.826a7.517,7.517,0,0,0,.857-4.023c-.011-.2-.092-.641-.137-1.078a3.187,3.187,0,0,0-.281.155C380.1,388.133,379.439,388.208,378.815,389.028Z" transform="translate(-370.615 -387.447)" fill="#3d895b"/></g><g transform="translate(0 12.106)"><path d="M344.068,395.67a8.465,8.465,0,0,0-3.1-4.023c-1.643-1.159-3.293-1.172-5.268-1.172a7.249,7.249,0,0,0,1.173,3.436c1.135,1.269,2.7,1.287,3.6,3.054.918,1.794,1.057,3.718,2.893,4.995,1.58,1.1,3.614,1.008,5.172,2.217-.446-1.612-.479-3.332-1.682-4.785C345.7,398,344.767,397.479,344.068,395.67Z" transform="translate(-335.702 -390.475)" fill="#73c176"/></g><g transform="translate(3.16 14.412)"><path d="M347.268,402.1c.832.827,1.78,1.5,2.6,2.22a8.285,8.285,0,0,1,1.906,2.283l-.015-.025a13.607,13.607,0,0,1,.628,1.423c.167.417.3.779.4,1.075a3.05,3.05,0,0,1,.278.948c-.038.021-.226-.283-.509-.848l-.5-1.031c-.19-.4-.413-.859-.665-1.306l-.006-.01-.009-.016a8.454,8.454,0,0,0-1.867-2.079c-.806-.679-1.766-1.345-2.655-2.226a9.856,9.856,0,0,1-.688-.807c-.182-.3-.386-.585-.537-.892a9.129,9.129,0,0,1-.573-1.835,5.281,5.281,0,0,0-.554-1.516,5.675,5.675,0,0,0-.853-1.129,8.314,8.314,0,0,0-1.654-1.27c-.426-.266-.665-.416-.645-.455s.287.047.752.255a6.708,6.708,0,0,1,1.834,1.175,5.682,5.682,0,0,1,.979,1.173,5.522,5.522,0,0,1,.661,1.631,9.263,9.263,0,0,0,.568,1.72c.138.273.328.526.491.8C346.811,401.619,347.057,401.844,347.268,402.1Z" transform="translate(-341.347 -394.595)" fill="#f8a510"/></g><g transform="translate(11.219 3.921)"><path d="M358.971,388.918c-.917,3.658-.183,7.048.239,9.458a25.158,25.158,0,0,1,.63,3.951,3.921,3.921,0,0,1-.329-1.027c-.169-.669-.431-1.633-.705-2.84a33.813,33.813,0,0,1-.752-4.3q-.044-.619-.09-1.268.013-.652.027-1.332a10.434,10.434,0,0,1,.16-1.374c.06-.471.156-.919.246-1.377a18.77,18.77,0,0,0,.315-2.679,10.952,10.952,0,0,0-.207-2.477,20.116,20.116,0,0,0-1.475-4,21.7,21.7,0,0,1-1.079-2.734,3.461,3.461,0,0,1-.2-1.063,4.37,4.37,0,0,1,.416.99c.257.636.675,1.531,1.236,2.629a18.416,18.416,0,0,1,1.627,4.067,10.967,10.967,0,0,1,.253,2.605A18.226,18.226,0,0,1,358.971,388.918Z" transform="translate(-355.741 -375.856)" fill="#f8a510"/><path d="M361.532,396.184a4.178,4.178,0,0,1,.113-.737c-.1-.113-.207-.224-.324-.34a4.569,4.569,0,0,1-1-1.878c-.8,1.493-1.565,3.43-1.03,5.028a14.906,14.906,0,0,0,1.413,2.419,3.947,3.947,0,0,1,.308.716,6.4,6.4,0,0,0,.66-1.876C361.827,398.526,361.467,397.246,361.532,396.184Z" transform="translate(-357.223 -383.502)" fill="#0d134f"/></g><g transform="translate(17.336 14.97)"><path d="M370.055,402.875a24.83,24.83,0,0,0-1.132,3.719,10.973,10.973,0,0,1-.654,1.64c-.251.479-.5.917-.693,1.321a10.02,10.02,0,0,0-.83,2.784,1.791,1.791,0,0,1-.079-.807,5.762,5.762,0,0,1,.533-2.148c.18-.431.4-.883.635-1.368a11.318,11.318,0,0,0,.57-1.574,21.683,21.683,0,0,1,1.124-3.824,6.842,6.842,0,0,1,.563-.925,8.706,8.706,0,0,1,.68-.8c.481-.474.973-.889,1.449-1.274.963-.751,1.836-1.39,2.53-1.974,1.387-1.166,2.019-2.115,2.108-2.054.034.022-.105.27-.388.707a10.1,10.1,0,0,1-1.444,1.654c-.675.638-1.537,1.323-2.466,2.084A9.073,9.073,0,0,0,370.055,402.875Z" transform="translate(-366.667 -395.592)" fill="#f8a510"/></g><g transform="translate(17.924 20.151)"><path d="M373.09,409.508a5.881,5.881,0,0,0-1.65.873,8.256,8.256,0,0,0-1.255,1.214,16.116,16.116,0,0,0-1.625,2.533,20.858,20.858,0,0,0-.8,2.669c-.04,0-.054-.273-.04-.771a6.789,6.789,0,0,1,.461-2.064,13.977,13.977,0,0,1,1.583-2.7,8.282,8.282,0,0,1,1.327-1.331,6.2,6.2,0,0,1,1.775-.957,5.112,5.112,0,0,0,1.606-.891,9.434,9.434,0,0,0,1.126-1.35,3.987,3.987,0,0,1,2.577-1.828,5.172,5.172,0,0,1,2.12.15c.479.121.735.215.728.253s-.282.023-.767-.029a5.98,5.98,0,0,0-2,.031,3.665,3.665,0,0,0-2.225,1.741,9.239,9.239,0,0,1-1.172,1.453A5.488,5.488,0,0,1,373.09,409.508Z" transform="translate(-367.717 -404.844)" fill="#f8a510"/></g><g transform="translate(13.584 2.637)"><path d="M365.846,380.907a7.213,7.213,0,0,0,.424-5.136c-.267-.752-.66-1.452-.9-2.208a5.456,5.456,0,0,0-.544.781,10.758,10.758,0,0,0-.418,1.866,12.2,12.2,0,0,1-1.113,3.183c-1.061,1.9-2.83,3.261-3.23,5.537a8.769,8.769,0,0,0,1.682,6.351,5.669,5.669,0,0,1,1.15,2.133c.074.39.071.777.113,1.143a17.825,17.825,0,0,1,1.8-2.587,6.081,6.081,0,0,0,.959-5.529A9.491,9.491,0,0,1,365.846,380.907Z" transform="translate(-359.964 -373.563)" fill="#73c176"/></g><g transform="translate(15.977 5.965)"><path d="M365.189,391.643a17.417,17.417,0,0,1,0,5.024c-.172,1.525-.362,2.879-.389,4.02a25.505,25.505,0,0,0,.272,3.69,3.3,3.3,0,0,1-.35-.951,5.488,5.488,0,0,1-.228-1.168c-.027-.231-.071-.478-.089-.742s-.011-.541-.017-.833a38.193,38.193,0,0,1,.266-4.069,18.085,18.085,0,0,0-.043-4.883,11.358,11.358,0,0,1-.13-5.038,11.689,11.689,0,0,1,.46-1.076l.53-.912c.339-.585.652-1.128.885-1.644a7.748,7.748,0,0,0,.746-2.554,4.327,4.327,0,0,1,.071-1,2.8,2.8,0,0,1,.156,1.006,6.932,6.932,0,0,1-.595,2.712,17.035,17.035,0,0,1-.84,1.715q-.243.447-.5.922c-.142.319-.275.641-.394.981A11.4,11.4,0,0,0,365.189,391.643Z" transform="translate(-364.239 -379.508)" fill="#f8a510"/></g><path d="M368.912,427.048H337.93a10.3,10.3,0,0,1,4.093-4.413,17.678,17.678,0,0,1,3.753-1.154,24,24,0,0,0,3.606-1.672c3.06-1.313,5.413.972,8.333,1.152,1.327.081,2.54-.746,3.926-.627a6.459,6.459,0,0,1,3.919,2.134C367.106,424.089,367.719,425.668,368.912,427.048Z" transform="translate(-336.683 -391.102)" fill="#1cdbc9"/></g></g></g></g></g></svg>