<svg xmlns="http://www.w3.org/2000/svg" xmlns:xlink="http://www.w3.org/1999/xlink" width="610" height="427" viewBox="0 0 610 427"><defs><clipPath id="a"><rect width="610" height="427" transform="translate(810 3966)" fill="#f3f9ff"/></clipPath></defs><g transform="translate(-810 -3966)" clip-path="url(#a)"><rect width="610" height="427" transform="translate(810 3966)" fill="#f3f9ff"/><path d="M1317.025,1598.445c47.313,2.1,93.1-7.615,127.558-46.294,17.375-19.5,133.982-149.474,274.407-51.225,18.376,12.857,66.486,42.963,91.595,116.133,53.854,156.939-3.409,254.545-30.923,267.027-6.888,3.124-589.2.944-591.751-2.57C1074.517,1725.58,1176.45,1592.192,1317.025,1598.445Z" transform="translate(-288.225 2507.411)" fill="#cae7f5"/><g transform="translate(823.188 4122.245)"><path d="M4782.147,2187.15c19.293,5.254,37.258,38.444,38.823,37.105,1.547-1.323-17.8-32.544-30.016-63.724-7.525-19.219-10.823-30.782-8.591-43.792.771-4.486,2.667-15.537,9.478-19.817,12.449-7.824,35.308,10.215,45.28,24.733,21.669,31.547,36.164,106.319,36.164,106.319,7.338.244-8.853-60.935-7.129-116.042.476-15.159,5.322-28.228,12.72-30.436,8.625-2.574,18.657,11.188,21.476,15.056,4.469,6.131,16.978,25.409,17.928,80.644.487,28.255-2.238,55.02-1.722,55.107.813.137,2.729-31.43,13.8-54.99,9.052-19.247,24.188-19.032,29.519-12.793,18.37,21.5,1.624,72.25-2.955,86.131-4.963,15.037-33.3,100.91-87.161,101.279-26.827.183-47.9-20.923-65.176-38.228-24.709-24.751-35.411-51.356-42.553-69.638-7.629-19.526-14.541-37.8-7.679-49.032C4760.066,2185.689,4773.178,2184.706,4782.147,2187.15Z" transform="translate(-4751.545 -2081.177)" fill="#a9d9ed"/><path d="M4759.8,2081.5c8.625-2.574,18.657,11.188,21.476,15.056,4.469,6.131,16.978,25.409,17.928,80.644.487,28.255-2.238,55.02-1.722,55.107.813.137,2.729-31.43,13.8-54.99,9.052-19.247,24.188-19.032,29.519-12.793,18.37,21.5,1.624,72.25-2.955,86.131-4.32,13.088-26.346,79.837-67.5,97.164,15.548-24.738,18.386-44.314,18.888-55.287.44-9.674-.078-31.452-6.075-32.724-8.05-1.708-21.527,34.465-23.343,33.714-1.63-.675,11.189-29,19.525-62.853,0,0,15.806-64.186-4.14-119.553-2.028-5.632-5.425-13.374-13.17-17.746a25.322,25.322,0,0,0-10.49-3.11C4753.672,2085.677,4756.478,2082.489,4759.8,2081.5Z" transform="translate(-4632.469 -2081.177)" fill="#93cae2"/><path d="M5363.76,2594.767c6.334,3.16,15.054,9.975,13.552,14.376-1.182,3.462-8.467,4.774-13.935,3.512-11.237-2.594-18.437-16.9-15.593-20.6C5350.135,2589,5359.681,2592.734,5363.76,2594.767Z" transform="translate(-5333.472 -2443.067)" fill="#93cae2"/><path d="M5250.271,2622.75c2.095.145,3.395,7.739,3.442,13.228.055,6.083-1.389,14.517-3.559,14.63-2.278.119-5.658-8.922-4.566-17.4C5246.207,2628.4,5248.411,2622.622,5250.271,2622.75Z" transform="translate(-5180.183 -2465.68)" fill="#93cae2"/><path d="M5224.073,2772.936c10.449,6.288,20.587,16.384,18.989,18.838-1.445,2.22-12.525-1.765-20.706-7.246-9.165-6.142-16.9-15.643-15.313-17.772C5208.571,2764.71,5218.578,2769.627,5224.073,2772.936Z" transform="translate(-5158.521 -2567.58)" fill="#93cae2"/><path d="M5234.19,2222.225c2.281.148,3.728,11.891,2.864,21.853-.23,2.646-1.071,12.319-3.062,12.439-2.189.132-5.921-11.269-4.349-22.42C5230.348,2229.11,5232.406,2222.108,5234.19,2222.225Z" transform="translate(-5159.104 -2181.316)" fill="#93cae2"/><path d="M5234.961,2381.761c6.059,7.31,9.813,17.671,7.6,19.244-2.277,1.622-11.111-5.932-16.382-14.1-3.245-5.029-6.893-13-5-14.5S5230.293,2376.131,5234.961,2381.761Z" transform="translate(-5162.506 -2287.757)" fill="#93cae2"/><path d="M5137.093,2497.86c2.617.406,2.348,14.1,2.307,16.2-.065,3.289-.309,15.692-2.714,15.975-2.205.259-6.68-9.631-5.483-19.453C5131.986,2504.16,5135.213,2497.569,5137.093,2497.86Z" transform="translate(-5032.724 -2377.007)" fill="#93cae2"/><path d="M5116.285,2670.685c2.986-1.085,8.6,7.068,11.153,11.754,4.268,7.833,7.232,19.265,4.207,21.007-2.848,1.642-11.146-5.233-14.9-13.53C5113.157,2681.973,5113.3,2671.766,5116.285,2670.685Z" transform="translate(-5021.262 -2499.645)" fill="#93cae2"/><path d="M5115.443,2834.286c9.291,7.248,11.857,21.219,9.367,22.642-2.193,1.252-8.905-6.867-11.721-10.271-.448-.542-11.176-13.631-8.742-16.277C5105.8,2828.8,5111.612,2831.3,5115.443,2834.286Z" transform="translate(-5011.169 -2612.747)" fill="#93cae2"/><path d="M5045.946,2187.406c2.26-.206,5.87,8.485,5.207,16.625-.44,5.375-2.808,11.3-4.615,11.163-1.662-.122-2.52-5.336-2.886-7.571C5042.19,2198.738,5043.456,2187.634,5045.946,2187.406Z" transform="translate(-4919.018 -2156.594)" fill="#93cae2"/><path d="M5010.8,2352.512c2.735.424,4.169,11.195,2.015,20.508-1.346,5.831-4.757,13.938-7.232,13.564-2.889-.437-4.519-12.417-1.518-22.7C5005.365,2359.426,5008.454,2352.149,5010.8,2352.512Z" transform="translate(-4869.877 -2273.809)" fill="#93cae2"/><path d="M5042.415,2590.238c2.339,1.113,1.284,12.987-5.9,19.859-3.745,3.581-9.5,6.135-10.968,4.648-2.282-2.311,6.289-13.888,7.1-14.979C5035.4,2596.042,5040.406,2589.282,5042.415,2590.238Z" transform="translate(-4906.13 -2442.534)" fill="#93cae2"/><path d="M4991.209,2758.209c2.077.536,2.356,9.856-.382,17.888-3.164,9.279-10.518,17.314-12.684,16.242-2.523-1.251,1.792-15.006,6.191-24.172C4986.162,2764.361,4989.345,2757.729,4991.209,2758.209Z" transform="translate(-4841.572 -2561.837)" fill="#93cae2"/></g><g transform="translate(1203.246 4126.213)"><path d="M4782.147,2187.15c19.293,5.254,37.258,38.444,38.823,37.105,1.547-1.323-17.8-32.544-30.016-63.724-7.525-19.219-10.823-30.782-8.591-43.792.771-4.486,2.667-15.537,9.478-19.817,12.449-7.824,35.308,10.215,45.28,24.733,21.669,31.547,36.164,106.319,36.164,106.319,7.338.244-8.853-60.935-7.129-116.042.476-15.159,5.322-28.228,12.72-30.436,8.625-2.574,18.657,11.188,21.476,15.056,4.469,6.131,16.978,25.409,17.928,80.644.487,28.255-2.238,55.02-1.722,55.107.813.137,2.729-31.43,13.8-54.99,9.052-19.247,24.188-19.032,29.519-12.793,18.37,21.5,1.624,72.25-2.955,86.131-4.963,15.037-33.3,100.91-87.161,101.279-26.827.183-47.9-20.923-65.176-38.228-24.709-24.751-35.411-51.356-42.553-69.638-7.629-19.526-14.541-37.8-7.679-49.032C4760.066,2185.689,4773.178,2184.706,4782.147,2187.15Z" transform="translate(-4751.545 -2081.177)" fill="#a9d9ed"/><path d="M4759.8,2081.5c8.625-2.574,18.657,11.188,21.476,15.056,4.469,6.131,16.978,25.409,17.928,80.644.487,28.255-2.238,55.02-1.722,55.107.813.137,2.729-31.43,13.8-54.99,9.052-19.247,24.188-19.032,29.519-12.793,18.37,21.5,1.624,72.25-2.955,86.131-4.32,13.088-26.346,79.837-67.5,97.164,15.548-24.738,18.386-44.314,18.888-55.287.44-9.674-.078-31.452-6.075-32.724-8.05-1.708-21.527,34.465-23.343,33.714-1.63-.675,11.189-29,19.525-62.853,0,0,15.806-64.186-4.14-119.553-2.028-5.632-5.425-13.374-13.17-17.746a25.322,25.322,0,0,0-10.49-3.11C4753.672,2085.677,4756.478,2082.489,4759.8,2081.5Z" transform="translate(-4632.469 -2081.177)" fill="#93cae2"/><path d="M5363.76,2594.767c6.334,3.16,15.054,9.975,13.552,14.376-1.182,3.462-8.467,4.774-13.935,3.512-11.237-2.594-18.437-16.9-15.593-20.6C5350.135,2589,5359.681,2592.734,5363.76,2594.767Z" transform="translate(-5333.472 -2443.067)" fill="#93cae2"/><path d="M5250.271,2622.75c2.095.145,3.395,7.739,3.442,13.228.055,6.083-1.389,14.517-3.559,14.63-2.278.119-5.658-8.922-4.566-17.4C5246.207,2628.4,5248.411,2622.622,5250.271,2622.75Z" transform="translate(-5180.183 -2465.68)" fill="#93cae2"/><path d="M5224.073,2772.936c10.449,6.288,20.587,16.384,18.989,18.838-1.445,2.22-12.525-1.765-20.706-7.246-9.165-6.142-16.9-15.643-15.313-17.772C5208.571,2764.71,5218.578,2769.627,5224.073,2772.936Z" transform="translate(-5158.521 -2567.58)" fill="#93cae2"/><path d="M5234.19,2222.225c2.281.148,3.728,11.891,2.864,21.853-.23,2.646-1.071,12.319-3.062,12.439-2.189.132-5.921-11.269-4.349-22.42C5230.348,2229.11,5232.406,2222.108,5234.19,2222.225Z" transform="translate(-5159.104 -2181.316)" fill="#93cae2"/><path d="M5234.961,2381.761c6.059,7.31,9.813,17.671,7.6,19.244-2.277,1.622-11.111-5.932-16.382-14.1-3.245-5.029-6.893-13-5-14.5S5230.293,2376.131,5234.961,2381.761Z" transform="translate(-5162.506 -2287.757)" fill="#93cae2"/><path d="M5137.093,2497.86c2.617.406,2.348,14.1,2.307,16.2-.065,3.289-.309,15.692-2.714,15.975-2.205.259-6.68-9.631-5.483-19.453C5131.986,2504.16,5135.213,2497.569,5137.093,2497.86Z" transform="translate(-5032.724 -2377.007)" fill="#93cae2"/><path d="M5116.285,2670.685c2.986-1.085,8.6,7.068,11.153,11.754,4.268,7.833,7.232,19.265,4.207,21.007-2.848,1.642-11.146-5.233-14.9-13.53C5113.157,2681.973,5113.3,2671.766,5116.285,2670.685Z" transform="translate(-5021.262 -2499.645)" fill="#93cae2"/><path d="M5115.443,2834.286c9.291,7.248,11.857,21.219,9.367,22.642-2.193,1.252-8.905-6.867-11.721-10.271-.448-.542-11.176-13.631-8.742-16.277C5105.8,2828.8,5111.612,2831.3,5115.443,2834.286Z" transform="translate(-5011.169 -2612.747)" fill="#93cae2"/><path d="M5045.946,2187.406c2.26-.206,5.87,8.485,5.207,16.625-.44,5.375-2.808,11.3-4.615,11.163-1.662-.122-2.52-5.336-2.886-7.571C5042.19,2198.738,5043.456,2187.634,5045.946,2187.406Z" transform="translate(-4919.018 -2156.594)" fill="#93cae2"/><path d="M5010.8,2352.512c2.735.424,4.169,11.195,2.015,20.508-1.346,5.831-4.757,13.938-7.232,13.564-2.889-.437-4.519-12.417-1.518-22.7C5005.365,2359.426,5008.454,2352.149,5010.8,2352.512Z" transform="translate(-4869.877 -2273.809)" fill="#93cae2"/><path d="M5042.415,2590.238c2.339,1.113,1.284,12.987-5.9,19.859-3.745,3.581-9.5,6.135-10.968,4.648-2.282-2.311,6.289-13.888,7.1-14.979C5035.4,2596.042,5040.406,2589.282,5042.415,2590.238Z" transform="translate(-4906.13 -2442.534)" fill="#93cae2"/><path d="M4991.209,2758.209c2.077.536,2.356,9.856-.382,17.888-3.164,9.279-10.518,17.314-12.684,16.242-2.523-1.251,1.792-15.006,6.191-24.172C4986.162,2764.361,4989.345,2757.729,4991.209,2758.209Z" transform="translate(-4841.572 -2561.837)" fill="#93cae2"/></g><g transform="translate(835.3 4029.31)"><g transform="translate(145.242 235.813)"><g transform="translate(0 76.453)"><path d="M446.091,455.911H188.52v-7.258h7.439c1.488,0,4.768-5.044,5.784-14.516a53.312,53.312,0,0,0,.312-5.922c0-13.274-4.326-20.438-6.1-20.438H188.52V400.52H446.091c5.284,0,9,4.877,11.141,11.736C462.326,428.513,458.61,455.911,446.091,455.911Z" transform="translate(-188.52 -400.52)" fill="#3a92a0"/><path d="M446.091,460.345H188.52v-7.258h7.439c1.488,0,4.768-5.044,5.784-14.516,13.093,5.777,27.3,9.145,41.551,10.872,20.285,2.468,40.8,1.771,61.227,1.074,29.191-.994,58.548-2.01,87.158-7.9,23.145-4.768,45.956-12.919,65.552-25.932C462.326,432.947,458.61,460.345,446.091,460.345Z" transform="translate(-188.52 -404.954)" fill="#317b87"/><path d="M455,430.958c0,.276,0,.544-.007.813a50.639,50.639,0,0,1-.348,5.5c-.058.559-.131,1.1-.21,1.618a37.777,37.777,0,0,1-1.227,5.509c-.174.573-.356,1.118-.544,1.618-1.314,3.542-2.86,5.378-3.76,5.378H198.77c.9,0,2.446-1.836,3.76-5.378.189-.5.37-1.045.544-1.618.319-1.052.617-2.214.871-3.484.131-.646.254-1.321.356-2.025.08-.523.152-1.06.21-1.618a50.631,50.631,0,0,0,.348-5.5c.007-.269.007-.537.007-.813s0-.544-.007-.813a50.63,50.63,0,0,0-.348-5.5c-.058-.559-.131-1.1-.21-1.618a37.768,37.768,0,0,0-1.227-5.509c-.174-.573-.356-1.118-.544-1.618-1.314-3.542-2.86-5.378-3.76-5.378H448.9c.9,0,2.446,1.836,3.76,5.378.189.5.37,1.045.544,1.618a37.776,37.776,0,0,1,1.227,5.509c0,.022.007.044.007.065.08.5.145,1.016.2,1.553a50.638,50.638,0,0,1,.348,5.5C455,430.414,455,430.682,455,430.958Z" transform="translate(-191.331 -403.262)" fill="#fadbc0"/><path d="M454.439,423.09c-30.57,8.013-66.423,14.472-104.976,18.4-55.711,5.676-106.943,5.044-145.518-.573.131-.646.254-1.321.356-2.025.08-.523.152-1.06.21-1.618a50.631,50.631,0,0,0,.348-5.5c.007-.269.007-.537.007-.813s0-.544-.007-.813a50.63,50.63,0,0,0-.348-5.5c-.058-.559-.131-1.1-.21-1.618a37.768,37.768,0,0,0-1.227-5.509c-.174-.573-.356-1.118-.544-1.618-1.314-3.542-2.86-5.378-3.76-5.378H448.9c.9,0,2.446,1.836,3.76,5.378.189.5.37,1.045.544,1.618a37.776,37.776,0,0,1,1.227,5.509C454.432,423.047,454.439,423.069,454.439,423.09Z" transform="translate(-191.331 -403.262)" fill="#fff0e3"/><g transform="translate(11.2 12.637)"><path d="M454.627,419.55H204.5c-.174-.573-.356-1.118-.544-1.618H454.083C454.272,418.433,454.453,418.977,454.627,419.55Z" transform="translate(-203.952 -417.932)" fill="#d6b598"/><path d="M456.733,429.37H206.6c-.058-.559-.13-1.1-.21-1.618H456.523C456.6,428.275,456.675,428.812,456.733,429.37Z" transform="translate(-204.621 -420.625)" fill="#d6b598"/><path d="M457.3,438.375c0,.276,0,.544-.007.813H207.162c.007-.269.007-.537.007-.813s0-.544-.007-.813H457.293C457.3,437.831,457.3,438.1,457.3,438.375Z" transform="translate(-204.832 -423.315)" fill="#d6b598"/><path d="M456.733,447.382c-.058.559-.131,1.1-.21,1.618H206.391c.081-.523.152-1.06.21-1.618Z" transform="translate(-204.621 -426.008)" fill="#d6b598"/><path d="M454.627,457.2c-.174.573-.356,1.118-.544,1.618H203.952c.189-.5.37-1.045.544-1.618Z" transform="translate(-203.952 -428.701)" fill="#d6b598"/></g></g><g transform="translate(41.242 35.316)"><path d="M423.737,364.409a31.938,31.938,0,0,0,1.88,11.562c.936,2.381,2,3.622,2.642,3.622h5.53v5.385H255.263c-13.224,0-13.224-41.137,0-41.137H433.789v5.393h-5.53C426.945,349.233,423.737,354.552,423.737,364.409Z" transform="translate(-245.345 -343.84)" fill="#fc7788"/><path d="M433.789,379.592v5.385H255.263c-13.224,0-13.224-41.137,0-41.137h17.68c12.948,16.149,50.441,43.561,152.674,32.13.936,2.381,2,3.622,2.642,3.622Z" transform="translate(-245.345 -343.84)" fill="#eb576a"/><path d="M430.295,381.629h-173c-.668,0-1.822-1.364-2.794-4-.138-.37-.276-.777-.406-1.2a27.945,27.945,0,0,1-.907-4.093c-.058-.392-.116-.791-.16-1.2a36.827,36.827,0,0,1-.254-4.086c-.007-.2-.007-.4-.007-.6s0-.406.007-.6a36.827,36.827,0,0,1,.254-4.086c.044-.414.1-.813.16-1.2a28.048,28.048,0,0,1,.907-4.086c.131-.428.269-.835.406-1.2.973-2.627,2.127-3.992,2.794-3.992h173c-.668,0-1.814,1.364-2.787,3.992-.145.37-.276.777-.406,1.2a28.042,28.042,0,0,0-.907,4.086c-.065.392-.116.791-.16,1.2a38.584,38.584,0,0,0-.261,4.086v1.2a38.584,38.584,0,0,0,.261,4.086c.044.414.094.813.16,1.2a27.939,27.939,0,0,0,.907,4.093c.131.421.261.827.406,1.2.073.2.152.4.225.588C428.655,380.468,429.678,381.629,430.295,381.629Z" transform="translate(-247.381 -345.877)" fill="#fff0e3"/><path d="M430.295,381.629h-173c-.668,0-1.822-1.364-2.794-4-.138-.37-.276-.777-.406-1.2a27.945,27.945,0,0,1-.907-4.093c-.058-.392-.116-.791-.16-1.2a36.827,36.827,0,0,1-.254-4.086c-.007-.2-.007-.4-.007-.6s0-.406.007-.6a36.827,36.827,0,0,1,.254-4.086c.044-.414.1-.813.16-1.2a28.048,28.048,0,0,1,.907-4.086c.131-.428.269-.835.406-1.2.973-2.627,2.127-3.992,2.794-3.992h21.149c17.527,13.645,57.881,30.65,149.285,26.948C428.655,380.468,429.678,381.629,430.295,381.629Z" transform="translate(-247.381 -345.877)" fill="#fadbc0"/><g transform="translate(5.387 9.385)"><path d="M254.6,385.936h173c.129.425.264.83.4,1.2h-173C254.866,386.766,254.732,386.361,254.6,385.936Z" transform="translate(-253.271 -364.769)" fill="#d6b598"/><path d="M253.132,378.643h173c.044.415.1.814.157,1.2h-173C253.229,379.457,253.175,379.058,253.132,378.643Z" transform="translate(-252.868 -362.769)" fill="#d6b598"/><path d="M252.768,371.954c0-.205,0-.4.005-.6h173c-.005.2-.005.4-.005.6s0,.4.005.6h-173C252.768,372.358,252.768,372.159,252.768,371.954Z" transform="translate(-252.768 -360.769)" fill="#d6b598"/><path d="M253.132,365.266c.043-.414.1-.814.156-1.2h173c-.06.388-.113.787-.157,1.2Z" transform="translate(-252.868 -358.771)" fill="#d6b598"/><path d="M254.6,357.974c.13-.426.264-.83.4-1.2h173c-.14.372-.275.777-.4,1.2Z" transform="translate(-253.271 -356.771)" fill="#d6b598"/></g></g><g transform="translate(54.571)"><path d="M416.979,330.5H263.71v-4.623h4.739c1.132,0,3.89-4.572,3.89-13.035s-2.758-13.028-3.89-13.028H263.71v-4.63H416.979C428.331,295.18,428.331,330.5,416.979,330.5Z" transform="translate(-263.71 -295.18)" fill="#3e2954"/><path d="M416.979,330.5H263.71v-4.623h4.26C375.6,335.446,403.088,307.264,409.86,295.18h7.12C428.331,295.18,428.331,330.5,416.979,330.5Z" transform="translate(-263.71 -295.18)" fill="#2d1e3d"/><path d="M422.66,314.588c0,.174,0,.348-.007.515a32.225,32.225,0,0,1-.218,3.513c-.036.356-.087.7-.138,1.031a23.357,23.357,0,0,1-.784,3.513c-.109.363-.225.711-.341,1.031-.842,2.257-1.829,3.433-2.4,3.433H270.24c.573,0,1.56-1.176,2.4-3.433.116-.319.232-.668.341-1.031a23.353,23.353,0,0,0,.784-3.513c.015-.087.029-.174.036-.269.036-.247.073-.5.1-.762a34.156,34.156,0,0,0,.218-3.513c.007-.167.007-.341.007-.515s0-.348-.007-.515a34.288,34.288,0,0,0-.218-3.513c-.044-.356-.087-.7-.138-1.031a23.352,23.352,0,0,0-.784-3.513c-.109-.363-.225-.711-.341-1.031-.842-2.257-1.829-3.426-2.4-3.426H418.77c.573,0,1.56,1.169,2.4,3.426.116.319.232.668.341,1.031a23.356,23.356,0,0,1,.784,3.513c.051.334.1.675.138,1.031a32.342,32.342,0,0,1,.218,3.513C422.66,314.239,422.66,314.413,422.66,314.588Z" transform="translate(-265.501 -296.93)" fill="#fff0e3"/><path d="M422.653,314.072c.007.167.007.341.007.515s0,.348-.007.515a32.225,32.225,0,0,1-.218,3.513c-.036.356-.087.7-.138,1.031a23.357,23.357,0,0,1-.784,3.513c-.109.363-.225.711-.341,1.031-.842,2.257-1.829,3.433-2.4,3.433H270.24c.573,0,1.56-1.176,2.4-3.433.116-.319.232-.668.341-1.031a23.353,23.353,0,0,0,.784-3.513c.015-.087.029-.174.036-.269,82.02,10.741,118.461-7.134,132.324-17.818H418.77c.573,0,1.56,1.169,2.4,3.426.116.319.232.668.341,1.031a23.356,23.356,0,0,1,.784,3.513c.051.334.1.675.138,1.031A32.342,32.342,0,0,1,422.653,314.072Z" transform="translate(-265.501 -296.93)" fill="#fadbc0"/><g transform="translate(7.138 8.056)"><path d="M422.423,307.312H273.892c-.111-.366-.226-.713-.347-1.032H422.076C422.2,306.6,422.312,306.946,422.423,307.312Z" transform="translate(-273.545 -306.28)" fill="#d6b598"/><path d="M423.766,313.573H275.235c-.037-.356-.083-.7-.134-1.032H423.632C423.683,312.874,423.729,313.217,423.766,313.573Z" transform="translate(-273.972 -307.997)" fill="#d6b598"/><path d="M424.127,319.314c0,.176,0,.348,0,.519H275.592c0-.171,0-.343,0-.519s0-.347,0-.518H424.123C424.127,318.967,424.127,319.139,424.127,319.314Z" transform="translate(-274.106 -309.712)" fill="#d6b598"/><path d="M423.766,325.058c-.037.356-.083.7-.134,1.031H275.1c.051-.333.1-.675.134-1.031Z" transform="translate(-273.972 -311.429)" fill="#d6b598"/><path d="M422.423,331.319c-.111.366-.226.713-.347,1.032H273.545c.12-.319.236-.666.347-1.032Z" transform="translate(-273.545 -313.146)" fill="#d6b598"/></g></g></g><g transform="translate(268.904 101.633)"><g transform="translate(0 0)"><g transform="translate(0.002 13.993)"><path d="M366.383,129.581h-7.476v96.312H380.76V129.581Z" transform="translate(-358.907 -129.581)" fill="#fcb647"/><rect width="7.284" height="96.312" transform="translate(7.284)" fill="#fcc977"/><rect width="21.852" height="10.521" transform="translate(0 96.312)" fill="#3e2954"/><rect width="5.092" height="10.521" transform="translate(16.76 96.312)" fill="#2d1e3d"/><path d="M380.763,276.78V279.2a10.927,10.927,0,1,1-21.853,0V276.78Z" transform="translate(-358.908 -169.947)" fill="#eb576a"/><path d="M376.227,276.78A10.917,10.917,0,0,1,361.61,286.4a10.906,10.906,0,0,1-2.7-7.192V276.78Z" transform="translate(-358.908 -169.947)" fill="#fc7788"/></g><path d="M380.758,124.295H358.905l6.416-8.216,4.514-5.777,4.514,5.777Z" transform="translate(-358.905 -110.302)" fill="#fff0e3"/><path d="M376.774,116.079a7.31,7.31,0,0,1-9.029,0l4.514-5.777Z" transform="translate(-361.329 -110.302)" fill="#3e2954"/></g></g><g transform="translate(30.7 97.724)"><g transform="translate(6.225)"><path d="M39.64,224.752a.354.354,0,0,1-.147-.031.362.362,0,0,1-.184-.479L92.4,105.131a.363.363,0,1,1,.663.3l-53.1,119.11A.363.363,0,0,1,39.64,224.752Z" transform="translate(-39.277 -104.915)" fill="#3e2954"/><g transform="translate(53.095)"><path d="M165.893,224.752a.362.362,0,0,1-.332-.216l-53.1-119.11a.363.363,0,0,1,.663-.3l53.1,119.112a.362.362,0,0,1-.184.479A.354.354,0,0,1,165.893,224.752Z" transform="translate(-112.434 -104.915)" fill="#3e2954"/></g></g><path d="M150.068,266.43v4.405A23.974,23.974,0,0,1,126.1,294.808H54.665A23.968,23.968,0,0,1,30.7,270.835V266.43Z" transform="translate(-30.7 -149.207)" fill="#fcc977"/><path d="M133.484,266.43v4.405a23.974,23.974,0,0,1-23.972,23.972H54.665A23.968,23.968,0,0,1,30.7,270.835V266.43Z" transform="translate(-30.7 -149.207)" fill="#fcb647"/></g><g transform="translate(409.592 97.724)"><g transform="translate(6.227)"><path d="M561.693,224.752a.362.362,0,0,1-.332-.51l53.1-119.112a.363.363,0,1,1,.663.3l-53.1,119.11A.363.363,0,0,1,561.693,224.752Z" transform="translate(-561.33 -104.915)" fill="#3e2954"/><g transform="translate(53.096)"><path d="M687.946,224.752a.363.363,0,0,1-.332-.216l-53.095-119.11a.363.363,0,1,1,.663-.3l53.1,119.112a.363.363,0,0,1-.184.479A.359.359,0,0,1,687.946,224.752Z" transform="translate(-634.487 -104.915)" fill="#3e2954"/></g></g><path d="M672.118,266.43v4.405a23.968,23.968,0,0,1-23.965,23.972H576.722a23.974,23.974,0,0,1-23.972-23.972V266.43Z" transform="translate(-552.75 -149.207)" fill="#fcc977"/><path d="M655.868,266.43v4.405A23.974,23.974,0,0,1,631.9,294.808H576.722a23.974,23.974,0,0,1-23.972-23.972V266.43Z" transform="translate(-552.75 -149.207)" fill="#fcb647"/></g><g transform="translate(82.578 78.69)"><path d="M491.838,94.751v5.668l-164.5,11.554A24.66,24.66,0,0,1,312.085,108l-9.711-6.365L292.67,108a24.682,24.682,0,0,1-15.263,3.977L112.91,100.42V94.751H269.177a31.249,31.249,0,0,0,19.944-7.2l8.68-7.207a7.144,7.144,0,0,1,9.145,0l8.688,7.207a31.215,31.215,0,0,0,19.937,7.2Z" transform="translate(-105.122 -78.69)" fill="#fcc977"/><path d="M490.361,94.751,328.237,106.139a24.613,24.613,0,0,1-15.256-3.977L303.271,95.8l-9.7,6.358a24.634,24.634,0,0,1-15.263,3.977L116.18,94.751H270.074a31.249,31.249,0,0,0,19.944-7.2l8.68-7.207a7.144,7.144,0,0,1,9.145,0l8.688,7.207a31.215,31.215,0,0,0,19.937,7.2Z" transform="translate(-106.018 -78.69)" fill="#fcb647"/><g transform="translate(0 11.591)"><circle cx="6.489" cy="6.489" r="6.489" transform="matrix(0.23, -0.973, 0.973, 0.23, 0, 12.63)" fill="#fcb647"/><circle cx="6.489" cy="6.489" r="6.489" transform="translate(379.258 2.437) rotate(-9.192)" fill="#fcb647"/></g></g><g transform="translate(39.191 122.047)"><g transform="translate(33.582 78.519)"><g transform="translate(18.832)"><path d="M136.721,246.616l12.143,36.961-22.58,7.253s-16.662-25.42-10.161-42.98Z" transform="translate(-114.617 -246.616)" fill="#312042"/><path d="M151.542,299.073s3.633,11.935,1.034,20.232-14.312,46.589-14.312,46.589l-9.375-4.945s-1.389-32.766-.348-39.312c1.5-9.41,2.616-14.033,2.616-14.033Z" transform="translate(-118.329 -261.001)" fill="#ffaba1"/><path d="M126,302.174,152.85,291.8l1.781,6.539-26.07,10.6Z" transform="translate(-117.739 -259.005)" fill="#573f70"/><path d="M128.647,384.327l9.375,4.945s3.955,12.509,2.468,14.235-12.385-9.064-13.071-11.287S128.647,384.327,128.647,384.327Z" transform="translate(-118.087 -284.38)" fill="#3e2954"/></g><g transform="translate(0 2.456)"><path d="M110.773,250l12.143,36.96-22.58,7.253s-16.662-25.42-10.161-42.979Z" transform="translate(-88.669 -250)" fill="#3e2954"/><path d="M99.642,257.474c-.1-.457-.8-.263-.7.193A8.394,8.394,0,0,1,92.8,267.693a.363.363,0,0,0,.193.7A9.134,9.134,0,0,0,99.642,257.474Z" transform="translate(-89.732 -251.978)" fill="#312042"/><path d="M125.594,302.457s3.633,11.935,1.034,20.231-14.312,46.59-14.312,46.59l-9.375-4.945s-1.39-32.767-.348-39.312c1.5-9.41,2.615-14.033,2.615-14.033Z" transform="translate(-92.381 -264.385)" fill="#ffc3bc"/><path d="M100.055,305.558,126.9,295.179l1.781,6.539-26.07,10.6Z" transform="translate(-91.791 -262.389)" fill="#573f70"/><path d="M102.7,387.711l9.375,4.945s3.954,12.509,2.468,14.235-12.385-9.063-13.072-11.287S102.7,387.711,102.7,387.711Z" transform="translate(-92.139 -287.764)" fill="#3e2954"/></g></g><g transform="translate(0)"><g transform="translate(31.949)"><path d="M132.508,152.257s4.069-1.936,4.27-5.276c-.067-2.337-1.2-2.938-1.2-2.938a2.382,2.382,0,0,0,2.27-2.537c.134-2.538-3.94-3.139-12.755-3.072s-9.22,3.606-9.118,4.741c0,0-2.367-.935-3.3,1.135s.267,10.952,6.477,12.02Z" transform="translate(-93.541 -138.429)" fill="#3e2954"/><g transform="translate(35.643 26.368)"><path d="M175.437,247.8a2.719,2.719,0,0,1,1.771.943c.573,1.154-9.508.573-10.843,0a12,12,0,0,1-2.192-2.206.007.007,0,0,1-.007-.007,165.412,165.412,0,0,1-13.325-18.108,37.326,37.326,0,0,1-4.536-14.842L141.95,204.5l2.214-3.179.189-.276,10.662-.864,15.568,42.654s10.371,3.455,11.075,4.754C182.114,248.43,178.224,248.118,175.437,247.8Z" transform="translate(-137.291 -181.731)" fill="#ffc3bc"/><path d="M164.42,247.111c-.08-.044-.167-.094-.247-.145a.007.007,0,0,1-.007-.007,165.412,165.412,0,0,1-13.325-18.108,37.326,37.326,0,0,1-4.536-14.842l-4.355-9.079,2.214-3.179c1.589,1.263,2.533,3.687,3.135,5.784A167.5,167.5,0,0,0,164.42,247.111Z" transform="translate(-137.291 -182.161)" fill="#ffaba1"/><path d="M155.133,194.5c-.007,0-.007.007-.014.007A17.657,17.657,0,0,1,141,197.716c-.269-.051-.537-.116-.806-.189l-4.659-20.75,1.589-2.018S149.08,177.467,155.133,194.5Z" transform="translate(-135.53 -174.76)" fill="#3a92a0"/></g><path d="M133.893,234.61a.127.127,0,0,0-.036.007c-.022,0-.058.007-.109.015h-.022c-2.446.428-31.114,5.182-47.306-.748L96.8,176.737v-.014l.494-2.707s9.972-3.237,17.578-1.415a39.507,39.507,0,0,1,8.782,1.415Z" transform="translate(-86.42 -147.647)" fill="#3a92a0"/><path d="M156.2,197.39a17.657,17.657,0,0,1-14.124,3.208L139.49,185.27l6.358,14.211A22.373,22.373,0,0,0,156.2,197.39Z" transform="translate(-100.973 -151.274)" fill="#307985"/><path d="M133.726,236.405c-2.446.428-31.114,5.182-47.306-.748L96.8,178.51l-2.127,50.34C99.8,240.593,131.179,236.739,133.726,236.405Z" transform="translate(-86.42 -149.42)" fill="#307985"/><path d="M126.445,157.394v11.424a3.566,3.566,0,0,1-.1.842,3.727,3.727,0,0,1-1,1.829,3.782,3.782,0,0,1-6.452-2.671V156.98Z" transform="translate(-95.324 -143.516)" fill="#ffc3bc"/><path d="M126.445,157.394v11.424a3.566,3.566,0,0,1-.1.842,3.255,3.255,0,0,0-.544-.2A7.879,7.879,0,0,1,118.89,163V156.98Z" transform="translate(-95.324 -143.516)" fill="#ffaba1"/><path d="M120.5,154.3a3.649,3.649,0,0,0-.5-1.277,1.636,1.636,0,0,0-1.116-.736,1.477,1.477,0,0,0-1.509,1.1,1.982,1.982,0,0,0,.559,1.859,3.066,3.066,0,0,0,1.82.815s-1.4,6.217,2.543,8.457c3.614,2.053,9.683,2.071,10.951-.935s3.807-9.549,2.805-11.819a3.27,3.27,0,0,0-4.274-2.137,5.286,5.286,0,0,0-7.279-.6,4.1,4.1,0,0,1-.57,3.8A3.886,3.886,0,0,1,120.5,154.3Z" transform="translate(-94.896 -141.007)" fill="#ffc3bc"/></g><g transform="translate(0 26.37)"><path d="M82.143,204.5l-4.355,9.079A37.249,37.249,0,0,1,73.26,228.42c-1.524,2.569-3.934,6.017-6.4,9.348-4.064,5.472-8.3,10.611-9.13,10.974-1.328.573-11.416,1.154-10.843,0a2.739,2.739,0,0,1,1.778-.943c-2.787.319-6.684.631-6.227-.21.7-1.3,11.075-4.754,11.075-4.754L68.361,202.14l.719-1.96,10.662.864Z" transform="translate(-42.399 -181.733)" fill="#ffc3bc"/><path d="M91.385,204.5l-4.355,9.079A37.249,37.249,0,0,1,82.5,228.42c-1.524,2.569-3.934,6.017-6.4,9.348a140.332,140.332,0,0,0,10.582-30.475A11.832,11.832,0,0,1,77.6,202.14l.719-1.96,10.662.864Z" transform="translate(-51.641 -181.733)" fill="#ffaba1"/><path d="M76.577,194.506a17.632,17.632,0,0,0,14.941,3.02l4.657-20.745-1.585-2.018S82.629,177.469,76.577,194.506Z" transform="translate(-51.772 -174.763)" fill="#3a92a0"/></g></g></g><g transform="translate(413.278 121.344)"><g transform="translate(0 7.526)"><g transform="translate(26.038 115.725)"><g transform="translate(0 1.445)"><path d="M595.463,309.271s-3.24,10.643-.921,18.041S607.3,368.856,607.3,368.856l8.359-4.41s1.239-29.218.311-35.056c-1.334-8.391-2.332-12.513-2.332-12.513Z" transform="translate(-593.706 -309.271)" fill="#ffc3bc"/><path d="M619.856,385.293,611.5,389.7s-3.527,11.154-2.2,12.694,11.044-8.082,11.656-10.064S619.856,385.293,619.856,385.293Z" transform="translate(-597.899 -330.118)" fill="#fc7788"/></g><g transform="translate(16.507)"><path d="M618.207,307.28s-3.24,10.643-.921,18.041,12.761,41.544,12.761,41.544l8.359-4.41s1.239-29.218.311-35.055c-1.334-8.391-2.332-12.514-2.332-12.514Z" transform="translate(-616.45 -307.28)" fill="#ffc3bc"/><path d="M642.6,383.3l-8.359,4.41s-3.527,11.154-2.2,12.694,11.043-8.082,11.655-10.064S642.6,383.3,642.6,383.3Z" transform="translate(-620.643 -328.127)" fill="#fc7788"/></g></g><g transform="translate(0 19.548)"><path d="M597.573,204.5l-4.355,9.079a37.25,37.25,0,0,1-4.529,14.842,162.807,162.807,0,0,1-13.753,18.587c-.007.014-.022.022-.029.036a9,9,0,0,1-1.749,1.7c-1.328.573-11.417,1.154-10.843,0a2.739,2.739,0,0,1,1.778-.943c-2.787.319-6.684.631-6.227-.21.7-1.3,11.083-4.754,11.083-4.754l15.561-42.654,9.762.791.9.073Z" transform="translate(-557.829 -181.733)" fill="#ffc3bc"/><path d="M604.037,204.8l-4.355,9.079a37.25,37.25,0,0,1-4.529,14.842A162.815,162.815,0,0,1,581.4,247.306c9.522-12.033,15.466-31.571,15.466-31.571v-4.616l2.032-7,1.836-2.845.9.073Z" transform="translate(-564.293 -182.032)" fill="#ffaba1"/><path d="M592.008,194.506a17.632,17.632,0,0,0,14.941,3.02l4.657-20.745-1.585-2.018S598.06,177.469,592.008,194.506Z" transform="translate(-567.202 -174.763)" fill="#eb576a"/></g><path d="M642.528,275.606c-5.828,13.187-9.653,21.36-9.653,21.36l6.467,46.493s-27.1,13.057-46.914,0l-.82-46.21a38.759,38.759,0,0,1,1.822-12.491l11.206-35.265,2.2-.08,34.844-1.263S649.611,253.818,642.528,275.606Z" transform="translate(-567.09 -175.34)" fill="#3e2954"/><path d="M639.342,343.936s-27.1,13.057-46.914,0l-.82-46.21a38.76,38.76,0,0,1,1.822-12.491l11.206-35.265,2.2-.08,2.8,6.793-9.217,32.406a17.76,17.76,0,0,0-.682,5.385l1.227,45.492S611.312,350.816,639.342,343.936Z" transform="translate(-567.09 -175.817)" fill="#312042"/><path d="M650.183,233.884c-20.772,8.913-47.473.726-47.473.726l8.332-30.163a11.074,11.074,0,0,1-2.613-3.1c-.022-.044-.051-.087-.073-.131a11.213,11.213,0,0,1-1.067-8.172,11.085,11.085,0,0,1,.842-2.2l3.034-6.227,1.793-10.6a39.441,39.441,0,0,1,8.775-1.415c7.606-1.822,17.586,1.415,17.586,1.415l10.611,58.469Z" transform="translate(-570.137 -154.47)" fill="#fc7788"/><path d="M650.183,244.644c-20.772,8.913-47.473.726-47.473.726l8.332-30.163a11.074,11.074,0,0,1-2.613-3.1,8.9,8.9,0,0,0,3.433,1.793,9.249,9.249,0,0,0,8.963-2.62,5.068,5.068,0,0,0,3.339,2.54,12.459,12.459,0,0,0,9.929-.936,9.452,9.452,0,0,1-6.51,4.014,10.1,10.1,0,0,1-7.657-2.01,8.572,8.572,0,0,1-7.679,2.41c-1.343,7.548-2.272,14.936-3.614,22.492,2.228,3.085,6.009,4.006,9.762,4.652a76.248,76.248,0,0,0,31.535-1.2Z" transform="translate(-570.137 -165.229)" fill="#eb576a"/><path d="M632.8,156.98v11.837a3.769,3.769,0,0,1-7.49.617,2.868,2.868,0,0,1-.058-.617V157.394Z" transform="translate(-576.318 -150.339)" fill="#ffc3bc"/><path d="M632.8,168.909a3.368,3.368,0,0,1-.464.6,6.239,6.239,0,0,1-2.816,1.517,13.007,13.007,0,0,1-3.919.5c-.094,0-.189-.007-.29-.015a2.868,2.868,0,0,1-.058-.617v-3.7a11.094,11.094,0,0,1,1.379-1.227,6.062,6.062,0,0,1,3.549-1.423,3.366,3.366,0,0,1,2.62,1.219,2.424,2.424,0,0,1,.414.791A2.911,2.911,0,0,1,632.8,168.909Z" transform="translate(-576.318 -152.412)" fill="#ffaba1"/><path d="M614.091,147.853l-3.617.9s-1.719,2.08-.452,11.485,0,20.529,0,20.529l10.852-3.346.9-27.492Z" transform="translate(-572.014 -147.836)" fill="#3e2954"/><path d="M626.874,154.3a3.649,3.649,0,0,1,.5-1.277,1.637,1.637,0,0,1,1.116-.736,1.477,1.477,0,0,1,1.509,1.1,1.982,1.982,0,0,1-.559,1.859,3.066,3.066,0,0,1-1.82.815s1.4,6.217-2.543,8.457c-3.614,2.053-9.683,2.071-10.951-.935s-3.807-9.549-2.8-11.819a3.269,3.269,0,0,1,4.273-2.137,5.287,5.287,0,0,1,7.279-.6,4.1,4.1,0,0,0,.57,3.8A3.887,3.887,0,0,0,626.874,154.3Z" transform="translate(-572.434 -147.83)" fill="#ffc3bc"/><g transform="translate(67.594 19.548)"><path d="M690.867,247.8a2.719,2.719,0,0,1,1.771.943c.581,1.154-9.508.573-10.843,0l-.073-.036c-1.582-.951-11.482-13.616-15.452-20.285a37.326,37.326,0,0,1-4.536-14.842L657.38,204.5l2.4-3.455,10.662-.864.762,2.076,14.806,40.578s10.371,3.455,11.075,4.754C697.552,248.43,693.654,248.118,690.867,247.8Z" transform="translate(-652.723 -181.733)" fill="#ffc3bc"/><path d="M681.8,248.742l-.073-.036c-1.582-.951-11.482-13.616-15.452-20.285a37.326,37.326,0,0,1-4.536-14.842L657.38,204.5l2.4-3.455,10.662-.864.762,2.076s-4.776,4.761-9.878,4.311c0,0,.45,5.022,2.7,5.588,0,0,.842,8.978,3.651,13.63S681.8,248.742,681.8,248.742Z" transform="translate(-652.723 -181.733)" fill="#ffaba1"/><path d="M670.561,194.506a17.632,17.632,0,0,1-14.941,3.02l-4.657-20.745,1.585-2.018S664.509,177.469,670.561,194.506Z" transform="translate(-650.963 -174.763)" fill="#fc7788"/></g></g><path d="M623.933,175.751l12.118-3.165s8.15-24.99-6.059-33.28a13.255,13.255,0,0,0-19.172,6.6s3.527,7.235,15.736,5.878C626.556,151.785,626.917,165.984,623.933,175.751Z" transform="translate(-572.361 -137.46)" fill="#3e2954"/></g></g></g></svg>