<svg xmlns="http://www.w3.org/2000/svg" width="1030" height="330.042" viewBox="0 0 1030 330.042"><g transform="translate(-285 -4926.107)"><g transform="translate(285 4926.107)" opacity="0.53"><path d="M446.2,311.277a66.2,66.2,0,0,1,132.277.607l100.155.458a166.319,166.319,0,0,0-332.585-1.526Z" transform="translate(118.842 -146.03)" fill="#b0c0d2"/><path d="M439.579,245.818A66.2,66.2,0,0,1,307.3,245.21l-100.153-.458a166.319,166.319,0,0,0,332.585,1.526Z" transform="translate(25.38 -81.03)" fill="#b0c0d2"/><path d="M400.754,311.075l-100.17-.46a66.192,66.192,0,0,0-132.261-.606l-100.17-.46c2-90.521,76.161-163.08,167.033-162.663A166.352,166.352,0,0,1,400.754,311.075Z" transform="translate(-68.152 -146.885)" fill="#b0c0d2"/><path d="M717.471,247.093a66.2,66.2,0,0,1-132.276-.607l-100.155-.46a166.32,166.32,0,0,0,332.586,1.527Z" transform="translate(212.373 -80.173)" fill="#b0c0d2"/></g><g transform="translate(330.147 4968.379)"><circle cx="107.846" cy="107.846" r="107.846" transform="translate(0 213.801) rotate(-82.41)" fill="#fff" opacity="0.64"/><g transform="translate(46.424 46.423)"><path d="M197.269,349.35a74.724,74.724,0,1,1,75.063-74.381A74.809,74.809,0,0,1,197.269,349.35Z" transform="translate(-122.89 -199.904)" fill="#f1cc4b"/></g></g><circle cx="107.846" cy="107.846" r="107.846" transform="translate(564.187 4995.994) rotate(-6.666)" fill="#fff" opacity="0.64"/><g transform="translate(607.602 5014.374)"><circle cx="74.723" cy="74.723" r="74.723" transform="matrix(1, -0.02, 0.02, 1, 0, 3.022)" fill="#adc46c"/></g><g transform="translate(801.107 4976.586)"><circle cx="107.846" cy="107.846" r="107.846" transform="translate(0 215.171) rotate(-86.019)" fill="#fff" opacity="0.64"/><g transform="translate(23.999 24)"><circle cx="74.723" cy="74.723" r="74.723" transform="matrix(0.251, -0.968, 0.968, 0.251, 0, 144.671)" fill="#0540b7"/></g></g><g transform="translate(1040.861 4984.879)"><circle cx="107.846" cy="107.846" r="107.846" fill="#fff" opacity="0.64"/><g transform="translate(16.534 16.534)"><circle cx="74.723" cy="74.723" r="74.723" transform="translate(0 144.502) rotate(-75.222)" fill="#80cab6"/></g></g><path d="M28.984,11.57a6.867,6.867,0,0,1-.594,2.945,4.472,4.472,0,0,1-1.7,1.953,5.021,5.021,0,0,1-5.059.008,4.515,4.515,0,0,1-1.719-1.941,6.67,6.67,0,0,1-.617-2.9V11.07A6.831,6.831,0,0,1,19.9,8.113a4.508,4.508,0,0,1,1.711-1.961,5.014,5.014,0,0,1,5.055,0,4.508,4.508,0,0,1,1.711,1.961,6.811,6.811,0,0,1,.605,2.949Zm-2.375-.516a4.787,4.787,0,0,0-.641-2.719,2.263,2.263,0,0,0-3.648-.012,4.732,4.732,0,0,0-.648,2.691v.555a4.847,4.847,0,0,0,.641,2.7,2.243,2.243,0,0,0,3.656.035,4.819,4.819,0,0,0,.641-2.7Zm11.547,1.8a5.119,5.119,0,0,1-.867,3.168,2.872,2.872,0,0,1-2.422,1.137,2.639,2.639,0,0,1-2.2-1.055l-.1.9H30.539V5H32.8V9.3a2.571,2.571,0,0,1,2.055-.914,2.9,2.9,0,0,1,2.426,1.137,5.126,5.126,0,0,1,.879,3.2ZM35.9,12.688a3.363,3.363,0,0,0-.406-1.871,1.374,1.374,0,0,0-1.211-.59,1.489,1.489,0,0,0-1.484.883v3.336a1.509,1.509,0,0,0,1.5.891,1.394,1.394,0,0,0,1.438-1.078A5.562,5.562,0,0,0,35.9,12.688Zm6.039-4.141v8.914a3.024,3.024,0,0,1-.742,2.176,2.821,2.821,0,0,1-2.141.777,4.591,4.591,0,0,1-1.117-.133V18.492a4.238,4.238,0,0,0,.711.07q1.023,0,1.023-1.086V8.547ZM39.492,6.359a1.112,1.112,0,0,1,.34-.836,1.47,1.47,0,0,1,1.852,0,1.112,1.112,0,0,1,.34.836,1.108,1.108,0,0,1-.348.844,1.448,1.448,0,0,1-1.836,0A1.108,1.108,0,0,1,39.492,6.359Zm8.1,10.8a4.15,4.15,0,0,1-3.027-1.141A4.054,4.054,0,0,1,43.4,12.977v-.219a5.106,5.106,0,0,1,.492-2.277,3.612,3.612,0,0,1,1.395-1.547,3.914,3.914,0,0,1,2.059-.543,3.508,3.508,0,0,1,2.73,1.094,4.444,4.444,0,0,1,1,3.1v.922H45.688a2.1,2.1,0,0,0,.66,1.328,2,2,0,0,0,1.395.5,2.437,2.437,0,0,0,2.039-.945l1.109,1.242a3.389,3.389,0,0,1-1.375,1.121A4.511,4.511,0,0,1,47.594,17.156Zm-.258-6.945a1.411,1.411,0,0,0-1.09.455,2.357,2.357,0,0,0-.535,1.3h3.141v-.181a1.681,1.681,0,0,0-.406-1.165A1.456,1.456,0,0,0,47.336,10.211Zm7.719-3.742V8.547H56.5V10.2H55.055v4.219a1.007,1.007,0,0,0,.18.672.9.9,0,0,0,.688.2,3.6,3.6,0,0,0,.664-.055v1.711a4.648,4.648,0,0,1-1.367.2,2.156,2.156,0,0,1-2.422-2.4V10.2H51.563V8.547H52.8V6.469ZM60.141,17H57.875V8.547h2.266Zm-2.4-10.641a1.112,1.112,0,0,1,.34-.836,1.465,1.465,0,0,1,1.848,0,1.105,1.105,0,0,1,.344.836,1.108,1.108,0,0,1-.348.844,1.448,1.448,0,0,1-1.836,0A1.108,1.108,0,0,1,57.742,6.359Zm7.422,7.883,1.57-5.7h2.359L66.242,17H64.086L61.234,8.547h2.359ZM69.617,12.7a5.013,5.013,0,0,1,.484-2.242A3.546,3.546,0,0,1,71.5,8.93a4.069,4.069,0,0,1,2.113-.539A3.849,3.849,0,0,1,76.4,9.438a4.2,4.2,0,0,1,1.207,2.844l.016.578a4.418,4.418,0,0,1-1.086,3.121,4.209,4.209,0,0,1-5.832,0,4.5,4.5,0,0,1-1.09-3.187Zm2.258.16a3.16,3.16,0,0,0,.453,1.843,1.628,1.628,0,0,0,2.578.008,3.457,3.457,0,0,0,.461-2.015,3.128,3.128,0,0,0-.461-1.831,1.5,1.5,0,0,0-1.3-.649,1.474,1.474,0,0,0-1.281.646A3.516,3.516,0,0,0,71.875,12.856Zm11.719,1.808a.727.727,0,0,0-.41-.652,4.659,4.659,0,0,0-1.316-.426q-3.016-.633-3.016-2.562a2.323,2.323,0,0,1,.934-1.879,3.766,3.766,0,0,1,2.441-.754,4.053,4.053,0,0,1,2.574.758,2.388,2.388,0,0,1,.965,1.969H83.508a1.092,1.092,0,0,0-.312-.8A1.322,1.322,0,0,0,82.219,10a1.351,1.351,0,0,0-.883.258.814.814,0,0,0-.312.656.7.7,0,0,0,.355.605,3.657,3.657,0,0,0,1.2.4A9.8,9.8,0,0,1,84,12.3a2.336,2.336,0,0,1,1.789,2.273,2.2,2.2,0,0,1-.992,1.871,4.28,4.28,0,0,1-2.562.715,4.47,4.47,0,0,1-1.887-.379,3.166,3.166,0,0,1-1.293-1.039,2.414,2.414,0,0,1-.469-1.426h2.141a1.179,1.179,0,0,0,.445.922,1.766,1.766,0,0,0,1.109.32,1.635,1.635,0,0,0,.98-.246A.766.766,0,0,0,83.594,14.664ZM17.7,32.711a4.954,4.954,0,0,1,.926-3.133,3,3,0,0,1,2.5-1.187,2.631,2.631,0,0,1,2.164.953l.094-.8h2.047v8.172a3.613,3.613,0,0,1-.5,1.93A3.236,3.236,0,0,1,23.5,39.9a4.985,4.985,0,0,1-2.141.43,4.635,4.635,0,0,1-1.812-.371A3.217,3.217,0,0,1,18.211,39l1-1.375a2.645,2.645,0,0,0,2.047.945,1.936,1.936,0,0,0,1.4-.48,1.8,1.8,0,0,0,.5-1.363v-.453a2.612,2.612,0,0,1-2.055.883,2.992,2.992,0,0,1-2.465-1.191A4.953,4.953,0,0,1,17.7,32.8Zm2.258.168a3.085,3.085,0,0,0,.461,1.8,1.466,1.466,0,0,0,1.266.653,1.568,1.568,0,0,0,1.477-.775V31a1.564,1.564,0,0,0-1.461-.775,1.476,1.476,0,0,0-1.277.665A3.477,3.477,0,0,0,19.953,32.879Zm11.094,4.277a4.15,4.15,0,0,1-3.027-1.141,4.054,4.054,0,0,1-1.168-3.039v-.219a5.106,5.106,0,0,1,.492-2.277,3.612,3.612,0,0,1,1.395-1.547,3.914,3.914,0,0,1,2.059-.543,3.508,3.508,0,0,1,2.73,1.094,4.444,4.444,0,0,1,1,3.1v.922H29.141a2.1,2.1,0,0,0,.66,1.328,2,2,0,0,0,1.395.5,2.437,2.437,0,0,0,2.039-.945l1.109,1.242a3.389,3.389,0,0,1-1.375,1.121A4.511,4.511,0,0,1,31.047,37.156Zm-.258-6.945a1.411,1.411,0,0,0-1.09.455,2.357,2.357,0,0,0-.535,1.3H32.3v-.181a1.681,1.681,0,0,0-.406-1.165A1.456,1.456,0,0,0,30.789,30.211Zm7.094-1.664.07.977a2.951,2.951,0,0,1,2.43-1.133,2.453,2.453,0,0,1,2,.789,3.682,3.682,0,0,1,.672,2.359V37H40.8V31.594a1.465,1.465,0,0,0-.312-1.043,1.4,1.4,0,0,0-1.039-.324,1.553,1.553,0,0,0-1.43.813V37H35.758V28.547Zm10.773,8.609a4.15,4.15,0,0,1-3.027-1.141,4.054,4.054,0,0,1-1.168-3.039v-.219a5.106,5.106,0,0,1,.492-2.277,3.612,3.612,0,0,1,1.395-1.547,3.914,3.914,0,0,1,2.059-.543,3.508,3.508,0,0,1,2.73,1.094,4.444,4.444,0,0,1,1,3.1v.922H46.75a2.1,2.1,0,0,0,.66,1.328,2,2,0,0,0,1.395.5,2.437,2.437,0,0,0,2.039-.945l1.109,1.242a3.389,3.389,0,0,1-1.375,1.121A4.511,4.511,0,0,1,48.656,37.156ZM48.4,30.211a1.411,1.411,0,0,0-1.09.455,2.357,2.357,0,0,0-.535,1.3h3.141v-.181a1.681,1.681,0,0,0-.406-1.165A1.456,1.456,0,0,0,48.4,30.211Zm9.766.453a6.134,6.134,0,0,0-.812-.062,1.654,1.654,0,0,0-1.68.867V37H53.414V28.547h2.133l.063,1.008a2.092,2.092,0,0,1,1.883-1.164,2.366,2.366,0,0,1,.7.1ZM63.914,37a2.507,2.507,0,0,1-.227-.758,2.732,2.732,0,0,1-2.133.914,3,3,0,0,1-2.059-.719,2.312,2.312,0,0,1-.816-1.812,2.389,2.389,0,0,1,1-2.062,4.915,4.915,0,0,1,2.879-.727h1.039v-.484a1.393,1.393,0,0,0-.3-.937,1.183,1.183,0,0,0-.949-.352,1.345,1.345,0,0,0-.895.273.929.929,0,0,0-.324.75H58.867a2.268,2.268,0,0,1,.453-1.359,3,3,0,0,1,1.281-.98,4.669,4.669,0,0,1,1.859-.355,3.689,3.689,0,0,1,2.48.785,2.747,2.747,0,0,1,.918,2.207v3.664a4.041,4.041,0,0,0,.336,1.82V37Zm-1.867-1.57a1.945,1.945,0,0,0,.922-.223,1.462,1.462,0,0,0,.625-.6V33.156H62.75q-1.7,0-1.8,1.172l-.008.133a.9.9,0,0,0,.3.7A1.153,1.153,0,0,0,62.047,35.43ZM69.977,37H67.711V25h2.266Zm5.75.156A4.15,4.15,0,0,1,72.7,36.016a4.054,4.054,0,0,1-1.168-3.039v-.219a5.106,5.106,0,0,1,.492-2.277,3.612,3.612,0,0,1,1.395-1.547,3.914,3.914,0,0,1,2.059-.543,3.508,3.508,0,0,1,2.73,1.094,4.444,4.444,0,0,1,1,3.1v.922H73.82a2.1,2.1,0,0,0,.66,1.328,2,2,0,0,0,1.395.5,2.437,2.437,0,0,0,2.039-.945l1.109,1.242a3.389,3.389,0,0,1-1.375,1.121A4.511,4.511,0,0,1,75.727,37.156Zm-.258-6.945a1.411,1.411,0,0,0-1.09.455,2.357,2.357,0,0,0-.535,1.3h3.141v-.181a1.681,1.681,0,0,0-.406-1.165A1.456,1.456,0,0,0,75.469,30.211Zm9.594,4.453a.727.727,0,0,0-.41-.652,4.659,4.659,0,0,0-1.316-.426q-3.016-.633-3.016-2.562a2.323,2.323,0,0,1,.934-1.879,3.766,3.766,0,0,1,2.441-.754,4.053,4.053,0,0,1,2.574.758,2.388,2.388,0,0,1,.965,1.969H84.977a1.092,1.092,0,0,0-.312-.8A1.322,1.322,0,0,0,83.688,30a1.351,1.351,0,0,0-.883.258.814.814,0,0,0-.312.656.7.7,0,0,0,.355.605,3.657,3.657,0,0,0,1.2.4,9.8,9.8,0,0,1,1.422.379,2.336,2.336,0,0,1,1.789,2.273,2.2,2.2,0,0,1-.992,1.871,4.28,4.28,0,0,1-2.562.715,4.47,4.47,0,0,1-1.887-.379,3.166,3.166,0,0,1-1.293-1.039,2.414,2.414,0,0,1-.469-1.426H82.2a1.179,1.179,0,0,0,.445.922,1.766,1.766,0,0,0,1.109.32,1.635,1.635,0,0,0,.98-.246A.766.766,0,0,0,85.063,34.664Z" transform="translate(397 5099)" fill="#12263f"/><path d="M28.984,11.57a6.867,6.867,0,0,1-.594,2.945,4.472,4.472,0,0,1-1.7,1.953,5.021,5.021,0,0,1-5.059.008,4.515,4.515,0,0,1-1.719-1.941,6.67,6.67,0,0,1-.617-2.9V11.07A6.831,6.831,0,0,1,19.9,8.113a4.508,4.508,0,0,1,1.711-1.961,5.014,5.014,0,0,1,5.055,0,4.508,4.508,0,0,1,1.711,1.961,6.811,6.811,0,0,1,.605,2.949Zm-2.375-.516a4.787,4.787,0,0,0-.641-2.719,2.263,2.263,0,0,0-3.648-.012,4.732,4.732,0,0,0-.648,2.691v.555a4.847,4.847,0,0,0,.641,2.7,2.243,2.243,0,0,0,3.656.035,4.819,4.819,0,0,0,.641-2.7Zm11.547,1.8a5.119,5.119,0,0,1-.867,3.168,2.872,2.872,0,0,1-2.422,1.137,2.639,2.639,0,0,1-2.2-1.055l-.1.9H30.539V5H32.8V9.3a2.571,2.571,0,0,1,2.055-.914,2.9,2.9,0,0,1,2.426,1.137,5.126,5.126,0,0,1,.879,3.2ZM35.9,12.688a3.363,3.363,0,0,0-.406-1.871,1.374,1.374,0,0,0-1.211-.59,1.489,1.489,0,0,0-1.484.883v3.336a1.509,1.509,0,0,0,1.5.891,1.394,1.394,0,0,0,1.438-1.078A5.562,5.562,0,0,0,35.9,12.688Zm6.039-4.141v8.914a3.024,3.024,0,0,1-.742,2.176,2.821,2.821,0,0,1-2.141.777,4.591,4.591,0,0,1-1.117-.133V18.492a4.238,4.238,0,0,0,.711.07q1.023,0,1.023-1.086V8.547ZM39.492,6.359a1.112,1.112,0,0,1,.34-.836,1.47,1.47,0,0,1,1.852,0,1.112,1.112,0,0,1,.34.836,1.108,1.108,0,0,1-.348.844,1.448,1.448,0,0,1-1.836,0A1.108,1.108,0,0,1,39.492,6.359Zm8.1,10.8a4.15,4.15,0,0,1-3.027-1.141A4.054,4.054,0,0,1,43.4,12.977v-.219a5.106,5.106,0,0,1,.492-2.277,3.612,3.612,0,0,1,1.395-1.547,3.914,3.914,0,0,1,2.059-.543,3.508,3.508,0,0,1,2.73,1.094,4.444,4.444,0,0,1,1,3.1v.922H45.688a2.1,2.1,0,0,0,.66,1.328,2,2,0,0,0,1.395.5,2.437,2.437,0,0,0,2.039-.945l1.109,1.242a3.389,3.389,0,0,1-1.375,1.121A4.511,4.511,0,0,1,47.594,17.156Zm-.258-6.945a1.411,1.411,0,0,0-1.09.455,2.357,2.357,0,0,0-.535,1.3h3.141v-.181a1.681,1.681,0,0,0-.406-1.165A1.456,1.456,0,0,0,47.336,10.211Zm7.719-3.742V8.547H56.5V10.2H55.055v4.219a1.007,1.007,0,0,0,.18.672.9.9,0,0,0,.688.2,3.6,3.6,0,0,0,.664-.055v1.711a4.648,4.648,0,0,1-1.367.2,2.156,2.156,0,0,1-2.422-2.4V10.2H51.563V8.547H52.8V6.469ZM60.141,17H57.875V8.547h2.266Zm-2.4-10.641a1.112,1.112,0,0,1,.34-.836,1.465,1.465,0,0,1,1.848,0,1.105,1.105,0,0,1,.344.836,1.108,1.108,0,0,1-.348.844,1.448,1.448,0,0,1-1.836,0A1.108,1.108,0,0,1,57.742,6.359Zm7.422,7.883,1.57-5.7h2.359L66.242,17H64.086L61.234,8.547h2.359ZM69.617,12.7a5.013,5.013,0,0,1,.484-2.242A3.546,3.546,0,0,1,71.5,8.93a4.069,4.069,0,0,1,2.113-.539A3.849,3.849,0,0,1,76.4,9.438a4.2,4.2,0,0,1,1.207,2.844l.016.578a4.418,4.418,0,0,1-1.086,3.121,4.209,4.209,0,0,1-5.832,0,4.5,4.5,0,0,1-1.09-3.187Zm2.258.16a3.16,3.16,0,0,0,.453,1.843,1.628,1.628,0,0,0,2.578.008,3.457,3.457,0,0,0,.461-2.015,3.128,3.128,0,0,0-.461-1.831,1.5,1.5,0,0,0-1.3-.649,1.474,1.474,0,0,0-1.281.646A3.516,3.516,0,0,0,71.875,12.856Zm11.719,1.808a.727.727,0,0,0-.41-.652,4.659,4.659,0,0,0-1.316-.426q-3.016-.633-3.016-2.562a2.323,2.323,0,0,1,.934-1.879,3.766,3.766,0,0,1,2.441-.754,4.053,4.053,0,0,1,2.574.758,2.388,2.388,0,0,1,.965,1.969H83.508a1.092,1.092,0,0,0-.312-.8A1.322,1.322,0,0,0,82.219,10a1.351,1.351,0,0,0-.883.258.814.814,0,0,0-.312.656.7.7,0,0,0,.355.605,3.657,3.657,0,0,0,1.2.4A9.8,9.8,0,0,1,84,12.3a2.336,2.336,0,0,1,1.789,2.273,2.2,2.2,0,0,1-.992,1.871,4.28,4.28,0,0,1-2.562.715,4.47,4.47,0,0,1-1.887-.379,3.166,3.166,0,0,1-1.293-1.039,2.414,2.414,0,0,1-.469-1.426h2.141a1.179,1.179,0,0,0,.445.922,1.766,1.766,0,0,0,1.109.32,1.635,1.635,0,0,0,.98-.246A.766.766,0,0,0,83.594,14.664ZM15.953,37.156a4.15,4.15,0,0,1-3.027-1.141,4.054,4.054,0,0,1-1.168-3.039v-.219a5.106,5.106,0,0,1,.492-2.277,3.612,3.612,0,0,1,1.395-1.547,3.914,3.914,0,0,1,2.059-.543,3.508,3.508,0,0,1,2.73,1.094,4.444,4.444,0,0,1,1,3.1v.922H14.047a2.1,2.1,0,0,0,.66,1.328,2,2,0,0,0,1.395.5,2.437,2.437,0,0,0,2.039-.945l1.109,1.242a3.389,3.389,0,0,1-1.375,1.121A4.511,4.511,0,0,1,15.953,37.156ZM15.7,30.211a1.411,1.411,0,0,0-1.09.455,2.357,2.357,0,0,0-.535,1.3h3.141v-.181a1.681,1.681,0,0,0-.406-1.165A1.456,1.456,0,0,0,15.7,30.211Zm9.594,4.453a.727.727,0,0,0-.41-.652,4.659,4.659,0,0,0-1.316-.426q-3.016-.633-3.016-2.562a2.323,2.323,0,0,1,.934-1.879,3.766,3.766,0,0,1,2.441-.754,4.053,4.053,0,0,1,2.574.758,2.388,2.388,0,0,1,.965,1.969H25.2a1.092,1.092,0,0,0-.312-.8A1.322,1.322,0,0,0,23.914,30a1.351,1.351,0,0,0-.883.258.814.814,0,0,0-.312.656.7.7,0,0,0,.355.605,3.657,3.657,0,0,0,1.2.4A9.8,9.8,0,0,1,25.7,32.3a2.336,2.336,0,0,1,1.789,2.273,2.2,2.2,0,0,1-.992,1.871,4.28,4.28,0,0,1-2.562.715,4.47,4.47,0,0,1-1.887-.379,3.166,3.166,0,0,1-1.293-1.039,2.414,2.414,0,0,1-.469-1.426h2.141a1.179,1.179,0,0,0,.445.922,1.766,1.766,0,0,0,1.109.32,1.635,1.635,0,0,0,.98-.246A.766.766,0,0,0,25.289,34.664Zm11.258-1.812a5.07,5.07,0,0,1-.887,3.129,2.843,2.843,0,0,1-2.395,1.176,2.633,2.633,0,0,1-2.07-.891V40.25H28.938v-11.7h2.094l.078.828a2.654,2.654,0,0,1,2.141-.984,2.862,2.862,0,0,1,2.43,1.156,5.207,5.207,0,0,1,.867,3.188Zm-2.258-.164a3.327,3.327,0,0,0-.418-1.82,1.361,1.361,0,0,0-1.215-.641,1.478,1.478,0,0,0-1.461.813V34.5a1.5,1.5,0,0,0,1.477.836Q34.289,35.336,34.289,32.688Zm7.547,4.469a4.15,4.15,0,0,1-3.027-1.141,4.054,4.054,0,0,1-1.168-3.039v-.219a5.106,5.106,0,0,1,.492-2.277,3.612,3.612,0,0,1,1.395-1.547,3.914,3.914,0,0,1,2.059-.543,3.508,3.508,0,0,1,2.73,1.094,4.444,4.444,0,0,1,1,3.1v.922H39.93a2.1,2.1,0,0,0,.66,1.328,2,2,0,0,0,1.395.5,2.437,2.437,0,0,0,2.039-.945l1.109,1.242a3.389,3.389,0,0,1-1.375,1.121A4.511,4.511,0,0,1,41.836,37.156Zm-.258-6.945a1.411,1.411,0,0,0-1.09.455,2.357,2.357,0,0,0-.535,1.3h3.141v-.181a1.681,1.681,0,0,0-.406-1.165A1.456,1.456,0,0,0,41.578,30.211Zm8.531,5.125a1.481,1.481,0,0,0,1.016-.344,1.2,1.2,0,0,0,.406-.914h2.117a2.9,2.9,0,0,1-.469,1.574,3.093,3.093,0,0,1-1.262,1.109,3.949,3.949,0,0,1-1.77.395A3.67,3.67,0,0,1,47.289,36a4.56,4.56,0,0,1-1.047-3.184v-.148a4.508,4.508,0,0,1,1.039-3.117,3.627,3.627,0,0,1,2.852-1.164,3.555,3.555,0,0,1,2.543.9,3.2,3.2,0,0,1,.973,2.4H51.531a1.551,1.551,0,0,0-.406-1.072,1.51,1.51,0,0,0-2.223.163,3.333,3.333,0,0,0-.4,1.866v.235a3.375,3.375,0,0,0,.4,1.878A1.377,1.377,0,0,0,50.109,35.336ZM57.375,37H55.117V28.547h2.258Zm-.664-11.883h2.461l-2.164,2.422H55.172ZM59.867,37V30.2H58.609V28.547h1.258v-.391a3.17,3.17,0,0,1,.98-2.457,3.945,3.945,0,0,1,2.723-.863,9.031,9.031,0,0,1,2.563.461L65.8,27.164a10,10,0,0,0-1.187-.293,5.835,5.835,0,0,0-.906-.066q-1.578,0-1.578,1.4v.344H63.8V30.2H62.133V37Zm7.32,0H64.922V28.547h2.266Zm5.383-1.664a1.481,1.481,0,0,0,1.016-.344,1.2,1.2,0,0,0,.406-.914h2.117a2.9,2.9,0,0,1-.469,1.574,3.093,3.093,0,0,1-1.262,1.109,3.949,3.949,0,0,1-1.77.395A3.67,3.67,0,0,1,69.75,36,4.56,4.56,0,0,1,68.7,32.82v-.148a4.508,4.508,0,0,1,1.039-3.117,3.627,3.627,0,0,1,2.852-1.164,3.555,3.555,0,0,1,2.543.9,3.2,3.2,0,0,1,.973,2.4H73.992a1.551,1.551,0,0,0-.406-1.072,1.51,1.51,0,0,0-2.223.163,3.333,3.333,0,0,0-.4,1.866v.235a3.375,3.375,0,0,0,.4,1.878A1.377,1.377,0,0,0,72.57,35.336ZM77.047,32.7a5.013,5.013,0,0,1,.484-2.242,3.546,3.546,0,0,1,1.395-1.523,4.069,4.069,0,0,1,2.113-.539,3.849,3.849,0,0,1,2.793,1.047,4.2,4.2,0,0,1,1.207,2.844l.016.578a4.418,4.418,0,0,1-1.086,3.121,4.209,4.209,0,0,1-5.832,0,4.5,4.5,0,0,1-1.09-3.187Zm2.258.16a3.16,3.16,0,0,0,.453,1.843,1.628,1.628,0,0,0,2.578.008,3.457,3.457,0,0,0,.461-2.015,3.128,3.128,0,0,0-.461-1.831,1.5,1.5,0,0,0-1.3-.649,1.474,1.474,0,0,0-1.281.646A3.516,3.516,0,0,0,79.3,32.856Zm11.719,1.808a.727.727,0,0,0-.41-.652,4.659,4.659,0,0,0-1.316-.426q-3.016-.633-3.016-2.562a2.323,2.323,0,0,1,.934-1.879,3.766,3.766,0,0,1,2.441-.754,4.053,4.053,0,0,1,2.574.758,2.388,2.388,0,0,1,.965,1.969H90.938a1.092,1.092,0,0,0-.312-.8A1.322,1.322,0,0,0,89.648,30a1.351,1.351,0,0,0-.883.258.814.814,0,0,0-.312.656.7.7,0,0,0,.355.605,3.657,3.657,0,0,0,1.2.4,9.8,9.8,0,0,1,1.422.379,2.336,2.336,0,0,1,1.789,2.273,2.2,2.2,0,0,1-.992,1.871,4.28,4.28,0,0,1-2.562.715,4.47,4.47,0,0,1-1.887-.379,3.166,3.166,0,0,1-1.293-1.039,2.414,2.414,0,0,1-.469-1.426h2.141a1.179,1.179,0,0,0,.445.922,1.766,1.766,0,0,0,1.109.32,1.635,1.635,0,0,0,.98-.246A.766.766,0,0,0,91.023,34.664Z" transform="translate(631 5099)" fill="#12263f"/><path d="M17.246,14.656H13.137L12.355,17H9.863L14.1,5.625H16.27L20.527,17H18.035Zm-3.477-1.9h2.844L15.184,8.5ZM27.809,17H25.543V5h2.266Zm6.758,0a2.507,2.507,0,0,1-.227-.758,2.732,2.732,0,0,1-2.133.914,3,3,0,0,1-2.059-.719,2.312,2.312,0,0,1-.816-1.812,2.389,2.389,0,0,1,1-2.062,4.915,4.915,0,0,1,2.879-.727h1.039v-.484a1.393,1.393,0,0,0-.3-.937A1.183,1.183,0,0,0,33,10.063a1.345,1.345,0,0,0-.895.273.929.929,0,0,0-.324.75H29.52a2.268,2.268,0,0,1,.453-1.359,3,3,0,0,1,1.281-.98,4.669,4.669,0,0,1,1.859-.355,3.689,3.689,0,0,1,2.48.785,2.747,2.747,0,0,1,.918,2.207v3.664a4.041,4.041,0,0,0,.336,1.82V17ZM32.7,15.43a1.945,1.945,0,0,0,.922-.223,1.462,1.462,0,0,0,.625-.6V13.156H33.4q-1.7,0-1.8,1.172l-.008.133a.9.9,0,0,0,.3.7A1.153,1.153,0,0,0,32.7,15.43ZM44.434,9.469a2.818,2.818,0,0,1,2.258-1.078q2.75,0,2.789,3.2V17H47.223V11.648a1.57,1.57,0,0,0-.312-1.074,1.34,1.34,0,0,0-1.039-.348,1.537,1.537,0,0,0-1.437.766V17H42.176V5h2.258Zm6.4,3.227a5.013,5.013,0,0,1,.484-2.242A3.546,3.546,0,0,1,52.711,8.93a4.069,4.069,0,0,1,2.113-.539,3.849,3.849,0,0,1,2.793,1.047,4.2,4.2,0,0,1,1.207,2.844l.016.578a4.418,4.418,0,0,1-1.086,3.121,4.209,4.209,0,0,1-5.832,0,4.5,4.5,0,0,1-1.09-3.187Zm2.258.16a3.16,3.16,0,0,0,.453,1.843,1.628,1.628,0,0,0,2.578.008,3.457,3.457,0,0,0,.461-2.015,3.128,3.128,0,0,0-.461-1.831,1.5,1.5,0,0,0-1.3-.649,1.474,1.474,0,0,0-1.281.646A3.516,3.516,0,0,0,53.09,12.856ZM64.98,10.664a6.134,6.134,0,0,0-.812-.062,1.654,1.654,0,0,0-1.68.867V17H60.23V8.547h2.133l.063,1.008a2.092,2.092,0,0,1,1.883-1.164,2.366,2.366,0,0,1,.7.1ZM70.73,17a2.507,2.507,0,0,1-.227-.758,2.732,2.732,0,0,1-2.133.914,3,3,0,0,1-2.059-.719,2.312,2.312,0,0,1-.816-1.812,2.389,2.389,0,0,1,1-2.062,4.915,4.915,0,0,1,2.879-.727H70.41v-.484a1.393,1.393,0,0,0-.3-.937,1.183,1.183,0,0,0-.949-.352,1.345,1.345,0,0,0-.895.273.929.929,0,0,0-.324.75H65.684a2.268,2.268,0,0,1,.453-1.359,3,3,0,0,1,1.281-.98,4.669,4.669,0,0,1,1.859-.355,3.689,3.689,0,0,1,2.48.785,2.747,2.747,0,0,1,.918,2.207v3.664a4.041,4.041,0,0,0,.336,1.82V17Zm-1.867-1.57a1.945,1.945,0,0,0,.922-.223,1.462,1.462,0,0,0,.625-.6V13.156h-.844q-1.7,0-1.8,1.172l-.008.133a.9.9,0,0,0,.3.7A1.153,1.153,0,0,0,68.863,15.43Zm9.18-2.719a5.094,5.094,0,0,1,.887-3.148,2.877,2.877,0,0,1,2.426-1.172,2.589,2.589,0,0,1,2.039.922V5H85.66V17H83.621l-.109-.9a2.657,2.657,0,0,1-2.172,1.055,2.869,2.869,0,0,1-2.395-1.176A5.258,5.258,0,0,1,78.043,12.711Zm2.258.168a3.337,3.337,0,0,0,.414,1.823,1.349,1.349,0,0,0,1.2.634,1.511,1.511,0,0,0,1.477-.884V11.111a1.489,1.489,0,0,0-1.461-.884Q80.3,10.227,80.3,12.879Zm11,4.277a4.15,4.15,0,0,1-3.027-1.141,4.054,4.054,0,0,1-1.168-3.039v-.219A5.106,5.106,0,0,1,87.6,10.48a3.612,3.612,0,0,1,1.395-1.547,3.914,3.914,0,0,1,2.059-.543,3.508,3.508,0,0,1,2.73,1.094,4.444,4.444,0,0,1,1,3.1v.922H89.395a2.1,2.1,0,0,0,.66,1.328,2,2,0,0,0,1.395.5,2.437,2.437,0,0,0,2.039-.945L94.6,15.633a3.389,3.389,0,0,1-1.375,1.121A4.511,4.511,0,0,1,91.3,17.156Zm-.258-6.945a1.411,1.411,0,0,0-1.09.455,2.357,2.357,0,0,0-.535,1.3h3.141v-.181a1.681,1.681,0,0,0-.406-1.165A1.456,1.456,0,0,0,91.043,10.211Zm-72,22.5a5.094,5.094,0,0,1,.887-3.148,2.877,2.877,0,0,1,2.426-1.172,2.589,2.589,0,0,1,2.039.922V25h2.266V37H24.617l-.109-.9a2.657,2.657,0,0,1-2.172,1.055,2.869,2.869,0,0,1-2.395-1.176A5.258,5.258,0,0,1,19.039,32.711Zm2.258.168a3.337,3.337,0,0,0,.414,1.823,1.349,1.349,0,0,0,1.2.634,1.511,1.511,0,0,0,1.477-.884V31.111a1.489,1.489,0,0,0-1.461-.884Q21.3,30.227,21.3,32.879Zm11,4.277a4.15,4.15,0,0,1-3.027-1.141A4.054,4.054,0,0,1,28.1,32.977v-.219a5.106,5.106,0,0,1,.492-2.277,3.612,3.612,0,0,1,1.395-1.547,3.914,3.914,0,0,1,2.059-.543,3.508,3.508,0,0,1,2.73,1.094,4.444,4.444,0,0,1,1,3.1v.922H30.391a2.1,2.1,0,0,0,.66,1.328,2,2,0,0,0,1.395.5,2.437,2.437,0,0,0,2.039-.945l1.109,1.242a3.389,3.389,0,0,1-1.375,1.121A4.511,4.511,0,0,1,32.3,37.156Zm-.258-6.945a1.411,1.411,0,0,0-1.09.455,2.357,2.357,0,0,0-.535,1.3h3.141v-.181a1.681,1.681,0,0,0-.406-1.165A1.456,1.456,0,0,0,32.039,30.211ZM37.6,37V30.2H36.344V28.547H37.6v-.391a3.17,3.17,0,0,1,.98-2.457,3.945,3.945,0,0,1,2.723-.863,9.031,9.031,0,0,1,2.563.461l-.328,1.867a10,10,0,0,0-1.187-.293,5.834,5.834,0,0,0-.906-.066q-1.578,0-1.578,1.4v.344h1.664V30.2H39.867V37Zm7.32,0H42.656V28.547h2.266Zm3.945-8.453.07.977a2.951,2.951,0,0,1,2.43-1.133,2.453,2.453,0,0,1,2,.789,3.682,3.682,0,0,1,.672,2.359V37H51.781V31.594a1.465,1.465,0,0,0-.312-1.043,1.4,1.4,0,0,0-1.039-.324,1.553,1.553,0,0,0-1.43.813V37H46.742V28.547ZM58.133,37H55.867V28.547h2.266Zm-2.4-10.641a1.112,1.112,0,0,1,.34-.836,1.465,1.465,0,0,1,1.848,0,1.193,1.193,0,0,1,0,1.68,1.448,1.448,0,0,1-1.836,0A1.108,1.108,0,0,1,55.734,26.359Zm9.008,4.3a6.134,6.134,0,0,0-.812-.062,1.654,1.654,0,0,0-1.68.867V37H59.992V28.547h2.133l.063,1.008a2.092,2.092,0,0,1,1.883-1.164,2.366,2.366,0,0,1,.7.1ZM68.211,37H65.945V25h2.266Zm1.508-4.3a5.013,5.013,0,0,1,.484-2.242A3.546,3.546,0,0,1,71.6,28.93a4.069,4.069,0,0,1,2.113-.539A3.849,3.849,0,0,1,76.5,29.438a4.2,4.2,0,0,1,1.207,2.844l.016.578a4.418,4.418,0,0,1-1.086,3.121,4.209,4.209,0,0,1-5.832,0,4.5,4.5,0,0,1-1.09-3.187Zm2.258.16A3.16,3.16,0,0,0,72.43,34.7a1.628,1.628,0,0,0,2.578.008,3.457,3.457,0,0,0,.461-2.015,3.128,3.128,0,0,0-.461-1.831,1.5,1.5,0,0,0-1.3-.649,1.474,1.474,0,0,0-1.281.646A3.516,3.516,0,0,0,71.977,32.856ZM83.7,34.664a.727.727,0,0,0-.41-.652,4.659,4.659,0,0,0-1.316-.426q-3.016-.633-3.016-2.562a2.323,2.323,0,0,1,.934-1.879,3.766,3.766,0,0,1,2.441-.754,4.053,4.053,0,0,1,2.574.758,2.388,2.388,0,0,1,.965,1.969H83.609a1.092,1.092,0,0,0-.312-.8A1.322,1.322,0,0,0,82.32,30a1.351,1.351,0,0,0-.883.258.814.814,0,0,0-.312.656.7.7,0,0,0,.355.605,3.657,3.657,0,0,0,1.2.4A9.8,9.8,0,0,1,84.1,32.3a2.336,2.336,0,0,1,1.789,2.273,2.2,2.2,0,0,1-.992,1.871,4.28,4.28,0,0,1-2.562.715,4.47,4.47,0,0,1-1.887-.379,3.166,3.166,0,0,1-1.293-1.039,2.414,2.414,0,0,1-.469-1.426h2.141a1.179,1.179,0,0,0,.445.922,1.766,1.766,0,0,0,1.109.32,1.635,1.635,0,0,0,.98-.246A.766.766,0,0,0,83.7,34.664Z" transform="translate(864 5099)" fill="#fff"/><path d="M18,11.57a6.867,6.867,0,0,1-.594,2.945,4.472,4.472,0,0,1-1.7,1.953,4.7,4.7,0,0,1-2.535.688,4.732,4.732,0,0,1-2.523-.68,4.515,4.515,0,0,1-1.719-1.941,6.67,6.67,0,0,1-.617-2.9V11.07a6.831,6.831,0,0,1,.605-2.957,4.508,4.508,0,0,1,1.711-1.961,4.706,4.706,0,0,1,2.527-.684,4.706,4.706,0,0,1,2.527.684A4.508,4.508,0,0,1,17.4,8.113,6.811,6.811,0,0,1,18,11.063Zm-2.375-.516a4.787,4.787,0,0,0-.641-2.719,2.088,2.088,0,0,0-1.828-.93,2.088,2.088,0,0,0-1.82.918,4.732,4.732,0,0,0-.648,2.691v.555a4.847,4.847,0,0,0,.641,2.7,2.082,2.082,0,0,0,1.844.961,2.064,2.064,0,0,0,1.813-.926,4.819,4.819,0,0,0,.641-2.7Zm6.633-4.586V8.547h1.445V10.2H22.262v4.219a1.007,1.007,0,0,0,.18.672.9.9,0,0,0,.688.2,3.6,3.6,0,0,0,.664-.055v1.711a4.648,4.648,0,0,1-1.367.2A2.156,2.156,0,0,1,20,14.758V10.2H18.77V8.547H20V6.469Zm7.453,4.2A6.134,6.134,0,0,0,28.9,10.6a1.654,1.654,0,0,0-1.68.867V17H24.965V8.547H27.1l.063,1.008a2.092,2.092,0,0,1,1.883-1.164,2.366,2.366,0,0,1,.7.1Zm.453,2.031a5.013,5.013,0,0,1,.484-2.242A3.546,3.546,0,0,1,32.047,8.93a4.069,4.069,0,0,1,2.113-.539,3.849,3.849,0,0,1,2.793,1.047,4.2,4.2,0,0,1,1.207,2.844l.016.578A4.418,4.418,0,0,1,37.09,15.98a3.775,3.775,0,0,1-2.914,1.176,3.793,3.793,0,0,1-2.918-1.172,4.5,4.5,0,0,1-1.09-3.187Zm2.258.16a3.16,3.16,0,0,0,.453,1.843,1.628,1.628,0,0,0,2.578.008,3.457,3.457,0,0,0,.461-2.015,3.128,3.128,0,0,0-.461-1.831,1.5,1.5,0,0,0-1.3-.649,1.474,1.474,0,0,0-1.281.646A3.516,3.516,0,0,0,32.426,12.856Zm11.719,1.808a.727.727,0,0,0-.41-.652,4.659,4.659,0,0,0-1.316-.426Q39.4,12.953,39.4,11.023a2.323,2.323,0,0,1,.934-1.879,3.766,3.766,0,0,1,2.441-.754,4.053,4.053,0,0,1,2.574.758,2.388,2.388,0,0,1,.965,1.969H44.059a1.092,1.092,0,0,0-.312-.8A1.322,1.322,0,0,0,42.77,10a1.351,1.351,0,0,0-.883.258.814.814,0,0,0-.312.656.7.7,0,0,0,.355.605,3.657,3.657,0,0,0,1.2.4,9.8,9.8,0,0,1,1.422.379A2.336,2.336,0,0,1,46.34,14.57a2.2,2.2,0,0,1-.992,1.871,4.28,4.28,0,0,1-2.562.715,4.47,4.47,0,0,1-1.887-.379,3.166,3.166,0,0,1-1.293-1.039,2.414,2.414,0,0,1-.469-1.426h2.141a1.179,1.179,0,0,0,.445.922,1.766,1.766,0,0,0,1.109.32,1.635,1.635,0,0,0,.98-.246A.766.766,0,0,0,44.145,14.664Zm11.523,2.492a4.15,4.15,0,0,1-3.027-1.141,4.054,4.054,0,0,1-1.168-3.039v-.219a5.106,5.106,0,0,1,.492-2.277,3.612,3.612,0,0,1,1.395-1.547,3.914,3.914,0,0,1,2.059-.543,3.508,3.508,0,0,1,2.73,1.094,4.444,4.444,0,0,1,1,3.1v.922H53.762a2.1,2.1,0,0,0,.66,1.328,2,2,0,0,0,1.395.5,2.437,2.437,0,0,0,2.039-.945l1.109,1.242a3.389,3.389,0,0,1-1.375,1.121A4.511,4.511,0,0,1,55.668,17.156Zm-.258-6.945a1.411,1.411,0,0,0-1.09.455,2.357,2.357,0,0,0-.535,1.3h3.141v-.181a1.681,1.681,0,0,0-.406-1.165A1.456,1.456,0,0,0,55.41,10.211ZM62.809,17H60.543V5h2.266Zm5.75.156a4.15,4.15,0,0,1-3.027-1.141,4.054,4.054,0,0,1-1.168-3.039v-.219a5.106,5.106,0,0,1,.492-2.277A3.612,3.612,0,0,1,66.25,8.934a3.914,3.914,0,0,1,2.059-.543,3.508,3.508,0,0,1,2.73,1.094,4.444,4.444,0,0,1,1,3.1v.922H66.652a2.1,2.1,0,0,0,.66,1.328,2,2,0,0,0,1.395.5,2.437,2.437,0,0,0,2.039-.945l1.109,1.242a3.389,3.389,0,0,1-1.375,1.121A4.511,4.511,0,0,1,68.559,17.156ZM68.3,10.211a1.411,1.411,0,0,0-1.09.455,2.357,2.357,0,0,0-.535,1.3h3.141v-.181a1.681,1.681,0,0,0-.406-1.165A1.456,1.456,0,0,0,68.3,10.211Zm7.133-1.664.07.945a2.971,2.971,0,0,1,2.43-1.1A2.255,2.255,0,0,1,80.176,9.68a2.9,2.9,0,0,1,2.539-1.289,2.521,2.521,0,0,1,2.047.8,3.681,3.681,0,0,1,.672,2.41V17H83.168V11.609a1.61,1.61,0,0,0-.281-1.051,1.246,1.246,0,0,0-.992-.332,1.409,1.409,0,0,0-1.406.969L80.5,17H78.238V11.617a1.59,1.59,0,0,0-.289-1.062,1.259,1.259,0,0,0-.984-.328,1.463,1.463,0,0,0-1.391.8V17H73.316V8.547Zm15.625,8.609a4.15,4.15,0,0,1-3.027-1.141,4.054,4.054,0,0,1-1.168-3.039v-.219a5.106,5.106,0,0,1,.492-2.277A3.612,3.612,0,0,1,88.75,8.934a3.914,3.914,0,0,1,2.059-.543,3.508,3.508,0,0,1,2.73,1.094,4.444,4.444,0,0,1,1,3.1v.922H89.152a2.1,2.1,0,0,0,.66,1.328,2,2,0,0,0,1.395.5,2.437,2.437,0,0,0,2.039-.945l1.109,1.242a3.389,3.389,0,0,1-1.375,1.121A4.511,4.511,0,0,1,91.059,17.156ZM90.8,10.211a1.411,1.411,0,0,0-1.09.455,2.357,2.357,0,0,0-.535,1.3h3.141v-.181a1.681,1.681,0,0,0-.406-1.165A1.456,1.456,0,0,0,90.8,10.211Zm7.094-1.664.07.977a2.951,2.951,0,0,1,2.43-1.133,2.453,2.453,0,0,1,2,.789,3.682,3.682,0,0,1,.672,2.359V17h-2.258V11.594a1.465,1.465,0,0,0-.312-1.043,1.4,1.4,0,0,0-1.039-.324,1.553,1.553,0,0,0-1.43.813V17H95.77V8.547Zm9.586-2.078V8.547h1.445V10.2H107.48v4.219a1.007,1.007,0,0,0,.18.672.9.9,0,0,0,.688.2,3.6,3.6,0,0,0,.664-.055v1.711a4.648,4.648,0,0,1-1.367.2,2.156,2.156,0,0,1-2.422-2.4V10.2h-1.234V8.547h1.234V6.469ZM109.6,12.7a5.013,5.013,0,0,1,.484-2.242,3.546,3.546,0,0,1,1.395-1.523,4.069,4.069,0,0,1,2.113-.539,3.849,3.849,0,0,1,2.793,1.047,4.2,4.2,0,0,1,1.207,2.844l.016.578a4.418,4.418,0,0,1-1.086,3.121,4.209,4.209,0,0,1-5.832,0A4.5,4.5,0,0,1,109.6,12.8Zm2.258.16a3.16,3.16,0,0,0,.453,1.843,1.628,1.628,0,0,0,2.578.008,3.457,3.457,0,0,0,.461-2.015,3.128,3.128,0,0,0-.461-1.831,1.5,1.5,0,0,0-1.3-.649,1.474,1.474,0,0,0-1.281.646A3.516,3.516,0,0,0,111.855,12.856Zm11.719,1.808a.727.727,0,0,0-.41-.652,4.659,4.659,0,0,0-1.316-.426q-3.016-.633-3.016-2.562a2.323,2.323,0,0,1,.934-1.879,3.766,3.766,0,0,1,2.441-.754,4.053,4.053,0,0,1,2.574.758,2.388,2.388,0,0,1,.965,1.969h-2.258a1.092,1.092,0,0,0-.312-.8A1.322,1.322,0,0,0,122.2,10a1.351,1.351,0,0,0-.883.258.814.814,0,0,0-.312.656.7.7,0,0,0,.355.605,3.657,3.657,0,0,0,1.2.4,9.8,9.8,0,0,1,1.422.379,2.336,2.336,0,0,1,1.789,2.273,2.2,2.2,0,0,1-.992,1.871,4.28,4.28,0,0,1-2.562.715,4.47,4.47,0,0,1-1.887-.379,3.166,3.166,0,0,1-1.293-1.039,2.414,2.414,0,0,1-.469-1.426h2.141a1.179,1.179,0,0,0,.445.922,1.766,1.766,0,0,0,1.109.32,1.635,1.635,0,0,0,.98-.246A.766.766,0,0,0,123.574,14.664ZM14.582,37V30.2H13.324V28.547h1.258v-.719a2.918,2.918,0,0,1,.816-2.207,3.162,3.162,0,0,1,2.285-.785,5.278,5.278,0,0,1,1.148.156l-.023,1.75a2.878,2.878,0,0,0-.687-.07q-1.273,0-1.273,1.2v.68h1.68V30.2h-1.68V37Zm10.18-.859a2.831,2.831,0,0,1-2.312,1.016,2.67,2.67,0,0,1-2.074-.781,3.335,3.335,0,0,1-.73-2.289V28.547H21.9v5.467q0,1.322,1.2,1.322a1.63,1.63,0,0,0,1.578-.8V28.547h2.266V37H24.824Zm5.969-7.594.07.977a2.951,2.951,0,0,1,2.43-1.133,2.453,2.453,0,0,1,2,.789,3.682,3.682,0,0,1,.672,2.359V37H33.645V31.594a1.465,1.465,0,0,0-.312-1.043,1.4,1.4,0,0,0-1.039-.324,1.553,1.553,0,0,0-1.43.813V37H28.605V28.547Zm6.531,4.164a5.094,5.094,0,0,1,.887-3.148,2.877,2.877,0,0,1,2.426-1.172,2.589,2.589,0,0,1,2.039.922V25h2.266V37H42.84l-.109-.9a2.657,2.657,0,0,1-2.172,1.055,2.869,2.869,0,0,1-2.395-1.176A5.258,5.258,0,0,1,37.262,32.711Zm2.258.168a3.337,3.337,0,0,0,.414,1.823,1.349,1.349,0,0,0,1.2.634,1.511,1.511,0,0,0,1.477-.884V31.111a1.489,1.489,0,0,0-1.461-.884Q39.52,30.227,39.52,32.879ZM51.527,37a2.507,2.507,0,0,1-.227-.758,2.732,2.732,0,0,1-2.133.914,3,3,0,0,1-2.059-.719,2.312,2.312,0,0,1-.816-1.812,2.389,2.389,0,0,1,1-2.062,4.915,4.915,0,0,1,2.879-.727h1.039v-.484a1.393,1.393,0,0,0-.3-.937,1.183,1.183,0,0,0-.949-.352,1.345,1.345,0,0,0-.895.273.929.929,0,0,0-.324.75H46.48a2.268,2.268,0,0,1,.453-1.359,3,3,0,0,1,1.281-.98,4.669,4.669,0,0,1,1.859-.355,3.689,3.689,0,0,1,2.48.785,2.747,2.747,0,0,1,.918,2.207v3.664a4.041,4.041,0,0,0,.336,1.82V37ZM49.66,35.43a1.945,1.945,0,0,0,.922-.223,1.462,1.462,0,0,0,.625-.6V33.156h-.844q-1.7,0-1.8,1.172l-.008.133a.9.9,0,0,0,.3.7A1.153,1.153,0,0,0,49.66,35.43Zm7.664-6.883.07.945a2.971,2.971,0,0,1,2.43-1.1,2.255,2.255,0,0,1,2.242,1.289,2.9,2.9,0,0,1,2.539-1.289,2.521,2.521,0,0,1,2.047.8,3.681,3.681,0,0,1,.672,2.41V37H65.059V31.609a1.61,1.61,0,0,0-.281-1.051,1.246,1.246,0,0,0-.992-.332,1.409,1.409,0,0,0-1.406.969l.008,5.8H60.129V31.617a1.59,1.59,0,0,0-.289-1.062,1.259,1.259,0,0,0-.984-.328,1.463,1.463,0,0,0-1.391.8V37H55.207V28.547Zm15.625,8.609a4.15,4.15,0,0,1-3.027-1.141,4.054,4.054,0,0,1-1.168-3.039v-.219a5.106,5.106,0,0,1,.492-2.277,3.612,3.612,0,0,1,1.395-1.547,3.914,3.914,0,0,1,2.059-.543,3.508,3.508,0,0,1,2.73,1.094,4.444,4.444,0,0,1,1,3.1v.922H71.043a2.1,2.1,0,0,0,.66,1.328,2,2,0,0,0,1.395.5,2.437,2.437,0,0,0,2.039-.945l1.109,1.242a3.389,3.389,0,0,1-1.375,1.121A4.511,4.511,0,0,1,72.949,37.156Zm-.258-6.945a1.411,1.411,0,0,0-1.09.455,2.357,2.357,0,0,0-.535,1.3h3.141v-.181a1.681,1.681,0,0,0-.406-1.165A1.456,1.456,0,0,0,72.691,30.211Zm7.094-1.664.07.977a2.951,2.951,0,0,1,2.43-1.133,2.453,2.453,0,0,1,2,.789,3.682,3.682,0,0,1,.672,2.359V37H82.7V31.594a1.465,1.465,0,0,0-.312-1.043,1.4,1.4,0,0,0-1.039-.324,1.553,1.553,0,0,0-1.43.813V37H77.66V28.547Zm9.586-2.078v2.078h1.445V30.2H89.371v4.219a1.007,1.007,0,0,0,.18.672.9.9,0,0,0,.688.2,3.6,3.6,0,0,0,.664-.055v1.711a4.648,4.648,0,0,1-1.367.2,2.156,2.156,0,0,1-2.422-2.4V30.2H85.879V28.547h1.234V26.469ZM96.973,37a2.507,2.507,0,0,1-.227-.758,2.732,2.732,0,0,1-2.133.914,3,3,0,0,1-2.059-.719,2.312,2.312,0,0,1-.816-1.812,2.389,2.389,0,0,1,1-2.062,4.915,4.915,0,0,1,2.879-.727h1.039v-.484a1.393,1.393,0,0,0-.3-.937,1.183,1.183,0,0,0-.949-.352,1.345,1.345,0,0,0-.895.273.929.929,0,0,0-.324.75H91.926a2.268,2.268,0,0,1,.453-1.359,3,3,0,0,1,1.281-.98,4.669,4.669,0,0,1,1.859-.355,3.689,3.689,0,0,1,2.48.785,2.747,2.747,0,0,1,.918,2.207v3.664a4.041,4.041,0,0,0,.336,1.82V37Zm-1.867-1.57a1.945,1.945,0,0,0,.922-.223,1.462,1.462,0,0,0,.625-.6V33.156h-.844q-1.7,0-1.8,1.172L94,34.461a.9.9,0,0,0,.3.7A1.153,1.153,0,0,0,95.105,35.43Zm7.93,1.57H100.77V25h2.266Zm5.75.156a4.15,4.15,0,0,1-3.027-1.141,4.054,4.054,0,0,1-1.168-3.039v-.219a5.106,5.106,0,0,1,.492-2.277,3.612,3.612,0,0,1,1.395-1.547,3.914,3.914,0,0,1,2.059-.543,3.508,3.508,0,0,1,2.73,1.094,4.444,4.444,0,0,1,1,3.1v.922h-5.383a2.1,2.1,0,0,0,.66,1.328,2,2,0,0,0,1.395.5,2.437,2.437,0,0,0,2.039-.945l1.109,1.242a3.389,3.389,0,0,1-1.375,1.121A4.511,4.511,0,0,1,108.785,37.156Zm-.258-6.945a1.411,1.411,0,0,0-1.09.455,2.357,2.357,0,0,0-.535,1.3h3.141v-.181a1.681,1.681,0,0,0-.406-1.165A1.456,1.456,0,0,0,108.527,30.211Zm9.594,4.453a.727.727,0,0,0-.41-.652,4.659,4.659,0,0,0-1.316-.426q-3.016-.633-3.016-2.562a2.323,2.323,0,0,1,.934-1.879,3.766,3.766,0,0,1,2.441-.754,4.053,4.053,0,0,1,2.574.758,2.388,2.388,0,0,1,.965,1.969h-2.258a1.092,1.092,0,0,0-.312-.8,1.322,1.322,0,0,0-.977-.316,1.351,1.351,0,0,0-.883.258.814.814,0,0,0-.312.656.7.7,0,0,0,.355.605,3.657,3.657,0,0,0,1.2.4,9.8,9.8,0,0,1,1.422.379,2.336,2.336,0,0,1,1.789,2.273,2.2,2.2,0,0,1-.992,1.871,4.28,4.28,0,0,1-2.562.715,4.47,4.47,0,0,1-1.887-.379,3.166,3.166,0,0,1-1.293-1.039,2.414,2.414,0,0,1-.469-1.426h2.141a1.179,1.179,0,0,0,.445.922,1.766,1.766,0,0,0,1.109.32,1.635,1.635,0,0,0,.98-.246A.766.766,0,0,0,118.121,34.664Z" transform="translate(1085 5099)" fill="#12263f"/><g transform="translate(1125 5049.5)"><g transform="translate(0.729 0.726)"><path d="M330.779,53.9l7.619-4.774h6.843c.427,0,.581.3.359.652l-2.223,3.47a1.018,1.018,0,0,0,0,1.307l2.223,3.467c.222.348.052.655-.359.655H331.555c-.554,0-.776-.26-.776-.776Z" transform="translate(-299.528 -45.102)" fill="#cf4351" fill-rule="evenodd"/><path d="M266.541,17.06H251.975V7.512h14.566a.689.689,0,0,1,.671.7v8.139A.689.689,0,0,1,266.541,17.06Z" transform="translate(-228.343 -7.512)" fill="#ff6978" fill-rule="evenodd"/><path d="M8.467,370.237H21.422a.931.931,0,0,1,.926.929l.375,2.76-.375,3.544a.93.93,0,0,1-.926.926H8.467a.929.929,0,0,1-.926-.926v-6.3a.931.931,0,0,1,.926-.929Z" transform="translate(-7.541 -335.169)" fill="#ccf49f" fill-rule="evenodd"/><path d="M167.69,365.284l2.678-.376,2.3.376a1.307,1.307,0,0,1,1.313,1.219v6a1.224,1.224,0,0,1-1.22,1.22h-5.443a6.726,6.726,0,0,1-3.237-.795c-.611-.334-.466-.271-1.189-.271H160.7v-6.3h3.327c.962,0,.7-.063,1.521-.447A3.851,3.851,0,0,1,167.69,365.284Z" transform="translate(-145.892 -330.355)" fill="#ffcbbe" fill-rule="evenodd"/><path d="M220.335,278.032l-2.9-.376-2.168.376a1.224,1.224,0,0,0-1.22,1.22v6a1.224,1.224,0,0,0,1.22,1.22h5.443a6.752,6.752,0,0,0,3.305-.83,1.094,1.094,0,0,1,.913-.236h2.4l1.126-3.475-1.126-2.828h-3.253c-.992,0-.7-.016-1.543-.419A3.885,3.885,0,0,0,220.335,278.032Z" transform="translate(-194.083 -251.539)" fill="#ffcbbe" fill-rule="evenodd"/><path d="M8.467,195.706H21.422a.929.929,0,0,1,.926.926l.375,2.941-.375,3.363a.933.933,0,0,1-.926.929H8.467a.931.931,0,0,1-.926-.929v-6.3a.929.929,0,0,1,.926-.926Z" transform="translate(-7.541 -177.512)" fill="#a5cdff" fill-rule="evenodd"/><path d="M172.756,172.035a1.222,1.222,0,0,1,1.22,1.219v6a1.226,1.226,0,0,1-1.22,1.22h-5.443a6.914,6.914,0,0,1-2.68-.526,3.929,3.929,0,0,0-2.642-.543H160.7v-6.3h4c.493-1.688,2.631-3.212,5.3-3.431a1.214,1.214,0,0,1,.175-.014,1.189,1.189,0,0,1,0,2.379h2.59Z" transform="translate(-145.891 -153.98)" fill="#ffcbbe" fill-rule="evenodd"/><path d="M365.293,282.986H352.341a.929.929,0,0,0-.926.926v6.3a.929.929,0,0,0,.926.926h12.952a.929.929,0,0,0,.926-.926v-6.3A.929.929,0,0,0,365.293,282.986Z" transform="translate(-318.169 -256.353)" fill="#ebd2ff" fill-rule="evenodd"/><path d="M434.606,53.247a1.018,1.018,0,0,0,0,1.307l2.22,3.467c.225.348.055.655-.356.655h2.346c.411,0,.581-.307.359-.655l-2.223-3.467a1.018,1.018,0,0,1,0-1.307l2.223-3.47c.222-.348.068-.652-.359-.652h-2.346c.428,0,.581.3.356.652Z" transform="translate(-393.103 -45.102)" fill="#bd3341" fill-rule="evenodd"/><path d="M363.874,287.871a.929.929,0,0,1-.926.926H351.415v1.42a.929.929,0,0,0,.926.926h12.952a.929.929,0,0,0,.926-.926v-6.3a.929.929,0,0,0-.926-.926h-1.42Z" transform="translate(-318.169 -256.354)" fill="#d7bef0" fill-rule="evenodd"/><path d="M20,200.59a.933.933,0,0,1-.929.929H7.54v1.417a.931.931,0,0,0,.926.929H21.421a.933.933,0,0,0,.926-.929v-6.3a.929.929,0,0,0-.926-.926H20Z" transform="translate(-7.54 -177.512)" fill="#8abfff" fill-rule="evenodd"/><path d="M20,375.123a.931.931,0,0,1-.929.926H7.54v1.42a.929.929,0,0,0,.926.926H21.421a.93.93,0,0,0,.926-.926v-6.306a.93.93,0,0,0-.926-.926H20Z" transform="translate(-7.54 -335.169)" fill="#b3e59f" fill-rule="evenodd"/><g transform="translate(14.807 18.055)"><path d="M224.926,333.5a3.208,3.208,0,0,0-2.069.54,4.407,4.407,0,0,1-2.149.526h-6.662v1.126a1.224,1.224,0,0,0,1.22,1.22h.614c1.65,0,3.319.03,4.966,0a6.717,6.717,0,0,0,3.168-.831,1.094,1.094,0,0,1,.913-.236h2.4V333.5Z" transform="translate(-208.888 -320.038)" fill="#f7beaf" fill-rule="evenodd"/><path d="M170.255,374.794h-2.941a4.434,4.434,0,0,1-2.107-.5,3.451,3.451,0,0,0-2.162-.562H160.7v2.346h2.19c.723,0,.578-.063,1.189.271a6.727,6.727,0,0,0,3.237.795h5.443a1.224,1.224,0,0,0,1.22-1.22v-6a1.307,1.307,0,0,0-1.313-1.219c-.181-.027-.806.011-1.033.011V373.6a1.238,1.238,0,0,1-1.376,1.192Z" transform="translate(-160.699 -351.828)" fill="#f7beaf" fill-rule="evenodd"/><path d="M171.628,199.13c0,.992-.477,1.22-1.4,1.22h-2.913a4.614,4.614,0,0,1-1.77-.34,5.934,5.934,0,0,0-2.5-.713H160.7v2.332h1.293a3.929,3.929,0,0,1,2.642.543,6.911,6.911,0,0,0,2.68.526h5.443a1.226,1.226,0,0,0,1.22-1.22v-6a1.222,1.222,0,0,0-1.22-1.219h-1.126v4.87Z" transform="translate(-160.696 -194.26)" fill="#f7beaf" fill-rule="evenodd"/></g></g><path d="M6.487,43.23a.725.725,0,0,1,0,1.45H1.653A1.656,1.656,0,0,1,0,43.027v-6.3a1.656,1.656,0,0,1,1.653-1.653H14.6a1.649,1.649,0,0,1,1.168.485,1.583,1.583,0,0,1,.315.441h2.771c.51,0,.537-.016.682-.1.118-.066.271-.153.534-.277l.219-.107a1.946,1.946,0,0,1-.329-1.08v-6a1.938,1.938,0,0,1,.156-.759,7.362,7.362,0,0,1-.935-.321c-.271-.115-.422-.184-.548-.239a3.583,3.583,0,0,0-.567-.219,5.075,5.075,0,0,0-.847-.027H16.09a1.709,1.709,0,0,1-.318.444A1.649,1.649,0,0,1,14.6,27.8H9.77a.725.725,0,0,1,0-1.45H14.6a.206.206,0,0,0,.2-.2v-6.3a.206.206,0,0,0-.2-.2H1.653a.206.206,0,0,0-.2.2v6.3a.206.206,0,0,0,.2.2H6.487a.725.725,0,0,1,0,1.45H1.653A1.656,1.656,0,0,1,0,26.15v-6.3a1.656,1.656,0,0,1,1.653-1.653H14.6a1.649,1.649,0,0,1,1.168.485,1.622,1.622,0,0,1,.315.441H19.03a5.418,5.418,0,0,1,2-2.19,7.98,7.98,0,0,1,2.6-1.069V.726A.728.728,0,0,1,24.358,0h5.974a.725.725,0,1,1,0,1.45H25.082v8.1H38.869V1.45H33.618a.725.725,0,1,1,0-1.45H39.6a.725.725,0,0,1,.723.726v3.3h6.9A.728.728,0,0,1,47.8,5.18L45.016,9.524l2.806,4.385a.725.725,0,0,1-.608,1.115H31.977a.725.725,0,0,1-.726-.723V11H25.082v4.678a1.917,1.917,0,0,1,1.834,1.913,1.991,1.991,0,0,1-.058.466h.732A1.942,1.942,0,0,1,29.535,20v6a1.926,1.926,0,0,1-.326,1.074c.255.129.512.252.762.389a1.438,1.438,0,0,0,.748.1H33.41a1.708,1.708,0,0,1,.318-.444,1.654,1.654,0,0,1,1.167-.485H47.85a1.656,1.656,0,0,1,1.65,1.652v6.3a1.656,1.656,0,0,1-1.65,1.653H43.016a.725.725,0,1,1,0-1.45H47.85a.205.205,0,0,0,.2-.2v-6.3a.2.2,0,0,0-.2-.2H34.9a.2.2,0,0,0-.2.2v6.3a.2.2,0,0,0,.2.2H39.73a.725.725,0,1,1,0,1.45H34.9a1.653,1.653,0,0,1-1.167-.485,1.684,1.684,0,0,1-.315-.441H31.958a1.507,1.507,0,0,0-.943.137,7.019,7.019,0,0,1-1.647.669,1.785,1.785,0,0,1,.167.754v6a1.946,1.946,0,0,1-1.946,1.946H25.082v3.957a.725.725,0,0,1-1.45,0V44.819H22.149a7.91,7.91,0,0,1-1.875-.225,7.2,7.2,0,0,1-1.713-.66,1.935,1.935,0,0,0-1.225-.181h-1.25a1.623,1.623,0,0,1-.315.441,1.649,1.649,0,0,1-1.168.485H9.77a.725.725,0,0,1,0-1.45H14.6a.206.206,0,0,0,.2-.2v-6.3a.206.206,0,0,0-.2-.2H1.653a.206.206,0,0,0-.2.2v6.3a.206.206,0,0,0,.2.2H6.487ZM25,19.5A.725.725,0,1,1,25,18.055a.458.458,0,0,0,.323-.134.471.471,0,0,0,.134-.329c0-.343-.266-.48-.578-.455a6.7,6.7,0,0,0-3.061,1.006A3.691,3.691,0,0,0,20.239,20a.726.726,0,0,1-.71.573H16.257V25.43h.967a5.706,5.706,0,0,1,1.137.055,4.064,4.064,0,0,1,.852.312,7.655,7.655,0,0,0,1.685.578,6.575,6.575,0,0,0,1.25.118h5.44a.493.493,0,0,0,.351-.145A.5.5,0,0,0,28.085,26V20a.493.493,0,0,0-.145-.348.5.5,0,0,0-.351-.148H25Zm2.354,15.427a6.529,6.529,0,0,0,1.565-.189c.814-.206,1.4-.688,1.981-.836a2.609,2.609,0,0,1,.671-.041h1.674V29.006H30.719c-.929,0-.954-.011-1.439-.274-.266-.145-.534-.271-.806-.408a2.691,2.691,0,0,0-1.5-.381H21.911a.5.5,0,0,0-.348.145.493.493,0,0,0-.145.351v6a.5.5,0,0,0,.493.5Zm0,1.45H22.522a2.612,2.612,0,0,0-1.433.356c-.282.14-.562.263-.836.419a2.036,2.036,0,0,1-1.395.291h-2.6V42.3l1.74,0a2.04,2.04,0,0,1,.54.036c.578.131,1.283.655,2.083.852a6.372,6.372,0,0,0,1.529.181h5.44a.5.5,0,0,0,.5-.5v-6a.447.447,0,0,0-.159-.318A.705.705,0,0,0,27.354,36.381ZM32.7,11v2.573h13.19L43.556,9.926a.722.722,0,0,1-.008-.792l2.343-3.659H40.319v4.8A.725.725,0,0,1,39.6,11H32.7Z"/></g><g transform="translate(430 5051.333)"><g transform="translate(1.608 1.608)"><g transform="translate(0 1.215)"><path d="M26.3,34.376v2.43a2.429,2.429,0,0,1-2.43,2.43H4.43A2.429,2.429,0,0,1,2,36.806V6.43A2.429,2.429,0,0,1,4.43,4H9.29V6.43H5.038a.609.609,0,0,0-.608.608V36.2a.609.609,0,0,0,.608.608H23.263a.609.609,0,0,0,.608-.608V34.376Z" transform="translate(-2 -4)" fill="#ffeaa7"/></g><g transform="translate(21.871 11.64)"><path d="M40.43,21.166V36.251H38V21.67a6,6,0,0,0,2.43-.51Z" transform="translate(-38 -21.16)" fill="#ffeaa7"/></g><g transform="translate(2.43 3.645)"><path d="M21.759,15.26a6.057,6.057,0,0,1-2.394-4.83,6.212,6.212,0,0,1,.122-1.221.814.814,0,0,1-.122.006h-7.29A1.219,1.219,0,0,1,10.86,8H6.608A.609.609,0,0,0,6,8.608V37.769a.609.609,0,0,0,.608.608H24.833a.609.609,0,0,0,.608-.608V16.505A6.02,6.02,0,0,1,21.759,15.26Z" transform="translate(-6 -8)" fill="#f0d0b4"/></g><g transform="translate(13.366 26.731)"><path d="M28.86,48.43v2.43l-4.289-1.61a.874.874,0,0,1,0-1.64L28.86,46Z" transform="translate(-24 -46)" fill="#aab2bd"/></g><g transform="translate(31.591 26.731)"><path d="M58.149,46.711A2.431,2.431,0,0,1,56.43,50.86H54V46h2.43A2.445,2.445,0,0,1,58.149,46.711Z" transform="translate(-54 -46)" fill="#aab2bd"/></g><g transform="translate(18.226 29.161)"><path d="M45.366,50v2.43H32V50Z" transform="translate(-32 -50)" fill="#4fc1e9"/></g><g transform="translate(18.226 26.731)"><path d="M45.366,46v2.43H32V46H45.366Z" transform="translate(-32 -46)" fill="#b4dd7f"/></g><g transform="translate(4.86 11.543)"><path d="M21.713,22.488a7.3,7.3,0,1,0,2.868,5.8A7.263,7.263,0,0,0,21.713,22.488Z" transform="translate(-10 -21)" fill="#e6e9ed"/></g><g transform="translate(13.366 16.403)"><path d="M24,29h2.43v6.075H24Z" transform="translate(-24 -29)" fill="#fcd770"/></g><g transform="translate(10.935 15.188)"><path d="M22.43,28.215V34.29H20V27h2.43Z" transform="translate(-20 -27)" fill="#fcd770"/></g><g transform="translate(8.505 18.833)"><path d="M16,33h2.43v3.645H16Z" transform="translate(-16 -33)" fill="#fcd770"/></g><g transform="translate(7.29)"><path d="M23.72,3.215V4.43a6.032,6.032,0,0,0-1.094,2.424.814.814,0,0,1-.122.006h-7.29A1.219,1.219,0,0,1,14,5.645V3.215A1.219,1.219,0,0,1,15.215,2h7.29A1.219,1.219,0,0,1,23.72,3.215Z" transform="translate(-14 -2)" fill="#b4dd7f"/></g><g transform="translate(30.984 6.075)"><path d="M56.645,12l1.215,2.43H54.215L53,12h3.645Z" transform="translate(-53 -12)" fill="#cf9e76"/></g><g transform="translate(30.984 3.645)"><path d="M57.86,8l-1.215,2.43H53L54.215,8Z" transform="translate(-53 -8)" fill="#cf9e76"/></g><g transform="translate(15.796 0)"><path d="M40.15,8.075a6.044,6.044,0,0,1-3.645,5.565A6.075,6.075,0,0,1,28,8.075a6.212,6.212,0,0,1,.122-1.221A6.077,6.077,0,0,1,40.15,8.075Z" transform="translate(-28 -2)" fill="#e6e9ed"/></g><g transform="translate(19.63 3.624)"><circle cx="2.5" cy="2.5" r="2.5" transform="translate(-0.237 0.435)" fill="#ff826e"/></g><g transform="translate(26.731 13.366)"><path d="M50.86,24a4.854,4.854,0,1,1-3.038,1.063A4.859,4.859,0,0,1,50.86,24Z" transform="translate(-46 -24)" fill="#e6e9ed"/></g><g transform="translate(29.161 15.796)"><path d="M54.319,29.549a.988.988,0,0,1,0,1.762l-2.9,1.446A.983.983,0,0,1,50,31.876V28.984a.983.983,0,0,1,1.422-.881Z" transform="translate(-50 -28)" fill="#ff826e"/></g></g><g transform="translate(1 1)"><path d="M35.629,27.731H26.516v-14.1a6.663,6.663,0,0,0,.642-.372l2.173,2.716a5.546,5.546,0,1,0,.952-.756l-2.178-2.722a6.662,6.662,0,0,0,2.025-4.2h2.085l1.215,2.43h5L36.916,7.683l1.519-3.038h-5l-1.215,2.43H30.131A6.674,6.674,0,0,0,19.2,2.556,1.82,1.82,0,0,0,17.4,1h-7.29A1.82,1.82,0,0,0,8.4,2.215H4.038A3.041,3.041,0,0,0,1,5.253V35.629a3.041,3.041,0,0,0,3.038,3.038H23.478a3.041,3.041,0,0,0,3.038-3.038V33.806h9.113a3.038,3.038,0,1,0,0-6.075Zm1.823-7.9A4.253,4.253,0,1,1,33.2,15.581,4.258,4.258,0,0,1,37.451,19.833ZM34.182,9.505,33.574,8.29h2.287l.608,1.215Zm0-3.645h2.287l-.608,1.215H33.574ZM8.4,5.86a1.82,1.82,0,0,0,1.711,1.215h6.714c-.018.2-.031.4-.031.608A6.659,6.659,0,0,0,18.969,12.6l-.926,1.216a7.969,7.969,0,1,0,.964.739l.928-1.217a6.627,6.627,0,0,0,2.937,1v13.4H19.723l-4.394,1.648a1.484,1.484,0,0,0,0,2.779l4.394,1.648h3.148v1.215H4.645V5.86ZM16.8,23.478H15.581v-4.86H16.8Zm-2.43,0H13.15V17.4h1.215Zm-2.43,0H10.72v-2.43h1.215Zm6.974,1.215a6.675,6.675,0,0,1-10.3,0Zm.794-1.215H18.011V17.4h-2.43V16.188H11.935v3.645H9.505v3.645H7.813a6.683,6.683,0,1,1,11.89,0Zm-3.948,7.543a.27.27,0,0,1,0-.5l3.47-1.3v3.107Zm4.685,1.57V31.376h12.15v1.215Zm12.15-2.43H20.441V28.946h12.15Zm-7.29-2.43H24.086v-13.4a6.574,6.574,0,0,0,1.215-.228ZM23.478,2.215a5.474,5.474,0,0,1,5.432,4.86H26.455a3.038,3.038,0,1,0,0,1.215H28.91a5.467,5.467,0,1,1-5.432-6.075ZM25.189,8.29a1.823,1.823,0,1,1,0-1.215H22.871V8.29ZM9.505,2.823a.608.608,0,0,1,.608-.608H17.4a.608.608,0,0,1,.608.608v1.03a6.645,6.645,0,0,0-.955,2l-6.943,0a.608.608,0,0,1-.608-.608ZM25.3,35.629a1.825,1.825,0,0,1-1.823,1.823H4.038a1.825,1.825,0,0,1-1.823-1.823V5.253A1.825,1.825,0,0,1,4.038,3.43H8.29V4.645H4.645A1.216,1.216,0,0,0,3.43,5.86V35.021a1.216,1.216,0,0,0,1.215,1.215H22.871a1.216,1.216,0,0,0,1.215-1.215V33.806H25.3Zm10.328-3.038H33.806V28.946h1.823a1.823,1.823,0,0,1,0,3.645Z" transform="translate(-1 -1)"/><path d="M49,31.485a1.591,1.591,0,0,0,2.3,1.423L54.2,31.46a1.591,1.591,0,0,0,0-2.846L51.3,27.168A1.591,1.591,0,0,0,49,28.59Zm1.215-2.894a.376.376,0,0,1,.375-.375.372.372,0,0,1,.168.039L53.652,29.7a.376.376,0,0,1,0,.672l-2.894,1.447a.386.386,0,0,1-.543-.336Z" transform="translate(-19.839 -11.204)"/><path d="M9,49h7.29v1.215H9Z" transform="translate(-4.14 -19.839)"/><path d="M9,53h7.29v1.215H9Z" transform="translate(-4.14 -21.409)"/><path d="M9,13h1.215v1.215H9Z" transform="translate(-4.14 -5.71)"/><path d="M13,13h7.29v1.215H13Z" transform="translate(-5.71 -5.71)"/><path d="M9,17h1.215v1.215H9Z" transform="translate(-4.14 -7.28)"/><path d="M13,17h7.29v1.215H13Z" transform="translate(-5.71 -7.28)"/></g></g><g transform="translate(897 5052)"><g transform="translate(0 0)"><g transform="translate(0.643 0.643)"><path d="M24.433,19.181V7.929A1.929,1.929,0,0,0,22.5,6H1.929A1.929,1.929,0,0,0,0,7.929v27a1.929,1.929,0,0,0,1.929,1.929h22.5Z" transform="translate(0 -2.142)" fill="sienna"/><path d="M33.929,6H32a1.929,1.929,0,0,1,1.929,1.929V36.862h1.929V7.929A1.929,1.929,0,0,0,33.929,6Z" transform="translate(-11.425 -2.142)" fill="#783e22"/><path d="M23.289,21.663V10.643A.643.643,0,0,0,22.646,10h-18A.643.643,0,0,0,4,10.643V35.075a.643.643,0,0,0,.643.643H23.289Z" transform="translate(-1.428 -3.57)" fill="#ffe0b2"/><path d="M31.929,10H30a.643.643,0,0,1,.643.643V35.718h1.929V10.643A.643.643,0,0,0,31.929,10Z" transform="translate(-10.711 -3.57)" fill="#dfc49c"/><path d="M8,5.144V6.43a.643.643,0,0,0,.643.643H21.5a.643.643,0,0,0,.643-.643V5.144a1.929,1.929,0,0,0-1.929-1.929H17.644V2.572a2.572,2.572,0,1,0-5.144,0v.643H9.929A1.929,1.929,0,0,0,8,5.144Z" transform="translate(-2.856)" fill="#ffdc00"/><path d="M25.929,5H24a1.929,1.929,0,0,1,1.929,1.929V8.215a.643.643,0,0,1-.643.643h1.929a.643.643,0,0,0,.643-.643V6.929A1.929,1.929,0,0,0,25.929,5Z" transform="translate(-8.569 -1.785)" fill="#fec108"/><path d="M19.107,2.572v.643h1.929V2.572A2.563,2.563,0,0,0,17.5.194a2.572,2.572,0,0,1,1.607,2.379Z" transform="translate(-6.248 -0.001)" fill="#fec108"/><circle cx="9.905" cy="9.905" r="9.905" transform="translate(17.082 17.073)" fill="#f44335"/><path d="M41.464,26c-.325,0-.647.019-.964.049a10.284,10.284,0,0,1,0,20.477c.318.03.639.049.964.049a10.287,10.287,0,1,0,0-20.575Z" transform="translate(-14.46 -9.283)" fill="#c81e1e"/><circle cx="7.82" cy="7.82" r="7.82" transform="translate(19.167 19.159)" fill="#f5f5f5"/><path d="M41.464,30a7.7,7.7,0,0,0-.964.064,7.708,7.708,0,0,1,0,15.3A7.716,7.716,0,1,0,41.464,30Z" transform="translate(-14.46 -10.711)" fill="#cfd8dc"/><circle cx="4.692" cy="4.692" r="4.692" transform="translate(22.295 22.286)" fill="#f44335"/><path d="M41.464,34a5.131,5.131,0,0,0-.964.094,5.144,5.144,0,0,1,0,10.1A5.144,5.144,0,1,0,41.464,34Z" transform="translate(-14.46 -12.139)" fill="#c81e1e"/><circle cx="2.607" cy="2.607" r="2.607" transform="translate(24.38 24.372)" fill="#607d8b"/><path d="M41.464,38a2.549,2.549,0,0,0-.964.193,2.566,2.566,0,0,1,0,4.758A2.572,2.572,0,1,0,41.464,38Z" transform="translate(-14.46 -13.567)" fill="#37474f"/></g><ellipse cx="0.521" cy="1.043" rx="0.521" ry="1.043" transform="translate(12.512 2.077)"/><path d="M38.389,16.905a.643.643,0,0,0-.909,0l-.233.233a.64.64,0,0,0-1.241.222v1.02L34.9,19.489A10.772,10.772,0,0,0,25.718,16.9V6.43a2.572,2.572,0,0,0-2.572-2.572h-3.46A2.55,2.55,0,0,0,18,3.215H16.074a3.215,3.215,0,1,0-6.43,0H7.716a2.55,2.55,0,0,0-1.683.643H2.572A2.572,2.572,0,0,0,0,6.43v27a2.572,2.572,0,0,0,2.572,2.572H20.618c.221.186.45.359.688.527L20.663,37.6a.643.643,0,1,0,1.1.66l.621-1.039a10.9,10.9,0,0,0,10.514,0l.621,1.039a.643.643,0,0,0,1.1-.66l-.643-1.072A10.883,10.883,0,0,0,35.8,20.4l1.114-1.109h1.02a.643.643,0,0,0,.222-1.242l.233-.233a.643.643,0,0,0,0-.909ZM24.433,6.43V17.2a10.738,10.738,0,0,0-1.286.5V7.716A1.286,1.286,0,0,0,21.861,6.43H20.575V5.787a2.533,2.533,0,0,0-.091-.643h2.663A1.286,1.286,0,0,1,24.433,6.43Zm-18-.643A1.286,1.286,0,0,1,7.716,4.5H9.644v.643a.643.643,0,1,0,1.286,0V3.215a1.929,1.929,0,1,1,3.858,0V5.144a.643.643,0,0,0,1.286,0V4.5H18a1.286,1.286,0,0,1,1.286,1.286V7.073H6.43ZM19.289,8.358A1.281,1.281,0,0,0,20.4,7.716h1.465V18.389A10.876,10.876,0,0,0,17.7,32.148H3.858V7.716H5.322a1.281,1.281,0,0,0,1.107.643Zm-18,25.075v-27A1.286,1.286,0,0,1,2.572,5.144H5.235a2.533,2.533,0,0,0-.091.643V6.43H3.858A1.286,1.286,0,0,0,2.572,7.716V32.148a1.286,1.286,0,0,0,1.286,1.286H18.389a10.922,10.922,0,0,0,.937,1.286H2.572A1.286,1.286,0,0,1,1.286,33.434Zm36.006-5.787a9.678,9.678,0,1,1-3.3-7.249l-.909.909a8.384,8.384,0,1,0,.909.909l.909-.909a9.594,9.594,0,0,1,2.4,6.34Zm-5.144,0a4.519,4.519,0,1,1-1.811-3.6l-.92.92a3.224,3.224,0,1,0,.909.909l.921-.919a4.471,4.471,0,0,1,.9,2.69Zm-2.572,0a1.929,1.929,0,1,1-1.929-1.929,1.9,1.9,0,0,1,.826.193l-1.281,1.281a.643.643,0,1,0,.909.909l1.281-1.28A1.9,1.9,0,0,1,29.576,27.647Zm1.679-4.517a5.8,5.8,0,1,0,.909.909l.915-.915a7.084,7.084,0,1,1-.909-.909Z" transform="translate(0 0)"/><path d="M9.836,19.028a.643.643,0,0,0,.455.188h.064a.643.643,0,0,0,.471-.283L12.112,17a.643.643,0,0,0-1.07-.714l-.851,1.277-.089-.089a.643.643,0,0,0-.909.909Z" transform="translate(-3.218 -5.714)"/><path d="M16.643,19.286H25A.643.643,0,1,0,25,18H16.643a.643.643,0,1,0,0,1.286Z" transform="translate(-5.713 -6.427)"/><path d="M9.836,27.028a.643.643,0,0,0,.455.188h.064a.643.643,0,0,0,.471-.283L12.112,25a.643.643,0,1,0-1.07-.714l-.851,1.277-.089-.089a.643.643,0,0,0-.909.909Z" transform="translate(-3.218 -8.571)"/><path d="M16.643,27.286H25A.643.643,0,1,0,25,26H16.643a.643.643,0,1,0,0,1.286Z" transform="translate(-5.713 -9.283)"/><path d="M16.643,43.286H20.5A.643.643,0,1,0,20.5,42H16.643a.643.643,0,1,0,0,1.286Z" transform="translate(-5.713 -14.996)"/><path d="M9.836,35.026a.643.643,0,0,0,.455.188.439.439,0,0,0,.064,0,.643.643,0,0,0,.471-.283L12.112,33a.643.643,0,0,0-1.07-.714l-.851,1.277-.089-.089a.643.643,0,0,0-.909.909Z" transform="translate(-3.218 -11.425)"/><path d="M9.836,43.026a.643.643,0,0,0,.455.188.439.439,0,0,0,.064,0,.643.643,0,0,0,.471-.283L12.112,41a.643.643,0,0,0-1.07-.714l-.851,1.277-.089-.089a.643.643,0,0,0-.909.909Z" transform="translate(-3.218 -14.281)"/><path d="M16.643,35.286h4.932a.643.643,0,1,0,0-1.286H16.643a.643.643,0,1,0,0,1.286Z" transform="translate(-5.713 -12.139)"/></g></g><g transform="translate(664 5047.19)"><path d="M41.286,456.45H33.023v-2.915A1.535,1.535,0,0,1,34.559,452h5.192a1.535,1.535,0,0,1,1.535,1.535Zm0,0" transform="translate(-30.224 -413.684)" fill="#a7c7d3"/><path d="M138.759,415.3H130.5V408.57a1.535,1.535,0,0,1,1.535-1.535h5.192a1.535,1.535,0,0,1,1.535,1.535Zm0,0" transform="translate(-119.434 -372.531)" fill="#89b4c9"/><path d="M236.235,371.087h-8.263V360.266a1.535,1.535,0,0,1,1.535-1.535H234.7a1.536,1.536,0,0,1,1.535,1.535Zm0,0" transform="translate(-208.647 -328.321)" fill="#6c96b3"/><path d="M333.712,304.028h-8.263V287a1.535,1.535,0,0,1,1.535-1.535h5.192A1.535,1.535,0,0,1,333.712,287Zm0,0" transform="translate(-297.861 -261.262)" fill="#618aaa"/><path d="M351.906,24.1h8.311a.279.279,0,0,0,.184-.489l-2.159-1.9a.28.28,0,0,1,0-.419l2.159-1.9a.279.279,0,0,0-.184-.489h-8.311Zm0,0" transform="translate(-322.075 -17.3)" fill="#fdb659"/><path d="M229.109,108.93l-9,4.889c-.8.436-1.023,1.2-1.3,2.191l-1.79,6.331,4.387-1.8,1.7-5.148,4.531-2.753A3.316,3.316,0,0,0,229.109,108.93Zm0,0" transform="translate(-198.616 -99.696)" fill="#83d9ff"/><path d="M229.109,108.93l-1.039.564a3.315,3.315,0,0,1-1.532,2.2L222.41,114.2a1.281,1.281,0,0,0-.551.692l-.589,1.782a6.682,6.682,0,0,1-3.81,4.084l-.448,1.583,4.388-1.8,1.7-5.147,4.531-2.753a3.316,3.316,0,0,0,1.476-3.713Zm0,0" transform="translate(-198.616 -99.696)" fill="#5fc9ed"/><path d="M221.4,245.926l2.593,3.064c.429.569.8.969.726,1.595l-.607,4.9H222.53l-.414-4.214a.7.7,0,0,0-.422-.577l-4.682-2.971Zm0,0" transform="translate(-198.616 -225.079)" fill="#38627c"/><path d="M180.825,247.724l-.253,4.645a2.041,2.041,0,0,1-.113.932l-2.986,6.282h1.679l4.489-5.963a2.427,2.427,0,0,0,.381-1.1l1.19-6.592Zm0,0" transform="translate(-162.429 -225.079)" fill="#4f7693"/><path d="M230.783,112.681l.736,1.437a1.374,1.374,0,0,1-.6,1.85l-.569.291a1.374,1.374,0,0,1-1.849-.6l-.736-1.437a1.374,1.374,0,0,1,.6-1.85l.569-.291A1.374,1.374,0,0,1,230.783,112.681Zm0,0" transform="translate(-208.322 -102.444)" fill="#fecbaa"/><path d="M38.747,5.835,36.892,4.2l1.855-1.633a.916.916,0,0,0-.6-1.6H30.467V.636a.636.636,0,1,0-1.272,0V9.215l-5.224,2.837a2.013,2.013,0,0,0-.207-.668l-.736-1.437a2.012,2.012,0,0,0-2.705-.873l-.569.291a2.01,2.01,0,0,0-.873,2.706l.736,1.437a2,2,0,0,0,.725.787,5.572,5.572,0,0,0-.767,1.845l-.137.485a.636.636,0,0,0,.439.785.626.626,0,0,0,.173.024.637.637,0,0,0,.612-.463l.137-.484c.279-.983.45-1.51,1-1.806l.977-.531.121-.062c.04-.021.077-.044.116-.067l6.964-3.782A2.692,2.692,0,0,1,28.687,12.4l-4.529,2.752-.016.009-1.41.856a.636.636,0,0,0,.608,1.116l-1.07,3.233-.782.321-2.126.871.613-2.166a.636.636,0,0,0-1.225-.346l-.968,3.423a.61.61,0,0,0-.023.138l-.253,4.653a2.129,2.129,0,0,1-.052.686l-2.813,5.919H12.6a2.174,2.174,0,0,0-2.172,2.172v1.836a2.155,2.155,0,0,0-.9-.2H4.335a2.174,2.174,0,0,0-2.172,2.172V42.13H.636a.636.636,0,1,0,0,1.272H38.141a.636.636,0,0,0,0-1.272H36.487v-16.4a2.174,2.174,0,0,0-2.172-2.172H30.467v-11.1a3.967,3.967,0,0,0,.639-3.4.636.636,0,0,0-.639-.467V7.437h7.675a.916.916,0,0,0,.605-1.6Zm-18.78,5.093a.733.733,0,0,1,.366-.43l.569-.291a.738.738,0,0,1,.993.32l.736,1.437a.739.739,0,0,1-.245.948l-.207.112-.437.224a.739.739,0,0,1-.993-.321l-.736-1.437a.733.733,0,0,1-.045-.563ZM18.689,34.064a2.159,2.159,0,0,0-.7-.186l.7-.928Zm3.02-5.126a2.4,2.4,0,0,0,.459-1.14c.017-.082.331-1.8.331-1.8s.3.185.328.2a.068.068,0,0,1,.039.056l.346,3.518H21.081Zm3.762-3.511-.537,4.343h-.443l-.358-3.639a1.34,1.34,0,0,0-.749-1.076l-.64-.406.426-2.362s1.8,2.133,1.837,2.187c.372.483.5.677.464.952ZM18.6,28.506a3.449,3.449,0,0,0,.178-1.181l.231-4.244,2.942-1.206-.535,2.962c0,.008,0,.016,0,.024l-.442,2.449a2.423,2.423,0,0,1-.266.847l-4.3,5.709h-.354ZM3.435,39.851a.9.9,0,0,1,.9-.9H9.527a.9.9,0,0,1,.9.9V42.13H3.435Zm8.263,0V36.04a.9.9,0,0,1,.9-.9H17.79a.9.9,0,0,1,.9.9v6.09H11.7V39.851ZM35.215,25.734v16.4H28.224V38.316a.636.636,0,0,0-1.273,0V42.13H19.961V31.945a.9.9,0,0,1,.9-.9h5.192a.9.9,0,0,1,.9.9v3.189a.636.636,0,1,0,1.272,0v-9.4a.9.9,0,0,1,.9-.9h5.191a.9.9,0,0,1,.9.9Zm-6.091-2.172a2.174,2.174,0,0,0-2.172,2.172v4.235a2.153,2.153,0,0,0-.737-.189l.519-4.2a2.457,2.457,0,0,0-.719-1.884c-.043-.056-2.515-2.991-2.515-2.991l1.517-4.586,4.178-2.538v9.979Zm1.343-17.4V2.238H37.2L35.747,3.515a.915.915,0,0,0,0,1.374L37.2,6.165h-6.73Zm0,0"/></g><g transform="translate(425 4952)" fill="#f1cc4b"><path d="M 25 46.5 C 22.09597969055176 46.5 19.28067970275879 45.93202972412109 16.63229942321777 44.81185913085938 C 14.07252025604248 43.72916030883789 11.77285957336426 42.17845153808594 9.797200202941895 40.20280075073242 C 7.821549892425537 38.22713851928711 6.270840167999268 35.9274787902832 5.188139915466309 33.36769866943359 C 4.067969799041748 30.71932029724121 3.5 27.90402030944824 3.5 25 C 3.5 22.09597969055176 4.067969799041748 19.28067970275879 5.188139915466309 16.63229942321777 C 6.270840167999268 14.07252025604248 7.821549892425537 11.77285957336426 9.797200202941895 9.797200202941895 C 11.77285957336426 7.821549892425537 14.07252025604248 6.270840167999268 16.63229942321777 5.188139915466309 C 19.28067970275879 4.067969799041748 22.09597969055176 3.5 25 3.5 C 27.90402030944824 3.5 30.71932029724121 4.067969799041748 33.36769866943359 5.188139915466309 C 35.9274787902832 6.270840167999268 38.22713851928711 7.821549892425537 40.20280075073242 9.797200202941895 C 42.17845153808594 11.77285957336426 43.72916030883789 14.07252025604248 44.81185913085938 16.63229942321777 C 45.93202972412109 19.28067970275879 46.5 22.09597969055176 46.5 25 C 46.5 27.90402030944824 45.93202972412109 30.71932029724121 44.81185913085938 33.36769866943359 C 43.72916030883789 35.9274787902832 42.17845153808594 38.22713851928711 40.20280075073242 40.20280075073242 C 38.22713851928711 42.17845153808594 35.9274787902832 43.72916030883789 33.36769866943359 44.81185913085938 C 30.71932029724121 45.93202972412109 27.90402030944824 46.5 25 46.5 Z" stroke="none"/><path d="M 25 7 C 15.07476043701172 7 7 15.07476043701172 7 25 C 7 34.92523956298828 15.07476043701172 43 25 43 C 34.92523956298828 43 43 34.92523956298828 43 25 C 43 15.07476043701172 34.92523956298828 7 25 7 M 25 0 C 38.80712127685547 0 50 11.19287872314453 50 25 C 50 38.80712127685547 38.80712127685547 50 25 50 C 11.19287872314453 50 0 38.80712127685547 0 25 C 0 11.19287872314453 11.19287872314453 0 25 0 Z" stroke="none" fill="#ffe88a"/></g><g transform="translate(655 5176)" fill="#adc46c"><path d="M 25 46.5 C 22.09597969055176 46.5 19.28067970275879 45.93202972412109 16.63229942321777 44.81185913085938 C 14.07252025604248 43.72916030883789 11.77285957336426 42.17845153808594 9.797200202941895 40.20280075073242 C 7.821549892425537 38.22713851928711 6.270840167999268 35.9274787902832 5.188139915466309 33.36769866943359 C 4.067969799041748 30.71932029724121 3.5 27.90402030944824 3.5 25 C 3.5 22.09597969055176 4.067969799041748 19.28067970275879 5.188139915466309 16.63229942321777 C 6.270840167999268 14.07252025604248 7.821549892425537 11.77285957336426 9.797200202941895 9.797200202941895 C 11.77285957336426 7.821549892425537 14.07252025604248 6.270840167999268 16.63229942321777 5.188139915466309 C 19.28067970275879 4.067969799041748 22.09597969055176 3.5 25 3.5 C 27.90402030944824 3.5 30.71932029724121 4.067969799041748 33.36769866943359 5.188139915466309 C 35.9274787902832 6.270840167999268 38.22713851928711 7.821549892425537 40.20280075073242 9.797200202941895 C 42.17845153808594 11.77285957336426 43.72916030883789 14.07252025604248 44.81185913085938 16.63229942321777 C 45.93202972412109 19.28067970275879 46.5 22.09597969055176 46.5 25 C 46.5 27.90402030944824 45.93202972412109 30.71932029724121 44.81185913085938 33.36769866943359 C 43.72916030883789 35.9274787902832 42.17845153808594 38.22713851928711 40.20280075073242 40.20280075073242 C 38.22713851928711 42.17845153808594 35.9274787902832 43.72916030883789 33.36769866943359 44.81185913085938 C 30.71932029724121 45.93202972412109 27.90402030944824 46.5 25 46.5 Z" stroke="none"/><path d="M 25 7 C 15.07476043701172 7 7 15.07476043701172 7 25 C 7 34.92523956298828 15.07476043701172 43 25 43 C 34.92523956298828 43 43 34.92523956298828 43 25 C 43 15.07476043701172 34.92523956298828 7 25 7 M 25 0 C 38.80712127685547 0 50 11.19287872314453 50 25 C 50 38.80712127685547 38.80712127685547 50 25 50 C 11.19287872314453 50 0 38.80712127685547 0 25 C 0 11.19287872314453 11.19287872314453 0 25 0 Z" stroke="none" fill="#c1d28e"/></g><g transform="translate(891 4952)" fill="#0540b7"><path d="M 25 46.5 C 22.09597969055176 46.5 19.28067970275879 45.93202972412109 16.63229942321777 44.81185913085938 C 14.07252025604248 43.72916030883789 11.77285957336426 42.17845153808594 9.797200202941895 40.20280075073242 C 7.821549892425537 38.22713851928711 6.270840167999268 35.9274787902832 5.188139915466309 33.36769866943359 C 4.067969799041748 30.71932029724121 3.5 27.90402030944824 3.5 25 C 3.5 22.09597969055176 4.067969799041748 19.28067970275879 5.188139915466309 16.63229942321777 C 6.270840167999268 14.07252025604248 7.821549892425537 11.77285957336426 9.797200202941895 9.797200202941895 C 11.77285957336426 7.821549892425537 14.07252025604248 6.270840167999268 16.63229942321777 5.188139915466309 C 19.28067970275879 4.067969799041748 22.09597969055176 3.5 25 3.5 C 27.90402030944824 3.5 30.71932029724121 4.067969799041748 33.36769866943359 5.188139915466309 C 35.9274787902832 6.270840167999268 38.22713851928711 7.821549892425537 40.20280075073242 9.797200202941895 C 42.17845153808594 11.77285957336426 43.72916030883789 14.07252025604248 44.81185913085938 16.63229942321777 C 45.93202972412109 19.28067970275879 46.5 22.09597969055176 46.5 25 C 46.5 27.90402030944824 45.93202972412109 30.71932029724121 44.81185913085938 33.36769866943359 C 43.72916030883789 35.9274787902832 42.17845153808594 38.22713851928711 40.20280075073242 40.20280075073242 C 38.22713851928711 42.17845153808594 35.9274787902832 43.72916030883789 33.36769866943359 44.81185913085938 C 30.71932029724121 45.93202972412109 27.90402030944824 46.5 25 46.5 Z" stroke="none"/><path d="M 25 7 C 15.07476043701172 7 7 15.07476043701172 7 25 C 7 34.92523956298828 15.07476043701172 43 25 43 C 34.92523956298828 43 43 34.92523956298828 43 25 C 43 15.07476043701172 34.92523956298828 7 25 7 M 25 0 C 38.80712127685547 0 50 11.19287872314453 50 25 C 50 38.80712127685547 38.80712127685547 50 25 50 C 11.19287872314453 50 0 38.80712127685547 0 25 C 0 11.19287872314453 11.19287872314453 0 25 0 Z" stroke="none" fill="#d9e2f4"/></g><g transform="translate(1117 5176)" fill="#80cab6"><path d="M 25 46.5 C 22.09597969055176 46.5 19.28067970275879 45.93202972412109 16.63229942321777 44.81185913085938 C 14.07252025604248 43.72916030883789 11.77285957336426 42.17845153808594 9.797200202941895 40.20280075073242 C 7.821549892425537 38.22713851928711 6.270840167999268 35.9274787902832 5.188139915466309 33.36769866943359 C 4.067969799041748 30.71932029724121 3.5 27.90402030944824 3.5 25 C 3.5 22.09597969055176 4.067969799041748 19.28067970275879 5.188139915466309 16.63229942321777 C 6.270840167999268 14.07252025604248 7.821549892425537 11.77285957336426 9.797200202941895 9.797200202941895 C 11.77285957336426 7.821549892425537 14.07252025604248 6.270840167999268 16.63229942321777 5.188139915466309 C 19.28067970275879 4.067969799041748 22.09597969055176 3.5 25 3.5 C 27.90402030944824 3.5 30.71932029724121 4.067969799041748 33.36769866943359 5.188139915466309 C 35.9274787902832 6.270840167999268 38.22713851928711 7.821549892425537 40.20280075073242 9.797200202941895 C 42.17845153808594 11.77285957336426 43.72916030883789 14.07252025604248 44.81185913085938 16.63229942321777 C 45.93202972412109 19.28067970275879 46.5 22.09597969055176 46.5 25 C 46.5 27.90402030944824 45.93202972412109 30.71932029724121 44.81185913085938 33.36769866943359 C 43.72916030883789 35.9274787902832 42.17845153808594 38.22713851928711 40.20280075073242 40.20280075073242 C 38.22713851928711 42.17845153808594 35.9274787902832 43.72916030883789 33.36769866943359 44.81185913085938 C 30.71932029724121 45.93202972412109 27.90402030944824 46.5 25 46.5 Z" stroke="none"/><path d="M 25 7 C 15.07476043701172 7 7 15.07476043701172 7 25 C 7 34.92523956298828 15.07476043701172 43 25 43 C 34.92523956298828 43 43 34.92523956298828 43 25 C 43 15.07476043701172 34.92523956298828 7 25 7 M 25 0 C 38.80712127685547 0 50 11.19287872314453 50 25 C 50 38.80712127685547 38.80712127685547 50 25 50 C 11.19287872314453 50 0 38.80712127685547 0 25 C 0 11.19287872314453 11.19287872314453 0 25 0 Z" stroke="none" fill="#ecf7f4"/></g></g></svg>